<?xml version="1.0" encoding="utf-8"?>
<!-- Generator: Adobe Illustrator 16.0.0, SVG Export Plug-In . SVG Version: 6.00 Build 0)  -->
<!DOCTYPE svg PUBLIC "-//W3C//DTD SVG 1.1//EN" "http://www.w3.org/Graphics/SVG/1.1/DTD/svg11.dtd">
<svg version="1.1" id="Layer_1" xmlns="http://www.w3.org/2000/svg" xmlns:xlink="http://www.w3.org/1999/xlink" x="0px" y="0px"
	 width="256px" height="256px" viewBox="0 0 256 256" enable-background="new 0 0 256 256" xml:space="preserve">
<g>
	<path fill-rule="evenodd" clip-rule="evenodd" stroke="#FFFFFF" stroke-width="0.4" stroke-miterlimit="10" d="M44.373,182.144
		c0.547-3.427,0.888-6.882,1.67-10.25c5.581-24.023,19.661-41.126,42.033-51.463c0.465-0.211,0.936-0.413,1.579-0.71
		c-0.394-0.46-0.71-0.845-1.046-1.2c-11.056-11.786-14.79-25.578-9.934-41.001c4.856-15.414,15.769-24.8,31.624-27.872
		c23.111-4.501,45.465,12.515,47.69,35.991c2.14,22.641-13.897,42.268-36.557,44.676c-4.593,0.471-9.31,0.251-13.811,1.114
		c-22.305,4.318-37.128,17.41-44.5,38.89c-0.931,2.726-1.42,5.586-2.188,8.676c0.964,0,1.622,0,2.284,0
		c17.875,0,35.761-0.02,53.641,0.029c5.984,0.009,9.91,5.604,7.735,10.998c-1.2,2.995-3.459,4.693-6.684,5.039
		c-0.807,0.077-1.623,0.067-2.434,0.067c-20.313,0.01-40.622-0.067-60.925,0.066c-5.015,0.039-8.513-1.593-10.179-6.458
		C44.373,186.529,44.373,184.332,44.373,182.144z M92.894,90.083c-0.004,13.427,10.86,24.292,24.249,24.272
		c13.322-0.029,24.128-10.836,24.176-24.177c0.048-13.446-10.764-24.33-24.162-24.339C103.744,65.801,92.908,76.656,92.894,90.083z"
		/>
	<path fill-rule="evenodd" clip-rule="evenodd" fill="#009245" d="M211.908,173.649c-1.007,2.083-2.726,2.802-4.952,2.678
		c-1.382-0.096-2.783,0-4.166-0.01c-1.746-0.029-3.013,0.72-3.704,2.323c-0.729,1.669-0.421,3.166,0.854,4.453
		c1.189,1.19,2.399,2.351,3.551,3.561c1.853,1.938,1.853,3.877-0.009,5.786c-1.497,1.547-3.004,3.063-4.549,4.551
		c-1.882,1.804-3.772,1.804-5.644,0.009c-1.21-1.151-2.381-2.36-3.571-3.542c-1.285-1.275-2.764-1.669-4.453-0.969
		c-1.679,0.711-2.457,2.034-2.466,3.83c-0.021,1.689,0.019,3.35-0.01,5.028c-0.059,2.495-1.393,3.888-3.858,3.944
		c-2.246,0.048-4.501,0.048-6.756,0c-2.448-0.057-3.821-1.43-3.918-3.915c-0.065-1.737-0.018-3.475-0.018-5.202
		c0-1.756-0.787-3.013-2.399-3.686c-1.604-0.652-3.072-0.374-4.319,0.835c-1.248,1.199-2.447,2.477-3.695,3.667
		c-1.862,1.794-3.801,1.804-5.662,0.009c-1.545-1.468-3.062-2.994-4.55-4.53c-1.89-1.947-1.89-3.839-0.028-5.777
		c1.17-1.219,2.38-2.36,3.561-3.57c1.257-1.295,1.564-2.813,0.873-4.463c-0.691-1.622-1.968-2.36-3.704-2.342
		c-1.68,0-3.359,0.029-5.029-0.029c-2.707-0.104-3.992-1.448-4.03-4.155c-0.039-2.131-0.039-4.281,0-6.412
		c0.057-2.609,1.361-3.896,4.001-3.963c1.622-0.029,3.254-0.01,4.866-0.01c1.767-0.009,3.168-0.691,3.888-2.38
		c0.719-1.728,0.364-3.272-0.97-4.588c-1.19-1.181-2.409-2.342-3.561-3.579c-1.719-1.814-1.719-3.705,0.009-5.528
		c1.556-1.633,3.148-3.234,4.779-4.78c1.748-1.65,3.647-1.661,5.413-0.028c1.277,1.17,2.477,2.447,3.705,3.676
		c1.267,1.276,2.726,1.66,4.424,0.969c1.699-0.71,2.447-2.005,2.438-3.819c-0.029-1.689-0.048-3.358,0.009-5.029
		c0.088-2.563,1.498-3.954,4.052-3.983c2.197-0.038,4.405-0.038,6.603,0c2.458,0.038,3.84,1.42,3.906,3.888
		c0.047,1.563,0,3.128,0.01,4.693c0.028,2.342,0.787,3.599,2.534,4.3c1.881,0.748,3.359,0.125,4.683-1.258
		c1.124-1.161,2.266-2.322,3.438-3.426c1.669-1.546,3.626-1.574,5.277-0.021c1.728,1.623,3.418,3.303,5.03,5.03
		c1.554,1.66,1.516,3.58-0.059,5.269c-1.132,1.229-2.341,2.391-3.551,3.562c-1.324,1.305-1.843,2.792-1.113,4.559
		c0.729,1.775,2.121,2.515,3.974,2.523c1.275,0,2.553,0.097,3.818-0.028c2.228-0.221,3.918,0.547,5.049,2.505
		C211.908,167.401,211.908,170.529,211.908,173.649z M175.458,179.926c6.065,0.038,10.979-4.808,11.017-10.835
		c0.02-5.979-4.933-10.979-10.931-10.979c-5.951-0.011-10.837,4.856-10.874,10.807C164.611,174.993,169.411,179.878,175.458,179.926
		z"/>
</g>
</svg>
