<?xml version="1.0" encoding="utf-8"?>
<!-- Generator: Adobe Illustrator 16.0.0, SVG Export Plug-In . SVG Version: 6.00 Build 0)  -->
<!DOCTYPE svg PUBLIC "-//W3C//DTD SVG 1.1//EN" "http://www.w3.org/Graphics/SVG/1.1/DTD/svg11.dtd">
<svg version="1.1" id="Layer_1" xmlns="http://www.w3.org/2000/svg" xmlns:xlink="http://www.w3.org/1999/xlink" x="0px" y="0px"
	 width="256px" height="256px" viewBox="0 0 256 256" enable-background="new 0 0 256 256" xml:space="preserve">
<g>
	<path fill-rule="evenodd" clip-rule="evenodd" d="M26.032,167.508c0-39.199,0-78.425,0-117.63c0.896-1.037,2.042-1.233,3.364-1.233
		c15.103,0.011,30.195-0.022,45.309-0.044c0.524,0.021,1.048,0.076,1.583,0.076c37.49,0,74.97,0,112.448,0
		c0.546,0,1.07-0.055,1.594-0.076c3.976,0.021,7.939,0.055,11.914,0.076c2.829,0,3.277,0.48,3.287,3.363
		c0.022,3.517,0.066,7.012,0.088,10.527c0,13.968-0.012,27.935-0.021,41.913c-2.992-0.011-6.007-0.011-9.01-0.021
		c0.011-11.827,0.011-23.654,0.033-35.47c0.01-2.271,0.032-4.521,0.043-6.771c0-3.059-0.109-3.189-3.102-3.189
		c-27.629,0-55.257,0-82.886,0c-24.375,0-48.76,0.011-73.145,0.022c-2.424,0-2.665,0.218-2.676,2.566
		c-0.011,2.457,0.011,4.914,0.022,7.371c-0.022,0.458-0.055,0.928-0.055,1.387c-0.011,25.412-0.011,50.835-0.011,76.252
		c0,0.262,0.011,0.524,0,0.808c-0.011,1.354,0.655,2.119,2.042,2.119c2.119-0.022,4.237-0.065,6.356-0.109
		c1.856,0,3.713-0.021,5.58-0.021c26.504,0,52.997,0,79.491,0c7.906-0.022,15.801-0.022,23.707-0.044
		c0.022,6.421,0.055,12.843,0.077,19.264c-3.124-0.021-6.235-0.109-9.349-0.065c-3.777,0.044-7.557-0.263-11.335,0.175
		c-7.163-0.022-14.328-0.022-21.491-0.065c-1.114,0-1.748,0.327-1.736,1.572c0.021,4.172,0.011,8.365,0.011,12.536
		c0,0.983,0.437,1.464,1.441,1.442c7.295-0.044,14.59-0.088,21.885-0.132c6.847,0.022,13.694,0.022,20.542,0.044
		c0.01,4.805,0.021,9.61,0.032,14.415c-6.771-0.021-13.542-0.087-20.312-0.087c-17.801,0.021-35.601,0.087-53.391,0.108
		c-2.949,0-3.637-0.677-3.637-3.625c-0.021-2.381-0.021-4.762,0-7.164c0-3.123,0.568-3.713,3.713-3.713
		c6.301,0.044,12.613,0.087,18.925,0.109c2.741,0.021,2.741,0,2.741-2.643c0-3.451,0-6.902,0-10.353c0-2.644,0-2.644-2.577-2.644
		c-16.993,0-33.985,0-50.999,0c-0.787,0-1.573,0.109-2.359,0.153c-4.893-0.394-9.785-0.087-14.677-0.153
		C28.184,168.556,27.048,168.315,26.032,167.508z M121.324,158.881c-0.033-2.796-2.697-5.329-5.581-5.329
		c-3.036,0.021-5.547,2.62-5.482,5.635c0.087,2.708,2.752,5.176,5.591,5.133C118.747,164.297,121.357,161.698,121.324,158.881z"/>
	<path fill-rule="evenodd" clip-rule="evenodd" fill="#333333" d="M227.46,104.437c1.288,0.197,1.966,1.212,2.774,2.064
		c0,32.963,0,65.942,0,98.9c-1.442,1.66-3.31,1.879-5.373,1.856c-11.325-0.043-22.649-0.021-33.984-0.021
		c-0.918,0-1.846,0.109-2.774,0.153c-0.852-0.022-1.704-0.109-2.577-0.109c-9.392,0-18.805,0-28.196,0
		c-0.731,0-1.475,0.021-2.185-0.088c-2.031-0.306-3.047-1.42-3.102-3.473c-0.043-1.703,0.012-3.429,0.022-5.154
		c-0.011-4.805-0.022-9.61-0.032-14.415c0.01-5.176,0.021-10.331,0.032-15.507c-0.022-6.421-0.055-12.843-0.077-19.264
		c-0.01-2.992-0.021-5.963-0.032-8.955c0-8.785,0-17.576,0-26.378c0.011-2.239,0.022-4.478,0.032-6.728
		c0.525-2.184,1.977-2.904,4.129-2.883c5.842,0.022,11.685-0.055,17.527-0.087c7.654,0.032,15.299,0.076,22.943,0.109
		c3.003,0.011,6.018,0.011,9.01,0.021C212.893,104.459,220.176,104.447,227.46,104.437z M158.552,118.196
		c-0.021,0.394-0.065,0.798-0.065,1.201c0,23.954,0,47.936,0,71.917c0,0.327-0.011,0.677,0.021,1.005
		c0.153,1.528,0.896,2.446,2.556,2.402c2.054-0.044,4.106-0.088,6.171-0.109c0.327,0.021,0.654,0.065,0.993,0.065
		c17.319,0,34.65,0,51.981-0.021c2.938,0,3.32-0.372,3.32-3.342c0-13.935,0-27.891,0-41.848c-0.022-10.412-0.045-20.83-0.066-31.271
		c0.033-1.638,0.12-3.298,0.088-4.958c-0.021-2.118-0.634-2.719-2.773-2.719c-19.876-0.011-39.74-0.011-59.604-0.033
		c-1.791,0-2.577,0.929-2.643,2.534C158.453,114.746,158.53,116.471,158.552,118.196z"/>
	<path fill-rule="evenodd" clip-rule="evenodd" fill="#FFFFFF" d="M151.988,107.319c-0.01,2.25-0.021,4.488-0.032,6.728
		c-6.442,0-12.886,0-19.329,0c-2.446,0-2.883,0.437-2.904,2.927c-0.022,6.847-0.022,13.683,0,20.53
		c0.021,2.463,0.469,2.899,2.904,2.921c6.443,0,12.887,0,19.329,0c0.011,2.992,0.022,5.963,0.032,8.955
		c-7.906,0.021-15.801,0.021-23.707,0.044c-26.494,0-52.987,0-79.491,0c-1.867,0-3.724,0.021-5.58,0.021
		c-0.251-1.092-0.459-2.184-0.459-3.342c0.022-25.668,0.011-51.342,0.022-77.027c0.852-0.021,1.726-0.065,2.577-0.065
		c33.351,0,66.702,0,100.054,0c17.079,0,34.137-0.021,51.217-0.021c-0.022,11.815-0.022,23.643-0.033,35.47
		c-7.645-0.033-15.289-0.077-22.943-0.109c0-8.234,0-16.468-0.022-24.702c0-2.151-0.721-2.883-2.817-3.014
		c-0.655-0.044-1.321-0.022-1.987-0.022c-32.937,0-65.894,0.011-98.83,0c-3.124,0-6.257-0.021-9.37-0.032
		c-1.638-0.012-2.752,0.622-2.752,2.413c-0.022,8.703,0,17.407,0,26.1c0,1.376,0.742,2.086,2.064,2.206
		c0.721,0.065,1.452,0.033,2.184,0.033C92.068,107.331,122.034,107.331,151.988,107.319z M77.664,124.159
		c-5.318,0-10.625-0.021-15.955,0.021c-2.402,0.022-3.713,1.114-3.778,2.927c-0.065,1.911,1.267,3.036,3.756,3.178
		c0.262,0.011,0.524,0.011,0.797,0.011c10.102,0,20.203,0,30.304-0.021c0.852,0,1.747-0.044,2.556-0.284
		c1.354-0.393,2.075-1.441,2.031-2.85c-0.021-1.321-0.721-2.305-2.009-2.665c-0.808-0.229-1.704-0.295-2.555-0.306
		C87.766,124.148,82.721,124.159,77.664,124.159z M77.479,120.468c3.254,0,6.509,0,9.763,0c2.38,0,4.783,0.065,7.164-0.044
		c1.834-0.087,3.058-1.463,2.992-3.079c-0.065-1.562-1.267-2.708-3.025-2.861c-0.47-0.044-0.928-0.021-1.387-0.021
		c-10.244,0-20.465,0-30.687,0c-0.677,0-1.354-0.033-1.988,0.109c-2.271,0.502-3.145,3.123-1.66,4.826
		c0.819,0.939,1.911,1.093,3.08,1.081C66.973,120.468,72.226,120.468,77.479,120.468z M77.631,140.01c5.308,0,10.626,0,15.944-0.021
		c2.436,0,3.888-1.196,3.822-3.074c-0.043-1.813-1.419-2.904-3.778-2.916c-4.456-0.021-8.9-0.011-13.345-0.011
		c-6.247,0-12.493-0.011-18.74,0.011c-2.282,0.012-3.669,1.234-3.604,3.069c0.043,1.791,1.354,2.921,3.56,2.921
		C66.864,140.032,72.259,140.01,77.631,140.01z M111.965,130.285c2.665,0,5.318,0.044,7.972-0.011
		c2.49-0.065,3.854-1.256,3.801-3.123c-0.045-1.813-1.377-2.938-3.768-2.971c-5.242-0.043-10.484-0.043-15.715,0
		c-2.402,0.022-3.669,1.158-3.691,3.025c0,1.867,1.245,2.981,3.647,3.058C106.8,130.34,109.388,130.274,111.965,130.285z
		 M112.206,133.987c-2.643,0-5.296-0.011-7.95,0.011c-2.348,0.033-3.669,1.114-3.691,2.96c-0.022,1.867,1.311,3.03,3.647,3.03
		c5.296,0.044,10.593,0.044,15.911,0c2.271,0,3.658-1.239,3.615-3.074c-0.045-1.758-1.377-2.883-3.572-2.904
		C117.513,133.966,114.87,133.987,112.206,133.987z M112.184,120.468c2.643,0,5.296,0.033,7.95,0
		c2.271-0.044,3.647-1.267,3.604-3.09c-0.066-1.759-1.388-2.895-3.582-2.905c-5.308-0.033-10.604-0.033-15.901-0.011
		c-2.358,0.021-3.691,1.136-3.691,2.992s1.333,2.981,3.647,3.014C106.876,120.501,109.519,120.468,112.184,120.468z"/>
	<path fill-rule="evenodd" clip-rule="evenodd" fill="#39B54A" d="M196.621,68.989c-17.08,0-34.138,0.021-51.217,0.021
		c-33.352,0-66.703,0-100.054,0c-0.852,0-1.725,0.044-2.577,0.065c-2.632-0.044-5.264-0.065-7.896-0.087
		c-0.011-2.457-0.033-4.914-0.022-7.371c0.011-2.349,0.251-2.566,2.676-2.566c24.385-0.012,48.771-0.022,73.145-0.022
		c27.629,0,55.257,0,82.886,0c2.992,0,3.102,0.131,3.102,3.189C196.653,64.468,196.631,66.718,196.621,68.989z"/>
	<path fill-rule="evenodd" clip-rule="evenodd" fill="#CCCCCC" d="M34.878,68.989c2.632,0.021,5.264,0.043,7.896,0.087
		c-0.011,25.686,0,51.359-0.022,77.027c0,1.158,0.208,2.25,0.459,3.342c-2.119,0.044-4.237,0.087-6.356,0.109
		c-1.387,0-2.053-0.765-2.042-2.119c0.011-0.283,0-0.546,0-0.808c0-25.417,0-50.84,0.011-76.252
		C34.823,69.917,34.856,69.447,34.878,68.989z"/>
	<path fill-rule="evenodd" clip-rule="evenodd" fill="#333333" d="M131.491,184.106c-7.295,0.044-14.59,0.088-21.885,0.132
		c-1.004,0.021-1.441-0.459-1.441-1.442c0-4.171,0.011-8.364-0.011-12.536c-0.011-1.245,0.623-1.572,1.736-1.572
		c7.164,0.043,14.328,0.043,21.491,0.065C131.426,173.863,131.447,178.996,131.491,184.106z"/>
	<path fill-rule="evenodd" clip-rule="evenodd" fill="#333333" d="M121.324,158.881c0.033,2.817-2.577,5.416-5.471,5.438
		c-2.839,0.043-5.504-2.425-5.591-5.133c-0.065-3.015,2.446-5.613,5.482-5.635C118.627,153.552,121.291,156.085,121.324,158.881z"/>
	<path fill-rule="evenodd" clip-rule="evenodd" fill="#39B54A" d="M151.988,107.319c-29.954,0.012-59.92,0.012-89.875,0.012
		c-0.732,0-1.463,0.032-2.184-0.033c-1.322-0.12-2.064-0.83-2.064-2.206c0-8.692-0.022-17.396,0-26.1
		c0-1.791,1.114-2.425,2.752-2.413c3.112,0.011,6.246,0.032,9.37,0.032c32.936,0.011,65.894,0,98.83,0
		c0.666,0,1.332-0.021,1.987,0.022c2.097,0.131,2.817,0.862,2.817,3.014c0.022,8.234,0.022,16.468,0.022,24.702
		c-5.843,0.032-11.686,0.109-17.527,0.087C153.965,104.415,152.514,105.136,151.988,107.319z"/>
	<path fill-rule="evenodd" clip-rule="evenodd" fill="#FFFFFF" d="M223.463,118.196c0.021,10.44,0.044,20.858,0.066,31.271
		c0,13.957,0,27.913,0,41.848c0,2.97-0.383,3.342-3.32,3.342c-17.331,0.021-34.662,0.021-51.981,0.021
		c-0.339,0-0.666-0.044-0.993-0.065c-0.295-1.026-0.842-1.922-0.842-3.058c0.021-15.267,0.021-30.556,0-45.822
		c0-1.223,0.415-1.791,1.726-1.791c4.237-0.065,8.485-0.306,12.723-0.306c11.084-0.065,22.179-0.021,33.274-0.021
		c2.621,0,3.298-0.678,3.32-3.299c0.032-4.516,0.021-9.036,0-13.558c-0.012-2.872-0.656-3.505-3.518-3.505
		c-14.272-0.011-28.545-0.022-42.829-0.033c-4.696,0-4.696,0-4.675-4.761c0.83-0.328,1.693-0.197,2.557-0.197
		C187.131,118.24,205.303,118.219,223.463,118.196z M191.029,179.521c0,0,0-0.022,0-0.044c-5.318,0-10.637-0.021-15.955,0.021
		c-2.282,0.022-3.068,0.809-3.09,2.949c-0.044,1.528-0.021,3.058-0.021,4.586c0.021,2.927,0.654,3.561,3.658,3.604
		c4.902,0.087,9.807-0.503,14.73-0.394c5.712,0.131,11.424,0.044,17.146,0.044c2.15-0.022,2.686-0.568,2.752-2.73
		c0.043-1.397,0.021-2.796,0.021-4.193c-0.021-3.146-0.678-3.822-3.889-3.822C201.251,179.521,196.141,179.521,191.029,179.521z
		 M191.073,173.164c4.259,0,8.496,0.022,12.755,0c2.533-0.021,3.822-1.092,3.778-3.058c-0.032-1.856-1.354-2.948-3.724-2.948
		c-8.496-0.021-17.004-0.021-25.5,0c-2.445,0-3.854,1.201-3.821,3.102c0.044,1.835,1.376,2.883,3.778,2.904
		C182.588,173.187,186.836,173.164,191.073,173.164z M191.248,148.746c-4.324,0-8.627-0.021-12.952,0
		c-2.392,0.022-3.669,1.093-3.681,2.971c-0.01,1.878,1.301,3.036,3.637,3.036c8.563,0.021,17.123,0.021,25.674,0
		c2.359,0,3.681-1.136,3.681-2.992c0.022-1.9-1.267-2.992-3.626-3.015C199.723,148.725,195.484,148.746,191.248,148.746z
		 M191.117,163.947c4.236,0,8.484,0.022,12.732,0c2.425,0,3.691-1.004,3.757-2.883c0.065-1.943-1.288-3.102-3.757-3.123
		c-8.475-0.021-16.971-0.021-25.467,0c-2.489,0.021-3.821,1.157-3.756,3.123c0.055,1.879,1.311,2.883,3.746,2.883
		C182.621,163.97,186.869,163.947,191.117,163.947z"/>
	<path fill-rule="evenodd" clip-rule="evenodd" fill="#39B54A" d="M166.414,118.459c-0.021,4.761-0.021,4.761,4.675,4.761
		c14.284,0.011,28.557,0.022,42.829,0.033c2.861,0,3.506,0.633,3.518,3.505c0.021,4.521,0.032,9.042,0,13.558
		c-0.022,2.621-0.699,3.299-3.32,3.299c-11.096,0-22.19-0.044-33.274,0.021c-4.237,0-8.485,0.24-12.723,0.306
		c-1.311,0-1.726,0.568-1.726,1.791c0.021,15.267,0.021,30.556,0,45.822c0,1.136,0.547,2.031,0.842,3.058
		c-2.064,0.021-4.117,0.065-6.171,0.109c-1.659,0.044-2.402-0.874-2.556-2.402c-0.032-0.328-0.021-0.678-0.021-1.005
		c0-23.981,0-47.963,0-71.917c0-0.403,0.044-0.808,0.065-1.201C161.15,118.655,163.794,118.186,166.414,118.459z"/>
	<path fill-rule="evenodd" clip-rule="evenodd" fill="#CCCCCC" d="M151.956,140.425c-6.442,0-12.886,0-19.329,0
		c-2.436-0.021-2.883-0.458-2.904-2.921c-0.022-6.848-0.022-13.684,0-20.53c0.021-2.49,0.458-2.927,2.904-2.927
		c6.443,0,12.887,0,19.329,0C151.956,122.849,151.956,131.64,151.956,140.425z"/>
	<path fill-rule="evenodd" clip-rule="evenodd" fill="#39B54A" d="M166.414,118.459c-2.62-0.273-5.264,0.196-7.862-0.263
		c-0.021-1.726-0.099-3.45-0.021-5.176c0.065-1.605,0.852-2.534,2.643-2.534c19.864,0.022,39.729,0.022,59.604,0.033
		c2.14,0,2.752,0.601,2.773,2.719c0.032,1.66-0.055,3.32-0.088,4.958c-18.16,0.022-36.332,0.044-54.492,0.065
		C168.107,118.262,167.244,118.131,166.414,118.459z"/>
	<path fill-rule="evenodd" clip-rule="evenodd" fill="#999999" d="M77.664,124.159c5.057,0,10.102-0.011,15.147,0.011
		c0.852,0.011,1.747,0.076,2.555,0.306c1.289,0.36,1.988,1.344,2.009,2.665c0.044,1.408-0.677,2.457-2.031,2.85
		c-0.809,0.24-1.704,0.284-2.556,0.284c-10.102,0.021-20.203,0.021-30.304,0.021c-0.273,0-0.535,0-0.797-0.011
		c-2.49-0.142-3.822-1.267-3.756-3.178c0.065-1.813,1.376-2.904,3.778-2.927C67.039,124.138,72.346,124.159,77.664,124.159z"/>
	<path fill-rule="evenodd" clip-rule="evenodd" fill="#999999" d="M77.479,120.468c-5.252,0-10.505,0-15.747,0.011
		c-1.168,0.012-2.261-0.142-3.08-1.081c-1.485-1.703-0.612-4.324,1.66-4.826c0.634-0.143,1.311-0.109,1.988-0.109
		c10.222,0,20.443,0,30.687,0c0.458,0,0.917-0.022,1.387,0.021c1.758,0.153,2.959,1.3,3.025,2.861
		c0.065,1.616-1.158,2.992-2.992,3.079c-2.38,0.109-4.783,0.044-7.164,0.044C83.987,120.468,80.733,120.468,77.479,120.468z"/>
	<path fill-rule="evenodd" clip-rule="evenodd" fill="#999999" d="M77.631,140.01c-5.373,0-10.768,0.022-16.14-0.021
		c-2.206,0-3.517-1.13-3.56-2.921c-0.065-1.835,1.321-3.058,3.604-3.069c6.247-0.021,12.493-0.011,18.74-0.011
		c4.444,0,8.889-0.011,13.345,0.011c2.359,0.012,3.735,1.104,3.778,2.916c0.065,1.878-1.387,3.074-3.822,3.074
		C88.257,140.01,82.939,140.01,77.631,140.01z"/>
	<path fill-rule="evenodd" clip-rule="evenodd" fill="#999999" d="M111.965,130.285c-2.577-0.011-5.166,0.055-7.753-0.021
		c-2.402-0.076-3.647-1.19-3.647-3.058c0.022-1.867,1.289-3.003,3.691-3.025c5.231-0.043,10.473-0.043,15.715,0
		c2.391,0.033,3.723,1.158,3.768,2.971c0.054,1.867-1.311,3.058-3.801,3.123C117.284,130.329,114.63,130.285,111.965,130.285z"/>
	<path fill-rule="evenodd" clip-rule="evenodd" fill="#999999" d="M112.206,133.987c2.665,0,5.308-0.021,7.96,0.022
		c2.195,0.021,3.527,1.146,3.572,2.904c0.043,1.835-1.344,3.074-3.615,3.074c-5.318,0.044-10.615,0.044-15.911,0
		c-2.337,0-3.669-1.163-3.647-3.03c0.022-1.846,1.343-2.927,3.691-2.96C106.909,133.977,109.563,133.987,112.206,133.987z"/>
	<path fill-rule="evenodd" clip-rule="evenodd" fill="#999999" d="M112.184,120.468c-2.665,0-5.307,0.033-7.972,0
		c-2.315-0.032-3.647-1.157-3.647-3.014s1.333-2.971,3.691-2.992c5.296-0.022,10.593-0.022,15.901,0.011
		c2.194,0.011,3.516,1.146,3.582,2.905c0.043,1.823-1.333,3.046-3.604,3.09C117.48,120.501,114.827,120.468,112.184,120.468z"/>
	<path fill-rule="evenodd" clip-rule="evenodd" fill="#CCCCCC" d="M191.029,179.521c5.111,0,10.222,0,15.354,0.021
		c3.211,0,3.867,0.677,3.889,3.822c0,1.397,0.021,2.796-0.021,4.193c-0.066,2.162-0.602,2.708-2.752,2.73
		c-5.723,0-11.435,0.087-17.146-0.044c-4.924-0.109-9.828,0.48-14.73,0.394c-3.004-0.044-3.637-0.678-3.658-3.604
		c0-1.528-0.022-3.058,0.021-4.586c0.021-2.141,0.808-2.927,3.09-2.949c5.318-0.043,10.637-0.021,15.955-0.021
		C191.029,179.498,191.029,179.521,191.029,179.521z"/>
	<path fill-rule="evenodd" clip-rule="evenodd" fill="#999999" d="M191.073,173.164c-4.237,0-8.485,0.022-12.733,0
		c-2.402-0.021-3.734-1.069-3.778-2.904c-0.032-1.9,1.376-3.102,3.821-3.102c8.496-0.021,17.004-0.021,25.5,0
		c2.369,0,3.691,1.092,3.724,2.948c0.044,1.966-1.245,3.036-3.778,3.058C199.569,173.187,195.332,173.164,191.073,173.164z"/>
	<path fill-rule="evenodd" clip-rule="evenodd" fill="#999999" d="M191.248,148.746c4.236,0,8.475-0.021,12.732,0
		c2.359,0.022,3.648,1.114,3.626,3.015c0,1.856-1.321,2.992-3.681,2.992c-8.551,0.021-17.111,0.021-25.674,0
		c-2.336,0-3.646-1.158-3.637-3.036c0.012-1.878,1.289-2.948,3.681-2.971C182.621,148.725,186.924,148.746,191.248,148.746z"/>
	<path fill-rule="evenodd" clip-rule="evenodd" fill="#999999" d="M191.117,163.947c-4.248,0-8.496,0.022-12.744,0
		c-2.436,0-3.691-1.004-3.746-2.883c-0.065-1.966,1.267-3.102,3.756-3.123c8.496-0.021,16.992-0.021,25.467,0
		c2.469,0.021,3.822,1.18,3.757,3.123c-0.065,1.879-1.332,2.883-3.757,2.883C199.602,163.97,195.354,163.947,191.117,163.947z"/>
</g>
</svg>
