<?xml version="1.0" encoding="utf-8"?>
<!-- Generator: Adobe Illustrator 16.0.0, SVG Export Plug-In . SVG Version: 6.00 Build 0)  -->
<!DOCTYPE svg PUBLIC "-//W3C//DTD SVG 1.1//EN" "http://www.w3.org/Graphics/SVG/1.1/DTD/svg11.dtd">
<svg version="1.1" id="Layer_1" xmlns="http://www.w3.org/2000/svg" xmlns:xlink="http://www.w3.org/1999/xlink" x="0px" y="0px"
	 width="256px" height="256px" viewBox="0 0 256 256" enable-background="new 0 0 256 256" xml:space="preserve">
<g>
	<path fill-rule="evenodd" clip-rule="evenodd" fill="#010101" d="M48.455,54.501c2.056-4.816,5.77-6.565,10.916-6.558
		c37.575,0.091,75.149,0.049,112.722,0.049c6.921,0,10.646,3.707,10.646,10.586c0,20.621,0,41.245,0,61.864
		c0,0.724,0.062,1.443-0.167,2.151c-0.439,1.367-1.635,2.31-2.976,2.291c-1.354-0.022-2.574-0.969-2.9-2.363
		c-0.151-0.639-0.151-1.329-0.151-1.996c-0.015-12.449-0.03-24.913,0.015-37.366c0.009-1.246-0.151-1.715-1.612-1.715
		c-39.69,0.056-79.383,0.045-119.079,0.007c-1.34,0-1.552,0.383-1.548,1.617c0.034,24.914,0.03,49.816,0.03,74.729
		c0,3.302,0.989,4.317,4.21,4.317c26.148,0,52.304,0,78.452,0c0.511,0,1.019,0,1.653,0c-1.756-6.059-3.478-11.995-5.171-17.933
		c-0.141-0.483-0.311-0.712-0.818-0.682c-0.359,0.031-0.723,0-1.086,0c-21.396,0-42.792,0.009-64.193,0
		c-3.393,0-4.366-0.946-4.366-4.301c0-14.884,0-29.771,0-44.651c0-3.411,0.947-4.377,4.294-4.377
		c24.864-0.003,49.721-0.003,74.582,0c3.233,0,4.24,1.007,4.24,4.29c0,12.658,0.016,25.319-0.03,37.985
		c-0.015,1.143,0.334,1.521,1.423,1.839c14.229,4.052,28.429,8.164,42.635,12.275c3.482,0.999,4.104,3.461,1.544,6.043
		c-1.969,1.984-3.907,3.999-5.936,5.906c-0.78,0.743-0.645,1.113,0.037,1.788c6.452,6.406,12.873,12.857,19.302,19.295
		c2.386,2.377,2.394,3.771,0.046,6.118c-6.437,6.437-12.866,12.873-19.295,19.295c-0.515,0.507-1.06,0.969-1.59,1.454
		c-1.03,0-2.06,0-3.09,0c-0.568-0.575-1.113-1.151-1.682-1.728c-6.361-6.353-12.722-12.698-19.052-19.083
		c-0.667-0.665-1.046-0.816-1.772-0.037c-1.983,2.099-4.059,4.112-6.125,6.149c-2.348,2.309-4.886,1.62-5.809-1.568
		c-1.969-6.776-3.953-13.547-5.839-20.339c-0.325-1.188-0.772-1.576-2.052-1.576c-26.497,0.054-52.997-0.015-79.497,0.092
		c-5.153,0.022-8.845-1.757-10.912-6.565C48.455,126.039,48.455,90.271,48.455,54.501z M115.437,75.28
		c19.844,0,39.684-0.011,59.524,0.034c1.287,0.004,1.628-0.299,1.606-1.602c-0.085-5.164-0.023-10.333-0.038-15.5
		c0-2.923-1.106-4.018-4.044-4.018c-38.03,0-76.055,0-114.088,0c-2.953,0-4.043,1.086-4.048,4.018
		c-0.007,5.111,0.057,10.227-0.042,15.346c-0.022,1.401,0.341,1.765,1.757,1.761C75.855,75.269,95.65,75.28,115.437,75.28z
		 M104.57,96.37c-11.256,0-22.521,0.022-33.785-0.03c-1.306-0.008-1.59,0.344-1.583,1.613c0.049,12.604,0.053,25.212-0.004,37.809
		c-0.004,1.349,0.39,1.576,1.632,1.576c19.321-0.046,38.635-0.03,57.96-0.03c2.617,0,2.617,0,1.965-2.613
		c-0.724-2.861,1.223-4.831,4.09-4.097c1.249,0.318,2.498,0.651,3.698,1.105c1.166,0.433,1.424,0.151,1.424-1.075
		c-0.047-10.904-0.061-21.801,0-32.705c0.015-1.314-0.349-1.587-1.62-1.583C127.092,96.393,115.835,96.37,104.57,96.37z
		 M151.456,184.137c1.878-1.894,3.506-3.545,5.149-5.188c2.219-2.22,3.673-2.212,5.914,0.021c6.43,6.43,12.858,12.852,19.265,19.311
		c0.757,0.757,1.151,0.955,2.03,0.061c4.845-4.938,9.737-9.829,14.69-14.676c0.863-0.863,0.727-1.257-0.054-2.037
		c-6.46-6.398-12.881-12.827-19.317-19.256c-2.226-2.242-2.242-3.704-0.045-5.915c1.673-1.673,3.362-3.324,5.111-5.051
		c-0.386-0.182-0.568-0.311-0.757-0.363c-14.654-4.226-29.313-8.436-43.974-12.662c-0.327-0.09-0.736-0.362-1.001-0.075
		c-0.303,0.349,0.03,0.772,0.137,1.151c2.991,10.39,5.982,20.794,8.981,31.191C148.844,175.049,150.108,179.456,151.456,184.137z"/>
	<path fill-rule="evenodd" clip-rule="evenodd" fill="#010101" d="M77.234,149.711c3.301,0,6.603-0.008,9.913,0
		c2.249,0.023,3.703,1.242,3.714,3.082c0.012,1.833-1.458,3.112-3.68,3.112c-6.66,0.016-13.324,0.016-19.98,0
		c-2.298,0-3.665-1.182-3.68-3.075c-0.004-1.907,1.363-3.096,3.646-3.111C70.524,149.696,73.875,149.711,77.234,149.711z"/>
	<path fill-rule="evenodd" clip-rule="evenodd" fill="#030101" d="M99.971,149.734c1.635-0.031,3.052,1.34,3.089,2.99
		c0.042,1.727-1.386,3.188-3.074,3.173c-1.602-0.022-3.048-1.483-3.048-3.081C96.934,151.211,98.357,149.757,99.971,149.734z"/>
	<path fill-rule="evenodd" clip-rule="evenodd" fill="#030101" d="M182.716,134.149c0.038,1.598-1.386,3.082-2.991,3.143
		c-1.598,0.046-3.09-1.341-3.174-2.961c-0.082-1.65,1.395-3.203,3.067-3.211C181.224,131.113,182.686,132.536,182.716,134.149z"/>
	<path fill-rule="evenodd" clip-rule="evenodd" fill="#39B54A" d="M115.437,75.28c-19.787,0-39.582-0.011-59.372,0.038
		c-1.417,0.004-1.78-0.36-1.757-1.761c0.099-5.119,0.034-10.235,0.042-15.346c0.004-2.931,1.095-4.018,4.048-4.018
		c38.033,0,76.058,0,114.088,0c2.938,0,4.044,1.095,4.044,4.018c0.015,5.168-0.047,10.336,0.038,15.5
		c0.021,1.303-0.319,1.606-1.606,1.602C155.121,75.269,135.281,75.28,115.437,75.28z M141.581,67.841
		c6.975,0,13.956,0.003,20.931-0.004c2.271-0.008,3.719-1.2,3.764-3.04c0.045-1.882-1.454-3.127-3.794-3.162
		c-0.158,0-0.311,0-0.469,0c-13.593,0-27.187,0-40.775,0.011c-0.621,0-1.253-0.011-1.848,0.121
		c-1.669,0.367-2.631,1.798-2.389,3.449c0.246,1.651,1.541,2.612,3.65,2.62C127.625,67.844,134.607,67.841,141.581,67.841z
		 M81.584,67.821c1.625,0.026,3.086-1.363,3.131-2.995c0.053-1.606-1.34-3.089-2.968-3.169c-1.678-0.08-3.196,1.386-3.2,3.082
		C78.54,66.371,79.941,67.791,81.584,67.821z M95.729,67.825c1.647,0.011,3.048-1.378,3.071-3.033
		c0.022-1.719-1.439-3.177-3.135-3.135c-1.647,0.038-3.014,1.465-2.995,3.116C92.686,66.417,94.094,67.821,95.729,67.825z
		 M70.551,64.671c-0.038-1.681-1.417-3.036-3.075-3.014c-1.64,0.012-3.025,1.431-3.025,3.082c0,1.708,1.477,3.146,3.173,3.082
		C69.294,67.753,70.585,66.367,70.551,64.671z"/>
	<path fill-rule="evenodd" clip-rule="evenodd" fill="#010101" d="M141.581,67.841c-6.974,0-13.956,0.003-20.93-0.004
		c-2.109-0.008-3.404-0.969-3.65-2.62c-0.242-1.651,0.72-3.082,2.389-3.449c0.595-0.132,1.227-0.121,1.848-0.121
		c13.588-0.011,27.182-0.011,40.775-0.011c0.158,0,0.311,0,0.469,0c2.34,0.034,3.839,1.28,3.794,3.162
		c-0.045,1.84-1.492,3.032-3.764,3.04C155.537,67.844,148.556,67.841,141.581,67.841z"/>
	<path fill-rule="evenodd" clip-rule="evenodd" fill="#030101" d="M81.584,67.821c-1.643-0.03-3.044-1.45-3.037-3.082
		c0.004-1.696,1.522-3.162,3.2-3.082c1.628,0.08,3.021,1.563,2.968,3.169C84.67,66.458,83.208,67.848,81.584,67.821z"/>
	<path fill-rule="evenodd" clip-rule="evenodd" fill="#030101" d="M95.729,67.825c-1.635-0.004-3.044-1.409-3.059-3.052
		c-0.019-1.651,1.348-3.078,2.995-3.116c1.696-0.042,3.157,1.416,3.135,3.135C98.778,66.447,97.377,67.836,95.729,67.825z"/>
	<path fill-rule="evenodd" clip-rule="evenodd" fill="#030101" d="M70.551,64.671c0.034,1.696-1.257,3.083-2.927,3.15
		c-1.696,0.064-3.173-1.374-3.173-3.082c0-1.651,1.386-3.07,3.025-3.082C69.135,61.635,70.513,62.99,70.551,64.671z"/>
	<path fill-rule="evenodd" clip-rule="evenodd" fill="#39B54A" d="M107.717,116.763c0-3.408-0.007-6.819,0.004-10.227
		c0.015-2.798,1.17-3.919,3.957-3.976c3.483-0.057,6.883,0.128,10.049,1.9c5.183,2.893,8.136,9.174,6.985,15.142
		c-1.117,5.785-6.133,10.488-11.923,11.283c-1.806,0.258-3.608,0.228-5.407,0.212c-2.389-0.015-3.623-1.234-3.649-3.642
		C107.691,123.893,107.717,120.33,107.717,116.763z M113.927,116.869c0,2.276,0.057,4.547-0.023,6.816
		c-0.045,1.083,0.356,1.272,1.333,1.2c4.146-0.307,7.497-3.828,7.542-8.004c0.049-4.12-3.298-7.709-7.452-8.084
		c-1.052-0.094-1.472,0.11-1.427,1.272C113.991,112.337,113.927,114.608,113.927,116.869z"/>
	<path fill-rule="evenodd" clip-rule="evenodd" fill="#39B54A" d="M80.259,127.705c0.083-0.348,0.17-0.863,0.333-1.348
		c2.351-7.039,4.706-14.074,7.08-21.098c0.636-1.878,1.814-2.794,3.336-2.661c1.442,0.132,2.344,0.973,2.798,2.317
		c2.457,7.266,4.933,14.532,7.341,21.82c0.632,1.908-0.083,3.408-1.704,4.105c-1.552,0.666-3.093,0.029-4.005-1.833
		c-0.337-0.681-0.761-0.697-1.333-0.697c-1.961,0.016-3.926,0.046-5.887-0.014c-1.102-0.031-1.863,0.113-2.389,1.309
		c-0.56,1.28-2.173,1.75-3.446,1.318C81.046,130.477,80.179,129.228,80.259,127.705z M88.559,122.105
		c1.352,0,2.477-0.019,3.597,0.011c0.636,0.019,0.84-0.205,0.636-0.807c-0.636-1.863-1.264-3.722-1.995-5.873
		C90.016,117.773,89.334,119.795,88.559,122.105z"/>
</g>
</svg>
