<?xml version="1.0" encoding="utf-8"?>
<!-- Generator: Adobe Illustrator 16.0.0, SVG Export Plug-In . SVG Version: 6.00 Build 0)  -->
<!DOCTYPE svg PUBLIC "-//W3C//DTD SVG 1.1//EN" "http://www.w3.org/Graphics/SVG/1.1/DTD/svg11.dtd">
<svg version="1.1" id="Layer_1" xmlns="http://www.w3.org/2000/svg" xmlns:xlink="http://www.w3.org/1999/xlink" x="0px" y="0px"
	 width="16px" height="16px" viewBox="0 0 16 16" enable-background="new 0 0 16 16" xml:space="preserve">
<g>
	<path fill="#627D53" d="M2.597,3.549C3.105,3.893,3.612,4.24,4.124,4.58c1.444,0.957,2.933,1.835,4.528,2.519
		c0.654,0.28,1.324,0.511,2.021,0.66c0.179,0.038,0.362,0.055,0.542,0.09c0.408,0.081,0.695,0.37,0.778,0.776
		c0.077,0.384-0.089,0.779-0.425,1.005c-0.201,0.138-0.405,0.271-0.618,0.414c0.149,0.306,0.296,0.603,0.448,0.899
		c0.015,0.029,0.064,0.045,0.104,0.06c0.3,0.097,0.465,0.354,0.419,0.663c-0.042,0.289-0.29,0.473-0.594,0.502
		c-0.478,0.046-0.765-0.143-0.949-0.587c-0.194-0.472-0.444-0.922-0.672-1.381C9.512,9.807,9.581,9.536,9.941,9.295
		c0.172-0.115,0.343-0.23,0.541-0.363c-0.154-0.037-0.285-0.06-0.409-0.102C9.445,8.618,8.809,8.436,8.199,8.18
		C6.021,7.268,4.035,6.015,2.131,4.631C2.017,4.549,1.951,4.4,1.862,4.284c0-0.094,0-0.188,0-0.283
		c0.086-0.214,0.237-0.365,0.452-0.452C2.408,3.549,2.502,3.549,2.597,3.549z"/>
	<path fill="#627D53" d="M2.314,3.549C2.099,3.635,1.949,3.787,1.862,4c0-0.15,0-0.301,0-0.452C2.013,3.549,2.163,3.549,2.314,3.549
		z"/>
	<path fill="#627D53" d="M7.762,10.24c0-0.606,0-1.197,0-1.796C8.149,8.596,8.521,8.74,8.891,8.891
		C8.917,8.9,8.943,8.953,8.943,8.984c0.002,0.621,0.009,1.244,0,1.865c-0.006,0.33-0.266,0.57-0.599,0.571
		c-1.002,0.002-2.005,0.003-3.008-0.001c-0.333-0.001-0.592-0.271-0.588-0.598c0.004-0.32,0.257-0.578,0.586-0.58
		c0.749-0.004,1.497-0.002,2.246-0.004C7.636,10.24,7.69,10.24,7.762,10.24z"/>
	<path fill="#627D53" d="M13.363,8.896c-0.647,0.002-1.178-0.521-1.182-1.171c-0.007-0.661,0.526-1.194,1.19-1.193
		c0.657,0.002,1.183,0.528,1.18,1.188C14.55,8.378,14.027,8.895,13.363,8.896z"/>
</g>
</svg>
