<?xml version="1.0" encoding="utf-8"?>
<!-- Generator: Adobe Illustrator 16.0.0, SVG Export Plug-In . SVG Version: 6.00 Build 0)  -->
<!DOCTYPE svg PUBLIC "-//W3C//DTD SVG 1.1//EN" "http://www.w3.org/Graphics/SVG/1.1/DTD/svg11.dtd">
<svg version="1.1" id="Layer_1" xmlns="http://www.w3.org/2000/svg" xmlns:xlink="http://www.w3.org/1999/xlink" x="0px" y="0px"
	 width="16px" height="16px" viewBox="0 0 16 16" enable-background="new 0 0 16 16" xml:space="preserve">
<g>
	<path fill="#627D53" d="M3.51,2.578c0.116,0.044,0.186,0.139,0.255,0.234C4.056,3.21,4.29,3.642,4.509,4.083
		c0.481,0.966,0.874,1.97,1.229,2.988c0.057,0.164,0.114,0.328,0.173,0.491c0.025,0.071,0.04,0.078,0.113,0.071
		c0.36-0.034,0.72-0.067,1.079-0.102c0.198-0.019,0.396-0.038,0.593-0.058C7.705,7.474,7.714,7.471,7.74,7.465
		C7.704,7.441,7.68,7.423,7.654,7.408C7.551,7.345,7.443,7.289,7.344,7.22C7.147,7.082,7.06,6.88,7.047,6.646
		C7.022,6.209,7.001,5.773,6.98,5.336C6.97,5.128,7.053,4.962,7.232,4.854C7.386,4.763,7.555,4.74,7.725,4.792
		c0.287,0.087,0.571,0.185,0.856,0.277c0.032,0.01,0.065,0.017,0.101,0.019c0.213,0.009,0.426,0.013,0.642,0.026
		c0.049,0.003,0.102,0.025,0.146,0.05c0.043,0.024,0.082,0.028,0.123,0.009C9.678,5.131,9.75,5.149,9.832,5.2
		c0.221,0.135,0.449,0.257,0.67,0.392c0.104,0.064,0.221,0.074,0.334,0.1c0.227,0.052,0.453,0.098,0.68,0.15
		c0.021,0.004,0.047,0.026,0.049,0.042c0.023,0.186,0.041,0.372,0.062,0.558c0.001,0.006-0.001,0.011-0.002,0.019
		c-0.106,0.015-0.213,0.025-0.317,0.047c-0.386,0.079-0.697,0.283-0.955,0.573c-0.211,0.237-0.36,0.51-0.422,0.823
		c-0.054,0.27-0.048,0.541,0.008,0.812c0.029,0.16,0.045,0.13-0.098,0.181C9.279,9.1,8.719,9.301,8.158,9.503
		C8.08,9.529,8.077,9.529,8.046,9.45c-0.149-0.38-0.388-0.688-0.73-0.91c-0.324-0.209-0.679-0.317-1.07-0.282
		C5.992,8.28,5.736,8.296,5.482,8.32C5.297,8.338,5.146,8.186,5.14,8.019c-0.007-0.17,0.135-0.316,0.318-0.325
		C5.529,7.69,5.547,7.67,5.524,7.6C5.45,7.368,5.375,7.136,5.293,6.907C4.95,5.95,4.572,5.008,4.113,4.101
		c-0.028-0.056-0.06-0.11-0.085-0.167C4.005,3.881,3.974,3.881,3.93,3.906c-0.066,0.038-0.132,0.075-0.2,0.108
		c-0.188,0.09-0.385,0.145-0.596,0.134C2.899,4.137,2.704,4.041,2.538,3.88C2.501,3.844,2.466,3.807,2.431,3.771
		c0-0.003,0-0.007,0-0.011c0.117-0.051,0.239-0.093,0.35-0.155c0.176-0.099,0.322-0.238,0.455-0.39
		c0.069-0.08,0.133-0.163,0.198-0.243c-0.03-0.036-0.055-0.065-0.076-0.096C3.292,2.775,3.314,2.672,3.417,2.608
		c0.019-0.012,0.04-0.021,0.06-0.031C3.487,2.578,3.499,2.578,3.51,2.578z M8.174,5.537c0,0.035-0.001,0.061,0,0.086
		C8.195,5.98,8.217,6.337,8.237,6.694c0.002,0.038,0.015,0.058,0.049,0.072C8.413,6.821,8.54,6.875,8.664,6.933
		c0.044,0.021,0.074,0.013,0.109-0.019C9.182,6.55,9.592,6.187,10,5.823c0.052-0.046,0.104-0.093,0.154-0.141
		c-0.008-0.009-0.012-0.013-0.016-0.016C10.01,5.592,9.883,5.518,9.755,5.444c-0.088-0.05-0.129-0.04-0.19,0.042
		C9.553,5.504,9.542,5.522,9.532,5.541C9.488,5.62,9.42,5.664,9.331,5.669C9.184,5.677,9.036,5.676,8.889,5.685
		C8.675,5.698,8.472,5.658,8.277,5.572C8.247,5.559,8.214,5.551,8.174,5.537z"/>
	<path fill="#627D53" d="M3.635,13.422c0-0.143,0-0.283,0-0.428c0.176-0.038,0.34-0.072,0.504-0.105
		c0.327-0.07,0.654-0.138,0.98-0.209c0.056-0.013,0.109-0.043,0.158-0.074c0.11-0.068,0.22-0.14,0.325-0.217
		c0.07-0.052,0.151-0.048,0.227-0.056c0.507-0.054,1.006-0.146,1.497-0.282c0.191-0.053,0.382-0.076,0.581-0.074
		c0.788,0.006,1.577,0.002,2.364,0.002c0.035,0,0.076,0.01,0.106,0.026c0.386,0.206,0.769,0.414,1.149,0.627
		c0.072,0.041,0.141,0.019,0.209,0.013c0.287-0.024,0.576-0.057,0.863-0.086c0.043-0.004,0.072,0.006,0.105,0.037
		c0.277,0.264,0.559,0.526,0.84,0.789c0.006,0.006,0.016,0.01,0.021,0.014c0,0.004,0,0.008,0,0.013
		c-0.676,0.001-1.354,0.003-2.029,0.005c-0.018,0-0.033,0.004-0.051,0.007C8.872,13.422,6.253,13.422,3.635,13.422z"/>
	<path fill="#627D53" d="M11.488,13.422c0.018-0.003,0.033-0.007,0.051-0.007c0.677-0.002,1.354-0.004,2.029-0.005
		c-0.014,0.004-0.029,0.011-0.045,0.011C12.846,13.422,12.168,13.422,11.488,13.422z"/>
	<path fill="#627D53" d="M13.195,8.245c0.05,0.864-0.719,1.551-1.504,1.528c-0.832-0.021-1.49-0.685-1.479-1.507
		c0.012-0.849,0.73-1.481,1.495-1.479C12.561,6.788,13.232,7.556,13.195,8.245z M12.082,8.286c0.006-0.182-0.118-0.38-0.369-0.385
		c-0.178-0.003-0.376,0.14-0.381,0.38c-0.004,0.208,0.166,0.374,0.375,0.374C11.926,8.656,12.081,8.504,12.082,8.286z"/>
	<path fill="#627D53" d="M6.301,8.575c0.932-0.015,1.529,0.776,1.521,1.491c-0.01,0.94-0.79,1.481-1.445,1.49
		c-0.929,0.014-1.547-0.72-1.543-1.488C4.838,9.215,5.565,8.561,6.301,8.575z M5.95,10.068c-0.019,0.18,0.197,0.379,0.348,0.377
		c0.222-0.002,0.403-0.16,0.408-0.371c0.005-0.201-0.169-0.389-0.372-0.389C6.164,9.686,5.954,9.818,5.95,10.068z"/>
	<path fill="#627D53" d="M7.554,4.54c-0.393,0.035-0.7-0.363-0.7-0.7c0-0.315,0.284-0.708,0.731-0.688
		C7.948,3.168,8.258,3.464,8.26,3.834C8.262,4.217,7.983,4.557,7.554,4.54z"/>
</g>
</svg>
