<?xml version="1.0" encoding="utf-8"?>
<!-- Generator: Adobe Illustrator 16.0.0, SVG Export Plug-In . SVG Version: 6.00 Build 0)  -->
<!DOCTYPE svg PUBLIC "-//W3C//DTD SVG 1.1//EN" "http://www.w3.org/Graphics/SVG/1.1/DTD/svg11.dtd">
<svg version="1.1" id="Layer_1" xmlns="http://www.w3.org/2000/svg" xmlns:xlink="http://www.w3.org/1999/xlink" x="0px" y="0px"
	 width="16px" height="16px" viewBox="0 0 16 16" enable-background="new 0 0 16 16" xml:space="preserve">
<g>
	<path fill="#627D53" d="M7.882,13.792c-0.31-0.229-0.616-0.462-0.927-0.692c0.064-0.084,0.127-0.17,0.189-0.254
		c0.481-0.644,0.963-1.285,1.447-1.926c0.038-0.054,0.037-0.109,0.048-0.169c0.051-0.287,0.1-0.578,0.146-0.868
		C8.813,9.721,8.84,9.559,8.866,9.396c-0.07-0.013-0.14-0.019-0.208-0.035C8.306,9.277,8.04,8.971,8.005,8.611
		C8.001,8.564,7.999,8.52,7.999,8.473C7.998,7.82,7.998,7.168,7.998,6.517c0-0.018,0-0.034,0-0.058
		c-0.077,0.029-0.15,0.056-0.223,0.083C7.333,6.708,6.893,6.875,6.451,7.04C6.104,7.168,5.742,6.963,5.669,6.602
		C5.615,6.327,5.78,6.047,6.056,5.947c0.243-0.089,0.486-0.181,0.729-0.271C6.792,5.674,6.799,5.67,6.811,5.663
		C6.757,5.632,6.708,5.604,6.659,5.575C6.345,5.392,6.01,5.256,5.675,5.12C5.273,4.955,4.87,4.797,4.473,4.625
		C4.294,4.547,4.127,4.443,3.958,4.348c-0.302-0.168-0.6-0.34-0.901-0.508c-0.124-0.069-0.218-0.162-0.258-0.3
		C2.735,3.316,2.883,3.078,3.117,3.026C3.241,2.998,3.358,3.017,3.469,3.08c0.299,0.17,0.6,0.34,0.898,0.513
		C4.566,3.71,4.77,3.82,4.959,3.952c0.277,0.194,0.542,0.404,0.812,0.609c0.308,0.234,0.612,0.475,0.945,0.674
		C6.87,5.327,7.026,5.413,7.183,5.5c0.015,0.008,0.04,0.01,0.056,0.003C7.902,5.256,8.566,5.006,9.23,4.757
		c0.49-0.184,0.979-0.37,1.473-0.552c0.348-0.128,0.722,0.089,0.775,0.455c0.041,0.28-0.113,0.539-0.392,0.641
		c-0.244,0.089-0.485,0.181-0.729,0.27c-0.032,0.012-0.041,0.03-0.041,0.063c0.002,0.959,0.002,1.918,0.002,2.878
		c0,0.238-0.037,0.471-0.076,0.705c-0.07,0.406-0.166,0.803-0.273,1.2c-0.066,0.254-0.139,0.505-0.21,0.759
		c-0.048,0.17-0.146,0.313-0.251,0.451c-0.386,0.514-0.771,1.025-1.156,1.538c-0.15,0.203-0.301,0.403-0.452,0.606
		C7.896,13.777,7.891,13.781,7.882,13.792z"/>
	<path fill="#627D53" d="M7.42,3.011c0.001-0.641,0.521-1.16,1.161-1.159c0.64,0.001,1.161,0.525,1.155,1.164
		c-0.002,0.647-0.521,1.158-1.17,1.156C7.935,4.169,7.418,3.647,7.42,3.011z"/>
	<path fill="#627D53" d="M10.587,10.37c0.429,0.854,0.854,1.702,1.28,2.554c-0.344,0.172-0.688,0.348-1.03,0.521
		c-0.04-0.079-0.078-0.152-0.114-0.227c-0.22-0.438-0.438-0.873-0.658-1.308c-0.014-0.028-0.014-0.048,0.006-0.073
		c0.142-0.188,0.224-0.406,0.285-0.631C10.43,10.932,10.507,10.654,10.587,10.37z"/>
	<path fill="#627D53" d="M13.216,2.434c0,0.319-0.263,0.582-0.581,0.581c-0.318,0-0.576-0.264-0.576-0.585
		c0-0.317,0.262-0.578,0.58-0.578C12.955,1.852,13.216,2.116,13.216,2.434z"/>
</g>
</svg>
