<?xml version="1.0" encoding="utf-8"?>
<!-- Generator: Adobe Illustrator 16.0.0, SVG Export Plug-In . SVG Version: 6.00 Build 0)  -->
<!DOCTYPE svg PUBLIC "-//W3C//DTD SVG 1.1//EN" "http://www.w3.org/Graphics/SVG/1.1/DTD/svg11.dtd">
<svg version="1.1" id="Layer_1" xmlns="http://www.w3.org/2000/svg" xmlns:xlink="http://www.w3.org/1999/xlink" x="0px" y="0px"
	 width="16px" height="16px" viewBox="0 0 16 16" enable-background="new 0 0 16 16" xml:space="preserve">
<g>
	<path fill="#627D53" d="M9.418,5.407C9.203,5.539,8.996,5.672,8.783,5.792c-0.215,0.12-0.437,0.22-0.688,0.246
		c0.154,0.064,0.31,0.125,0.461,0.193C8.887,6.379,9.21,6.544,9.49,6.779C9.547,6.827,9.6,6.88,9.648,6.936
		c0.18,0.21,0.199,0.425,0.063,0.667c-0.107,0.189-0.258,0.34-0.428,0.47C9.141,8.181,8.992,8.278,8.842,8.376
		c-0.043,0.027-0.066,0.053-0.07,0.107c-0.057,0.703-0.117,1.404-0.176,2.105c-0.016,0.188-0.029,0.376-0.045,0.563
		c-0.014,0.17-0.157,0.295-0.323,0.285c-0.155-0.008-0.281-0.146-0.281-0.31c-0.001-0.86-0.001-1.724,0-2.583
		c0-0.061-0.015-0.105-0.057-0.151C7.468,7.938,7.064,7.468,6.691,6.971c-0.261-0.346-0.266-0.7-0.125-1.08
		c0.17-0.455,0.498-0.769,0.913-1.001c0.414-0.231,0.864-0.36,1.33-0.43C9.1,4.417,9.395,4.399,9.688,4.367
		c0.06-0.006,0.082,0.014,0.101,0.068c0.157,0.503,0.317,1.006,0.479,1.509c0.015,0.043,0.037,0.086,0.064,0.124
		c0.258,0.361,0.619,0.585,1.012,0.77c0.115,0.054,0.199,0.129,0.209,0.266c0.014,0.234-0.217,0.392-0.43,0.294
		c-0.41-0.188-0.797-0.413-1.104-0.754c-0.281-0.313-0.5-0.66-0.578-1.081C9.432,5.512,9.426,5.46,9.418,5.407z M8.504,7.792
		C8.668,7.725,8.82,7.655,8.943,7.537c0.131-0.124,0.113-0.243-0.053-0.309C8.781,7.184,8.66,7.158,8.54,7.14
		C8.41,7.121,8.277,7.12,8.127,7.11C8.259,7.348,8.379,7.565,8.504,7.792z"/>
	<path fill="#627D53" d="M3.162,10.064c0.002-1.196,0.975-2.171,2.162-2.162c1.204,0.008,2.16,0.968,2.159,2.166
		c0,1.193-0.969,2.16-2.16,2.158C4.124,12.227,3.161,11.264,3.162,10.064z M5.322,8.454C4.43,8.457,3.709,9.175,3.711,10.063
		c0.001,0.896,0.72,1.617,1.61,1.617c0.893-0.002,1.613-0.726,1.612-1.617C6.931,9.173,6.209,8.452,5.322,8.454z"/>
	<path fill="#627D53" d="M11.227,7.903c1.195,0.002,2.156,0.972,2.154,2.171c-0.002,1.197-0.971,2.156-2.178,2.152
		c-1.188-0.004-2.146-0.977-2.143-2.174C9.063,8.863,10.033,7.9,11.227,7.903z M11.219,8.454c-0.902,0.005-1.613,0.726-1.609,1.632
		c0.004,0.88,0.734,1.596,1.627,1.594c0.888-0.006,1.601-0.734,1.595-1.634C12.826,9.169,12.098,8.45,11.219,8.454z"/>
	<path fill="#627D53" d="M11.385,4.451c-0.004,0.373-0.305,0.673-0.672,0.67c-0.379-0.002-0.676-0.307-0.672-0.688
		c0.006-0.371,0.307-0.664,0.682-0.661C11.094,3.775,11.389,4.078,11.385,4.451z"/>
</g>
</svg>
