<?xml version="1.0" encoding="utf-8"?>
<!-- Generator: Adobe Illustrator 16.0.0, SVG Export Plug-In . SVG Version: 6.00 Build 0)  -->
<!DOCTYPE svg PUBLIC "-//W3C//DTD SVG 1.1//EN" "http://www.w3.org/Graphics/SVG/1.1/DTD/svg11.dtd">
<svg version="1.1" id="Layer_1" xmlns="http://www.w3.org/2000/svg" xmlns:xlink="http://www.w3.org/1999/xlink" x="0px" y="0px"
	 width="256px" height="256px" viewBox="0 0 256 256" enable-background="new 0 0 256 256" xml:space="preserve">
<g>
	<path fill-rule="evenodd" clip-rule="evenodd" d="M185.716,48c0.975,0.267,1.977,0.515,2.938,0.801
		c7.041,2.165,12.059,8.652,12.153,15.998c0.114,8.5,0.048,17.008,0.038,25.507c0,2.08-1.336,3.473-3.139,3.435
		c-1.821-0.038-3.023-1.422-3.023-3.568c-0.019-8.289,0.028-16.579-0.028-24.869c-0.038-6.085-4.855-10.989-10.809-11.104
		c-6.21-0.134-11.332,4.732-11.408,10.941c-0.076,5.466-0.02,10.932-0.02,16.388c0,20.5,0,40.99,0,61.509c0,0.602,0,1.221,0,1.917
		c7.44,0,14.767,0,22.265,0c0-0.581,0-1.145,0-1.688c0-7.784,0-15.567,0-23.342c0-0.4-0.019-0.83,0-1.23
		c0.058-1.956,1.354-3.32,3.129-3.291c1.718,0.028,2.995,1.345,3.033,3.234c0.038,2.013,0.01,4.026,0.01,6.039
		c0,7.555,0,15.129,0,22.703c0,2.767-1.078,3.854-3.825,3.854c-7.574,0.02-15.148,0-22.712,0c-0.564,0-1.127,0-1.899,0
		c0,0.677,0,1.278,0,1.88c0,16.12,0,32.252,0,48.372c0,0.373-0.01,0.716,0.01,1.079c0.066,1.517-0.409,2.756-1.879,3.396
		c-1.564,0.715-2.768,0.038-3.873-1.049c-2.348-2.375-4.731-4.741-7.078-7.127c-0.401-0.409-0.725-0.867-1.222-1.487
		c-0.801,0.763-1.411,1.373-2.003,1.946c-2.194,2.202-4.368,4.387-6.563,6.571c-1.975,1.956-3.491,1.956-5.447,0.021
		c-2.766-2.748-5.523-5.515-8.45-8.462c-2.5,2.537-4.903,4.979-7.336,7.412c-3.368,3.377-4.146,3.357-7.508,0
		c-2.332-2.318-4.665-4.664-6.997-6.964c-0.082-0.086-0.177-0.144-0.42-0.296c-0.396,0.392-0.844,0.792-1.259,1.202
		c-2.451,2.442-4.87,4.902-7.331,7.307c-1.703,1.66-3.291,1.66-4.989,0c-2.857-2.813-5.667-5.676-8.69-8.699
		c-2.438,2.499-4.77,4.855-7.107,7.25c-0.505,0.515-1.006,1.03-1.531,1.526c-1.665,1.545-3.243,1.563-4.884-0.048
		c-2.852-2.796-5.666-5.667-8.704-8.729c-1.369,1.411-2.624,2.729-3.916,4.025c-1.517,1.555-3.071,3.062-4.588,4.598
		c-1.059,1.06-2.227,1.679-3.74,1.04c-1.483-0.62-1.945-1.822-1.945-3.348c0.009-45.741-0.01-91.501,0.019-137.232
		c0.009-8.662,5.952-15.615,14.433-17.151c0.243-0.028,0.462-0.162,0.697-0.267C108.645,48,147.179,48,185.716,48z M61.158,195.267
		c0.114,0.038,0.229,0.096,0.349,0.152c1.693-1.727,3.367-3.453,5.094-5.15c1.822-1.794,3.367-1.794,5.208,0.028
		c2.499,2.451,4.96,4.932,7.44,7.411c0.348,0.345,0.72,0.659,1.121,1.049c2.867-2.871,5.59-5.617,8.323-8.336
		c2.018-2.013,3.496-1.984,5.547,0.019c1.569,1.573,3.162,3.13,4.688,4.713c1.164,1.221,2.237,2.518,3.664,4.121
		c0.648-0.906,0.93-1.413,1.316-1.813c2.423-2.451,4.865-4.902,7.326-7.306c1.641-1.623,3.215-1.612,4.88-0.077
		c0.491,0.467,0.958,0.954,1.421,1.412c2.394,2.403,4.779,4.808,7.23,7.268c0.491-0.467,0.878-0.801,1.236-1.153
		c2.404-2.395,4.797-4.799,7.216-7.202c1.971-1.955,3.477-1.965,5.432-0.038c1.985,1.955,3.97,3.901,5.896,5.914
		c0.801,0.83,1.479,1.804,2.279,2.805c3.253-3.272,6.077-6.144,8.938-8.948c1.622-1.603,3.205-1.603,4.883-0.038
		c1.041,0.993,2.023,2.032,3.055,3.053c0.763,0.764,1.544,1.498,2.536,2.442c0-1.04,0-1.717,0-2.404
		c0-42.315,0.01-84.669-0.009-127.014c-0.01-4.14,1.021-7.917,3.5-11.275c0.134-0.172,0.191-0.401,0.325-0.696
		c-0.669,0-1.183,0-1.699,0c-31.679,0-63.349,0-95.034,0c-7.622,0-12.163,4.56-12.163,12.22c0,42.392,0,84.794,0,127.177
		C61.158,194.142,61.158,194.714,61.158,195.267z"/>
	<path fill-rule="evenodd" clip-rule="evenodd" d="M200.846,104.529c0.02,1.708-1.412,3.138-3.109,3.119
		c-1.641-0.019-3.024-1.392-3.053-3.042c-0.028-1.698,1.412-3.129,3.109-3.119C199.434,101.506,200.808,102.889,200.846,104.529z"/>
	<path fill-rule="evenodd" clip-rule="evenodd" fill="#39B54A" d="M91.131,80.529c3.257,2.948,4.688,6.429,3.725,10.712
		c-1.006,4.55-5.056,7.927-9.729,8.061c-3.134,0.076-6.272,0.038-9.411,0c-2.056-0.029-3.325-1.183-3.334-3.263
		c-0.038-8.938-0.038-17.896,0-26.843c0.009-2.051,1.288-3.214,3.343-3.252c2.471-0.039,4.937-0.019,7.407,0
		c7.459,0.057,11.795,7.326,8.337,13.927C91.384,80.062,91.288,80.243,91.131,80.529z M78.62,93.14c1.879,0,3.572,0,5.271,0
		c0.357,0,0.725,0,1.083-0.019c2.056-0.171,3.691-1.727,3.963-3.701c0.272-1.917-0.844-4.169-2.724-4.493
		c-2.465-0.429-5.037-0.353-7.593-0.505C78.62,87.521,78.62,90.249,78.62,93.14z M78.62,78.325c1.817,0,3.467,0.067,5.103-0.029
		c1.55-0.066,2.667-1.278,2.781-2.785c0.124-1.545-0.863-3.101-2.413-3.272c-1.798-0.181-3.63-0.038-5.471-0.038
		C78.62,74.29,78.62,76.227,78.62,78.325z"/>
	<path fill-rule="evenodd" clip-rule="evenodd" d="M123.903,116.615c-9.02,0-18.039,0-27.054,0c-0.515,0-1.03,0.038-1.541-0.028
		c-1.607-0.22-2.689-1.479-2.685-3.072c0.009-1.583,1.106-2.823,2.714-3.033c0.453-0.067,0.93-0.038,1.383-0.038
		c18.039,0,36.063,0,54.082,0c0.478,0,0.936-0.029,1.402,0.038c1.594,0.172,2.767,1.45,2.796,2.976
		c0.038,1.603-1.175,2.967-2.825,3.138c-0.457,0.057-0.924,0.019-1.391,0.019C141.818,116.615,132.865,116.615,123.903,116.615z"/>
	<path fill-rule="evenodd" clip-rule="evenodd" fill="#39B54A" d="M122.362,93.121c2.199,0,4.145-0.019,6.101,0.019
		c1.999,0.019,3.381,1.24,3.429,2.986c0.048,1.774-1.384,3.147-3.438,3.176c-2.924,0.038-5.862,0.038-8.795,0
		c-2.304-0.029-3.477-1.25-3.477-3.587c-0.009-8.738-0.009-17.485,0-26.223c0-2.137,1.23-3.51,3.043-3.548
		c1.879-0.019,3.129,1.392,3.129,3.605c0.009,7.259,0.009,14.509,0.009,21.75C122.362,91.861,122.362,92.424,122.362,93.121z"/>
	<path fill-rule="evenodd" clip-rule="evenodd" fill="#39B54A" d="M145.519,93.121c2.174,0,4.121-0.019,6.076,0.019
		c1.994,0.019,3.377,1.259,3.406,2.995c0.038,1.813-1.374,3.138-3.453,3.167c-2.93,0.019-5.856,0.038-8.796,0
		c-2.251-0.038-3.415-1.221-3.415-3.463c-0.019-8.824-0.019-17.638,0-26.433c0-2.108,1.278-3.481,3.109-3.462
		c1.803,0.038,3.044,1.43,3.053,3.548c0.02,7.259,0,14.528,0.02,21.787C145.519,91.842,145.519,92.386,145.519,93.121z"/>
	<path fill-rule="evenodd" clip-rule="evenodd" fill="#39B54A" d="M108.759,82.751c0,4.283,0,8.547-0.004,12.811
		c0,2.337-1.23,3.778-3.139,3.74c-1.86-0.038-3.033-1.441-3.033-3.702c-0.009-8.643-0.009-17.275,0-25.918
		c0-2.328,1.24-3.777,3.148-3.739c1.86,0.038,3.024,1.459,3.024,3.71C108.759,74.023,108.759,78.392,108.759,82.751z"/>
	<path fill-rule="evenodd" clip-rule="evenodd" d="M104.724,127.758c2.829,0,5.652-0.019,8.486,0
		c2.189,0.019,3.61,1.297,3.563,3.157c-0.047,1.822-1.436,3.005-3.563,3.023c-5.705,0-11.414,0-17.128-0.019
		c-2.15,0-3.458-1.202-3.458-3.081c0-1.879,1.307-3.062,3.458-3.081C98.958,127.739,101.838,127.758,104.724,127.758z"/>
	<path fill-rule="evenodd" clip-rule="evenodd" d="M104.686,145.052c2.872,0,5.762-0.02,8.638,0.029c2.08,0,3.477,1.287,3.448,3.11
		c-0.019,1.765-1.374,3.023-3.372,3.042c-5.81,0.02-11.624,0.02-17.433,0c-2.046-0.019-3.319-1.222-3.343-3.042
		c-0.019-1.89,1.292-3.11,3.419-3.11C98.924,145.032,101.81,145.052,104.686,145.052z"/>
	<path fill-rule="evenodd" clip-rule="evenodd" d="M104.724,162.375c2.829,0,5.652-0.02,8.486,0c2.189,0,3.61,1.298,3.563,3.157
		c-0.047,1.813-1.436,2.996-3.563,2.996c-5.705,0.028-11.414,0.028-17.128,0c-2.15,0-3.458-1.193-3.458-3.072
		c0-1.889,1.307-3.062,3.458-3.081C98.958,162.355,101.838,162.375,104.724,162.375z"/>
	<path fill-rule="evenodd" clip-rule="evenodd" d="M77.924,110.463c1.025,0,2.061-0.057,3.076,0.019
		c1.679,0.115,2.891,1.431,2.895,3.033c0.015,1.593-1.197,2.986-2.867,3.072c-2.146,0.095-4.316,0.095-6.467,0
		c-1.665-0.067-2.876-1.441-2.886-3.034c-0.01-1.67,1.249-2.995,3.014-3.091C75.763,110.406,76.846,110.463,77.924,110.463
		L77.924,110.463z"/>
	<path fill-rule="evenodd" clip-rule="evenodd" d="M77.728,133.92c-1.025,0-2.051,0.057-3.081,0c-1.741-0.124-3-1.479-2.971-3.119
		c0.028-1.612,1.24-2.948,2.924-3.024c2.103-0.077,4.216-0.077,6.314,0c1.755,0.057,3.015,1.468,2.981,3.119
		c-0.029,1.612-1.25,2.9-2.934,2.996C79.898,133.977,78.815,133.92,77.728,133.92z"/>
	<path fill-rule="evenodd" clip-rule="evenodd" d="M77.719,145.081c1.083,0,2.17-0.067,3.243,0.009
		c1.679,0.096,2.9,1.402,2.934,2.986c0.034,1.669-1.216,3.063-2.966,3.139c-2.108,0.076-4.217,0.076-6.32,0
		c-1.684-0.076-2.905-1.394-2.933-2.996c-0.043-1.669,1.221-3.033,2.962-3.138C75.667,145.014,76.693,145.081,77.719,145.081z"/>
	<path fill-rule="evenodd" clip-rule="evenodd" d="M77.728,168.528c-1.025,0-2.061,0.066-3.081,0c-1.75-0.104-3-1.469-2.971-3.139
		c0.028-1.574,1.249-2.919,2.924-2.977c2.112-0.096,4.221-0.096,6.329-0.019c1.741,0.057,3.009,1.469,2.966,3.12
		c-0.033,1.602-1.254,2.909-2.934,3.014C79.889,168.595,78.801,168.528,77.728,168.528z"/>
	<path fill-rule="evenodd" clip-rule="evenodd" fill="#FFFFFF" d="M144.059,155.631c2.985,0.792,4.685,3.005,4.761,6.011
		c0.095,3.004-1.994,6.237-4.761,7.163c0-2.232,0-4.417,0-6.582C144.059,160.067,144.059,157.921,144.059,155.631z"/>
</g>
</svg>
