<?xml version="1.0" encoding="utf-8"?>
<!-- Generator: Adobe Illustrator 16.0.0, SVG Export Plug-In . SVG Version: 6.00 Build 0)  -->
<!DOCTYPE svg PUBLIC "-//W3C//DTD SVG 1.1//EN" "http://www.w3.org/Graphics/SVG/1.1/DTD/svg11.dtd">
<svg version="1.1" id="Layer_1" xmlns="http://www.w3.org/2000/svg" xmlns:xlink="http://www.w3.org/1999/xlink" x="0px" y="0px"
	 width="256px" height="256px" viewBox="0 0 256 256" enable-background="new 0 0 256 256" xml:space="preserve">
<path fill-rule="evenodd" clip-rule="evenodd" stroke="#FFFFFF" stroke-width="0.4" stroke-miterlimit="10" d="M83.797,63.26
	c0.723-7.038,3.995-11.893,10.671-13.975c1.79-0.558,3.76-0.68,5.651-0.686c18.356-0.053,36.719-0.037,55.075-0.031
	c10.178,0,15.34,4.387,17.071,14.691c0.776,0,1.604,0,2.412,0c8.732,0,17.442-0.069,26.165,0.016
	c12.747,0.111,22.573,8.302,24.729,20.556c0.287,1.642,0.309,3.346,0.309,5.03c0.022,30.287,0.032,60.579,0,90.865
	c0,12.716-7.468,22.362-19.345,24.997c-2.072,0.445-4.238,0.595-6.374,0.595c-48.111,0.032-96.219,0.032-144.326,0.021
	c-13.162,0-23.089-7.968-25.368-20.364c-0.309-1.711-0.356-3.495-0.356-5.237c-0.016-30.297-0.027-60.589-0.006-90.876
	c0.016-12.716,7.489-22.393,19.361-24.98c2.141-0.468,4.398-0.584,6.607-0.595C65.244,63.217,74.417,63.26,83.797,63.26z
	 M83.808,73.262c-0.452-0.059-0.68-0.122-0.903-0.122c-9.179-0.005-18.362-0.032-27.546-0.005
	c-9.396,0.032-15.494,6.161-15.499,15.542c-0.011,30.451-0.011,60.893,0,91.338c0.005,9.242,6.135,15.446,15.377,15.446
	c48.505,0.021,97.005,0.021,145.511,0c9.241,0,15.382-6.204,15.382-15.425c0.021-30.446,0.021-60.897,0-91.354
	c0-9.38-6.097-15.499-15.488-15.547c-8.796-0.032-17.593-0.011-26.389,0c-0.68,0-1.348,0.074-1.986,0.106
	c-1.837,10.321-6.916,14.575-17.305,14.575c-18.277,0-36.559,0.021-54.847-0.021c-1.817-0.005-3.713-0.111-5.434-0.632
	C87.887,85.133,84.536,80.247,83.808,73.262z"/>
<path fill-rule="evenodd" clip-rule="evenodd" fill="#39B54A" d="M128.021,58.442c9.328,0,18.665-0.015,27.981,0
	c4.717,0.006,6.3,1.626,6.311,6.396c0.011,2.518,0.042,5.041-0.011,7.569c-0.074,3.666-1.891,5.524-5.535,5.529
	c-19.195,0.021-38.392,0.027-57.582,0c-3.644-0.005-5.424-1.864-5.493-5.583c-0.042-2.751-0.042-5.502,0-8.259
	c0.064-3.825,1.849-5.636,5.651-5.646C108.905,58.416,118.461,58.442,128.021,58.442z"/>
<path fill-rule="evenodd" clip-rule="evenodd" d="M83.551,147.943c-14.768-0.013-26.772-12.018-26.76-26.727
	c0.007-14.742,12.012-26.688,26.799-26.681c14.801,0.007,26.747,11.939,26.741,26.707
	C110.324,136.004,98.313,147.971,83.551,147.943z M83.558,106.521"/>
<path fill-rule="evenodd" clip-rule="evenodd" stroke="#FFFFFF" stroke-width="0.4" stroke-miterlimit="10" d="M114.605,183.478
	c-3.469,0-6.512,0-9.726,0c-0.436-6.693-2.921-12.345-8.228-16.521c-3.915-3.091-8.424-4.6-13.406-4.557
	c-11.085,0.127-17.979,6.979-21.162,21.056c-3.075,0-6.177,0-9.566,0c0.393-10.922,4.791-19.653,13.837-25.56
	c10.745-7.033,22.096-7.32,33.145-0.786C109.299,162.899,114.079,171.907,114.605,183.478z"/>
<path fill-rule="evenodd" clip-rule="evenodd" stroke="#FFFFFF" stroke-width="0.4" stroke-miterlimit="10" d="M164.715,107.325
	c8.646,0,17.283-0.01,25.92,0.016c3.314,0.005,5.396,1.498,5.801,4.053c0.413,2.735-1.127,5.03-3.846,5.62
	c-0.659,0.138-1.359,0.181-2.04,0.181c-17.21,0.005-34.419,0.01-51.63,0c-3.457,0-5.55-1.52-5.905-4.175
	c-0.44-3.32,1.774-5.647,5.551-5.673c7.643-0.047,15.291-0.021,22.94-0.021C162.568,107.325,163.651,107.325,164.715,107.325z"/>
<path fill-rule="evenodd" clip-rule="evenodd" stroke="#FFFFFF" stroke-width="0.4" stroke-miterlimit="10" d="M164.48,146.582
	c-8.563,0-17.124,0.011-25.687-0.01c-3.31-0.012-5.387-1.509-5.773-4.08c-0.416-2.73,1.151-5.035,3.855-5.608
	c0.67-0.128,1.37-0.17,2.044-0.17c17.211,0,34.42-0.011,51.63,0c3.441,0,5.545,1.53,5.886,4.196
	c0.435,3.314-1.785,5.642-5.568,5.662c-7.732,0.042-15.445,0.01-23.168,0.01C166.626,146.582,165.564,146.582,164.48,146.582z"/>
<path fill-rule="evenodd" clip-rule="evenodd" stroke="#FFFFFF" stroke-width="0.4" stroke-miterlimit="10" d="M164.885,166.097
	c8.646,0,17.294-0.021,25.93,0c3.146,0.022,5.195,1.53,5.609,4.017c0.457,2.72-1.083,5.046-3.781,5.63
	c-0.732,0.17-1.52,0.212-2.273,0.212c-17.124,0-34.26,0.012-51.385,0c-3.489,0-5.588-1.487-5.964-4.121
	c-0.479-3.314,1.731-5.694,5.492-5.727c6.644-0.053,13.305-0.011,19.954-0.011C160.603,166.097,162.749,166.097,164.885,166.097z"/>
<path fill-rule="evenodd" clip-rule="evenodd" fill="#39B54A" d="M83.554,140.963c-10.908-0.01-19.774-8.876-19.765-19.74
	c0.005-10.889,8.872-19.712,19.794-19.707c10.932,0.005,19.755,8.818,19.75,19.726C103.328,132.145,94.457,140.982,83.554,140.963z
	 M83.559,110.368"/>
</svg>
