<?xml version="1.0" encoding="utf-8"?>
<!-- Generator: Adobe Illustrator 16.0.0, SVG Export Plug-In . SVG Version: 6.00 Build 0)  -->
<!DOCTYPE svg PUBLIC "-//W3C//DTD SVG 1.1//EN" "http://www.w3.org/Graphics/SVG/1.1/DTD/svg11.dtd">
<svg version="1.1" id="Layer_1" xmlns="http://www.w3.org/2000/svg" xmlns:xlink="http://www.w3.org/1999/xlink" x="0px" y="0px"
	 width="256px" height="256px" viewBox="0 0 256 256" enable-background="new 0 0 256 256" xml:space="preserve">
<g>
	<path fill-rule="evenodd" clip-rule="evenodd" d="M93.238,49.008c0.536,0.995,1.221,1.944,1.573,3.004
		c0.467,1.393,0.673,2.874,1.037,4.535c1.584-1.03,3.05-1.956,4.481-2.927c1.309-0.888,2.472-0.804,3.586,0.344
		c1.584,1.619,3.192,3.215,4.803,4.807c1.083,1.064,1.206,2.193,0.368,3.46c-0.96,1.454-1.898,2.924-2.951,4.558
		c1.47,0.329,2.793,0.616,4.114,0.915c3.134,0.708,3.165,0.742,3.509,4.091c0.521,0,1.072,0,1.615,0
		c19.518,0,39.027-0.008,58.537,0.019c0.964,0,1.592-0.226,2.188-1.029c1.317-1.76,3.215-2.542,5.389-2.553
		c4.837-0.027,9.675-0.065,14.512,0.011c3.796,0.058,6.612,2.683,6.72,6.472c0.153,5.04,0.139,10.092,0.016,15.132
		c-0.076,3.383-2.396,5.909-5.557,6.49c-3.169,0.586-6.077-1.006-7.501-4.106c-0.1-0.226-0.198-0.447-0.367-0.83
		c-0.49,0.459-0.903,0.819-1.286,1.201c-10.631,10.632-21.262,21.259-31.894,31.89c-2.932,2.935-5.104,2.932-8.036-0.011
		c-3.376-3.387-6.751-6.777-10.494-10.536c-0.387,0.597-0.619,1.152-1.014,1.55c-5.81,5.84-11.615,11.688-17.474,17.477
		c-3.918,3.877-10.18,2.262-11.496-2.942c-0.612-2.407-0.08-4.619,1.688-6.418c3.395-3.444,6.824-6.861,10.26-10.268
		c1.148-1.137,2.438-1.183,3.429-0.229c1.022,0.983,0.98,2.334-0.214,3.54c-3.257,3.291-6.541,6.563-9.832,9.831
		c-0.854,0.85-1.267,1.757-0.601,2.882c0.8,1.358,2.277,1.508,3.513,0.317c1.707-1.642,3.36-3.341,5.033-5.017
		c4.405-4.405,8.806-8.813,13.218-13.215c2.564-2.548,4.93-2.56,7.486-0.015c3.482,3.486,6.949,6.991,10.669,10.723
		c0.475-0.612,0.812-1.148,1.239-1.584c11.757-11.765,23.514-23.528,35.27-35.289c0.26-0.252,0.528-0.494,0.766-0.761
		c0.758-0.85,1.699-1.213,2.771-0.823c1.194,0.433,1.523,1.443,1.523,2.61c-0.008,1.083-0.008,2.166,0.015,3.245
		c0.031,1.335,0.735,2.132,2.052,2.258c1.187,0.115,2.212-0.857,2.228-2.254c0.045-4.841,0.045-9.683,0-14.52
		c-0.016-1.412-0.911-2.166-2.305-2.178c-4.783-0.022-9.574-0.034-14.365,0.012c-1.424,0.016-2.297,0.957-2.189,2.242
		c0.107,1.32,0.842,2.056,2.22,2.056c1.133-0.004,2.266,0,3.397,0.007c1.133,0.004,2.205,0.417,2.373,1.546
		c0.123,0.826-0.168,1.998-0.719,2.599c-2.327,2.537-4.83,4.921-7.271,7.359c-7.754,7.757-15.507,15.514-23.268,23.268
		c-2.771,2.774-5.006,2.755-7.814-0.046c-3.131-3.131-6.27-6.265-9.399-9.392c-0.283-0.283-0.593-0.54-0.987-0.896
		c-2.33,2.334-4.607,4.634-6.904,6.919c-0.86,0.857-1.875,1.06-2.95,0.444c-0.976-0.559-1.29-1.485-1.006-2.519
		c0.142-0.509,0.521-0.999,0.907-1.389c2.196-2.243,4.409-4.47,6.655-6.67c2.066-2.028,4.646-2.043,6.705,0
		c3.62,3.59,7.187,7.226,10.677,10.742c7.172-7.175,14.251-14.263,21.354-21.369c-21.094,0-42.272,0-62.942,0
		c-2.522,2.491-4.726,4.849-7.164,6.938c-0.509,0.436-1.982,0.157-2.79-0.241c-1.546-0.757-2.936-1.837-4.508-2.859
		c-0.386,1.833-0.723,3.433-1.064,5.036c-0.405,1.906-1.037,2.457-2.927,2.473c-2.262,0.023-4.531-0.004-6.793,0.012
		c-1.47,0.007-2.304-0.72-2.603-2.12c-0.363-1.703-0.719-3.41-1.136-5.4c-1.497,0.972-2.851,1.86-4.21,2.736
		c-1.817,1.171-2.667,1.114-4.179-0.471c-1.833-1.925-3.582-3.926-5.404-5.866c-0.203-0.219-0.612-0.333-0.93-0.337
		c-3.134-0.023-6.276-0.016-9.59-0.016c-0.035,0.62-0.092,1.164-0.092,1.707c-0.004,21.572-0.008,43.145,0,64.721
		c0.003,4.876,2.552,7.395,7.443,7.395c2.568,0.007,5.139,0.007,7.818,0.007c0.85-4.653,3.077-8.411,6.908-11.128
		c2.854-2.029,6.05-3.055,9.541-3.055c7.898-0.008,12.965,4.348,16.463,14.183c0.509,0,1.071,0,1.626,0
		c26.98,0,53.963,0,80.936-0.007c4.99,0,7.531-2.519,7.531-7.471c0-15.912,0-31.821,0-47.729c0-0.517-0.03-1.037,0.031-1.546
		c0.138-1.236,0.85-1.979,2.098-2.067c1.331-0.095,2.143,0.62,2.434,1.879c0.114,0.489,0.068,1.021,0.068,1.538
		c0.008,16.012,0.008,32.021,0,48.032c-0.008,7.324-4.646,11.993-11.947,12.001c-10.808,0.008-21.615,0-32.438,0
		c-0.551,0-1.117,0-1.906,0c0.781,3.093,1.523,6.047,2.281,9.001c1.998,7.822,4.011,15.629,6.001,23.451
		c1.14,4.501-0.353,7.05-4.845,8.374c-0.139,0.046-0.253,0.16-0.383,0.245c-0.819,0-1.639,0-2.465,0
		c-2.786-0.827-4.531-2.542-5.235-5.45c-1.684-6.995-3.513-13.961-5.288-20.934c-1.248-4.875-2.504-9.743-3.743-14.573
		c-2.571,0-5.014,0-7.585,0c0,0.728,0,1.332,0,1.938c0,10.455-0.08,20.91,0.042,31.357c0.046,3.865-1.39,6.422-5.071,7.662
		c-0.823,0-1.649,0-2.468,0c-3.689-1.348-5.056-3.98-5.002-7.869c0.146-10.439,0.05-20.879,0.05-31.312c0-0.589,0-1.194,0-1.891
		c-2.109,0-4.011,0.092-5.897-0.03c-1.255-0.077-1.772,0.321-2.078,1.561c-2.767,11.053-5.667,22.074-8.373,33.142
		c-0.789,3.215-2.216,5.572-5.58,6.399c-0.827,0-1.649,0-2.476,0c-5.595-2.404-6.311-3.935-4.746-10.027
		c1.435-5.572,2.847-11.159,4.263-16.731c0.104-0.421,0.142-0.85,0.229-1.378c-10.899,4.164-21.408-2.739-23.065-12.935
		c-2.085,0-4.198,0.062-6.299-0.016c-1.891-0.076-3.854-0.03-5.645-0.535c-4.959-1.394-7.86-5.733-7.86-11.42
		c-0.011-23.475-0.008-46.949,0-70.423c0-0.62,0.031-1.24,0.092-1.853c0.475-4.845,3.773-8.638,8.526-9.782
		c0.831-0.207,1.688-0.302,2.503-0.44c0.379-3.291,0.379-3.295,3.659-3.995c1.271-0.276,2.541-0.54,3.98-0.846
		c-1.079-1.661-2.032-3.119-2.981-4.581c-0.815-1.259-0.719-2.396,0.375-3.467c1.584-1.546,3.127-3.134,4.7-4.692
		c1.374-1.354,2.143-1.424,3.815-0.363c1.408,0.896,2.805,1.817,4.351,2.816c0.391-1.783,0.616-3.368,1.11-4.86
		c0.314-0.953,1.03-1.779,1.562-2.66C87.058,49.008,90.146,49.008,93.238,49.008z M104.252,61.136
		c-0.964-0.953-1.829-1.806-2.763-2.729c-1.091,0.708-2.243,1.474-3.406,2.224c-2.625,1.684-6.081,0.249-6.716-2.782
		c-0.295-1.389-0.608-2.778-0.911-4.148c-1.332,0-2.499,0-3.789,0c-0.325,1.534-0.604,3.042-0.968,4.531
		c-0.616,2.541-4.11,3.968-6.318,2.599c-1.305-0.812-2.583-1.665-3.842-2.48c-0.926,0.926-1.791,1.787-2.706,2.702
		c0.758,1.171,1.508,2.331,2.254,3.494c1.684,2.629,0.306,6.058-2.713,6.731c-1.102,0.249-2.239,0.387-3.307,0.734
		c-0.382,0.123-0.738,0.682-0.876,1.114c-0.157,0.463,0.007,1.021-0.05,1.53c-0.104,0.991,0.203,1.508,1.29,1.619
		c1.117,0.115,2.22,0.417,3.314,0.692c2.526,0.632,3.934,4.106,2.557,6.322c-0.808,1.301-1.661,2.572-2.373,3.666
		c0.926,1.037,1.742,1.944,2.587,2.882c1.175-0.762,2.346-1.42,3.398-2.228c1.355-1.041,2.706-0.964,4.21-0.417
		c1.986,0.728,2.545,2.292,2.908,4.164c0.635,3.317,0.697,3.306,4.076,3.107c0.096-0.008,0.188-0.077,0.387-0.165
		c0.279-1.282,0.585-2.633,0.873-3.983c0.631-3.016,4.103-4.458,6.708-2.782c1.198,0.773,2.384,1.554,3.318,2.154
		c1.049-0.979,1.94-1.806,2.863-2.671c-0.731-1.129-1.447-2.319-2.266-3.44c-0.842-1.16-0.888-2.346-0.444-3.647
		c0.616-1.817,1.745-2.847,3.735-3.18c3.857-0.654,3.842-0.743,3.697-4.214c-0.004-0.096-0.065-0.191-0.134-0.379
		c-1.404-0.298-2.859-0.608-4.313-0.918c-2.618-0.559-4.106-4.083-2.683-6.364C102.637,63.608,103.46,62.368,104.252,61.136z
		 M179.574,82.184c-0.047-0.199-0.1-0.398-0.154-0.593c-1.928-0.704-3.505-1.867-4.232-3.8c-0.42-1.11-0.972-1.394-2.111-1.39
		c-19.25,0.038-38.496,0.027-57.742,0.027c-0.547,0-1.09,0-1.611,0c-0.229,3.168-0.456,3.421-3.398,4.038
		c-1.339,0.283-2.675,0.563-4.083,0.861c0.44,1.225,1.018,1.741,2.292,1.737c22.851-0.042,45.705-0.027,68.552-0.069
		C177.92,82.991,178.747,82.467,179.574,82.184z M100.421,163.874c0.023-6.567-5.277-11.925-11.806-11.94
		c-6.563-0.016-11.902,5.266-11.937,11.818c-0.03,6.498,5.35,11.924,11.841,11.939C95.098,175.707,100.395,170.456,100.421,163.874z
		 M144.748,166.201c0.062,0.443,0.077,0.856,0.169,1.239c2.847,11.099,5.687,22.196,8.542,33.302
		c0.383,1.508,1.332,2.113,2.693,1.769c1.225-0.307,1.563-1.087,1.164-2.679c-1.562-6.123-3.139-12.246-4.699-18.369
		c-1.302-5.067-2.588-10.142-3.889-15.262C147.366,166.201,146.096,166.201,144.748,166.201z M105.113,166.17
		c0.096,0.123,0.195,0.237,0.295,0.352c-1.335,2.572-2.679,5.129-4.007,7.7c-0.161,0.313-0.283,0.658-0.375,1.011
		c-2.12,8.297-4.217,16.608-6.356,24.905c-0.233,0.903-0.233,1.783,0.681,2.082c0.746,0.237,1.752,0.237,2.434-0.084
		c0.498-0.237,0.773-1.156,0.945-1.814c2.09-8.052,4.141-16.104,6.192-24.155c0.842-3.307,1.669-6.613,2.519-9.996
		C106.533,166.17,105.821,166.17,105.113,166.17z M124.512,166.186c-0.035,0.367-0.073,0.566-0.073,0.766
		c0,11.159,0,22.318,0,33.478c0,0.261-0.088,0.628,0.042,0.75c0.509,0.482,1.072,1.179,1.657,1.225
		c0.448,0.03,1.037-0.75,1.404-1.271c0.199-0.283,0.073-0.796,0.073-1.209c0-10.7,0-21.393-0.004-32.085
		c0-0.544-0.053-1.087-0.08-1.653C126.452,166.186,125.537,166.186,124.512,166.186z M57.066,83.034
		c3.831,0,7.673-0.057,11.511,0.027c1.313,0.026,1.967-0.456,2.254-1.745c-1.684-0.367-3.279-0.712-4.875-1.064
		c-1.871-0.414-2.327-0.938-2.438-2.775c-0.019-0.298-0.062-0.593-0.092-0.876C59.932,76.252,56.924,79.264,57.066,83.034z"/>
	<path fill-rule="evenodd" clip-rule="evenodd" d="M84.359,106.726c3.705,0,7.401-0.007,11.106,0.004
		c2.12,0.007,2.889,0.75,2.916,2.87c0.031,2.618,0.031,5.239-0.004,7.861c-0.027,1.979-0.869,2.839-2.839,2.847
		c-7.505,0.027-15.005,0.023-22.51,0c-2.063-0.003-2.901-0.864-2.916-2.923c-0.023-2.622-0.023-5.243,0-7.865
		c0.023-1.986,0.834-2.782,2.839-2.79C76.755,106.715,80.56,106.726,84.359,106.726z M74.804,115.566c6.349,0,12.575,0,18.852,0
		c0-1.432,0-2.74,0-4.095c-6.326,0-12.556,0-18.852,0C74.804,112.857,74.804,114.127,74.804,115.566z"/>
	<path fill-rule="evenodd" clip-rule="evenodd" d="M161.25,150.655c-6.934,0-13.876,0-20.818-0.007
		c-0.467,0-0.949,0.061-1.385-0.047c-1.194-0.275-1.902-1.056-1.895-2.288c0.008-1.155,0.682-1.921,1.803-2.212
		c0.436-0.115,0.91-0.076,1.377-0.076c14.037-0.008,28.082-0.008,42.119-0.008c0.414,0,0.834-0.039,1.225,0.046
		c1.256,0.283,2.006,1.048,1.952,2.38c-0.054,1.256-0.804,1.96-1.997,2.174c-0.46,0.076-0.935,0.031-1.394,0.031
		C175.242,150.655,168.246,150.655,161.25,150.655z"/>
	<path fill-rule="evenodd" clip-rule="evenodd" d="M170.297,140.483c-4.117,0-8.235,0-12.354,0
		c-1.844-0.015-2.877-0.819-2.908-2.242c-0.046-1.493,1.025-2.388,2.932-2.396c8.281,0,16.563,0,24.844,0.008
		c1.814,0,2.84,0.864,2.825,2.326c0,1.462-1.003,2.273-2.84,2.304c-0.313,0-0.62,0-0.927,0
		C178.012,140.483,174.154,140.483,170.297,140.483z"/>
	<path fill-rule="evenodd" clip-rule="evenodd" d="M80.571,129.064c-2.568,0-5.136,0.015-7.704-0.004
		c-1.676-0.016-2.717-0.903-2.74-2.266c-0.019-1.359,1.045-2.346,2.679-2.354c5.132-0.023,10.271-0.027,15.407,0
		c1.676,0.011,2.648,0.941,2.621,2.369c-0.026,1.431-0.964,2.235-2.713,2.25C85.607,129.079,83.089,129.064,80.571,129.064z"/>
	<path fill-rule="evenodd" clip-rule="evenodd" fill="#39B54A" d="M104.252,61.136c-0.792,1.232-1.615,2.473-2.403,3.739
		c-1.424,2.281,0.065,5.805,2.683,6.364c1.454,0.31,2.909,0.62,4.313,0.918c0.069,0.188,0.13,0.283,0.134,0.379
		c0.146,3.471,0.161,3.56-3.697,4.214c-1.99,0.333-3.119,1.362-3.735,3.18c-0.444,1.302-0.398,2.488,0.444,3.647
		c0.819,1.121,1.535,2.312,2.266,3.44c-0.922,0.865-1.814,1.691-2.863,2.671c-0.934-0.601-2.12-1.381-3.318-2.154
		c-2.606-1.676-6.077-0.233-6.708,2.782c-0.287,1.351-0.593,2.702-0.873,3.983c-0.199,0.088-0.291,0.157-0.387,0.165
		c-3.379,0.199-3.44,0.21-4.076-3.107c-0.363-1.872-0.922-3.437-2.908-4.164c-1.504-0.547-2.855-0.624-4.21,0.417
		c-1.052,0.808-2.223,1.466-3.398,2.228c-0.846-0.938-1.661-1.845-2.587-2.882c0.712-1.094,1.565-2.365,2.373-3.666
		c1.377-2.216-0.031-5.69-2.557-6.322c-1.094-0.275-2.197-0.578-3.314-0.692c-1.087-0.111-1.393-0.628-1.29-1.619
		c0.057-0.509-0.107-1.067,0.05-1.53c0.138-0.433,0.494-0.991,0.876-1.114c1.068-0.348,2.205-0.485,3.307-0.734
		c3.02-0.674,4.397-4.103,2.713-6.731c-0.747-1.164-1.497-2.323-2.254-3.494c0.915-0.915,1.78-1.776,2.706-2.702
		c1.259,0.815,2.537,1.669,3.842,2.48c2.208,1.37,5.702-0.058,6.318-2.599c0.364-1.489,0.643-2.997,0.968-4.531
		c1.29,0,2.457,0,3.789,0c0.303,1.37,0.616,2.759,0.911,4.148c0.635,3.031,4.091,4.466,6.716,2.782
		c1.163-0.75,2.315-1.516,3.406-2.224C102.423,59.33,103.288,60.183,104.252,61.136z"/>
	<path fill-rule="evenodd" clip-rule="evenodd" fill="#39B54A" d="M179.574,82.184c-0.827,0.283-1.654,0.807-2.488,0.811
		c-22.847,0.042-45.701,0.027-68.552,0.069c-1.274,0.004-1.852-0.513-2.292-1.737c1.409-0.299,2.744-0.578,4.083-0.861
		c2.943-0.616,3.169-0.869,3.398-4.038c0.521,0,1.064,0,1.611,0c19.246,0,38.492,0.011,57.742-0.027
		c1.14-0.004,1.691,0.279,2.111,1.39c0.728,1.933,2.305,3.096,4.232,3.8C179.475,81.786,179.527,81.985,179.574,82.184z"/>
	<path fill-rule="evenodd" clip-rule="evenodd" fill="#39B54A" d="M57.066,83.034c-0.142-3.77,2.866-6.782,6.36-6.433
		c0.03,0.283,0.073,0.578,0.092,0.876c0.111,1.837,0.566,2.361,2.438,2.775c1.596,0.352,3.192,0.697,4.875,1.064
		c-0.287,1.29-0.941,1.771-2.254,1.745C64.739,82.977,60.896,83.034,57.066,83.034z"/>
	<path fill-rule="evenodd" clip-rule="evenodd" fill="#39B54A" d="M74.804,115.566c0-1.439,0-2.709,0-4.095
		c6.295,0,12.525,0,18.852,0c0,1.354,0,2.663,0,4.095C87.379,115.566,81.152,115.566,74.804,115.566z"/>
	<path fill-rule="evenodd" clip-rule="evenodd" d="M90.838,163.836c0,1.079,0.054,2.158-0.011,3.229
		c-0.084,1.309-0.838,2.09-2.163,2.151c-1.328,0.053-2.258-0.666-2.331-1.952c-0.126-2.296-0.13-4.615,0.004-6.911
		c0.081-1.286,1.056-2.014,2.357-1.93c1.282,0.077,2.066,0.857,2.136,2.189C90.888,161.685,90.842,162.756,90.838,163.836z"/>
</g>
</svg>
