<?xml version="1.0" encoding="utf-8"?>
<!-- Generator: Adobe Illustrator 16.0.0, SVG Export Plug-In . SVG Version: 6.00 Build 0)  -->
<!DOCTYPE svg PUBLIC "-//W3C//DTD SVG 1.1//EN" "http://www.w3.org/Graphics/SVG/1.1/DTD/svg11.dtd">
<svg version="1.1" id="Layer_1" xmlns="http://www.w3.org/2000/svg" xmlns:xlink="http://www.w3.org/1999/xlink" x="0px" y="0px"
	 width="256px" height="256px" viewBox="0 0 256 256" enable-background="new 0 0 256 256" xml:space="preserve">
<g>
	<path fill-rule="evenodd" clip-rule="evenodd" d="M39.726,59.327c0.106-0.271,0.241-0.522,0.309-0.792
		c1.537-6.176,6.176-10.071,12.511-10.486C53.232,48,53.928,48,54.614,48c42.718,0,85.44,0,128.157,0
		c3.122,0,4.368,0.822,4.378,2.871c0.021,1.73-1.353,2.542-4.311,2.542c-42.601,0-85.212-0.01-127.813,0.009
		c-1.43,0-2.909-0.02-4.272,0.329c-3.358,0.86-5.653,3.904-5.721,7.557c-0.082,4.891,0,9.781-0.039,14.671
		c-0.005,0.948,0.3,1.392,1.271,1.334c0.517-0.029,1.034,0,1.551,0c48.642,0,97.272,0,145.924,0c5.161,0,10.343-0.135,15.513-0.135
		c1.334,0.009,1.825-0.396,1.787-1.778c-0.154-5.161-0.019-10.341-0.396-15.482c-0.271-3.663-3.537-6.234-7.248-6.331
		c-1.729-0.039-3.45,0.02-5.17-0.039c-1.798-0.048-3.287-1.305-3.267-2.677c0.019-1.672,1.284-2.851,3.246-2.851
		c2.233,0,4.485-0.049,6.708,0.223c5.393,0.657,9.646,4.532,11.037,9.79c0.116,0.435,0.271,0.86,0.405,1.295
		c0,37.373,0,74.745,0,112.118c-0.289,0.928-0.541,1.875-0.889,2.773c-1.903,5.036-6.63,8.485-12.052,8.554
		c-8.167,0.086-16.323,0.038-24.489,0.02c-1.885,0-2.987-0.995-3.026-2.58c-0.027-1.634,1.103-2.601,3.133-2.601
		c7.712-0.01,15.414,0,23.117-0.01c5.721,0,9.007-3.267,9.018-8.959c0.009-28.008,0-56.006,0-84.004c0-0.561,0-1.131,0-1.797
		c-55.447,0-110.728,0-166.255,0c0,0.618,0,1.227,0,1.836c0.005,27.998,0.005,55.996,0.009,84.003c0,5.606,3.296,8.921,8.882,8.921
		c22.538,0.01,45.075,0,67.613,0c0.561,0,1.116,0,1.909,0c-1.073-2.898-2.059-5.576-3.049-8.253
		c-1.232-3.335-2.44-6.688-3.721-10.003c-0.729-1.895-0.652-3.615,0.827-5.093c1.488-1.489,3.213-1.519,5.098-0.813
		c14.786,5.519,29.588,10.998,44.374,16.517c3.751,1.401,4.359,4.503,1.509,7.374c-2.678,2.688-5.374,5.345-8.177,8.146
		c2.707,2.707,5.345,5.336,7.983,7.964c2.918,2.929,2.918,5.007,0.02,7.926c-1.46,1.469-2.899,2.957-4.407,4.378
		c-2.117,2-4.466,1.99-6.553-0.058c-2.861-2.822-5.663-5.693-8.62-8.66c-2.756,2.765-5.375,5.402-8.021,8.041
		c-3.094,3.083-6.09,2.436-7.621-1.662c-2.329-6.233-4.716-12.458-6.915-18.74c-0.551-1.564-1.31-1.903-2.837-1.894
		c-22.944,0.048-45.882,0.029-68.826,0.029c-7.833,0-12.308-3.383-14.439-10.893c-0.043-0.164-0.15-0.31-0.222-0.464
		C39.726,134.072,39.726,96.7,39.726,59.327z M164.61,197.481c-0.096-0.202-0.115-0.338-0.192-0.406
		c-2.591-2.608-5.18-5.228-7.78-7.828c-3.72-3.73-3.72-3.855,0.049-7.625c2.349-2.338,4.706-4.668,7.267-7.189
		c-14.109-5.249-27.866-10.381-42.04-15.648c5.306,14.255,10.424,27.999,15.599,41.915c0.541-0.502,0.966-0.869,1.362-1.265
		c2.445-2.437,4.881-4.881,7.316-7.307c1.817-1.799,2.996-1.789,4.831,0.019c2.533,2.514,5.065,5.017,7.539,7.587
		c0.619,0.638,1.006,1.518,1.508,2.32C161.963,200.14,163.258,198.844,164.61,197.481z"/>
	<path fill-rule="evenodd" clip-rule="evenodd" d="M113.379,98.991c14.429-0.01,28.859-0.01,43.288,0
		c8.08,0,13.434,5.296,13.452,13.337c0.021,6.668,0.021,13.337,0,20.005c-0.019,7.915-5.238,13.308-13.104,13.327
		c-22.886,0.049-45.761,0.02-68.638,0.02c-0.406,0-0.812-0.01-1.208-0.067c-1.319-0.213-2.059-1.063-2.175-2.32
		c-0.121-1.275,0.518-2.251,1.769-2.619c0.701-0.202,1.474-0.212,2.213-0.212c22.359-0.009,44.723-0.106,67.092,0.058
		c6.224,0.059,9.065-4.049,8.901-8.881c-0.233-6.428-0.05-12.874-0.068-19.31c0-5.113-3.054-8.147-8.157-8.147
		c-28.97,0-57.944,0-86.914,0c-5.005,0-8.021,3.035-8.026,8.07c-0.015,6.727-0.015,13.453,0,20.18
		c0.005,4.948,2.972,7.964,7.886,8.022c1.609,0.019,3.218-0.021,4.828,0.009c1.855,0.048,3.049,1.063,3.078,2.571
		c0.029,1.526-1.141,2.647-2.981,2.628c-2.808-0.059-5.683,0.126-8.403-0.435c-5.654-1.16-9.54-6.167-9.587-11.926
		c-0.063-7.181-0.053-14.371-0.01-21.562c0.039-7.287,5.504-12.738,12.791-12.747C84.067,98.971,98.723,98.991,113.379,98.991z"/>
	<path fill-rule="evenodd" clip-rule="evenodd" fill="#39B54A" d="M110.736,117.237c0-1.634-0.029-3.17,0.009-4.707
		c0.039-1.739,1.049-2.841,2.552-2.841c1.503-0.009,2.556,1.083,2.619,2.822c0.058,1.546,0.014,3.083,0.014,4.958
		c1.498-0.84,2.764-1.565,4.044-2.271c1.774-0.976,3.229-0.735,4.035,0.676c0.792,1.392,0.261,2.793-1.479,3.847
		c-0.638,0.387-1.295,0.744-1.938,1.121c-0.594,0.348-1.184,0.706-1.986,1.189c1.188,0.706,2.247,1.344,3.31,1.971
		c2.295,1.343,2.958,2.648,2.107,4.185c-0.846,1.527-2.412,1.643-4.653,0.357c-1.035-0.589-2.078-1.179-3.441-1.962
		c0,1.729,0.019,3.18,0,4.629c-0.034,1.981-1.048,3.208-2.619,3.208c-1.59,0-2.551-1.179-2.575-3.198c-0.015-1.431,0-2.86,0-4.649
		c-1.483,0.841-2.745,1.566-4.021,2.281c-1.836,1.015-3.393,0.735-4.175-0.744c-0.734-1.392-0.16-2.735,1.628-3.789
		c1.228-0.715,2.46-1.421,3.929-2.262c-1.565-0.918-2.899-1.662-4.204-2.455c-1.605-0.967-2.078-2.396-1.286-3.75
		c0.778-1.333,2.252-1.613,3.895-0.724c1.262,0.686,2.508,1.381,3.765,2.078C110.311,117.228,110.378,117.217,110.736,117.237z"/>
	<path fill-rule="evenodd" clip-rule="evenodd" fill="#39B54A" d="M138.072,117.508c0-1.769-0.02-3.199,0-4.61
		c0.038-2.01,0.986-3.189,2.58-3.209c1.604-0.029,2.58,1.14,2.619,3.131c0.01,1.324,0,2.648,0.02,3.962
		c0,0.116,0.039,0.222,0.136,0.667c1.333-0.773,2.59-1.498,3.846-2.213c1.837-1.024,3.383-0.753,4.166,0.696
		c0.754,1.401,0.203,2.754-1.557,3.808c-1.227,0.734-2.473,1.44-3.933,2.3c1.275,0.744,2.396,1.401,3.518,2.059
		c2.137,1.257,2.794,2.61,1.952,4.088c-0.85,1.498-2.407,1.652-4.494,0.445c-1.131-0.639-2.261-1.286-3.653-2.088
		c0,1.865,0.02,3.393-0.009,4.919c-0.04,1.846-1.092,3.006-2.639,2.957c-1.45-0.038-2.493-1.188-2.532-2.918
		c-0.049-1.537-0.02-3.074-0.02-4.89c-1.41,0.792-2.585,1.469-3.769,2.126c-1.996,1.111-3.543,0.899-4.34-0.57
		c-0.773-1.44-0.184-2.813,1.696-3.905c1.179-0.687,2.367-1.373,3.821-2.204c-1.541-0.898-2.851-1.643-4.15-2.416
		c-1.595-0.957-2.102-2.406-1.353-3.75c0.754-1.353,2.247-1.672,3.87-0.792C135.153,115.816,136.43,116.57,138.072,117.508z"/>
	<path fill-rule="evenodd" clip-rule="evenodd" fill="#39B54A" d="M80.791,122.05c-1.677-0.976-3.035-1.72-4.349-2.532
		c-1.493-0.938-1.914-2.349-1.145-3.664c0.749-1.285,2.218-1.633,3.74-0.821c1.358,0.725,2.683,1.527,4.383,2.503
		c0-1.769-0.02-3.229,0.005-4.678c0.029-2.058,0.966-3.179,2.585-3.17c1.619,0.01,2.566,1.14,2.604,3.189
		c0.029,1.43,0.005,2.851,0.005,4.601c1.542-0.87,2.812-1.605,4.097-2.31c1.745-0.957,3.228-0.667,4.006,0.763
		c0.754,1.373,0.271,2.706-1.396,3.731c-1.218,0.744-2.464,1.469-3.697,2.193c-0.039,0.029-0.053,0.087-0.179,0.291
		c1.319,0.772,2.653,1.527,3.953,2.338c1.628,0.996,2.083,2.387,1.271,3.75c-0.798,1.333-2.276,1.613-3.919,0.706
		c-1.29-0.706-2.556-1.46-4.136-2.378c0,1.827,0.029,3.296-0.005,4.765c-0.053,1.874-1.048,3.054-2.556,3.092
		c-1.581,0.049-2.6-1.149-2.634-3.14c-0.024-1.432-0.005-2.871-0.005-4.708c-1.595,0.909-2.953,1.682-4.315,2.446
		c-1.092,0.608-2.194,0.705-3.218-0.116c-1.425-1.15-1.266-3.151,0.382-4.214C77.654,123.799,79.114,123.017,80.791,122.05z"/>
	<path fill-rule="evenodd" clip-rule="evenodd" d="M189.024,124.438c4.677-4.688,9.025-9.104,13.473-13.434
		c0.627-0.628,1.681-1.237,2.492-1.169c0.773,0.077,1.875,0.898,2.106,1.624c0.252,0.792-0.038,2.107-0.608,2.754
		c-1.847,2.117-3.914,4.03-5.904,6.021c-3.054,3.034-6.089,6.088-9.153,9.123c-1.633,1.624-2.938,1.624-4.57,0.01
		c-2.33-2.301-4.64-4.62-6.939-6.939c-1.431-1.43-1.566-2.918-0.444-4.069c1.13-1.149,2.667-1.043,4.068,0.377
		C185.352,120.562,187.11,122.447,189.024,124.438z"/>
	<path fill-rule="evenodd" clip-rule="evenodd" d="M81.288,65.348c0.005,2.745-2.174,4.978-4.871,4.986
		c-2.628,0.01-4.972-2.309-4.987-4.947c-0.019-2.629,2.295-4.949,4.948-4.958C79.1,60.409,81.279,62.604,81.288,65.348z"/>
	<path fill-rule="evenodd" clip-rule="evenodd" d="M96.056,65.445c-0.034,2.725-2.305,4.938-4.987,4.88
		c-2.682-0.058-4.9-2.359-4.856-5.036c0.043-2.687,2.349-4.919,5.016-4.861C93.958,60.487,96.095,62.71,96.056,65.445z"/>
	<path fill-rule="evenodd" clip-rule="evenodd" d="M56.745,65.31c0.029-2.707,2.295-4.92,4.982-4.881
		c2.672,0.049,4.953,2.368,4.904,5.006c-0.048,2.648-2.401,4.938-5.025,4.899C58.935,70.296,56.716,68.006,56.745,65.31z"/>
</g>
</svg>
