<?xml version="1.0" encoding="utf-8"?>
<!-- Generator: Adobe Illustrator 16.0.0, SVG Export Plug-In . SVG Version: 6.00 Build 0)  -->
<!DOCTYPE svg PUBLIC "-//W3C//DTD SVG 1.1//EN" "http://www.w3.org/Graphics/SVG/1.1/DTD/svg11.dtd">
<svg version="1.1" id="Layer_1" xmlns="http://www.w3.org/2000/svg" xmlns:xlink="http://www.w3.org/1999/xlink" x="0px" y="0px"
	 width="16px" height="16px" viewBox="0 0 16 16" enable-background="new 0 0 16 16" xml:space="preserve">
<g>
	<path fill="#627D53" d="M9.018,7.628c1.032-0.521,1.897-1.232,2.522-2.219c0.542-0.855,0.86-1.796,1.073-2.778
		c0.009-0.037-0.002-0.09,0.02-0.111c0.098-0.1,0.203-0.269,0.305-0.268c0.207,0.001,0.244,0.192,0.197,0.367
		c-0.137,0.519-0.252,1.046-0.435,1.548c-0.562,1.55-1.498,2.807-2.954,3.635C9.716,7.819,9.691,7.847,9.68,7.897
		c0.321-0.139,0.645-0.279,0.967-0.416c0.506-0.214,0.908,0.023,0.959,0.567c0.088,0.929,0.176,1.856,0.258,2.786
		c0.044,0.508-0.246,0.896-0.688,0.936c-0.464,0.041-0.813-0.283-0.861-0.807c-0.049-0.542-0.092-1.085-0.143-1.671
		c-0.587,0.253-1.13,0.519-1.695,0.72c-0.378,0.133-0.551,0.363-0.666,0.731c-0.264,0.841-0.57,1.67-0.862,2.502
		c-0.159,0.452-0.521,0.667-0.932,0.562c-0.476-0.123-0.699-0.541-0.532-1.033c0.386-1.135,0.777-2.27,1.18-3.398
		C6.703,9.27,6.815,9.159,6.92,9.109c0.54-0.252,1.088-0.484,1.633-0.724c0.502-0.219,0.502-0.218,0.473-0.767L9.018,7.628z"/>
	<path fill="#627D53" d="M9.023,7.618C8.25,7.951,7.476,8.283,6.651,8.637c-0.065-0.496-0.13-0.981-0.2-1.504
		c-0.56,0.15-1.102,0.294-1.643,0.443c-0.42,0.115-0.475,0.102-0.712-0.262C3.722,6.743,3.351,6.17,2.984,5.594
		C2.755,5.233,2.82,4.861,3.136,4.659C3.458,4.452,3.813,4.541,4.05,4.897c0.304,0.455,0.602,0.914,0.915,1.391
		C5.693,6.038,6.417,5.79,7.14,5.541C7.203,5.52,7.265,5.489,7.33,5.475c0.806-0.179,1.455-0.567,1.932-1.273
		c0.336-0.5,0.771-0.933,1.155-1.401c0.271-0.328,0.631-0.403,0.935-0.182c0.301,0.221,0.342,0.628,0.072,0.97
		c-0.591,0.747-1.165,1.51-1.799,2.22C9.184,6.303,8.916,6.814,9.034,7.486C9.041,7.531,9.023,7.58,9.018,7.627
		C9.018,7.628,9.023,7.618,9.023,7.618z"/>
	<path fill="#627D53" d="M8.244,3.536C8.231,4.263,7.68,4.804,6.956,4.799C6.23,4.794,5.671,4.217,5.684,3.486
		c0.013-0.701,0.598-1.262,1.309-1.254C7.7,2.24,8.256,2.819,8.244,3.536z"/>
	<path fill="#627D53" d="M9.273,10.27c0,1.205,0.004,2.39-0.01,3.572c-0.002,0.082-0.14,0.223-0.221,0.229
		c-0.08,0.005-0.189-0.114-0.246-0.204c-0.04-0.063-0.018-0.169-0.018-0.255c-0.002-0.926,0-1.85,0-2.773
		C8.779,10.4,8.779,10.4,9.273,10.27z"/>
</g>
</svg>
