<?xml version="1.0" encoding="utf-8"?>
<!-- Generator: Adobe Illustrator 16.0.0, SVG Export Plug-In . SVG Version: 6.00 Build 0)  -->
<!DOCTYPE svg PUBLIC "-//W3C//DTD SVG 1.1//EN" "http://www.w3.org/Graphics/SVG/1.1/DTD/svg11.dtd">
<svg version="1.1" id="Layer_1" xmlns="http://www.w3.org/2000/svg" xmlns:xlink="http://www.w3.org/1999/xlink" x="0px" y="0px"
	 width="16px" height="16px" viewBox="0 0 16 16" enable-background="new 0 0 16 16" xml:space="preserve">
<g>
	<path fill="#627D53" d="M7.139,7.062c-0.253-0.609-0.494-1.189-0.748-1.8c-0.84,0.224-1.573,0.585-2.276,1.014
		c-0.242,0.147-0.48,0.306-0.703,0.481C3.182,6.939,2.92,6.966,2.761,6.753c-0.112-0.15-0.094-0.417-0.084-0.629
		c0.004-0.095,0.117-0.197,0.201-0.273c0.947-0.859,2.003-1.539,3.22-1.956c0.49-0.168,0.896-0.089,1.263,0.301
		c0.991,1.051,1.687,2.264,2.147,3.71C8.221,8.308,6.983,8.745,5.716,9.066C5.118,9.221,4.464,9.15,3.822,9.13
		C4.757,8.176,5.874,7.542,7.139,7.062z"/>
	<path fill="#627D53" d="M1.995,8.928c0.598,0.158,1.253,0.396,1.93,0.497C5.375,9.643,6.742,9.27,8.059,8.68
		c1.359-0.608,2.751-0.877,4.212-0.407c0.695,0.224,1.293,0.597,1.734,1.202c-1.047-0.57-2.166-0.742-3.33-0.645
		C9.566,8.923,8.557,9.365,7.542,9.783c-1.242,0.512-2.511,0.678-3.82,0.279C2.961,9.832,2.342,9.408,1.995,8.928z"/>
	<path fill="#627D53" d="M11.105,7.666C10.273,7.67,9.594,6.993,9.604,6.174c0.01-0.811,0.674-1.472,1.482-1.476
		c0.85-0.004,1.498,0.629,1.51,1.477C12.609,7.007,11.953,7.663,11.105,7.666z"/>
</g>
</svg>
