<?xml version="1.0" encoding="utf-8"?>
<!-- Generator: Adobe Illustrator 16.0.0, SVG Export Plug-In . SVG Version: 6.00 Build 0)  -->
<!DOCTYPE svg PUBLIC "-//W3C//DTD SVG 1.1//EN" "http://www.w3.org/Graphics/SVG/1.1/DTD/svg11.dtd">
<svg version="1.1" id="Layer_1" xmlns="http://www.w3.org/2000/svg" xmlns:xlink="http://www.w3.org/1999/xlink" x="0px" y="0px"
	 width="256px" height="256px" viewBox="0 0 256 256" enable-background="new 0 0 256 256" xml:space="preserve">
<g>
	<path fill-rule="evenodd" clip-rule="evenodd" d="M37.886,86.152c0.217-0.652,0.449-1.304,0.642-1.966
		c1.916-6.578,7.861-11.279,14.691-11.387c7.16-0.109,14.325-0.05,21.486-0.02c2.578,0.01,4.36,1.245,5.195,3.714
		c3.541,10.499,7.027,21.017,10.548,31.516c0.613,1.827,0.178,3.466-0.859,5.007c-2.642,3.951-5.25,7.921-7.941,11.842
		c-0.612,0.898-0.632,1.561-0.118,2.519c5.477,10.182,12.978,18.715,21.856,25.974c4.563,3.723,9.729,6.706,14.602,10.055
		c0.874,0.593,1.536,0.405,2.351-0.148c3.881-2.647,7.827-5.195,11.699-7.843c1.841-1.264,3.698-1.53,5.826-0.81
		c10.095,3.418,20.228,6.776,30.341,10.163c3.062,1.027,4.267,2.687,4.267,5.887c0.01,6.695,0.029,13.393,0,20.078
		c-0.049,9.462-6.974,16.355-16.414,16.257c-19.704-0.208-37.995-5.67-54.864-15.635c-27.589-16.295-47.204-39.356-57.771-69.795
		c-2.879-8.286-4.607-16.85-5.235-25.609c-0.039-0.573-0.197-1.126-0.301-1.699C37.886,91.554,37.886,88.858,37.886,86.152z
		 M61.826,83.337c-2.469,0-4.933-0.01-7.397,0c-3.945,0.02-6,2.054-5.966,5.956c0.089,10.123,1.773,19.99,5.146,29.511
		c9.925,27.999,28.153,49.115,53.732,63.939c15.037,8.711,31.273,13.481,48.734,13.679c3.675,0.039,5.809-2.085,5.828-5.759
		c0.021-5.105-0.02-10.212,0.021-15.318c0.019-1.086-0.238-1.648-1.364-2.015c-7.683-2.498-15.349-5.105-23.031-7.604
		c-0.657-0.218-1.64-0.069-2.223,0.296c-3.175,1.995-6.503,3.852-9.353,6.262c-4.133,3.506-7.95,3.229-12.513,0.77
		c-10.568-5.718-19.644-13.215-27.723-21.994c-6.271-6.814-11.713-14.212-15.432-22.775c-0.983-2.262-0.805-4.257,0.587-6.292
		c2.721-3.96,5.373-7.979,7.985-12.029c0.355-0.543,0.578-1.452,0.38-2.044c-2.559-7.862-5.186-15.694-7.872-23.516
		c-0.158-0.464-0.933-1.007-1.441-1.018C67.228,83.288,64.527,83.337,61.826,83.337z"/>
	<path fill-rule="evenodd" clip-rule="evenodd" d="M218.277,88.967c-0.454,2.114-0.811,4.256-1.383,6.34
		c-4.376,15.763-18.873,26.914-35.258,27.111c-6.045,0.08-12.09-0.02-18.134,0.069c-0.868,0.02-1.936,0.464-2.548,1.076
		c-5.866,5.749-11.654,11.585-17.48,17.394c-0.365,0.374-0.731,0.76-1.126,1.105c-1.739,1.53-3.714,2.005-5.862,1.017
		c-2.059-0.938-3.096-2.646-3.111-4.908c-0.02-4.691-0.01-9.382-0.01-14.083c0-0.643,0-1.274-0.331-1.432
		c-4.217-1.699-8.667-2.963-12.607-5.146c-13.664-7.605-21.027-23.279-18.286-38.104c2.972-16.039,14.947-27.95,30.755-30.498
		c2.021-0.326,4.094-0.425,6.133-0.434c13.857-0.04,27.713-0.05,41.56-0.01c18.656,0.039,33.698,12.563,37.175,30.894
		c0.168,0.858,0.336,1.708,0.514,2.568C218.277,84.275,218.277,86.616,218.277,88.967z M143.938,125.431
		c0.702-0.662,1.136-1.047,1.531-1.442c3.289-3.269,6.598-6.528,9.837-9.847c1.521-1.571,3.249-2.321,5.472-2.301
		c6.508,0.079,13.017,0.05,19.535,0.02c1.462-0.01,2.943-0.099,4.385-0.297c13.709-1.817,23.714-13.896,22.973-27.712
		c-0.712-13.412-12.246-24.632-25.797-24.78c-14.717-0.158-29.451-0.158-44.188,0c-13.594,0.148-25.125,11.832-25.445,25.422
		c-0.351,14.972,11.062,26.992,25.999,27.377c3.565,0.089,5.668,2.202,5.688,5.748C143.947,120.087,143.938,122.546,143.938,125.431
		z"/>
	<path fill-rule="evenodd" clip-rule="evenodd" fill="#39B54A" d="M143.928,85.461c0,2.854-2.391,5.244-5.243,5.264
		c-2.925,0.02-5.369-2.449-5.314-5.382c0.055-2.845,2.484-5.205,5.333-5.175C141.558,80.197,143.938,82.597,143.928,85.461z"/>
	<path fill-rule="evenodd" clip-rule="evenodd" fill="#39B54A" d="M165.063,85.53c-0.039,2.854-2.449,5.214-5.313,5.194
		c-2.914-0.02-5.334-2.528-5.234-5.442c0.088-2.854,2.548-5.185,5.393-5.116C162.772,80.236,165.112,82.676,165.063,85.53z"/>
	<path fill-rule="evenodd" clip-rule="evenodd" fill="#39B54A" d="M181.004,90.725c-2.854,0.04-5.293-2.311-5.354-5.166
		c-0.059-2.913,2.37-5.402,5.294-5.392c2.864,0.01,5.255,2.4,5.265,5.254S183.849,90.686,181.004,90.725z"/>
</g>
</svg>
