<?xml version="1.0" encoding="utf-8"?>
<!-- Generator: Adobe Illustrator 16.0.0, SVG Export Plug-In . SVG Version: 6.00 Build 0)  -->
<!DOCTYPE svg PUBLIC "-//W3C//DTD SVG 1.1//EN" "http://www.w3.org/Graphics/SVG/1.1/DTD/svg11.dtd">
<svg version="1.1" id="Layer_1" xmlns="http://www.w3.org/2000/svg" xmlns:xlink="http://www.w3.org/1999/xlink" x="0px" y="0px"
	 width="16px" height="16px" viewBox="0 0 16 16" enable-background="new 0 0 16 16" xml:space="preserve">
<path fill="#627D53" d="M8.865,2.442c0.182,0.195,0.199,0.422,0.063,0.632c-0.238,0.37-0.468,0.76-0.771,1.073
	C7.591,4.731,6.975,5.265,6.379,5.819C6.253,5.937,6.125,6.051,6.003,6.162c0.63,0.62,1.324,0.319,2.025,0.193
	C7.559,5.733,7.533,5.169,7.945,4.703C8.264,4.342,8.672,4.23,9.128,4.355c0.47,0.13,0.756,0.448,0.827,0.935
	c0.021,0.149,0.072,0.23,0.223,0.277c0.069,0.022,0.111,0.131,0.166,0.2c-0.093,0.021-0.188,0.068-0.277,0.058
	C9.82,5.797,9.578,5.716,9.334,5.713C9.206,5.711,9.077,5.828,8.949,5.892c0,0.032,0,0.064,0,0.097
	c0.225,0.055,0.449,0.109,0.672,0.166C9.688,6.171,9.79,6.182,9.803,6.219C9.82,6.274,9.795,6.377,9.75,6.414
	C9.58,6.558,9.396,6.683,9.213,6.816c0.174,0.807,0.355,1.668,0.545,2.528c0.021,0.102,0.07,0.198,0.117,0.295
	c0.479,0.996,0.961,1.991,1.441,2.987c0.104,0.22,0.131,0.44-0.022,0.651c-0.133,0.186-0.315,0.252-0.538,0.225
	c-0.229-0.027-0.355-0.184-0.46-0.369c-0.433-0.771-0.866-1.545-1.299-2.316c-0.16-0.287-0.271-0.281-0.483-0.026
	c-0.152,0.185-0.175,0.349-0.102,0.577c0.156,0.49,0.281,0.99,0.415,1.488c0.065,0.244-0.022,0.44-0.218,0.584
	c-0.196,0.146-0.42,0.16-0.619,0.018c-0.106-0.076-0.204-0.198-0.249-0.32c-0.241-0.652-0.463-1.312-0.693-1.969
	c-0.076-0.217-0.046-0.415,0.082-0.607c0.149-0.226,0.277-0.465,0.436-0.686C7.69,9.7,7.716,9.529,7.656,9.327
	C7.6,9.132,7.567,8.93,7.521,8.719C7.28,8.745,7.052,8.764,6.827,8.796c-0.448,0.065-0.851-0.021-1.191-0.33
	C5.338,8.194,5.039,7.925,4.754,7.641C4.479,7.365,4.583,6.963,4.958,6.844C5.095,6.801,5.134,6.745,5.12,6.601
	C5.084,6.244,5.247,6.073,5.604,6.038c0.07-0.007,0.154-0.051,0.2-0.104c1.007-1.162,2.009-2.327,3.012-3.492
	C8.833,2.442,8.85,2.442,8.865,2.442z M8.793,6.139C8.766,6.227,8.742,6.3,8.721,6.368c0.321,0.223,0.486,0.228,0.73,0.022
	C9.238,6.31,9.031,6.23,8.793,6.139z M7.21,7.62C6.955,7.604,6.694,7.625,6.456,7.562c-0.238-0.063-0.453-0.211-0.7-0.332
	C6.155,7.721,6.628,7.853,7.21,7.62z"/>
</svg>
