<?xml version="1.0" encoding="utf-8"?>
<!-- Generator: Adobe Illustrator 16.0.0, SVG Export Plug-In . SVG Version: 6.00 Build 0)  -->
<!DOCTYPE svg PUBLIC "-//W3C//DTD SVG 1.1//EN" "http://www.w3.org/Graphics/SVG/1.1/DTD/svg11.dtd">
<svg version="1.1" id="Layer_1" xmlns="http://www.w3.org/2000/svg" xmlns:xlink="http://www.w3.org/1999/xlink" x="0px" y="0px"
	 width="256px" height="256px" viewBox="0 0 256 256" enable-background="new 0 0 256 256" xml:space="preserve">
<g>
	<path fill-rule="evenodd" clip-rule="evenodd" d="M208.859,131.924c-0.822,3.384-2.893,5.99-5.11,8.559
		c-7.708,8.985-15.455,17.959-22.986,27.082c-4.595,5.563-10.51,8.245-17.452,8.521c-8.197,0.342-16.423,0.157-24.631,0.213
		c-7.205,0.056-14.419,0.064-21.628,0.213c-2.394,0.037-4.778,0.443-7.167,0.684c-0.18,0.222-0.356,0.452-0.537,0.666
		c0.518,0.259,1.137,0.415,1.53,0.795c1.909,1.84,1.923,3.549,0.069,5.453c-5.176,5.323-10.361,10.629-15.546,15.943
		c-1.802,1.849-3.582,3.706-5.407,5.537c-1.729,1.736-3.355,1.773-5.107,0.102c-12.136-11.536-24.257-23.07-36.366-34.624
		c-0.559-0.536-0.957-1.239-1.428-1.857c0-0.629,0-1.267,0-1.896c0.822-0.942,1.618-1.913,2.477-2.801
		c6.567-6.839,13.147-13.67,19.724-20.49c2.098-2.173,3.655-2.246,5.758-0.111c1.22,1.229,2.273,2.625,3.554,4.122
		c0.74-0.925,1.095-1.35,1.442-1.793c5.763-7.32,12.829-12.709,22.118-14.742c5.463-1.183,10.893-0.896,16.254,0.573
		c5.116,1.387,10.324,1.932,15.611,1.932c7.533-0.009,15.058,0.064,22.59-0.037c4.778-0.056,8.66,1.451,11.433,5.749
		c0.463-0.426,0.879-0.786,1.266-1.174c5.556-5.472,11.064-10.989,16.638-16.434c6.018-5.851,15.926-4.991,20.75,1.849
		c0.952,1.34,1.451,2.986,2.153,4.492C208.859,129.613,208.859,130.769,208.859,131.924z M83.671,152.23
		c6.294,6.101,12.551,12.136,18.739,18.218c0.855,0.842,1.687,1.072,2.796,0.915c7.833-1.109,15.699-1.544,23.615-1.47
		c10.893,0.103,21.799,0.056,32.688-0.037c6.081-0.064,11.137-2.218,15.093-7.172c5.473-6.868,11.342-13.439,17.025-20.14
		c2.486-2.931,5.02-5.823,7.431-8.81c2.312-2.865,1.775-5.748-1.293-7.8c-3.115-2.071-6.85-1.766-9.511,0.869
		c-6.563,6.47-13.106,12.959-19.632,19.456c-0.406,0.416-0.777,1.035-0.852,1.599c-1.053,7.404-5.435,11.276-12.902,11.295
		c-6.747,0.009-13.476,0-20.223,0c-0.421,0-0.847,0.009-1.268-0.028c-1.516-0.175-2.614-1.284-2.781-2.764
		c-0.166-1.524,0.624-2.864,2.099-3.326c0.629-0.194,1.335-0.213,2.009-0.231c6.956-0.01,13.897-0.01,20.848-0.01
		c2.238,0.01,4.012-0.804,5.102-2.81c2.506-4.658-0.387-9.594-5.619-9.604c-7.477-0.009-14.954-0.036-22.432,0.01
		c-6.077,0.019-12.076-0.591-17.95-2.209C102.235,134.234,90.492,141.888,83.671,152.23z M104.643,181.447
		c-10.86-10.537-21.577-20.926-32.345-31.37c-5.896,6.128-11.655,12.1-17.51,18.189c10.901,10.39,21.702,20.658,32.53,30.964
		C93.159,193.231,98.848,187.39,104.643,181.447z"/>
	<path fill-rule="evenodd" clip-rule="evenodd" d="M69.848,77.554c-6.756-8.896-4.515-19.636,2.311-25.552
		c6.821-5.925,17.09-5.902,24.008,0.12c6.632,5.753,8.961,16.494,2.301,25.297c1.904,1.618,3.799,3.244,5.67,4.83
		c1.751-1.502,3.669-3.152,5.592-4.802c-7.219-9.885-3.466-20.602,2.759-25.695c6.839-5.601,16.863-5.518,23.541,0.189
		c6.327,5.389,9.525,15.967,2.519,25.496c1.913,1.631,3.809,3.258,5.639,4.825c1.774-1.516,3.641-3.143,5.655-4.866
		c-3.558-4.645-4.824-10.01-3.419-15.893c1.017-4.297,3.419-7.755,6.97-10.394c7.042-5.19,16.794-4.598,23.254,1.335
		c5.842,5.371,8.828,15.667,1.849,25.141c0.37,0.254,0.749,0.513,1.129,0.767c4.944,3.3,7.625,7.903,7.744,13.869
		c0.103,4.894,0.057,9.792,0.019,14.682c-0.036,4.261-2.938,7.486-7.172,7.717c-3.846,0.204-7.689,0.093-11.535,0.102
		c-6.322,0.009-12.635,0.074-18.948-0.037c-1.626-0.037-3.244-0.711-4.87-1.026c-0.453-0.093-0.952-0.065-1.414,0.037
		c-1.517,0.314-3.032,0.961-4.548,0.989c-9.848,0.083-19.692,0.083-29.535,0c-1.525-0.028-3.032-0.711-4.557-1.026
		c-0.448-0.093-0.952-0.074-1.4,0.028c-1.53,0.314-3.046,0.97-4.562,0.998c-9.843,0.083-19.692,0.064-29.535,0.028
		c-5.356-0.019-8.379-3.143-8.393-8.485c-0.009-4.27,0.051-8.536-0.014-12.802c-0.097-6.798,2.68-11.974,8.499-15.504
		C69.534,77.84,69.641,77.725,69.848,77.554z M164.06,108.309c5.01,0,10.001-0.019,15.003,0.009
		c1.266,0.009,2.004-0.361,2.004-1.775c-0.036-4.833,0.057-9.691-0.055-14.521c-0.092-4.404-3.124-8.217-7.367-9.395
		c-0.637-0.176-1.47-0.134-2.08,0.125c-4.926,2.029-9.815,2.02-14.732-0.009c-0.609-0.25-1.441-0.292-2.089-0.102
		c-4.418,1.238-7.311,5.143-7.385,10.042c-0.064,4.515,0.009,9.044-0.028,13.573c-0.018,1.451,0.527,2.089,2.053,2.071
		C154.272,108.272,159.162,108.309,164.06,108.309z M84,108.309c5,0,10-0.019,14.996,0.009c1.192,0.009,1.941-0.342,1.936-1.673
		c-0.032-5.046,0.083-10.098-0.115-15.148c-0.162-4.192-3.24-7.764-7.334-8.878c-0.592-0.167-1.363-0.148-1.932,0.083
		c-4.963,2.094-9.894,2.094-14.867,0.023c-0.568-0.245-1.335-0.287-1.932-0.115c-4.372,1.173-7.394,5.074-7.454,9.645
		c-0.056,4.672,0.019,9.363-0.042,14.049c-0.014,1.506,0.587,2.033,2.065,2.024C74.211,108.272,79.105,108.309,84,108.309z
		 M124.021,108.309c4.995,0,9.996-0.028,14.991,0.019c1.415,0.009,1.997-0.527,1.979-1.959c-0.046-4.733,0.028-9.46-0.046-14.202
		c-0.074-4.506-3.06-8.342-7.362-9.539c-0.643-0.176-1.47-0.125-2.084,0.125c-4.926,2.029-9.807,2.02-14.729-0.009
		c-0.61-0.25-1.438-0.282-2.08-0.102c-4.187,1.164-7.177,4.871-7.297,9.251c-0.129,4.793-0.06,9.576-0.055,14.363
		c0.004,1.803,0.272,2.052,2.163,2.052C114.339,108.318,119.177,108.309,124.021,108.309z M124.146,77.9
		c6.585-0.009,11.982-5.356,12.016-11.932c0.027-6.608-5.464-12.094-12.071-12.053c-6.572,0.042-11.919,5.444-11.909,12.03
		C112.185,72.521,117.564,77.9,124.146,77.9z M96.07,65.871c-0.019-6.576-5.407-11.956-11.979-11.956
		c-6.543,0.009-11.974,5.421-11.997,11.969c-0.023,6.618,5.43,12.039,12.094,12.016C90.751,77.882,96.089,72.479,96.07,65.871z
		 M152.247,65.936c0.02,6.618,5.344,11.964,11.942,11.964c6.58,0,11.96-5.323,12.016-11.923c0.065-6.576-5.436-12.094-12.053-12.062
		C157.591,53.947,152.247,59.336,152.247,65.936z"/>
	<path fill-rule="evenodd" clip-rule="evenodd" fill="#FFFFFF" d="M122.657,159.145c1.816,0.027,3.207-1.321,3.211-3.143
		c0.005-1.84-1.331-3.234-3.11-3.263s-3.239,1.387-3.244,3.134C119.505,157.666,120.91,159.107,122.657,159.145z"/>
	<path fill-rule="evenodd" clip-rule="evenodd" fill="#39B54A" d="M164.06,108.309c-4.897,0-9.787-0.037-14.677,0.019
		c-1.525,0.018-2.07-0.62-2.053-2.071c0.037-4.529-0.036-9.058,0.028-13.573c0.074-4.899,2.967-8.804,7.385-10.042
		c0.647-0.19,1.479-0.148,2.089,0.102c4.917,2.029,9.807,2.038,14.732,0.009c0.61-0.258,1.443-0.3,2.08-0.125
		c4.243,1.178,7.275,4.991,7.367,9.395c0.111,4.83,0.019,9.687,0.055,14.521c0,1.414-0.738,1.784-2.004,1.775
		C174.061,108.291,169.069,108.309,164.06,108.309z"/>
	<path fill-rule="evenodd" clip-rule="evenodd" fill="#39B54A" d="M84,108.309c-4.895,0-9.788-0.037-14.678,0.019
		c-1.479,0.009-2.08-0.518-2.065-2.024c0.06-4.686-0.014-9.376,0.042-14.049c0.06-4.571,3.083-8.471,7.454-9.645
		c0.596-0.171,1.364-0.13,1.932,0.115c4.973,2.07,9.904,2.07,14.867-0.023c0.569-0.231,1.34-0.25,1.932-0.083
		c4.094,1.114,7.172,4.686,7.334,8.878c0.198,5.051,0.083,10.102,0.115,15.148c0.005,1.332-0.744,1.683-1.936,1.673
		C94,108.291,89,108.309,84,108.309z"/>
	<path fill-rule="evenodd" clip-rule="evenodd" fill="#39B54A" d="M124.021,108.309c-4.843,0-9.682,0.009-14.521,0
		c-1.89,0-2.158-0.25-2.163-2.052c-0.005-4.788-0.074-9.57,0.055-14.363c0.12-4.381,3.11-8.087,7.297-9.251
		c0.642-0.18,1.47-0.148,2.08,0.102c4.922,2.029,9.802,2.038,14.729,0.009c0.614-0.25,1.441-0.3,2.084-0.125
		c4.303,1.197,7.288,5.033,7.362,9.539c0.074,4.741,0,9.469,0.046,14.202c0.019,1.432-0.563,1.968-1.979,1.959
		C134.017,108.281,129.016,108.309,124.021,108.309z"/>
	<path fill-rule="evenodd" clip-rule="evenodd" d="M122.657,159.145c-1.747-0.037-3.152-1.479-3.143-3.271
		c0.005-1.747,1.465-3.162,3.244-3.134s3.115,1.423,3.11,3.263C125.864,157.823,124.474,159.172,122.657,159.145z"/>
</g>
</svg>
