<?xml version="1.0" encoding="utf-8"?>
<!-- Generator: Adobe Illustrator 16.0.0, SVG Export Plug-In . SVG Version: 6.00 Build 0)  -->
<!DOCTYPE svg PUBLIC "-//W3C//DTD SVG 1.1//EN" "http://www.w3.org/Graphics/SVG/1.1/DTD/svg11.dtd">
<svg version="1.1" id="Layer_1" xmlns="http://www.w3.org/2000/svg" xmlns:xlink="http://www.w3.org/1999/xlink" x="0px" y="0px"
	 width="16px" height="16px" viewBox="0 0 16 16" enable-background="new 0 0 16 16" xml:space="preserve">
<g>
	<path fill="#627D53" d="M3.135,13.088h0.191c0.077-0.039,0.144-0.09,0.203-0.148c0.17-0.168,0.305-0.36,0.429-0.563
		c0.438-0.707,0.792-1.455,1.088-2.23c0.142-0.371,0.27-0.744,0.34-1.135c0.026-0.145,0.044-0.289,0-0.436
		c-0.005-0.016,0.002-0.038,0.01-0.055C5.482,8.33,5.57,8.139,5.657,7.948c0.026-0.056,0.052-0.112,0.081-0.174
		C5.912,7.859,6.083,7.938,6.25,8.025c0.126,0.066,0.246,0.144,0.369,0.218C6.657,8.265,6.674,8.3,6.66,8.344
		c-0.039,0.12-0.077,0.24-0.119,0.358C6.51,8.783,6.537,8.867,6.61,8.904c0.076,0.037,0.166,0.008,0.205-0.072
		c0.066-0.135,0.119-0.273,0.142-0.423C6.981,8.242,6.947,8.098,6.796,8c-0.087-0.057-0.17-0.121-0.262-0.166
		C6.167,7.653,5.797,7.475,5.425,7.302c-0.243-0.114-0.491-0.22-0.752-0.288c-0.074-0.02-0.152-0.035-0.228-0.032
		c-0.11,0.003-0.19,0.075-0.26,0.154C4.088,7.247,4.019,7.376,3.961,7.51C3.92,7.604,3.951,7.689,4.034,7.726
		C4.116,7.76,4.195,7.722,4.239,7.634C4.28,7.552,4.321,7.468,4.372,7.393c0.093-0.137,0.08-0.135,0.226-0.083
		C4.867,7.404,5.13,7.516,5.395,7.621c0.021,0.008,0.04,0.02,0.06,0.029C5.453,7.66,5.453,7.665,5.45,7.67
		C5.339,7.915,5.227,8.16,5.115,8.404C5.108,8.417,5.094,8.427,5.081,8.436c-0.07,0.05-0.147,0.093-0.21,0.152
		c-0.168,0.158-0.298,0.35-0.42,0.545C4.05,9.775,3.724,10.455,3.44,11.156c-0.16,0.396-0.304,0.797-0.398,1.215
		c-0.023,0.1-0.037,0.203-0.056,0.305v0.166c0.005,0.02,0.011,0.037,0.015,0.057C3.02,12.982,3.062,13.045,3.135,13.088z
		 M3.348,12.4c0.127-0.523,0.321-1.023,0.536-1.517c0.248-0.565,0.523-1.12,0.859-1.643C4.83,9.107,4.93,8.98,5.025,8.852
		c0.021-0.029,0.048-0.055,0.072-0.08c0.005,0,0.009,0,0.014,0.002c-0.006,0.054-0.009,0.107-0.019,0.16
		C5.038,9.25,4.941,9.555,4.831,9.855c-0.296,0.807-0.654,1.584-1.106,2.313c-0.096,0.156-0.208,0.304-0.315,0.453
		c-0.031,0.043-0.07,0.082-0.106,0.121c-0.007-0.002-0.014-0.005-0.021-0.009C3.304,12.625,3.321,12.512,3.348,12.4z"/>
	<path fill="#627D53" d="M11.288,3.249c0.075,0.016,0.151,0.026,0.226,0.048c0.495,0.145,0.803,0.595,0.771,1.125
		C12.255,4.9,11.874,5.31,11.387,5.39c-0.611,0.101-1.181-0.335-1.242-0.952c-0.06-0.594,0.364-1.115,0.959-1.179
		c0.014-0.001,0.025-0.006,0.039-0.009C11.189,3.249,11.238,3.249,11.288,3.249z"/>
	<path fill="#627D53" d="M12.807,5.743c-0.007,0.069-0.013,0.137-0.02,0.206c-0.059,0.531-0.137,1.058-0.375,1.546
		c-0.131,0.266-0.283,0.519-0.473,0.748c-0.08,0.097-0.187,0.134-0.31,0.107c-0.226-0.051-0.312-0.313-0.165-0.494
		c0.227-0.281,0.398-0.593,0.52-0.934c0.076-0.218,0.111-0.445,0.146-0.672c0.039-0.249,0.076-0.498,0.062-0.75
		c-0.008-0.13,0.021-0.225,0.108-0.323c0.153-0.168,0.234-0.377,0.271-0.604c0.003-0.012,0.007-0.024,0.012-0.044
		c0.074,0.137,0.125,0.273,0.152,0.417c0.027,0.136,0.043,0.275,0.063,0.413c0.003,0.02,0.008,0.039,0.01,0.058
		C12.807,5.526,12.807,5.635,12.807,5.743z"/>
	<path fill="#627D53" d="M2.987,12.842c0.005,0.02,0.011,0.037,0.015,0.057c0.021,0.099,0.072,0.17,0.172,0.211
		c-0.063,0-0.125,0-0.187,0C2.987,13.02,2.987,12.932,2.987,12.842z"/>
	<path fill="#627D53" d="M9.594,7.637C9.296,7.516,9.003,7.398,8.707,7.28C8.734,7.195,8.764,7.103,8.796,7
		c0.127,0.045,0.253,0.084,0.376,0.135c0.506,0.207,1.004,0.43,1.486,0.688c0.088,0.047,0.169,0.105,0.254,0.159
		c0.16,0.1,0.205,0.248,0.176,0.426c-0.023,0.147-0.076,0.288-0.145,0.422c-0.039,0.078-0.125,0.104-0.201,0.067
		c-0.074-0.035-0.102-0.119-0.071-0.201c0.042-0.112,0.078-0.228,0.117-0.343c0.021-0.058-0.004-0.099-0.054-0.128
		c-0.114-0.067-0.228-0.139-0.344-0.201c-0.17-0.089-0.345-0.17-0.52-0.255c-0.008,0.016-0.016,0.026-0.02,0.038
		C9.742,8.043,9.635,8.279,9.527,8.516C9.52,8.537,9.518,8.566,9.523,8.589C9.559,8.73,9.543,8.871,9.518,9.01
		c-0.08,0.434-0.227,0.85-0.389,1.258c-0.277,0.705-0.604,1.389-0.997,2.035c-0.139,0.23-0.287,0.453-0.481,0.641
		c-0.042,0.039-0.087,0.076-0.136,0.105c-0.18,0.113-0.357,0.027-0.386-0.184c-0.023-0.17,0.008-0.334,0.045-0.498
		c0.11-0.484,0.284-0.949,0.477-1.406c0.262-0.623,0.556-1.232,0.917-1.805c0.113-0.18,0.246-0.348,0.38-0.516
		c0.069-0.092,0.159-0.166,0.269-0.211c0.012-0.005,0.024-0.018,0.029-0.03C9.359,8.15,9.473,7.902,9.594,7.637z M9.25,8.77
		C9.244,8.768,9.236,8.766,9.23,8.764C9.212,8.784,9.191,8.803,9.174,8.825C9.051,8.997,8.92,9.165,8.809,9.344
		c-0.407,0.653-0.732,1.35-1.011,2.065c-0.145,0.368-0.273,0.741-0.351,1.131c-0.013,0.063-0.02,0.131-0.029,0.194
		c0.005,0.002,0.009,0.004,0.014,0.004c0.023-0.022,0.049-0.047,0.069-0.073c0.101-0.138,0.208-0.271,0.3-0.414
		c0.33-0.513,0.6-1.056,0.844-1.61c0.215-0.492,0.412-0.99,0.537-1.515C9.212,9.008,9.229,8.887,9.25,8.77z"/>
	<path fill="#627D53" d="M8.154,4.337C8.153,4.934,7.672,5.411,7.073,5.409c-0.592-0.002-1.07-0.486-1.068-1.081
		c0.002-0.593,0.485-1.072,1.08-1.07C7.68,3.26,8.156,3.741,8.154,4.337z"/>
	<path fill="#627D53" d="M8.449,4.533c0.098,0.188,0.154,0.376,0.188,0.572c0.059,0.354,0.043,0.708-0.006,1.06
		c-0.039,0.286-0.078,0.573-0.164,0.85C8.328,7.468,8.11,7.878,7.811,8.245c-0.082,0.1-0.19,0.14-0.317,0.109
		C7.378,8.325,7.302,8.249,7.272,8.132c-0.026-0.104,0-0.196,0.068-0.281c0.286-0.357,0.494-0.755,0.59-1.205
		c0.078-0.365,0.133-0.733,0.133-1.108C8.064,5.466,8.04,5.387,8.061,5.323c0.02-0.062,0.087-0.107,0.131-0.163
		c0.131-0.17,0.212-0.364,0.247-0.577C8.441,4.571,8.444,4.559,8.449,4.533z"/>
	<path fill="#627D53" d="M9.439,12.018c-0.112-0.004-0.201-0.053-0.26-0.149c-0.06-0.104-0.06-0.214,0.004-0.313
		c0.063-0.105,0.135-0.205,0.2-0.312c0.021-0.031,0.037-0.063,0.05-0.101c0.219-0.608,0.436-1.221,0.652-1.83
		c0.055-0.153,0.197-0.237,0.348-0.209c0.152,0.029,0.258,0.158,0.25,0.313c-0.002,0.035-0.011,0.071-0.021,0.104
		c-0.232,0.646-0.465,1.289-0.697,1.935c-0.012,0.032-0.027,0.063-0.047,0.092c-0.072,0.111-0.145,0.224-0.219,0.334
		C9.639,11.973,9.551,12.016,9.439,12.018z"/>
	<path fill="#627D53" d="M6.249,9.104c0.217,0.002,0.357,0.209,0.282,0.42c-0.113,0.316-0.228,0.633-0.342,0.949
		c-0.116,0.322-0.232,0.646-0.35,0.967c-0.017,0.047-0.04,0.09-0.065,0.131c-0.067,0.107-0.136,0.216-0.208,0.318
		c-0.073,0.105-0.177,0.15-0.304,0.129c-0.133-0.022-0.216-0.104-0.248-0.236c-0.019-0.079-0.004-0.155,0.04-0.227
		c0.032-0.053,0.064-0.104,0.1-0.152c0.096-0.129,0.159-0.272,0.212-0.426c0.193-0.553,0.392-1.104,0.588-1.654
		C6.004,9.182,6.111,9.104,6.249,9.104z"/>
	<path fill="#627D53" d="M5.699,4.239c-0.01,0.245,0.02,0.475,0.143,0.704c-0.071,0.066-0.15,0.131-0.218,0.205
		C5.235,5.566,4.899,6.022,4.61,6.515C4.548,6.622,4.455,6.68,4.332,6.677C4.215,6.674,4.124,6.618,4.069,6.513
		C4.014,6.406,4.021,6.299,4.086,6.199c0.172-0.266,0.34-0.535,0.523-0.793c0.278-0.39,0.594-0.749,0.957-1.063
		C5.604,4.31,5.642,4.279,5.68,4.249C5.683,4.246,5.688,4.244,5.699,4.239z"/>
	<path fill="#627D53" d="M8.943,6.182c0.041-0.35,0.055-0.685,0.012-1.021C8.952,5.144,8.957,5.12,8.967,5.106
		c0.254-0.312,0.525-0.604,0.838-0.858c0.006-0.004,0.012-0.007,0.024-0.016C9.822,4.477,9.85,4.71,9.968,4.926
		C9.579,5.302,9.25,5.724,8.943,6.182z"/>
</g>
</svg>
