<?xml version="1.0" encoding="utf-8"?>
<!-- Generator: Adobe Illustrator 16.0.0, SVG Export Plug-In . SVG Version: 6.00 Build 0)  -->
<!DOCTYPE svg PUBLIC "-//W3C//DTD SVG 1.1//EN" "http://www.w3.org/Graphics/SVG/1.1/DTD/svg11.dtd">
<svg version="1.1" id="Layer_1" xmlns="http://www.w3.org/2000/svg" xmlns:xlink="http://www.w3.org/1999/xlink" x="0px" y="0px"
	 width="256px" height="256px" viewBox="0 0 256 256" enable-background="new 0 0 256 256" xml:space="preserve">
<g>
	<path fill-rule="evenodd" clip-rule="evenodd" fill="#FFFFFF" d="M178.221,122.989c0.351,0.669,0.627,1.153,0.877,1.643
		c1.577,3.081,3.164,6.153,4.705,9.249c0.654,1.31,1.605,1.951,3.1,1.923c3.127-0.046,6.246,0,9.373-0.019
		c1.873-0.018,2.971-0.969,2.98-2.523c0.019-1.554-1.089-2.555-2.934-2.578c-2.334-0.027-4.668-0.064-6.994,0.019
		c-1.07,0.042-1.604-0.337-2.066-1.278c-2.066-4.17-4.207-8.298-6.291-12.459c-0.591-1.167-1.273-2.219-2.731-2.214
		c-1.458,0.014-2.122,1.07-2.712,2.246c-3.562,7.03-7.16,14.051-10.739,21.076c-0.259,0.499-0.517,0.979-0.904,1.698
		c-0.388-0.757-0.683-1.292-0.95-1.827c-2.906-5.706-5.83-11.412-8.719-17.137c-0.608-1.209-1.264-2.362-2.822-2.348
		c-1.551,0.014-2.168,1.199-2.768,2.403c-1.422,2.846-2.943,5.642-4.3,8.51c-0.493,1.053-1.098,1.375-2.214,1.329
		c-2.159-0.088-4.318-0.032-6.477-0.023c-2.168,0.01-3.326,0.886-3.35,2.519c-0.023,1.666,1.121,2.588,3.271,2.588
		c2.726,0.019,5.457-0.119,8.178,0.047c2.27,0.138,3.599-0.748,4.475-2.796c0.904-2.099,2.058-4.092,3.211-6.356
		c0.452,0.876,0.747,1.421,1.033,1.975c2.98,5.862,5.923,11.754,9.014,17.557c0.424,0.812,1.587,1.697,2.417,1.697
		c0.831,0,1.698-1.015,2.473-1.66c0.276-0.24,0.378-0.692,0.554-1.053C170.637,137.871,174.373,130.545,178.221,122.989z
		 M199.293,87.876c0-5.448,0.018-10.896,0-16.344c-0.019-2.315-0.904-3.174-3.229-3.183c-4.032-0.023-8.063-0.032-12.086,0
		c-2.122,0.018-3.026,0.904-3.035,3.026c-0.028,10.896-0.028,21.796,0,32.692c0.009,2.205,0.913,3.063,3.128,3.072
		c3.855,0.018,7.722,0.009,11.578,0.004c2.888,0,3.645-0.743,3.645-3.603C199.311,98.319,199.293,93.098,199.293,87.876z
		 M132.276,91.165c0,4.313-0.015,8.626,0.005,12.939c0.009,2.108,0.904,3.021,2.988,3.036c4.088,0.022,8.175,0.022,12.257,0
		c2.187-0.014,3.128-0.923,3.128-3.104c0.027-8.626,0.027-17.253,0-25.874c0-2.085-0.969-3.035-3.026-3.049
		c-4.083-0.028-8.169-0.028-12.257-0.004c-2.191,0.009-3.086,0.918-3.09,3.118C132.262,82.539,132.276,86.852,132.276,91.165z
		 M175.038,94.915c0-3.123,0.027-6.25-0.009-9.378c-0.02-2.191-0.813-3.063-2.935-3.091c-4.151-0.046-8.304-0.046-12.454,0
		c-2.049,0.023-2.943,0.895-2.953,2.929c-0.037,6.255-0.037,12.505,0,18.756c0.01,2.112,0.941,2.994,3.045,3.008
		c4.096,0.022,8.184,0.022,12.27,0c2.104-0.014,3.008-0.9,3.027-3.013C175.065,101.06,175.038,97.987,175.038,94.915z
		 M86.604,102.388c9.203,0,18.405,0,27.604,0c2.689,0,3.824-0.742,3.852-2.495c0.028-1.804-1.199-2.62-3.935-2.62
		c-18.401,0-36.802-0.005-55.208,0c-0.673,0-1.379-0.014-2.021,0.161c-1.241,0.346-1.905,1.269-1.831,2.542
		c0.078,1.347,0.862,2.195,2.232,2.375c0.503,0.069,1.024,0.032,1.536,0.037C68.087,102.388,77.346,102.388,86.604,102.388z
		 M86.512,129.388c9.198,0,18.401,0,27.599,0c0.567,0,1.139,0.019,1.702-0.042c1.296-0.143,2.076-0.886,2.214-2.182
		c0.152-1.365-0.452-2.339-1.79-2.708c-0.646-0.171-1.347-0.18-2.021-0.18c-18.457-0.009-36.913-0.009-55.369,0
		c-0.674,0-1.375,0.023-2.021,0.208c-1.259,0.351-1.859,1.315-1.758,2.579c0.102,1.259,0.831,2.094,2.141,2.274
		c0.558,0.069,1.13,0.046,1.702,0.046C68.111,129.388,77.309,129.388,86.512,129.388z M86.521,73.456c9.198,0,18.401,0,27.599-0.005
		c0.623,0,1.26,0.032,1.869-0.074c1.204-0.199,1.919-0.946,2.043-2.164c0.134-1.287-0.397-2.242-1.643-2.647
		c-0.572-0.189-1.222-0.217-1.84-0.217c-18.682-0.01-37.369-0.01-56.051,0c-0.563,0-1.149,0.022-1.679,0.185
		c-1.25,0.378-1.85,1.323-1.744,2.592c0.102,1.264,0.835,2.095,2.145,2.266c0.613,0.083,1.245,0.06,1.868,0.06
		C68.23,73.456,77.378,73.456,86.521,73.456z M75.436,87.036c5.789,0,11.578,0.005,17.363,0c2.113-0.004,3.331-0.969,3.294-2.579
		c-0.033-1.545-1.236-2.528-3.215-2.533c-11.523-0.009-23.042-0.004-34.564,0c-2.09,0.005-3.308,1.011-3.275,2.63
		c0.032,1.577,1.167,2.477,3.197,2.481C63.968,87.041,69.702,87.036,75.436,87.036z M97.615,116.001
		c5.789,0,11.583,0.009,17.372-0.005c1.928-0.005,3.003-0.891,3.072-2.44c0.069-1.684-1.07-2.666-3.173-2.666
		c-11.523-0.009-23.051-0.009-34.574,0c-1.993,0-3.179,0.959-3.202,2.514c-0.023,1.615,1.204,2.593,3.303,2.593
		C86.147,116.005,91.881,116.001,97.615,116.001z M71.261,142.945c4.262,0,8.516,0,12.773,0c2.173-0.01,3.313-0.887,3.335-2.528
		c0.023-1.661-1.121-2.583-3.261-2.583c-8.571-0.01-17.142-0.01-25.712,0c-2.154,0-3.34,0.895-3.358,2.509
		c-0.028,1.624,1.176,2.593,3.285,2.603C62.635,142.945,66.948,142.945,71.261,142.945z M62.557,116.001
		c1.587,0,3.174,0.014,4.761-0.005c1.983-0.019,3.169-0.959,3.201-2.519c0.023-1.56-1.181-2.579-3.123-2.588
		c-3.114-0.019-6.227-0.019-9.341,0c-1.854,0.014-2.999,0.992-3.017,2.509c-0.028,1.527,1.112,2.56,2.929,2.597
		C59.499,116.023,61.03,115.996,62.557,116.001z M110.347,87.036c1.702,0,3.399,0.037,5.097-0.014
		c1.559-0.042,2.523-0.95,2.606-2.344c0.092-1.462-0.858-2.671-2.421-2.712c-3.451-0.083-6.91-0.079-10.365-0.009
		c-1.55,0.032-2.616,1.241-2.574,2.62c0.056,1.407,1.125,2.408,2.726,2.45C107.058,87.068,108.7,87.036,110.347,87.036z"/>
	<path fill-rule="evenodd" clip-rule="evenodd" d="M214.496,167.836c-0.461,1.089-0.793,2.242-1.374,3.266
		c-2.168,3.802-5.563,5.518-9.881,5.518c-16.532,0-33.083,0-49.616,0c-0.674,0-1.348,0-2.178,0
		c0.813,4.724,1.568,9.244,2.418,13.746c0.055,0.332,0.774,0.738,1.199,0.775c1.476,0.129,2.971,0.009,4.428,0.166
		c3.922,0.388,6.883,3.764,6.827,7.639c-0.056,3.921-3.063,7.159-6.975,7.528c-0.462,0.037-0.913,0.056-1.365,0.056
		c-20.522,0-41.037,0-61.55-0.01c-4.521-0.009-7.57-2.444-8.257-6.522c-0.683-4.06,2.237-8.118,6.333-8.636
		c1.568-0.212,3.183-0.073,4.76-0.221c0.461-0.056,1.19-0.535,1.264-0.904c0.839-4.456,1.578-8.931,2.39-13.617
		c-2.395,0-4.655,0-6.915,0c-2.731,0-5.453,0-8.183,0c-2.279-0.01-3.524-0.904-3.547-2.547c-0.023-1.623,1.218-2.564,3.487-2.564
		c17.792,0,35.579,0,53.367,0c20.291,0,40.579,0,60.867,0c5.877,0,7.916-2.325,7.242-8.414c-54.672,0-109.368,0-164.543,0
		c0.369,1.975,0.416,3.949,1.144,5.619c0.914,2.104,2.976,2.805,5.25,2.795c7.5-0.019,15.001,0,22.506,0
		c0.623,0,1.259-0.027,1.869,0.074c1.213,0.203,1.914,0.978,2.029,2.187c0.125,1.282-0.424,2.241-1.67,2.629
		c-0.632,0.203-1.342,0.212-2.016,0.212c-7.334,0.01-14.665,0.01-21.994,0.01c-6.352,0-9.793-2.51-11.726-8.525
		c-0.033-0.092-0.139-0.166-0.208-0.258c0-36.377,0-72.755,0-109.128c0.208-0.521,0.411-1.033,0.614-1.55
		c1.638-4.197,4.659-6.601,9.166-7.063c0.678-0.073,1.361-0.064,2.043-0.064c35.293,0,70.586,0,105.879,0
		c0.508,0,1.025-0.009,1.532,0.032c1.476,0.116,2.278,0.979,2.436,2.39c0.138,1.306-0.896,2.436-2.371,2.625
		c-0.729,0.092-1.476,0.064-2.214,0.064c-35.003,0.005-70.01,0.005-105.022,0.005c-5.088,0-6.947,1.877-6.947,7.016
		c0,31.142,0,62.289,0,93.431c0,0.673,0,1.355,0,2.149c54.806,0,109.497,0,164.382,0c0-0.665,0-1.273,0-1.882
		c0-31.373,0-62.741,0-94.113c0-4.594-2.021-6.596-6.68-6.601c-10.121-0.005-20.232,0-30.344-0.005
		c-2.787,0-3.967-0.808-3.922-2.644c0.047-1.771,1.135-2.468,3.885-2.468c9.613,0,19.217,0.198,28.821-0.069
		c6.68-0.188,11.312,2.136,13.358,8.746C214.496,95.081,214.496,131.459,214.496,167.836z M146.263,176.729
		c-12.806,0-25.454,0-38.163,0c-0.826,4.816-1.638,9.54-2.482,14.448c0.899,0,1.513,0,2.131,0c6.933,0,13.866,0,20.799,0.009
		c0.678,0,1.379,0,2.029,0.175c1.265,0.333,1.851,1.265,1.781,2.547c-0.069,1.227-0.729,2.039-1.934,2.27
		c-0.664,0.129-1.355,0.11-2.038,0.11c-10.342,0-20.689,0-31.031,0.01c-0.623,0-1.255-0.01-1.873,0.073
		c-1.458,0.194-2.284,1.117-2.265,2.52c0.019,1.42,0.854,2.315,2.325,2.481c0.452,0.046,0.904,0.036,1.361,0.036
		c20.177,0,40.354,0,60.531-0.009c0.563,0,1.144,0.019,1.706-0.092c1.292-0.24,1.983-1.135,2.011-2.381
		c0.037-1.255-0.627-2.195-1.918-2.472c-0.646-0.148-1.348-0.148-2.029-0.157c-5.001-0.01-10.002,0.009-15.002-0.019
		c-1.78-0.01-2.869-0.959-2.938-2.417c-0.069-1.504,1.057-2.574,2.884-2.667c0.737-0.036,1.476-0.018,2.214-0.018
		c1.401,0,2.804,0,4.4,0C147.904,186.195,147.074,181.472,146.263,176.729z"/>
	<path fill-rule="evenodd" clip-rule="evenodd" d="M178.221,122.989c-3.848,7.556-7.584,14.882-11.311,22.206
		c-0.176,0.36-0.277,0.813-0.554,1.053c-0.774,0.646-1.642,1.66-2.473,1.66c-0.83,0-1.993-0.886-2.417-1.697
		c-3.091-5.803-6.033-11.694-9.014-17.557c-0.286-0.554-0.581-1.098-1.033-1.975c-1.153,2.265-2.307,4.258-3.211,6.356
		c-0.876,2.048-2.205,2.934-4.475,2.796c-2.721-0.166-5.452-0.028-8.178-0.047c-2.15,0-3.295-0.922-3.271-2.588
		c0.023-1.633,1.182-2.509,3.35-2.519c2.158-0.009,4.317-0.064,6.477,0.023c1.116,0.046,1.721-0.276,2.214-1.329
		c1.356-2.869,2.878-5.664,4.3-8.51c0.6-1.204,1.217-2.39,2.768-2.403c1.559-0.014,2.214,1.139,2.822,2.348
		c2.889,5.725,5.813,11.431,8.719,17.137c0.268,0.535,0.563,1.07,0.95,1.827c0.388-0.72,0.646-1.199,0.904-1.698
		c3.579-7.025,7.178-14.046,10.739-21.076c0.59-1.176,1.254-2.232,2.712-2.246c1.458-0.005,2.141,1.047,2.731,2.214
		c2.084,4.161,4.225,8.289,6.291,12.459c0.462,0.941,0.996,1.32,2.066,1.278c2.326-0.083,4.66-0.046,6.994-0.019
		c1.845,0.023,2.952,1.024,2.934,2.578c-0.01,1.555-1.107,2.506-2.98,2.523c-3.127,0.019-6.246-0.027-9.373,0.019
		c-1.494,0.028-2.445-0.613-3.1-1.923c-1.541-3.096-3.128-6.168-4.705-9.249C178.848,124.143,178.571,123.658,178.221,122.989z"/>
	<path fill-rule="evenodd" clip-rule="evenodd" d="M199.293,87.876c0,5.222,0.018,10.443,0,15.665c0,2.86-0.757,3.603-3.645,3.603
		c-3.856,0.004-7.723,0.014-11.578-0.004c-2.215-0.01-3.119-0.868-3.128-3.072c-0.028-10.896-0.028-21.796,0-32.692
		c0.009-2.122,0.913-3.008,3.035-3.026c4.022-0.032,8.054-0.023,12.086,0c2.325,0.009,3.211,0.867,3.229,3.183
		C199.311,76.98,199.293,82.428,199.293,87.876z M194.07,73.571c-2.693,0-5.268,0-7.915,0c0,9.507,0,18.903,0,28.365
		c2.694,0,5.268,0,7.915,0C194.07,92.447,194.07,83.051,194.07,73.571z"/>
	<path fill-rule="evenodd" clip-rule="evenodd" d="M132.276,91.165c0-4.313-0.015-8.626,0.005-12.939
		c0.004-2.2,0.898-3.109,3.09-3.118c4.088-0.023,8.174-0.023,12.257,0.004c2.058,0.014,3.026,0.964,3.026,3.049
		c0.027,8.621,0.027,17.248,0,25.874c0,2.182-0.941,3.09-3.128,3.104c-4.082,0.022-8.169,0.022-12.257,0
		c-2.084-0.014-2.979-0.928-2.988-3.036C132.262,99.791,132.276,95.478,132.276,91.165z M137.512,80.273c0,7.312,0,14.48,0,21.658
		c2.703,0,5.287,0,7.911,0c0-7.266,0-14.43,0-21.658C142.757,80.273,140.215,80.273,137.512,80.273z"/>
	<path fill-rule="evenodd" clip-rule="evenodd" d="M175.038,94.915c0,3.072,0.027,6.145-0.009,9.212
		c-0.02,2.113-0.924,2.999-3.027,3.013c-4.086,0.022-8.174,0.022-12.27,0c-2.104-0.014-3.035-0.896-3.045-3.008
		c-0.037-6.251-0.037-12.501,0-18.756c0.01-2.034,0.904-2.906,2.953-2.929c4.15-0.046,8.303-0.046,12.454,0
		c2.122,0.028,2.915,0.899,2.935,3.091C175.065,88.665,175.038,91.792,175.038,94.915z M169.825,87.636c-2.739,0-5.276,0-7.925,0
		c0,4.825,0,9.554,0,14.291c2.703,0,5.295,0,7.925,0C169.825,97.139,169.825,92.456,169.825,87.636z"/>
	<path fill-rule="evenodd" clip-rule="evenodd" d="M86.604,102.388c-9.258,0-18.517,0-27.77,0c-0.512-0.004-1.033,0.033-1.536-0.037
		c-1.37-0.18-2.154-1.029-2.232-2.375c-0.074-1.273,0.59-2.196,1.831-2.542c0.642-0.175,1.347-0.161,2.021-0.161
		c18.406-0.005,36.807,0,55.208,0c2.735,0,3.962,0.816,3.935,2.62c-0.027,1.753-1.162,2.495-3.852,2.495
		C105.009,102.388,95.807,102.388,86.604,102.388z"/>
	<path fill-rule="evenodd" clip-rule="evenodd" d="M86.512,129.388c-9.203,0-18.401,0-27.599-0.005
		c-0.572,0-1.144,0.023-1.702-0.046c-1.31-0.181-2.039-1.015-2.141-2.274c-0.102-1.264,0.499-2.228,1.758-2.579
		c0.646-0.185,1.347-0.208,2.021-0.208c18.456-0.009,36.912-0.009,55.369,0c0.673,0,1.375,0.009,2.021,0.18
		c1.337,0.369,1.942,1.343,1.79,2.708c-0.138,1.296-0.918,2.039-2.214,2.182c-0.563,0.061-1.135,0.042-1.702,0.042
		C104.913,129.388,95.709,129.388,86.512,129.388z"/>
	<path fill-rule="evenodd" clip-rule="evenodd" d="M86.521,73.456c-9.143,0-18.291,0-27.433-0.005c-0.623,0-1.255,0.023-1.868-0.06
		c-1.31-0.171-2.043-1.001-2.145-2.266c-0.106-1.269,0.494-2.214,1.744-2.592c0.53-0.162,1.116-0.185,1.679-0.185
		c18.682-0.01,37.369-0.01,56.051,0c0.618,0,1.269,0.027,1.84,0.217c1.246,0.406,1.776,1.36,1.643,2.647
		c-0.125,1.218-0.84,1.965-2.043,2.164c-0.609,0.106-1.246,0.074-1.869,0.074C104.922,73.456,95.719,73.456,86.521,73.456z"/>
	<path fill-rule="evenodd" clip-rule="evenodd" d="M75.436,87.036c-5.734,0-11.468,0.005-17.202,0
		c-2.03-0.004-3.165-0.904-3.197-2.481c-0.032-1.619,1.186-2.625,3.275-2.63c11.523-0.004,23.042-0.009,34.564,0
		c1.979,0.005,3.183,0.987,3.215,2.533c0.037,1.61-1.181,2.574-3.294,2.579C87.014,87.041,81.225,87.036,75.436,87.036z"/>
	<path fill-rule="evenodd" clip-rule="evenodd" d="M97.615,116.001c-5.734,0-11.468,0.004-17.202-0.005
		c-2.099,0-3.326-0.978-3.303-2.593c0.023-1.554,1.208-2.514,3.202-2.514c11.523-0.009,23.05-0.009,34.574,0
		c2.104,0,3.243,0.982,3.173,2.666c-0.069,1.55-1.144,2.436-3.072,2.44C109.198,116.01,103.404,116.001,97.615,116.001z"/>
	<path fill-rule="evenodd" clip-rule="evenodd" d="M71.261,142.945c-4.313,0-8.626,0-12.939,0c-2.108-0.01-3.313-0.979-3.285-2.603
		c0.019-1.614,1.204-2.509,3.358-2.509c8.571-0.01,17.142-0.01,25.712,0c2.14,0,3.284,0.922,3.261,2.583
		c-0.023,1.642-1.163,2.519-3.335,2.528C79.777,142.945,75.523,142.945,71.261,142.945z"/>
	<path fill-rule="evenodd" clip-rule="evenodd" d="M62.557,115.996c-1.527,0-3.058,0.027-4.59,0
		c-1.817-0.037-2.957-1.07-2.929-2.597c0.019-1.518,1.163-2.496,3.017-2.509c3.114-0.019,6.227-0.019,9.341,0
		c1.942,0.009,3.146,1.028,3.123,2.588c-0.032,1.559-1.218,2.5-3.201,2.519C65.73,116.015,64.144,116.001,62.557,115.996z"/>
	<path fill-rule="evenodd" clip-rule="evenodd" d="M110.347,87.036c-1.647,0-3.289,0.032-4.932-0.009
		c-1.601-0.042-2.67-1.043-2.726-2.45c-0.042-1.379,1.024-2.588,2.574-2.62c3.455-0.069,6.915-0.074,10.365,0.009
		c1.563,0.041,2.514,1.25,2.421,2.712c-0.083,1.394-1.047,2.302-2.606,2.344C113.746,87.073,112.049,87.036,110.347,87.036z"/>
	<path fill-rule="evenodd" clip-rule="evenodd" fill="#39B54A" d="M194.07,73.571c0,9.479,0,18.876,0,28.365
		c-2.647,0-5.221,0-7.915,0c0-9.461,0-18.858,0-28.365C188.803,73.571,191.377,73.571,194.07,73.571z"/>
	<path fill-rule="evenodd" clip-rule="evenodd" fill="#39B54A" d="M137.512,80.273c2.703,0,5.245,0,7.911,0
		c0,7.229,0,14.393,0,21.658c-2.624,0-5.208,0-7.911,0C137.512,94.754,137.512,87.585,137.512,80.273z"/>
	<path fill-rule="evenodd" clip-rule="evenodd" fill="#39B54A" d="M169.825,87.636c0,4.82,0,9.503,0,14.291c-2.63,0-5.222,0-7.925,0
		c0-4.737,0-9.466,0-14.291C164.549,87.636,167.086,87.636,169.825,87.636z"/>
</g>
</svg>
