<?xml version="1.0" encoding="utf-8"?>
<!-- Generator: Adobe Illustrator 16.0.0, SVG Export Plug-In . SVG Version: 6.00 Build 0)  -->
<!DOCTYPE svg PUBLIC "-//W3C//DTD SVG 1.1//EN" "http://www.w3.org/Graphics/SVG/1.1/DTD/svg11.dtd">
<svg version="1.1" id="Layer_1" xmlns="http://www.w3.org/2000/svg" xmlns:xlink="http://www.w3.org/1999/xlink" x="0px" y="0px"
	 width="16px" height="16px" viewBox="0 0 16 16" enable-background="new 0 0 16 16" xml:space="preserve">
<g>
	<path fill="#627D53" d="M8.088,6.943C7.89,6.827,7.686,6.824,7.477,6.852C7.084,6.904,6.722,7.057,6.354,7.194
		c-0.101,0.037-0.2,0.078-0.302,0.113C5.784,7.401,5.519,7.316,5.304,7.068c-0.2-0.229-0.238-0.483-0.106-0.736
		c0.579-1.116,1.159-2.231,1.738-3.347C7.015,2.834,7.14,2.762,7.279,2.783c0.135,0.021,0.254,0.124,0.262,0.254
		C7.547,3.12,7.522,3.213,7.49,3.292C7.189,4.016,6.884,4.737,6.579,5.46C6.565,5.493,6.552,5.529,6.535,5.57
		c0.219-0.042,0.423-0.094,0.632-0.122c0.631-0.085,1.251-0.044,1.849,0.197c0.346,0.141,0.517,0.408,0.558,0.771
		c0.018,0.188-0.044,0.346-0.16,0.489c-0.479,0.579-0.954,1.16-1.43,1.74c-0.044,0.053-0.088,0.106-0.154,0.19
		c0.038,0.022,0.078,0.041,0.109,0.069c0.432,0.406,0.864,0.813,1.294,1.221c0.168,0.158,0.207,0.396,0.104,0.592
		c-0.104,0.2-0.318,0.309-0.541,0.254c-0.09-0.021-0.184-0.068-0.25-0.133c-0.565-0.521-1.12-1.049-1.676-1.574
		c-0.258-0.242-0.273-0.5-0.049-0.771c0.388-0.474,0.777-0.946,1.166-1.42C8.019,7.031,8.051,6.99,8.088,6.943z"/>
	<path fill="#627D53" d="M4.238,6.564c0.479,0.001,0.869,0.391,0.866,0.863c-0.003,0.49-0.396,0.872-0.889,0.868
		C3.749,8.292,3.368,7.898,3.372,7.423C3.375,6.94,3.757,6.562,4.238,6.564z"/>
	<path fill="#627D53" d="M12.629,10.286c0,0.179,0,0.346,0,0.493c-0.459,0.111-0.91,0.203-1.352,0.332
		c-0.84,0.246-1.635,0.604-2.385,1.062c-0.152,0.095-0.31,0.068-0.395-0.063c-0.085-0.137-0.044-0.289,0.113-0.383
		c1.089-0.66,2.252-1.125,3.505-1.369c0.143-0.027,0.286-0.049,0.432-0.068C12.572,10.283,12.594,10.286,12.629,10.286z"/>
</g>
</svg>
