<?xml version="1.0" encoding="utf-8"?>
<!-- Generator: Adobe Illustrator 16.0.0, SVG Export Plug-In . SVG Version: 6.00 Build 0)  -->
<!DOCTYPE svg PUBLIC "-//W3C//DTD SVG 1.1//EN" "http://www.w3.org/Graphics/SVG/1.1/DTD/svg11.dtd">
<svg version="1.1" id="Layer_1" xmlns="http://www.w3.org/2000/svg" xmlns:xlink="http://www.w3.org/1999/xlink" x="0px" y="0px"
	 width="16px" height="16px" viewBox="0 0 16 16" enable-background="new 0 0 16 16" xml:space="preserve">
<g>
	<path fill-rule="evenodd" clip-rule="evenodd" fill="#627D53" d="M2.207,3.451C2.642,3.228,3.106,3.2,3.587,3.212
		C4.893,3.243,6.199,3.251,7.505,3.27C7.618,3.271,7.73,3.277,7.811,3.28C7.799,4.164,7.789,5.033,7.778,5.91
		c-1.412,0.424-2.103,1.207-2.086,2.4c0.014,0.916,0.545,2.025,2.052,2.336c-0.011,0.879-0.02,1.752-0.029,2.615
		c-1.604-0.016-3.218-0.002-4.829-0.053c-0.853-0.029-1.444-0.738-1.447-1.6c-0.001-0.338,0.007-0.676,0.011-1.066
		c0.374,0.016,0.713,0.031,1.052,0.047c0.339,0.016,0.679,0.033,0.982,0.047C3.504,9.01,3.525,7.438,3.545,5.828
		C2.917,5.834,2.237,5.84,1.521,5.846c0.017-0.717-0.089-1.397,0.295-2.014C1.945,3.705,2.076,3.579,2.207,3.451z"/>
	<path fill-rule="evenodd" clip-rule="evenodd" fill="#627D53" d="M8.349,10.645c1.34-0.211,2.039-1.205,2.1-2.229
		c0.069-1.211-0.629-2.061-2.013-2.492c0.013-0.878,0.025-1.746,0.04-2.665c0.523,0.014,1.088,0.035,1.655,0.045
		c0.978,0.017,1.954,0.023,2.93,0.041c1.012,0.018,1.651,0.679,1.646,1.686c-0.002,0.306,0.004,0.612,0.007,0.933
		c-0.719-0.023-1.406-0.045-2.06-0.064c-0.021,1.648-0.042,3.213-0.062,4.77c0.626,0.002,1.313,0.008,2.039,0.01
		c-0.052,0.789,0.146,1.521-0.403,2.129c-0.307,0.34-0.679,0.551-1.13,0.547c-1.603-0.014-3.202-0.049-4.79-0.076
		C8.321,12.41,8.335,11.537,8.349,10.645z"/>
	<path fill-rule="evenodd" clip-rule="evenodd" fill="#627D53" d="M14.548,10.186c-0.438-0.006-0.936-0.012-1.412-0.018
		c0.026-1.203,0.051-2.41,0.076-3.617c0.42,0.016,0.924,0.035,1.383,0.051C14.579,7.756,14.564,8.963,14.548,10.186z"/>
	<path fill-rule="evenodd" clip-rule="evenodd" fill="#627D53" d="M2.971,10C2.49,9.992,1.982,9.98,1.512,9.971
		C1.53,8.807,1.548,7.598,1.566,6.395c0.476,0.012,0.981,0.027,1.454,0.041C3.004,7.604,2.988,8.813,2.971,10z"/>
	<path fill-rule="evenodd" clip-rule="evenodd" fill="#627D53" d="M8.375,10.076c0.018-1.186,0.039-2.371,0.058-3.559
		c0.733,0.027,1.435,0.801,1.477,1.691C9.953,9.143,9.275,9.953,8.375,10.076z"/>
	<path fill-rule="evenodd" clip-rule="evenodd" fill="#627D53" d="M7.764,6.496C7.747,7.695,7.73,8.883,7.715,10.064
		c-0.857-0.139-1.495-0.9-1.483-1.803C6.244,7.357,6.902,6.609,7.764,6.496z"/>
</g>
</svg>
