<?xml version="1.0" encoding="utf-8"?>
<!-- Generator: Adobe Illustrator 16.0.0, SVG Export Plug-In . SVG Version: 6.00 Build 0)  -->
<!DOCTYPE svg PUBLIC "-//W3C//DTD SVG 1.1//EN" "http://www.w3.org/Graphics/SVG/1.1/DTD/svg11.dtd">
<svg version="1.1" id="Layer_1" xmlns="http://www.w3.org/2000/svg" xmlns:xlink="http://www.w3.org/1999/xlink" x="0px" y="0px"
	 width="16px" height="16px" viewBox="0 0 16 16" enable-background="new 0 0 16 16" xml:space="preserve">
<g>
	<path fill="#627D53" d="M5.751,6.063C5.66,5.866,5.57,5.691,5.495,5.51C5.351,5.169,4.973,5.042,4.684,5.244
		C4.465,5.397,4.399,5.68,4.525,5.931c0.178,0.354,0.371,0.7,0.633,1.009C4.892,7.323,4.729,7.751,4.602,8.2
		c0.272,0.177,0.542,0.353,0.813,0.528C5.609,8.855,5.806,8.98,5.996,9.116c0.13,0.093,0.24,0.206,0.257,0.379
		c0.006,0.06,0,0.125-0.016,0.185c-0.251,0.893-0.504,1.784-0.758,2.68c-0.076,0.264-0.307,0.404-0.567,0.348
		c-0.236-0.051-0.397-0.301-0.347-0.557c0.121-0.611,0.248-1.221,0.372-1.832c0.035-0.168,0.068-0.34,0.106-0.508
		c0.013-0.056-0.004-0.08-0.054-0.105c-0.525-0.26-1.045-0.527-1.572-0.779c-0.419-0.201-0.549-0.552-0.5-0.979
		C2.981,7.396,3.214,6.906,3.493,6.44c0.243-0.407,0.51-0.8,0.782-1.188c0.204-0.292,0.499-0.41,0.848-0.328
		c0.353,0.083,0.601,0.296,0.69,0.659C5.853,5.738,5.834,5.893,5.751,6.063z"/>
	<path fill="#627D53" d="M12.646,5.334c-0.172-0.099-0.349-0.189-0.515-0.294c-0.272-0.174-0.606-0.046-0.735,0.207
		c-0.146,0.285-0.045,0.591,0.246,0.735c0.17,0.086,0.344,0.17,0.512,0.264c0.387,0.218,0.682,0.527,0.885,0.92
		c0.034,0.069,0.039,0.156,0.045,0.235c0.023,0.362,0.023,0.723-0.104,1.069c-0.113,0.305-0.32,0.496-0.648,0.563
		c-0.611,0.126-1.223,0.266-1.834,0.396c-0.059,0.014-0.074,0.039-0.076,0.1c-0.016,0.752-0.033,1.502-0.052,2.255
		c-0.007,0.233-0.138,0.416-0.345,0.483c-0.32,0.105-0.592-0.096-0.603-0.432c-0.021-0.715-0.048-1.432-0.071-2.148
		C9.343,9.491,9.335,9.292,9.331,9.094C9.327,8.922,9.393,8.77,9.542,8.688c0.187-0.103,0.383-0.186,0.582-0.261
		c0.384-0.148,0.771-0.286,1.159-0.423c0.066-0.024,0.082-0.058,0.084-0.123c0.021-0.606-0.096-1.192-0.251-1.772
		c-0.036-0.134-0.066-0.269-0.109-0.4c-0.144-0.446,0.136-0.826,0.509-0.954c0.502-0.174,0.989,0.065,1.131,0.558
		C12.648,5.318,12.646,5.326,12.646,5.334z"/>
	<path fill="#627D53" d="M2.961,8.813c0.374,0.319,0.841,0.467,1.261,0.699C4.279,9.54,4.299,9.568,4.296,9.634
		c-0.011,0.304-0.005,0.607-0.027,0.91c-0.012,0.16-0.063,0.317-0.107,0.476c-0.209,0.744-0.421,1.489-0.634,2.233
		c-0.072,0.252-0.282,0.388-0.538,0.351c-0.22-0.033-0.391-0.232-0.374-0.48c0.014-0.199,0.062-0.395,0.102-0.592
		c0.125-0.615,0.253-1.23,0.379-1.846c0.004-0.021,0.006-0.043,0.005-0.064c-0.028-0.377-0.059-0.752-0.088-1.127
		C2.996,9.268,2.979,9.039,2.961,8.813z"/>
	<path fill="#627D53" d="M12.706,9.104c-0.058,0.18-0.114,0.36-0.173,0.543c-0.122,0.383-0.254,0.762-0.361,1.146
		c-0.035,0.121-0.011,0.265-0.001,0.394c0.027,0.356,0.062,0.715,0.093,1.069c0.024,0.279,0.045,0.558,0.073,0.836
		c0.024,0.231-0.178,0.492-0.41,0.515c-0.274,0.024-0.508-0.168-0.528-0.424c-0.037-0.437-0.082-0.869-0.125-1.306
		c-0.035-0.36-0.057-0.726-0.106-1.084c-0.063-0.429,0.006-0.851,0.031-1.271c0.003-0.051,0.018-0.068,0.069-0.078
		c0.33-0.062,0.66-0.119,0.988-0.19C12.406,9.219,12.553,9.156,12.706,9.104z"/>
	<path fill="#627D53" d="M7.502,13.542c-0.548,0-0.989-0.442-0.989-0.989c0-0.541,0.448-0.986,0.993-0.986
		c0.543,0.002,0.989,0.447,0.988,0.992C8.494,13.104,8.049,13.542,7.502,13.542z"/>
	<path fill="#627D53" d="M5.364,4.304c0-0.549,0.437-0.985,0.987-0.986c0.546,0,0.989,0.44,0.989,0.988
		c0,0.545-0.443,0.987-0.99,0.987C5.803,5.292,5.364,4.852,5.364,4.304z"/>
	<path fill="#627D53" d="M11.975,3.723c-0.006,0.557-0.447,0.988-1.01,0.983C10.43,4.7,9.994,4.25,9.998,3.705
		c0.003-0.542,0.451-0.978,1.001-0.974C11.542,2.734,11.979,3.179,11.975,3.723z"/>
	<path fill="#627D53" d="M5.005,5.321c0.151,0,0.258,0.09,0.335,0.251c0.115,0.24,0.23,0.48,0.367,0.706
		c0.217,0.36,0.534,0.621,0.902,0.814C6.925,7.259,7.25,7.409,7.57,7.566C7.765,7.663,7.806,7.883,7.656,8.04
		c-0.08,0.084-0.182,0.12-0.288,0.07C6.781,7.839,6.175,7.6,5.661,7.194c-0.376-0.297-0.641-0.682-0.864-1.1
		c-0.041-0.076-0.073-0.158-0.121-0.23C4.514,5.618,4.722,5.315,5.005,5.321z"/>
	<path fill="#627D53" d="M11.861,5.12c0.043,0.012,0.087,0.016,0.123,0.035c0.356,0.186,0.701,0.389,1.004,0.659
		c0.308,0.273,0.541,0.602,0.716,0.969c0.178,0.372,0.341,0.75,0.507,1.126c0.047,0.105,0.036,0.208-0.044,0.295
		C14.08,8.299,13.971,8.33,13.85,8.299c-0.095-0.023-0.146-0.097-0.185-0.182c-0.108-0.25-0.226-0.499-0.331-0.75
		c-0.309-0.731-0.854-1.214-1.574-1.518c-0.051-0.022-0.103-0.051-0.144-0.088c-0.119-0.103-0.147-0.24-0.091-0.391
		C11.584,5.22,11.711,5.128,11.861,5.12z"/>
	<path fill="#627D53" d="M11.092,6.685C11.12,6.849,11.15,7,11.169,7.153c0.022,0.193,0.022,0.206-0.162,0.264
		c-0.448,0.14-0.899,0.27-1.353,0.4c-0.061,0.018-0.129,0.032-0.19,0.024C9.333,7.823,9.238,7.705,9.23,7.566
		C9.225,7.421,9.294,7.314,9.438,7.274c0.219-0.062,0.438-0.116,0.658-0.179C10.436,6.998,10.771,6.887,11.092,6.685z"/>
	<path fill="#627D53" d="M5.099,7.391C5.345,7.568,5.592,7.74,5.831,7.922c0.12,0.091,0.124,0.259,0.025,0.387
		C5.76,8.436,5.6,8.464,5.467,8.373C5.31,8.266,5.156,8.155,5.002,8.044C4.831,7.921,4.83,7.919,4.916,7.729
		C4.96,7.63,5.014,7.536,5.064,7.44C5.072,7.424,5.085,7.409,5.099,7.391z"/>
</g>
</svg>
