<?xml version="1.0" encoding="utf-8"?>
<!-- Generator: Adobe Illustrator 16.0.0, SVG Export Plug-In . SVG Version: 6.00 Build 0)  -->
<!DOCTYPE svg PUBLIC "-//W3C//DTD SVG 1.1//EN" "http://www.w3.org/Graphics/SVG/1.1/DTD/svg11.dtd">
<svg version="1.1" id="Layer_1" xmlns="http://www.w3.org/2000/svg" xmlns:xlink="http://www.w3.org/1999/xlink" x="0px" y="0px"
	 width="51px" height="51px" viewBox="0 0 51 51" enable-background="new 0 0 51 51" xml:space="preserve">
<g>
	<path fill="none" d="M37.925,7.745c0.664-1.189,0.633-2.378-0.082-3.54c-0.453-0.732-1.089-1.091-1.948-1.091
		c-2.355,0-6.23,2.859-7.75,8.966C32.268,12.246,36.46,10.371,37.925,7.745z"/>
	<path fill="none" d="M16.834,3.114c-0.855,0-1.495,0.359-1.947,1.091c-0.716,1.162-0.747,2.351-0.083,3.54
		c1.467,2.626,5.663,4.5,9.778,4.335C23.064,5.973,19.189,3.114,16.834,3.114z"/>
	<rect x="2.37" y="17.978" fill="#00A79D" width="17" height="5"/>
	<rect x="32.37" y="17.978" fill="#00A79D" width="17" height="5"/>
	<rect x="8.37" y="25.978" fill="#1A1A1A" width="11" height="22"/>
	<rect x="32.37" y="25.978" fill="#1A1A1A" width="11" height="22"/>
	<path fill="#CDCCCC" d="M32.37,16.28v1.698h-5.597c-1.035,0-2.338,6.531,0.929,13.385l-2.695,1.826
		c-3.301-6.928-2.519-15.211-1.413-15.211H19.37V16.28v8.952v1.992v22.38v1.374h13v-1.374v-22.38v-1.992V16.28z"/>
	<path fill="#00A79D" d="M25.007,31.542l2.695-1.283c-3.267-6.853-1.963-12.038-0.929-14.478c0.131-0.305,0.257-0.571,0.372-0.79
		c0.499,0.048,1.001,0.081,1.509,0.081c5.064,0,9.947-2.415,11.876-5.873c1.195-2.14,1.144-4.473-0.149-6.562
		c-0.998-1.617-2.59-2.506-4.486-2.506c-4.087,0-7.563,3.612-9.529,8.08c-1.97-4.468-5.444-8.08-9.532-8.08
		c-1.896,0-3.488,0.889-4.485,2.506C11.06,4.728,11.005,7.06,12.199,9.2c1.9,3.406,6.67,5.797,11.657,5.867
		c-0.089,0.224-0.174,0.466-0.262,0.715C22.488,19.063,21.706,24.612,25.007,31.542z M35.896,3.114c0.858,0,1.495,0.359,1.948,1.091
		c0.715,1.162,0.746,2.351,0.082,3.54c-1.465,2.626-5.658,4.5-9.779,4.335C29.666,5.973,33.54,3.114,35.896,3.114z M14.804,7.745
		c-0.664-1.189-0.632-2.378,0.083-3.54c0.453-0.732,1.092-1.091,1.947-1.091c2.355,0,6.229,2.859,7.748,8.966
		C20.467,12.246,16.271,10.371,14.804,7.745z"/>
</g>
</svg>
