<?xml version="1.0" encoding="utf-8"?>
<!-- Generator: Adobe Illustrator 16.0.0, SVG Export Plug-In . SVG Version: 6.00 Build 0)  -->
<!DOCTYPE svg PUBLIC "-//W3C//DTD SVG 1.1//EN" "http://www.w3.org/Graphics/SVG/1.1/DTD/svg11.dtd">
<svg version="1.1" id="Layer_1" xmlns="http://www.w3.org/2000/svg" xmlns:xlink="http://www.w3.org/1999/xlink" x="0px" y="0px"
	 width="16px" height="16px" viewBox="0 0 16 16" enable-background="new 0 0 16 16" xml:space="preserve">
<g>
	<path fill="#627D53" d="M5.831,2.285c0.092,0.03,0.188,0.052,0.275,0.092c0.407,0.19,0.628,0.645,0.525,1.072
		C6.525,3.898,6.13,4.206,5.681,4.194C5.22,4.181,4.839,3.857,4.757,3.408C4.665,2.9,5.001,2.406,5.511,2.302
		c0.018-0.003,0.034-0.011,0.051-0.017C5.651,2.285,5.741,2.285,5.831,2.285z"/>
	<path fill="#627D53" d="M3.181,6.396C3.42,6.11,3.659,5.825,3.897,5.539c0.338-0.406,0.676-0.813,1.012-1.221
		c0.028-0.033,0.05-0.045,0.093-0.024C5.074,4.332,5.149,4.362,5.234,4.4c-0.053,0.066-0.1,0.128-0.148,0.189
		C4.658,5.13,4.231,5.671,3.802,6.21c-0.04,0.051-0.042,0.085-0.01,0.143c0.1,0.183,0.192,0.369,0.283,0.557
		c0.027,0.056,0.04,0.12,0.052,0.182c0.019,0.095-0.02,0.149-0.119,0.155C3.863,7.256,3.73,7.212,3.621,7.115
		C3.437,6.951,3.329,6.736,3.228,6.517c-0.014-0.031-0.031-0.06-0.047-0.09C3.181,6.417,3.181,6.406,3.181,6.396z"/>
	<path fill="#627D53" d="M12.969,10.813c-0.011,0.024-0.021,0.049-0.029,0.072c-0.082,0.205-0.295,0.318-0.516,0.275
		c-0.199-0.039-0.355-0.23-0.357-0.439c0-0.209,0.156-0.4,0.363-0.441c0.211-0.045,0.426,0.072,0.508,0.273
		c0.011,0.023,0.021,0.047,0.031,0.069C12.969,10.686,12.969,10.749,12.969,10.813z"/>
	<path fill="#627D53" d="M7.271,5.238c0.311,0.427,0.578,0.869,0.8,1.339C8.313,7.09,8.431,7.629,8.466,8.19
		c0.02,0.33,0.058,0.658,0.07,0.988c0.008,0.194-0.009,0.391-0.031,0.586C8.448,10.26,8.388,10.755,8.32,11.25
		c-0.086,0.645-0.159,1.29-0.334,1.918c-0.035,0.125-0.09,0.251-0.164,0.355c-0.186,0.264-0.563,0.252-0.736-0.021
		c-0.042-0.065-0.064-0.162-0.058-0.239c0.022-0.267,0.06-0.531,0.095-0.795c0.05-0.38,0.103-0.759,0.153-1.139
		c0.036-0.27,0.071-0.539,0.106-0.809c0.002-0.01,0.001-0.021,0.001-0.049c-0.02,0.039-0.032,0.064-0.044,0.09
		c-0.24,0.566-0.543,1.096-0.965,1.545c-0.387,0.412-0.834,0.748-1.347,0.99c-0.296,0.141-0.486,0.012-0.514-0.33
		c-0.016-0.207,0.041-0.384,0.194-0.522c0.138-0.127,0.282-0.247,0.423-0.371c0.613-0.541,1.116-1.168,1.479-1.903
		c0.125-0.25,0.166-0.521,0.154-0.801C6.74,8.67,6.662,8.178,6.518,7.697C6.43,7.407,6.278,7.159,6.06,6.949
		c-0.147-0.14-0.3-0.276-0.434-0.429C5.403,6.267,5.305,5.953,5.23,5.632C5.186,5.441,5.16,5.247,5.2,5.051
		c0.071-0.341,0.369-0.6,0.717-0.624C6.004,4.42,6.091,4.416,6.178,4.408c0.349-0.032,0.587-0.242,0.803-0.49
		C7.02,3.873,7.066,3.831,7.118,3.803c0.242-0.13,0.491-0.247,0.768-0.287c0.06-0.008,0.122-0.01,0.181-0.001
		C8.3,3.552,8.428,3.748,8.378,3.98C8.347,4.124,8.264,4.24,8.174,4.352C7.943,4.64,7.671,4.887,7.396,5.13
		C7.355,5.165,7.316,5.199,7.271,5.238z"/>
</g>
</svg>
