<?xml version="1.0" encoding="utf-8"?>
<!-- Generator: Adobe Illustrator 16.0.0, SVG Export Plug-In . SVG Version: 6.00 Build 0)  -->
<!DOCTYPE svg PUBLIC "-//W3C//DTD SVG 1.1//EN" "http://www.w3.org/Graphics/SVG/1.1/DTD/svg11.dtd">
<svg version="1.1" id="Layer_1" xmlns="http://www.w3.org/2000/svg" xmlns:xlink="http://www.w3.org/1999/xlink" x="0px" y="0px"
	 width="16px" height="16px" viewBox="0 0 16 16" enable-background="new 0 0 16 16" xml:space="preserve">
<g>
	<path fill="#FFFFFF" d="M11.974,7.075c0.021-1.593-0.15-2.169-0.674-3.192c-0.43-0.844-1.031-1.543-1.898-1.957
		C8.077,1.29,6.794,1.458,5.563,2.194C4.621,2.756,4.021,3.611,3.554,4.577c-0.692,1.437-0.61,2.81,0.314,4.124
		c0.473,0.675,1.048,1.253,1.651,1.808c0.503,0.463,1.038,0.895,1.447,1.449c0.165,0.225,0.337,0.439,0.509,0.658
		c0.371,0.467,0.778,0.893,1.336,1.143c0.721,0.32,1.477,0.336,2.238,0.223c0.242-0.035,0.483-0.098,0.715-0.185
		c1.156-0.429,1.67-1.375,1.416-2.586c-0.119-0.569-0.351-1.095-0.644-1.595c-0.264-0.453-0.479-0.924-0.512-1.455
		C12.003,7.75,11.987,7.34,11.974,7.075z"/>
	<path fill="#627D53" d="M11.974,7.075c0.014,0.265,0.029,0.675,0.055,1.085c0.031,0.53,0.248,1.002,0.512,1.455
		c0.291,0.5,0.521,1.022,0.643,1.595c0.254,1.21-0.26,2.157-1.416,2.585c-0.229,0.087-0.473,0.147-0.715,0.187
		c-0.764,0.111-1.52,0.099-2.237-0.223c-0.559-0.25-0.966-0.677-1.337-1.144c-0.172-0.218-0.345-0.437-0.509-0.658
		c-0.409-0.558-0.944-0.985-1.447-1.448C4.917,9.953,4.342,9.375,3.87,8.7C2.946,7.387,2.863,6.012,3.555,4.576
		c0.466-0.966,1.067-1.82,2.008-2.383c1.231-0.735,2.515-0.903,3.839-0.27c0.866,0.416,1.469,1.114,1.897,1.959
		C11.823,4.906,11.993,5.482,11.974,7.075z M11.481,7.077c0.002,0,0.006-0.001,0.008-0.001c0-0.169,0-0.339,0.002-0.508
		c0.018-1.069-0.305-2.035-0.895-2.918c-0.438-0.656-0.996-1.182-1.756-1.44C7.692,1.819,6.629,2.051,5.648,2.719
		C4.713,3.355,4.155,4.278,3.777,5.316C3.413,6.314,3.545,7.269,4.099,8.167c0.357,0.581,0.809,1.087,1.299,1.561
		c0.214,0.207,0.425,0.42,0.657,0.606c0.706,0.572,1.264,1.274,1.812,1.991c0.311,0.408,0.66,0.785,1.146,0.986
		c0.877,0.367,1.771,0.334,2.646,0.006c0.861-0.322,1.227-1.021,1.063-1.932c-0.1-0.539-0.315-1.029-0.586-1.498
		c-0.295-0.514-0.543-1.041-0.584-1.644C11.522,7.855,11.503,7.467,11.481,7.077z"/>
	<path fill="#FFFFFF" d="M11.481,7.077c0.021,0.39,0.041,0.778,0.068,1.169c0.041,0.603,0.289,1.13,0.584,1.644
		c0.271,0.469,0.485,0.959,0.586,1.498c0.164,0.909-0.199,1.607-1.063,1.932c-0.875,0.328-1.771,0.361-2.646-0.006
		c-0.484-0.201-0.834-0.578-1.146-0.986c-0.547-0.717-1.105-1.419-1.812-1.991C5.821,10.147,5.61,9.937,5.396,9.729
		c-0.489-0.475-0.94-0.979-1.298-1.562C3.544,7.269,3.411,6.314,3.776,5.316c0.378-1.038,0.936-1.961,1.871-2.597
		C6.628,2.051,7.691,1.82,8.841,2.21c0.76,0.259,1.316,0.784,1.756,1.44c0.59,0.883,0.91,1.849,0.894,2.918
		c-0.002,0.169,0,0.339,0,0.508C11.487,7.076,11.483,7.077,11.481,7.077z M11.239,6.999c0.049-0.919-0.066-1.702-0.414-2.448
		c-0.348-0.744-0.793-1.412-1.51-1.846C8.259,2.068,7.189,2.142,6.129,2.698C5.305,3.131,4.759,3.83,4.33,4.635
		C4.046,5.166,3.845,5.723,3.817,6.332C3.78,7.105,4.094,7.764,4.525,8.374C4.952,8.983,5.48,9.507,6.032,9.999
		c0.529,0.475,1.066,0.938,1.499,1.508c0.262,0.342,0.529,0.682,0.811,1.01c0.326,0.379,0.733,0.642,1.233,0.735
		c0.566,0.108,1.137,0.097,1.697-0.054c1.033-0.276,1.43-0.954,1.166-1.991c-0.121-0.479-0.338-0.914-0.586-1.337
		c-0.287-0.486-0.492-1.007-0.535-1.577C11.282,7.828,11.261,7.361,11.239,6.999z"/>
	<path fill="#627D53" d="M11.239,6.999c0.021,0.362,0.043,0.829,0.078,1.294c0.043,0.57,0.248,1.091,0.535,1.577
		c0.248,0.423,0.465,0.857,0.586,1.337c0.264,1.037-0.133,1.715-1.166,1.991c-0.563,0.148-1.131,0.162-1.697,0.054
		c-0.5-0.096-0.907-0.356-1.233-0.735c-0.281-0.328-0.549-0.668-0.811-1.01c-0.433-0.57-0.97-1.033-1.499-1.508
		C5.48,9.507,4.951,8.983,4.525,8.374c-0.43-0.61-0.745-1.269-0.708-2.042C3.846,5.723,4.046,5.166,4.33,4.635
		C4.759,3.83,5.304,3.131,6.129,2.698c1.06-0.556,2.131-0.63,3.187,0.007c0.717,0.434,1.162,1.102,1.51,1.846
		C11.173,5.297,11.288,6.08,11.239,6.999z M8.028,3.523c-0.333,0.029-0.565,0.039-0.794,0.07C6.732,3.662,6.243,3.783,5.81,4.062
		c-0.234,0.15-0.422,0.344-0.498,0.625C5.219,5.033,5.292,5.281,5.579,5.45C6.014,5.708,6.466,5.773,6.92,5.489
		c0.529-0.33,1.053-0.335,1.577,0.008C8.635,5.588,8.772,5.68,8.915,5.758C9.138,5.881,9.296,5.844,9.37,5.612
		c0.105-0.324,0.205-0.66,0.236-0.998C9.649,4.141,9.419,3.816,8.96,3.689C8.627,3.596,8.274,3.566,8.028,3.523z M8.173,8.713
		C8.108,8.411,8.067,8.105,7.975,7.814c-0.125-0.4-0.386-0.683-0.817-0.776c-0.512-0.11-1.254,0.188-1.538,0.62
		C5.468,7.891,5.474,8.113,5.667,8.315c0.09,0.096,0.201,0.188,0.32,0.23c0.542,0.205,1.083,0.42,1.64,0.576
		C8.094,9.257,8.165,9.067,8.173,8.713z M10.796,11.901c-0.014-0.102-0.021-0.203-0.033-0.307c-0.051-0.375-0.053-0.375-0.418-0.322
		c-0.276,0.041-0.426-0.039-0.545-0.291c-0.021-0.047-0.037-0.096-0.059-0.141c-0.08-0.17-0.246-0.246-0.408-0.152
		c-0.1,0.058-0.195,0.156-0.238,0.261c-0.237,0.569,0.039,1.237,0.638,1.575C10.325,12.86,10.794,12.585,10.796,11.901z
		 M9.618,8.731c0-0.441,0-0.875,0-1.306c0-0.064,0.006-0.135-0.01-0.199c-0.012-0.043-0.055-0.08-0.08-0.119
		C9.505,7.15,9.466,7.189,9.456,7.237C9.444,7.291,9.454,7.35,9.454,7.406c0,0.439,0,0.882,0,1.317
		c-0.271,0.15-0.361,0.301-0.309,0.51c0.049,0.183,0.211,0.306,0.396,0.301C9.72,9.53,9.884,9.396,9.921,9.226
		C9.968,9.017,9.872,8.863,9.618,8.731z M10.808,7.754c-0.369-0.178-0.701-0.336-1.051-0.504c0,0.354,0,0.678,0,1.025
		C10.106,8.101,10.438,7.937,10.808,7.754z"/>
	<path fill="#FFFFFF" d="M8.028,3.523C8.275,3.566,8.627,3.595,8.96,3.689c0.457,0.127,0.689,0.449,0.646,0.923
		C9.575,4.95,9.474,5.286,9.37,5.61C9.294,5.844,9.136,5.881,8.915,5.758c-0.145-0.08-0.28-0.172-0.418-0.262
		c-0.525-0.343-1.05-0.338-1.578-0.008c-0.454,0.283-0.906,0.219-1.34-0.039C5.29,5.28,5.218,5.032,5.311,4.685
		c0.076-0.28,0.264-0.473,0.498-0.625c0.434-0.276,0.922-0.397,1.424-0.467C7.463,3.562,7.695,3.553,8.028,3.523z"/>
	<path fill="#FFFFFF" d="M8.173,8.713c-0.008,0.354-0.079,0.544-0.545,0.41C7.071,8.968,6.53,8.752,5.988,8.547
		c-0.119-0.045-0.23-0.137-0.32-0.229c-0.193-0.204-0.2-0.426-0.047-0.659c0.283-0.434,1.025-0.73,1.538-0.62
		C7.59,7.133,7.85,7.414,7.976,7.814C8.067,8.105,8.108,8.411,8.173,8.713z"/>
	<path fill="#FFFFFF" d="M10.796,11.901c-0.002,0.684-0.471,0.959-1.063,0.623c-0.599-0.338-0.875-1.006-0.638-1.575
		c0.043-0.104,0.142-0.203,0.238-0.261c0.162-0.094,0.328-0.018,0.408,0.152c0.021,0.045,0.037,0.094,0.059,0.141
		c0.119,0.252,0.269,0.332,0.545,0.291c0.365-0.053,0.367-0.053,0.418,0.322C10.774,11.698,10.782,11.802,10.796,11.901z"/>
	<path fill="#FFFFFF" d="M9.618,8.731c0.254,0.132,0.35,0.283,0.303,0.494C9.884,9.396,9.722,9.53,9.544,9.534
		c-0.188,0.005-0.35-0.118-0.396-0.301c-0.056-0.209,0.034-0.357,0.307-0.51c0-0.438,0-0.878,0-1.317
		c0-0.057-0.01-0.115,0.005-0.169c0.01-0.048,0.047-0.087,0.069-0.13C9.556,7.146,9.597,7.184,9.61,7.226
		C9.626,7.29,9.618,7.361,9.618,7.425C9.618,7.857,9.618,8.29,9.618,8.731z"/>
	<path fill="#FFFFFF" d="M10.808,7.754c-0.369,0.184-0.701,0.348-1.051,0.521c0-0.348,0-0.672,0-1.025
		C10.106,7.418,10.438,7.576,10.808,7.754z"/>
</g>
</svg>
