<?xml version="1.0" encoding="utf-8"?>
<!-- Generator: Adobe Illustrator 16.0.0, SVG Export Plug-In . SVG Version: 6.00 Build 0)  -->
<!DOCTYPE svg PUBLIC "-//W3C//DTD SVG 1.1//EN" "http://www.w3.org/Graphics/SVG/1.1/DTD/svg11.dtd">
<svg version="1.1" id="Layer_1" xmlns="http://www.w3.org/2000/svg" xmlns:xlink="http://www.w3.org/1999/xlink" x="0px" y="0px"
	 width="16px" height="16px" viewBox="0 0 16 16" enable-background="new 0 0 16 16" xml:space="preserve">
<g>
	<path fill="#627D53" d="M14.044,10.838c-0.157,0.287-0.317,0.574-0.474,0.863c-0.07,0.129-0.162,0.189-0.32,0.183
		c-0.305-0.015-0.611-0.005-0.952-0.005c0.149,0.502,0.292,0.986,0.446,1.505c-0.262,0-0.494,0.011-0.725-0.009
		c-0.052-0.005-0.115-0.107-0.139-0.178c-0.138-0.434-0.268-0.869-0.402-1.318c-0.803,0-1.596,0.001-2.389,0
		c-1.431,0-2.861,0.008-4.292-0.006c-0.229-0.002-0.312,0.076-0.366,0.279c-0.108,0.408-0.242,0.811-0.366,1.22
		c-0.267,0-0.523,0-0.808,0c0.148-0.497,0.292-0.976,0.446-1.493c-0.328,0-0.63-0.01-0.931,0.005
		c-0.174,0.009-0.278-0.053-0.356-0.202c-0.148-0.285-0.307-0.563-0.461-0.844c0-0.048,0-0.096,0-0.143
		c0.118-0.045,0.235-0.129,0.354-0.129c0.848-0.012,1.696-0.006,2.58-0.006c0-0.154,0-0.291,0-0.43c0-0.17,0.095-0.281,0.252-0.281
		c0.16-0.002,0.251,0.112,0.253,0.28c0.001,0.134,0,0.267,0,0.413c1.735,0,3.453,0,5.208,0c0-0.134-0.002-0.271,0-0.408
		c0-0.168,0.084-0.277,0.252-0.279c0.168,0,0.252,0.108,0.254,0.276c0.002,0.132,0,0.265,0,0.427c0.162,0,0.311,0,0.457,0
		c0.716,0,1.431-0.006,2.146,0.008c0.11,0.002,0.221,0.084,0.33,0.129C14.044,10.742,14.044,10.79,14.044,10.838z"/>
	<path fill="#627D53" d="M7.242,5.61C7.71,5.999,8.178,6.388,8.659,6.787C8.994,6.365,9.271,5.973,9.594,5.62
		c0.633-0.698,1.283-1.381,1.943-2.054c0.273-0.279,0.648-0.248,0.867,0.026c0.205,0.253,0.168,0.568-0.107,0.816
		c-1.074,0.968-1.986,2.078-2.84,3.241c-0.032,0.044-0.061,0.09-0.122,0.177C9.623,7.89,9.883,7.972,10.146,8
		c0.844,0.091,1.688,0.168,2.535,0.237c0.363,0.029,0.609,0.246,0.604,0.582c-0.004,0.324-0.249,0.557-0.603,0.555
		c-1.752-0.014-3.473-0.227-5.083-0.954c-0.624-0.282-1.186-0.7-1.775-1.058C5.75,7.313,5.682,7.25,5.549,7.149
		C5.498,7.557,5.43,7.91,5.416,8.265C5.4,8.633,5.437,9.002,5.449,9.371c0.009,0.266-0.102,0.42-0.316,0.441
		c-0.22,0.021-0.382-0.104-0.408-0.359C4.633,8.557,4.621,7.661,4.938,6.799c0.073-0.2,0.199-0.393,0.341-0.553
		c0.307-0.348,0.635-0.677,0.965-1.003C6.335,5.151,6.456,5.078,6.576,5.03c0.965-0.385,1.959-0.672,2.979-0.87
		c0.256-0.05,0.442,0.056,0.491,0.277C10.093,4.649,9.95,4.821,9.7,4.883C8.889,5.086,8.076,5.295,7.263,5.501
		C7.256,5.538,7.249,5.574,7.242,5.61z"/>
	<path fill="#627D53" d="M5.034,5.738C4.487,5.736,4.041,5.287,4.05,4.746c0.009-0.533,0.451-0.974,0.982-0.978
		C5.575,3.765,6.02,4.209,6.02,4.756C6.02,5.311,5.589,5.74,5.034,5.738z"/>
</g>
</svg>
