<?xml version="1.0" encoding="utf-8"?>
<!-- Generator: Adobe Illustrator 16.0.0, SVG Export Plug-In . SVG Version: 6.00 Build 0)  -->
<!DOCTYPE svg PUBLIC "-//W3C//DTD SVG 1.1//EN" "http://www.w3.org/Graphics/SVG/1.1/DTD/svg11.dtd">
<svg version="1.1" id="Layer_1" xmlns="http://www.w3.org/2000/svg" xmlns:xlink="http://www.w3.org/1999/xlink" x="0px" y="0px"
	 width="16px" height="16px" viewBox="0 0 16 16" enable-background="new 0 0 16 16" xml:space="preserve">
<g>
	<path fill="#627D53" d="M2.26,9.037c0.029-0.105,0.094-0.191,0.154-0.281c1.145-1.717,2.29-3.436,3.435-5.152
		C6.011,3.362,6.317,3.32,6.524,3.513c0.031,0.029,0.058,0.065,0.083,0.102c0.648,0.917,1.295,1.834,1.944,2.753
		C8.56,6.377,8.565,6.39,8.576,6.402c0.082-0.097,0.163-0.189,0.243-0.282C9.144,5.748,9.467,5.374,9.789,5
		C9.828,4.956,9.865,4.91,9.903,4.866c0.188-0.207,0.508-0.193,0.678,0.027c0.447,0.58,0.896,1.16,1.343,1.74
		c0.453,0.588,0.906,1.179,1.36,1.769c0.115,0.149,0.232,0.302,0.349,0.454c0.207,0.268,0.078,0.635-0.252,0.709
		c-0.177,0.037-0.327-0.021-0.438-0.164c-0.577-0.748-1.152-1.496-1.729-2.244c-0.322-0.418-0.645-0.838-0.968-1.257
		c-0.009-0.011-0.021-0.021-0.029-0.034c-0.061,0.07-0.118,0.137-0.179,0.205c-0.268,0.307-0.53,0.612-0.797,0.918
		C9.206,7.029,9.172,7.069,9.138,7.109c-0.02,0.02-0.022,0.041-0.002,0.067c0.188,0.269,0.375,0.537,0.562,0.808
		c0.036,0.056,0.079,0.108,0.104,0.169c0.082,0.211-0.018,0.452-0.223,0.552c-0.207,0.098-0.449,0.02-0.57-0.172
		C8.922,8.396,8.827,8.269,8.735,8.138C8.278,7.493,7.823,6.849,7.367,6.205C7,5.686,6.632,5.165,6.264,4.647
		C6.259,4.64,6.253,4.631,6.246,4.624C6.236,4.638,6.227,4.649,6.22,4.661c-1.043,1.565-2.086,3.13-3.129,4.695
		C3.02,9.463,2.927,9.539,2.802,9.568C2.572,9.623,2.344,9.49,2.274,9.262C2.271,9.25,2.266,9.238,2.261,9.227
		C2.26,9.164,2.26,9.1,2.26,9.037z"/>
	<path fill="#627D53" d="M2.26,12.467c0.053-0.092,0.12-0.17,0.221-0.209c0.053-0.021,0.111-0.035,0.168-0.035
		c3.542-0.002,7.083-0.002,10.625-0.002c0.227,0,0.408,0.137,0.453,0.342c0.062,0.273-0.131,0.523-0.416,0.541
		c-0.021,0-0.039,0-0.059,0c-3.503,0-7.004,0-10.506,0c-0.063,0-0.129,0-0.191-0.014c-0.122-0.025-0.214-0.098-0.278-0.203
		c-0.006-0.01-0.012-0.02-0.018-0.027C2.26,12.729,2.26,12.598,2.26,12.467z"/>
	<path fill="#627D53" d="M2.26,10.697c0.032-0.041,0.06-0.084,0.097-0.119c0.081-0.08,0.179-0.121,0.294-0.121
		c3.549,0,7.099,0,10.646,0c0.208,0,0.388,0.143,0.431,0.346c0.045,0.207-0.057,0.408-0.246,0.496
		c-0.061,0.027-0.123,0.039-0.188,0.039c-3.521,0-7.041,0-10.561,0c-0.072,0-0.145,0.006-0.215-0.021
		c-0.096-0.035-0.174-0.094-0.229-0.18c-0.009-0.014-0.019-0.025-0.027-0.039C2.26,10.965,2.26,10.832,2.26,10.697z"/>
</g>
</svg>
