<?xml version="1.0" encoding="utf-8"?>
<!-- Generator: Adobe Illustrator 16.0.0, SVG Export Plug-In . SVG Version: 6.00 Build 0)  -->
<!DOCTYPE svg PUBLIC "-//W3C//DTD SVG 1.1//EN" "http://www.w3.org/Graphics/SVG/1.1/DTD/svg11.dtd">
<svg version="1.1" id="Layer_1" xmlns="http://www.w3.org/2000/svg" xmlns:xlink="http://www.w3.org/1999/xlink" x="0px" y="0px"
	 width="16px" height="16px" viewBox="0 0 16 16" enable-background="new 0 0 16 16" xml:space="preserve">
<g>
	<path fill="#627D53" d="M0.966,10.762c0.097-0.216,0.277-0.32,0.491-0.402c0.575-0.215,1.146-0.451,1.721-0.672
		c0.135-0.054,0.26-0.099,0.23-0.299c0.34,0.088,0.662,0.17,0.979,0.25c0.039,0.438-0.121,0.709-0.512,0.862
		c-0.691,0.276-1.385,0.547-2.077,0.823c-0.424,0.168-0.613,0.104-0.832-0.289C0.966,10.943,0.966,10.854,0.966,10.762z"/>
	<path fill="#627D53" d="M7.235,7.566c-0.132-0.15-0.25-0.285-0.367-0.419C6.686,6.939,6.438,6.903,6.251,7.06
		C6.063,7.217,6.06,7.468,6.242,7.68c0.096,0.11,0.19,0.218,0.298,0.344C6.301,8.088,6.077,8.129,5.864,8.206
		c-0.389,0.14-0.772,0.3-1.158,0.452c-0.092,0.035-0.135,0.104-0.15,0.208C4.529,9.068,4.48,9.27,4.438,9.49
		C4.11,9.404,3.79,9.324,3.452,9.238c0.047-0.25,0.093-0.495,0.137-0.739c0.037-0.194,0.075-0.387,0.104-0.582
		c0.038-0.25,0.189-0.421,0.388-0.556C4.752,6.91,5.492,6.657,6.298,6.594C6.711,6.561,7.11,6.79,7.249,7.134
		C7.303,7.27,7.313,7.406,7.235,7.566z"/>
	<path fill="#627D53" d="M5.777,9.208c-0.34-0.089-0.668-0.172-0.993-0.259C4.745,8.938,4.68,8.904,4.681,8.891
		C4.687,8.846,4.714,8.79,4.748,8.771c0.411-0.248,0.862-0.409,1.328-0.5c0.404-0.078,0.736,0.25,0.72,0.661
		c-0.029,0.666-0.061,1.334-0.088,2.002c-0.013,0.31-0.23,0.532-0.516,0.521c-0.304-0.011-0.501-0.252-0.484-0.579
		c0.026-0.512,0.047-1.021,0.068-1.533C5.78,9.3,5.777,9.259,5.777,9.208z"/>
	<path fill="#627D53" d="M6.577,7.045c0.044,0.03,0.146,0.074,0.215,0.149c0.295,0.324,0.579,0.659,0.871,0.987
		c0.05,0.056,0.114,0.106,0.181,0.141C8.392,8.613,8.943,8.9,9.49,9.193C9.637,9.27,9.699,9.396,9.674,9.544
		C9.652,9.68,9.539,9.796,9.395,9.807C9.322,9.813,9.238,9.795,9.174,9.762C8.586,9.456,8,9.146,7.416,8.836
		C7.364,8.809,7.313,8.771,7.275,8.729C6.94,8.353,6.61,7.975,6.28,7.595C6.188,7.489,6.158,7.368,6.221,7.239
		C6.277,7.119,6.375,7.049,6.577,7.045z"/>
	<path fill="#627D53" d="M8.09,5.596c0.508,0,0.924,0.408,0.924,0.909C9.012,7.008,8.598,7.42,8.093,7.419S7.177,7.006,7.18,6.501
		C7.183,6.003,7.591,5.596,8.09,5.596z"/>
	<path fill="#627D53" d="M10.441,10.126c0.016-0.048,0.029-0.086,0.045-0.124c0.008-0.023,0.021-0.049,0.039-0.087
		c0.293,0.104,0.584,0.207,0.873,0.313c0.729,0.271,1.455,0.547,2.18,0.82c0.014,0.006,0.025,0.012,0.039,0.012
		c0.064,0.01,0.129,0.016,0.195,0.022c-0.013-0.062-0.019-0.121-0.033-0.179c-0.025-0.092,0.018-0.15,0.09-0.193
		c0.082-0.049,0.156-0.033,0.223,0.033c0.123,0.123,0.145,0.279,0.066,0.468c-0.074,0.175-0.209,0.269-0.398,0.252
		c-0.107-0.01-0.219-0.032-0.32-0.073c-0.985-0.408-1.971-0.822-2.957-1.236C10.471,10.15,10.461,10.141,10.441,10.126z"/>
	<circle fill="#627D53" cx="14.803" cy="11.268" r="0.232"/>
	<path fill="#627D53" d="M10.424,9.878c-0.033,0.08-0.057,0.144-0.088,0.218c-0.238-0.099-0.467-0.191-0.705-0.291
		c0.041-0.06,0.076-0.111,0.119-0.176C9.969,9.71,10.189,9.792,10.424,9.878z"/>
</g>
</svg>
