<?xml version="1.0" encoding="utf-8"?>
<!-- Generator: Adobe Illustrator 16.0.0, SVG Export Plug-In . SVG Version: 6.00 Build 0)  -->
<!DOCTYPE svg PUBLIC "-//W3C//DTD SVG 1.1//EN" "http://www.w3.org/Graphics/SVG/1.1/DTD/svg11.dtd">
<svg version="1.1" id="Layer_1" xmlns="http://www.w3.org/2000/svg" xmlns:xlink="http://www.w3.org/1999/xlink" x="0px" y="0px"
	 width="16px" height="16px" viewBox="0 0 16 16" enable-background="new 0 0 16 16" xml:space="preserve">
<g>
	<path fill="#627D53" d="M2.135,9.408c0.172-0.201,0.347-0.399,0.516-0.602C3.308,8.02,3.963,7.233,4.617,6.448
		c0.019-0.021,0.036-0.044,0.056-0.07c-0.122-0.129-0.24-0.256-0.25-0.411C4.552,5.91,4.664,5.861,4.797,5.802
		c0.021,0.02,0.065,0.062,0.121,0.115C5.275,5.574,5.633,5.231,6,4.879C6.179,5.17,6.422,5.368,6.749,5.458
		C6.654,5.556,6.57,5.646,6.481,5.732C6.37,5.843,6.261,5.958,6.141,6.06C5.732,6.402,5.432,6.825,5.164,7.283
		C4.599,8.252,4.01,9.208,3.432,10.169c-0.019,0.031-0.039,0.063-0.067,0.106c-0.413-0.283-0.821-0.563-1.23-0.842
		C2.135,9.424,2.135,9.416,2.135,9.408z"/>
	<path fill="#627D53" d="M6.943,11.521c-0.395-0.127-0.771-0.276-1.199-0.207c0-0.666,0-1.316,0-1.967c0-0.645,0-1.291,0-1.969
		C5.448,7.743,5.16,8.075,4.708,8.243C4.73,8.198,4.74,8.172,4.754,8.149C5.043,7.67,5.332,7.191,5.622,6.713
		c0.025-0.042,0.059-0.08,0.094-0.115c0.286-0.276,0.572-0.554,0.863-0.825c0.043-0.04,0.114-0.068,0.172-0.069
		C7.107,5.698,7.464,5.711,7.821,5.7c0.582-0.018,0.996,0.259,1.302,0.725c0.244,0.374,0.341,0.797,0.37,1.235
		c0.03,0.444-0.005,0.887-0.089,1.322C9.361,9.197,9.163,9.334,8.966,9.297C8.738,9.253,8.607,9.061,8.643,8.83
		c0.021-0.135,0.041-0.27,0.055-0.406c0.046-0.46,0.052-0.919-0.118-1.361c-0.043-0.11-0.109-0.21-0.164-0.316
		c-0.01,0.003-0.02,0.006-0.03,0.009c0,0.596,0,1.192,0,1.799c0.061,0.004,0.125,0.008,0.2,0.012
		C8.573,8.674,8.559,8.775,8.553,8.878C8.539,9.145,8.714,9.357,8.959,9.387c0.275,0.028,0.501-0.14,0.544-0.41
		C9.518,8.898,9.527,8.822,9.54,8.745c0.01-0.007,0.021-0.013,0.032-0.019c0.049,0.078,0.115,0.151,0.142,0.236
		c0.214,0.691,0.429,1.383,0.625,2.079c0.093,0.326-0.101,0.646-0.422,0.739c-0.313,0.09-0.64-0.088-0.743-0.416
		c-0.162-0.524-0.316-1.053-0.479-1.586c-0.58,0-1.159,0-1.751,0C6.943,10.355,6.943,10.932,6.943,11.521z"/>
	<path fill="#627D53" d="M11.837,12.292c-0.042-0.229-0.078-0.435-0.118-0.655c0.076,0.014,0.143,0.029,0.208,0.037
		c0.052,0.006,0.142,0.018,0.146,0.004c0.026-0.074,0.047-0.156,0.038-0.23c-0.022-0.184-0.088-0.364-0.088-0.547
		c-0.002-0.377,0.332-0.713,0.701-0.721c-0.289,0.215-0.457,0.475-0.401,0.873c0.233-0.242,0.526-0.259,0.836-0.296
		c-0.146,0.093-0.292,0.159-0.4,0.265c-0.104,0.102-0.231,0.207-0.231,0.371c0.205,0.188,0.39,0.059,0.582-0.025
		c0.011,0.154-0.098,0.227-0.207,0.306c0.162,0.222,0.365,0.231,0.599,0.151c-0.074,0.049-0.147,0.104-0.226,0.146
		c-0.108,0.061-0.219,0.061-0.33-0.002c-0.196-0.107-0.396-0.209-0.592-0.313c-0.084,0.201-0.082,0.199,0.069,0.344
		c0.339,0.322,0.675,0.65,1.009,0.979c0.026,0.025,0.059,0.056,0.066,0.088c0.023,0.084,0.081,0.207,0.046,0.244
		c-0.056,0.063-0.173,0.094-0.263,0.09c-0.155-0.004-0.311-0.064-0.467-0.067c-0.314-0.007-0.564-0.198-0.854-0.276
		c-0.172-0.045-0.342-0.097-0.517-0.127c-0.092-0.017-0.19,0-0.281,0.02c-0.096,0.021-0.157,0.091-0.172,0.191
		c-0.016,0.104,0.042,0.18,0.128,0.205c0.2,0.059,0.405,0.117,0.61,0.143c0.429,0.049,0.86,0.059,1.285,0.117
		c0.168,0.023,0.329,0.127,0.479,0.217c0.13,0.078,0.237,0.191,0.372,0.303c-0.129,0.038-0.233,0.077-0.342,0.102
		c-0.025,0.006-0.072-0.02-0.094-0.043c-0.193-0.248-0.449-0.266-0.748-0.266c-0.502-0.001-0.996,0.045-1.492,0.109
		c-0.25,0.033-0.515-0.014-0.768-0.043c-0.43-0.049-0.857-0.096-1.277-0.178c-0.229-0.045-0.441-0.162-0.66-0.252
		c-0.291-0.119-0.577-0.256-0.898-0.269c-0.113-0.005-0.233,0.013-0.341,0.046c-0.398,0.123-0.794,0.259-1.19,0.391
		c-0.205,0.065-0.399,0.036-0.584-0.07c-0.357-0.209-0.713-0.422-1.075-0.623c-0.3-0.166-0.307-0.16-0.536,0.098
		c-0.165,0.186-0.329,0.374-0.496,0.559c-0.029,0.031-0.064,0.071-0.104,0.08c-0.288,0.071-0.578,0.133-0.892,0.205
		c0.059-0.136,0.102-0.25,0.161-0.357c0.019-0.034,0.077-0.059,0.121-0.065c0.299-0.05,0.534-0.19,0.685-0.46
		c0.094-0.171,0.198-0.336,0.285-0.51c0.051-0.104,0.123-0.164,0.224-0.215c0.271-0.135,0.53-0.156,0.798,0.018
		c0.145,0.094,0.306,0.166,0.466,0.23c0.218,0.09,0.309,0.051,0.396-0.168c0.078-0.197,0.14-0.402,0.217-0.629
		C5.295,11.92,4.919,12.087,4.51,12.09c-0.007-0.012-0.014-0.023-0.021-0.037c0.026-0.037,0.048-0.08,0.079-0.111
		c0.285-0.295,0.652-0.43,1.041-0.514c0.347-0.076,0.681-0.023,1.014,0.084c0.357,0.114,0.714,0.246,1.082,0.313
		c0.493,0.089,0.99,0.046,1.479-0.065c0.078-0.018,0.137-0.015,0.211,0.03c0.315,0.205,0.731,0.115,0.937-0.206
		c0.058-0.088,0.106-0.099,0.188-0.054c0.396,0.228,0.795,0.455,1.192,0.684C11.75,12.232,11.782,12.257,11.837,12.292z
		 M12.326,12.592c0.021,0,0.04,0.002,0.059,0.002c0.037-0.046,0.092-0.088,0.102-0.139c0.017-0.081-0.041-0.146-0.12-0.131
		c-0.048,0.01-0.111,0.074-0.121,0.121C12.236,12.486,12.296,12.542,12.326,12.592z"/>
	<path fill="#627D53" d="M7.05,5.378C6.434,5.375,5.962,4.884,5.968,4.256c0.006-0.573,0.51-1.058,1.092-1.051
		c0.608,0.007,1.1,0.5,1.09,1.093C8.141,4.907,7.656,5.383,7.05,5.378z"/>
	<path fill="#627D53" d="M5.922,3.799C5.913,3.754,5.894,3.707,5.896,3.663c0.038-0.549,0.271-0.986,0.761-1.257
		C6.993,2.221,7.391,2.29,7.693,2.56C8.01,2.844,8.184,3.2,8.219,3.623C8.224,3.68,8.206,3.74,8.184,3.806
		C7.934,3.36,7.575,3.092,7.06,3.089C6.546,3.086,6.188,3.351,5.922,3.799z"/>
	<path fill="#627D53" d="M9.068,1.958c-0.106-0.111-0.184-0.193-0.26-0.274C9.01,1.483,9.075,1.726,9.197,1.798
		c0.061-0.054,0.121-0.109,0.174-0.155C9.48,1.742,9.583,1.836,9.697,1.94C9.243,2.378,8.8,2.805,8.353,3.235
		c0.044,0.05,0.082,0.093,0.125,0.142C8.423,3.426,8.37,3.475,8.33,3.511C8.256,3.318,8.177,3.12,8.107,2.918
		C8.097,2.89,8.125,2.837,8.151,2.811c0.267-0.261,0.537-0.52,0.805-0.777C8.986,2.006,9.025,1.987,9.068,1.958z"/>
	<path fill="#627D53" d="M5.785,13.887c0.38-0.109,0.759-0.22,1.137-0.328c0.083,0.309-0.114,0.635-0.441,0.719
		C6.176,14.354,5.851,14.163,5.785,13.887z"/>
	<path fill="#627D53" d="M3.848,7.228c-0.163,0.195-0.327,0.391-0.49,0.587C3.163,7.635,3.143,7.397,3.303,7.23
		C3.454,7.072,3.684,7.068,3.848,7.228z"/>
	<path fill="#627D53" d="M12.326,12.592c-0.03-0.05-0.09-0.104-0.082-0.146c0.01-0.047,0.072-0.11,0.121-0.12
		c0.08-0.017,0.137,0.05,0.119,0.131c-0.008,0.051-0.063,0.093-0.101,0.14C12.366,12.594,12.348,12.592,12.326,12.592z"/>
</g>
</svg>
