<?xml version="1.0" encoding="utf-8"?>
<!-- Generator: Adobe Illustrator 16.0.0, SVG Export Plug-In . SVG Version: 6.00 Build 0)  -->
<!DOCTYPE svg PUBLIC "-//W3C//DTD SVG 1.1//EN" "http://www.w3.org/Graphics/SVG/1.1/DTD/svg11.dtd">
<svg version="1.1" id="Layer_1" xmlns="http://www.w3.org/2000/svg" xmlns:xlink="http://www.w3.org/1999/xlink" x="0px" y="0px"
	 width="16px" height="16px" viewBox="0 0 16 16" enable-background="new 0 0 16 16" xml:space="preserve">
<g>
	<path fill="#627D53" d="M12.881,4.721c-0.003,0.093-0.074,0.146-0.166,0.126c-0.074-0.017-0.148-0.042-0.22-0.07
		c-0.149-0.057-0.28-0.026-0.394,0.083c-0.394,0.381-0.789,0.76-1.18,1.145c-0.925,0.914-1.845,1.832-2.72,2.794
		c-0.753,0.829-1.438,1.708-2.047,2.646C6,11.688,5.833,11.921,5.66,12.15c-0.162,0.213-0.391,0.313-0.655,0.324
		c-0.306,0.014-0.599-0.041-0.879-0.177c-0.303-0.146-0.451-0.39-0.497-0.708c-0.029-0.203,0.003-0.4,0.069-0.594
		c0.074-0.217,0.225-0.342,0.447-0.369c0.5-0.061,0.95-0.258,1.395-0.479c0.567-0.28,1.047-0.685,1.513-1.099
		c0.668-0.594,1.318-1.209,1.972-1.82c1.105-1.036,2.209-2.076,3.314-3.114c0.078-0.074,0.111-0.079,0.172,0.005
		c0.121,0.167,0.231,0.343,0.344,0.517C12.873,4.667,12.876,4.702,12.881,4.721z"/>
	<path fill="#627D53" d="M9.339,7.671C9.477,7.54,9.609,7.414,9.743,7.285c0.146,0.15,0.293,0.302,0.438,0.458
		c0.455,0.486,0.979,0.875,1.592,1.14c0.11,0.049,0.229,0.084,0.346,0.113c0.214,0.053,0.339,0.182,0.376,0.398
		c0.056,0.315,0.021,0.617-0.222,0.848c-0.097,0.091-0.234,0.146-0.363,0.189c-0.23,0.082-0.475,0.075-0.711,0.027
		c-0.186-0.038-0.348-0.134-0.446-0.3c-0.134-0.224-0.265-0.45-0.377-0.685c-0.288-0.596-0.632-1.16-0.981-1.719
		C9.377,7.732,9.361,7.707,9.339,7.671z"/>
	<path fill="#627D53" d="M8.996,7.179C8.818,6.936,8.652,6.698,8.473,6.47c-0.801-1.013-1.607-2.021-2.41-3.033
		c-0.1-0.126-0.222-0.169-0.377-0.122c-0.05,0.016-0.104,0.027-0.156,0.03c-0.1,0.006-0.165-0.077-0.11-0.154
		c0.113-0.158,0.241-0.305,0.371-0.45c0.05-0.057,0.093-0.008,0.13,0.035c0.357,0.419,0.717,0.836,1.072,1.258
		C7.76,4.945,8.523,5.858,9.29,6.77c0.019,0.022,0.036,0.046,0.06,0.074C9.23,6.955,9.118,7.063,8.996,7.179z"/>
	<path fill="#627D53" d="M9.986,11.501c-0.006,0.269-0.243,0.511-0.521,0.543c-0.403,0.047-0.737-0.294-0.681-0.696
		c0.02-0.137,0.061-0.176,0.199-0.191c0.117-0.014,0.225,0.018,0.32,0.08c0.098,0.066,0.191,0.14,0.291,0.205
		C9.714,11.518,9.839,11.564,9.986,11.501z"/>
	<path fill="#627D53" d="M8.909,11.075c0.222-0.333,0.745-0.324,0.975,0.003c0.043,0.063,0.073,0.136,0.099,0.208
		c0.026,0.087-0.023,0.159-0.114,0.153c-0.065-0.004-0.134-0.026-0.192-0.056c-0.063-0.03-0.119-0.077-0.174-0.12
		C9.33,11.132,9.15,11.029,8.909,11.075z"/>
</g>
</svg>
