<?xml version="1.0" encoding="utf-8"?>
<!-- Generator: Adobe Illustrator 16.0.0, SVG Export Plug-In . SVG Version: 6.00 Build 0)  -->
<!DOCTYPE svg PUBLIC "-//W3C//DTD SVG 1.1//EN" "http://www.w3.org/Graphics/SVG/1.1/DTD/svg11.dtd">
<svg version="1.1" id="Layer_1" xmlns="http://www.w3.org/2000/svg" xmlns:xlink="http://www.w3.org/1999/xlink" x="0px" y="0px"
	 width="16px" height="16px" viewBox="0 0 16 16" enable-background="new 0 0 16 16" xml:space="preserve">
<g>
	<path fill="#627D53" d="M9.932,1.622c0.142,0.048,0.289,0.081,0.42,0.148c0.322,0.166,0.512,0.446,0.633,0.78
		c-0.012,0.013-0.018,0.027-0.026,0.031C10.059,2.909,9.323,3.48,8.626,4.116C8.609,4.129,8.594,4.144,8.578,4.158
		C8.31,4.407,8.091,4.411,7.841,4.144C7.725,4.019,7.627,3.868,7.548,3.715C7.444,3.517,7.495,3.308,7.572,3.114
		c0.3-0.756,0.875-1.197,1.639-1.414c0.107-0.031,0.217-0.052,0.322-0.079C9.666,1.622,9.799,1.622,9.932,1.622z"/>
	<path fill="#627D53" d="M5.042,8.214C4.993,8.367,4.957,8.484,4.919,8.6c-0.012-0.004-0.026-0.006-0.04-0.009
		C4.787,8.387,4.685,8.187,4.607,7.979C4.553,7.834,4.464,7.753,4.324,7.731C4.479,8.076,4.64,8.42,4.79,8.77
		c0.042,0.097,0.118,0.111,0.197,0.125C5.092,8.912,5.2,8.921,5.309,8.921c0.502,0.003,1.004,0.002,1.525,0.002
		c-0.04-0.052-0.076-0.098-0.112-0.146C6.567,8.578,6.41,8.378,6.256,8.178C6.192,8.095,6.178,8.006,6.242,7.915
		C6.297,7.832,6.384,7.801,6.47,7.832C6.531,7.855,6.589,7.906,6.631,7.96c0.46,0.583,0.917,1.168,1.375,1.753
		c0.162,0.207,0.322,0.413,0.482,0.619c0.065,0.08,0.1,0.163,0.047,0.264c-0.073,0.141-0.237,0.161-0.354,0.037
		c-0.074-0.076-0.134-0.168-0.202-0.251C7.79,10.141,7.6,9.898,7.412,9.654C7.366,9.594,7.319,9.566,7.236,9.566
		C6.428,9.572,5.617,9.568,4.808,9.572c-0.14,0-0.262-0.028-0.37-0.125C4.425,9.458,4.411,9.467,4.401,9.48
		C4.258,9.669,4.258,9.669,4.446,9.822c0.505,0.41,1.019,0.813,1.513,1.236c0.151,0.129,0.272,0.299,0.38,0.469
		c0.111,0.174,0.193,0.365,0.28,0.555c0.036,0.072,0.078,0.104,0.161,0.104c0.599,0,1.192,0.061,1.777,0.203
		c0.516,0.127,1.01,0.303,1.436,0.625c0.23,0.174,0.229,0.361-0.004,0.534c-0.465,0.347-1.002,0.528-1.559,0.652
		c-0.804,0.179-1.62,0.2-2.44,0.161c-0.643-0.031-1.283-0.076-1.909-0.235c-0.243-0.062-0.479-0.155-0.711-0.251
		c-0.244-0.102-0.364-0.291-0.345-0.561c0.002-0.033,0.001-0.066,0-0.101c-0.01-0.235,0.097-0.403,0.303-0.514
		c0.325-0.179,0.675-0.275,1.035-0.337c0.332-0.055,0.665-0.086,0.998-0.131c0.028-0.002,0.056-0.01,0.092-0.017
		c-0.119-0.228-0.275-0.401-0.486-0.53c-0.719-0.431-1.436-0.863-2.153-1.297C2.391,10.137,2.3,9.8,2.538,9.372
		C2.891,8.736,3.244,8.104,3.597,7.47c0.129-0.231,0.232-0.264,0.465-0.146C4.158,7.373,4.257,7.42,4.344,7.481
		C4.459,7.566,4.568,7.573,4.7,7.524c0.227-0.082,0.457-0.151,0.687-0.216c0.145-0.042,0.233-0.132,0.285-0.27
		c0.182-0.485,0.359-0.97,0.551-1.451c0.041-0.107,0.11-0.219,0.198-0.291c0.196-0.161,0.451-0.042,0.468,0.211
		C6.895,5.6,6.88,5.701,6.85,5.787C6.65,6.34,6.445,6.89,6.239,7.443c-0.064,0.175-0.181,0.302-0.353,0.38
		C5.592,7.956,5.301,8.095,5.042,8.214z"/>
	<path fill="#627D53" d="M13.42,4.769c-0.006,1.066-0.174,1.946-0.623,2.755c-0.131,0.235-0.283,0.459-0.449,0.67
		c-0.311,0.389-0.848,0.484-1.283,0.245c-0.18-0.097-0.278-0.333-0.213-0.561c0.105-0.347,0.234-0.688,0.34-1.038
		c0.236-0.779,0.412-1.572,0.42-2.391c0.007-0.822-0.12-1.618-0.549-2.342c-0.053-0.089-0.114-0.172-0.166-0.262
		c-0.02-0.039-0.02-0.09-0.03-0.136c0.047-0.002,0.102-0.02,0.141-0.003c0.177,0.076,0.354,0.15,0.519,0.244
		c0.541,0.308,1.01,0.712,1.438,1.159c0.242,0.251,0.373,0.565,0.404,0.915C13.391,4.322,13.41,4.62,13.42,4.769z"/>
	<path fill="#627D53" d="M3.753,6.361c0-0.477,0.389-0.867,0.862-0.863C5.084,5.501,5.469,5.886,5.47,6.354
		c0.003,0.472-0.394,0.87-0.862,0.866C4.139,7.215,3.754,6.829,3.753,6.361z"/>
</g>
</svg>
