<?xml version="1.0" encoding="utf-8"?>
<!-- Generator: Adobe Illustrator 16.0.0, SVG Export Plug-In . SVG Version: 6.00 Build 0)  -->
<!DOCTYPE svg PUBLIC "-//W3C//DTD SVG 1.1//EN" "http://www.w3.org/Graphics/SVG/1.1/DTD/svg11.dtd">
<svg version="1.1" id="Layer_1" xmlns="http://www.w3.org/2000/svg" xmlns:xlink="http://www.w3.org/1999/xlink" x="0px" y="0px"
	 width="16px" height="16px" viewBox="0 0 16 16" enable-background="new 0 0 16 16" xml:space="preserve">
<g>
	<path fill="#627D53" d="M12.258,2.137c0.117,0.028,0.238,0.045,0.352,0.086c0.359,0.132,0.638,0.364,0.8,0.718
		c0.153,0.34,0.088,0.667-0.185,0.922c-0.082,0.076-0.17,0.148-0.264,0.204c-0.271,0.162-0.445,0.393-0.545,0.687
		c-0.037,0.107-0.086,0.21-0.134,0.312c-0.063,0.135-0.177,0.215-0.312,0.264c-0.166,0.062-0.318,0.148-0.459,0.253
		c-0.02,0.014-0.037,0.033-0.047,0.054c-0.266,0.591-0.529,1.183-0.794,1.775c-0.01,0.022-0.01,0.055-0.002,0.079
		c0.09,0.261-0.03,0.534-0.285,0.641c-0.022,0.01-0.047,0.032-0.058,0.054C10.211,8.441,10.1,8.695,9.984,8.95
		C9.969,8.982,9.973,9.001,10,9.025c0.15,0.135,0.204,0.307,0.154,0.5c-0.047,0.195-0.178,0.314-0.37,0.369
		c-0.071,0.02-0.144,0.039-0.216,0.061C9.55,9.961,9.525,9.979,9.52,9.996c-0.112,0.248-0.228,0.496-0.332,0.746
		c-0.076,0.18-0.254,0.189-0.349,0.111c-0.073-0.063-0.096-0.154-0.053-0.254c0.058-0.136,0.121-0.271,0.181-0.408
		c0.012-0.023,0.021-0.047,0.034-0.084c-0.267,0.074-0.523,0.142-0.782,0.213c-0.148-0.219-0.295-0.437-0.448-0.659
		c-0.079,0.155-0.155,0.305-0.23,0.452c-0.045,0.09-0.092,0.177-0.135,0.267c-0.008,0.017-0.007,0.052,0.004,0.065
		c0.217,0.283,0.435,0.564,0.652,0.848c0.086,0.107,0.173,0.215,0.217,0.354c0.056,0.181,0.031,0.347-0.065,0.498
		c-0.307,0.483-0.617,0.963-0.932,1.441c-0.152,0.234-0.437,0.331-0.697,0.247c-0.265-0.084-0.439-0.328-0.433-0.604
		c0.004-0.129,0.049-0.244,0.12-0.353c0.211-0.321,0.419-0.647,0.63-0.972c0.027-0.041,0.024-0.065-0.005-0.104
		c-0.335-0.432-0.671-0.859-1.002-1.296c-0.086-0.112-0.16-0.237-0.225-0.364C5.546,9.898,5.554,9.645,5.659,9.398
		c0.094-0.217,0.202-0.43,0.308-0.644c0.186-0.369,0.376-0.733,0.559-1.103c0.195-0.397,0.602-0.605,0.988-0.57
		c0.451,0.042,0.797,0.339,0.902,0.761c0.063,0.252,0.031,0.494-0.09,0.723C8.301,8.611,8.301,8.645,8.331,8.688
		c0.101,0.145,0.198,0.289,0.297,0.436C8.645,9.146,8.66,9.154,8.691,9.146c0.27-0.076,0.541-0.149,0.811-0.225
		C9.52,8.918,9.541,8.904,9.548,8.891c0.089-0.193,0.173-0.384,0.259-0.577c0-0.003,0-0.007,0-0.019
		C9.43,8.397,9.057,8.499,8.693,8.6c0.027-0.178,0.07-0.351,0.078-0.524c0.008-0.175-0.019-0.35-0.03-0.536
		C8.82,7.517,8.919,7.49,9.018,7.463c0.344-0.095,0.688-0.19,1.032-0.281c0.065-0.017,0.138-0.022,0.204-0.014
		c0.053,0.007,0.068-0.009,0.087-0.052c0.185-0.417,0.372-0.833,0.56-1.25c0.058-0.131,0.117-0.261,0.173-0.393
		c0.014-0.033,0.022-0.077,0.014-0.11c-0.038-0.15-0.075-0.303-0.131-0.447c-0.067-0.178-0.077-0.345,0.009-0.52
		c0.076-0.155,0.143-0.317,0.206-0.478c0.063-0.153,0.058-0.312,0.037-0.472c-0.019-0.16-0.048-0.32-0.05-0.481
		c-0.006-0.371,0.215-0.661,0.568-0.768c0.082-0.025,0.168-0.041,0.252-0.06C12.073,2.137,12.165,2.137,12.258,2.137z M12.628,3.822
		c0.086-0.06,0.168-0.116,0.247-0.175c0.032-0.024,0.063-0.052,0.091-0.081c0.142-0.144,0.165-0.295,0.078-0.476
		c-0.196-0.405-0.696-0.642-1.136-0.54c-0.209,0.049-0.348,0.177-0.352,0.349c-0.004,0.158,0.018,0.316,0.026,0.478
		C12.041,3.291,12.385,3.438,12.628,3.822z M11.818,3.686c-0.034,0.005-0.08,0.01-0.125,0.02C11.639,3.72,11.607,3.75,11.6,3.814
		c-0.009,0.079-0.029,0.16-0.059,0.234c-0.07,0.178-0.145,0.354-0.227,0.527c-0.043,0.091-0.022,0.163,0.035,0.228
		c0.112,0.129,0.258,0.191,0.43,0.174c0.076-0.007,0.138-0.041,0.166-0.121c0.035-0.097,0.078-0.19,0.121-0.284
		c0.07-0.161,0.127-0.329,0.244-0.464c0.039-0.043,0.037-0.08,0.014-0.125C12.219,3.789,12.048,3.7,11.818,3.686z"/>
	<path fill="#627D53" d="M5.319,10.314c0.19,0.385,0.474,0.688,0.723,1.021c0.064,0.086,0.066,0.083,0.015,0.177
		c-0.137,0.244-0.278,0.49-0.415,0.736c-0.063,0.111-0.147,0.197-0.257,0.259c-0.649,0.362-1.299,0.726-1.95,1.084
		c-0.211,0.117-0.427,0.114-0.633-0.011c-0.199-0.125-0.298-0.313-0.29-0.547c0.008-0.233,0.124-0.409,0.33-0.523
		c0.315-0.177,0.632-0.352,0.948-0.525c0.27-0.15,0.541-0.299,0.809-0.453c0.034-0.02,0.063-0.057,0.083-0.092
		c0.206-0.361,0.41-0.725,0.614-1.086C5.3,10.342,5.307,10.334,5.319,10.314z"/>
	<path fill="#627D53" d="M8.411,6.83c-0.677,0.004-1.238-0.549-1.24-1.223C7.168,4.908,7.715,4.35,8.406,4.348
		c0.679-0.002,1.239,0.547,1.245,1.22C9.65,6.272,9.109,6.826,8.411,6.83z"/>
	<path fill="#627D53" d="M11.956,4.519C11.954,4.647,11.85,4.75,11.718,4.75c-0.131,0-0.237-0.106-0.235-0.239
		c0-0.131,0.109-0.238,0.24-0.235C11.854,4.278,11.956,4.384,11.956,4.519z"/>
</g>
</svg>
