<?xml version="1.0" encoding="utf-8"?>
<!-- Generator: Adobe Illustrator 16.0.0, SVG Export Plug-In . SVG Version: 6.00 Build 0)  -->
<!DOCTYPE svg PUBLIC "-//W3C//DTD SVG 1.1//EN" "http://www.w3.org/Graphics/SVG/1.1/DTD/svg11.dtd">
<svg version="1.1" id="Layer_1" xmlns="http://www.w3.org/2000/svg" xmlns:xlink="http://www.w3.org/1999/xlink" x="0px" y="0px"
	 width="256px" height="256px" viewBox="0 0 256 256" enable-background="new 0 0 256 256" xml:space="preserve">
<g>
	<path fill-rule="evenodd" clip-rule="evenodd" d="M129.33,206.013c-4.365-0.914-7.475-3.705-10.481-6.78
		c-6.188-6.349-12.506-12.56-18.779-18.832c-0.392-0.384-0.807-0.762-1.395-1.322c-0.988,1.053-1.887,2.098-2.871,3.06
		c-5.892,5.772-14.187,5.787-20.047,0.016c-4.197-4.136-8.356-8.302-12.499-12.499c-5.857-5.934-5.865-14.213,0.015-20.139
		c8.363-8.44,16.892-16.728,25.136-25.283c12.829-13.306,20.985-29.133,24.767-47.213c0.135-0.646-0.154-1.483-0.484-2.11
		c-4.985-9.436,2.006-20.75,12.645-20.386c3.632,0.119,6.776,1.499,9.352,4.071c17.353,17.337,34.725,34.667,52.027,52.063
		c4.09,4.108,5.213,9.128,3.214,14.582c-1.977,5.412-6.058,8.349-11.754,8.994c-2.713,0.308-5.257-0.393-7.725-1.561
		c-0.745-0.361-1.745-0.569-2.537-0.4c-12.537,2.591-24.074,7.542-34.645,14.751c-0.203,0.139-0.395,0.308-0.769,0.601
		c0.601,0.614,1.165,1.176,1.722,1.745c5.988,6.104,6.02,14.305,0.031,20.393c-0.927,0.938-1.972,1.769-3.172,2.829
		c3.676,3.597,7.222,6.778,10.459,10.27c6.557,7.087,3.989,18.417-4.881,22.092c-1.077,0.445-2.222,0.707-3.333,1.061
		C131.993,206.013,130.664,206.013,129.33,206.013z M120.956,84.407c-4.174,15.766-11.634,29.932-22.057,42.063
		c6.745,6.749,13.352,13.353,19.998,19.993c12.218-10.516,26.366-17.887,42.055-22.084
		C147.56,110.996,134.289,97.732,120.956,84.407z M111.578,153.267c-6.538-6.542-12.995-13.007-19.486-19.51
		c-0.192,0.177-0.5,0.445-0.784,0.738c-7.099,7.086-14.194,14.188-21.289,21.284c-2.552,2.56-2.56,5.05-0.02,7.603
		c3.943,3.943,7.887,7.887,11.842,11.837c2.717,2.722,5.112,2.722,7.821,0.017c7.026-7.019,14.048-14.044,21.07-21.07
		C111.09,153.811,111.424,153.435,111.578,153.267z M181.582,121.028c0.053-2.114-0.77-3.283-1.861-4.374
		c-17.033-17.007-34.045-34.034-51.071-51.052c-0.323-0.323-0.638-0.669-1.011-0.934c-1.499-1.057-3.105-1.276-4.777-0.454
		c-1.611,0.796-2.452,2.125-2.553,3.909c-0.095,1.672,0.727,2.89,1.864,4.031c17.037,17.007,34.041,34.03,51.067,51.052
		c0.331,0.322,0.638,0.676,1.015,0.938c1.499,1.049,3.105,1.264,4.789,0.442C180.721,123.76,181.505,122.357,181.582,121.028z
		 M105.42,172.752c7.422,7.41,14.805,14.781,22.188,22.161c0.181,0.184,0.354,0.369,0.546,0.538
		c1.268,1.122,2.702,1.621,4.389,1.161c3.641-1.008,4.594-5.182,1.765-8.019c-7.214-7.256-14.462-14.481-21.704-21.707
		c-0.238-0.238-0.526-0.431-0.727-0.584C109.706,168.471,107.611,170.562,105.42,172.752z M124.88,165.934
		c6.288-5.058,5.992-7.948-0.008-12.545c-2.145,2.029-4.305,4.074-6.445,6.104C120.694,161.752,122.785,163.843,124.88,165.934z"/>
	<path fill-rule="evenodd" clip-rule="evenodd" fill="#39B54A" d="M156.999,48.641c2.614,1.153,3.621,3.159,3.443,6
		c-0.16,2.498-0.015,5.012-0.038,7.522c-0.03,2.886-1.937,4.912-4.589,4.912c-2.598,0-4.582-2.068-4.612-4.904
		c-0.037-2.56,0.076-5.124-0.03-7.683c-0.123-2.852,0.938-4.846,3.666-5.846C155.554,48.641,156.276,48.641,156.999,48.641z"/>
	<path fill-rule="evenodd" clip-rule="evenodd" fill="#39B54A" d="M188.384,62.654c-0.606,1.083-1.021,2.34-1.836,3.209
		c-2.891,3.052-5.889,5.988-8.887,8.928c-1.99,1.949-4.75,1.995-6.61,0.192c-1.907-1.861-1.891-4.663,0.123-6.707
		c2.975-3.032,5.979-6.042,9.009-9.012c1.445-1.418,3.19-1.788,5.089-1.022C186.993,58.934,188.054,60.598,188.384,62.654z"/>
	<path fill-rule="evenodd" clip-rule="evenodd" fill="#39B54A" d="M188.131,94.734c-1.483,0-2.967,0.02-4.458-0.003
		c-2.721-0.05-4.782-2.014-4.812-4.559c-0.039-2.541,2.021-4.604,4.718-4.643c3.022-0.046,6.043-0.05,9.071,0
		c2.667,0.046,4.598,1.995,4.628,4.543c0.022,2.605-1.968,4.589-4.688,4.654C191.105,94.762,189.622,94.734,188.131,94.734z"/>
	<path fill-rule="evenodd" clip-rule="evenodd" fill="#39B54A" d="M111.578,153.267c-0.154,0.168-0.488,0.544-0.846,0.898
		c-7.022,7.026-14.044,14.052-21.07,21.07c-2.709,2.705-5.104,2.705-7.821-0.017c-3.955-3.95-7.898-7.894-11.842-11.837
		c-2.541-2.553-2.532-5.043,0.02-7.603c7.095-7.096,14.19-14.198,21.289-21.284c0.284-0.293,0.592-0.562,0.784-0.738
		C98.583,140.26,105.04,146.725,111.578,153.267z"/>
</g>
</svg>
