<?xml version="1.0" encoding="utf-8"?>
<!-- Generator: Adobe Illustrator 16.0.0, SVG Export Plug-In . SVG Version: 6.00 Build 0)  -->
<!DOCTYPE svg PUBLIC "-//W3C//DTD SVG 1.1//EN" "http://www.w3.org/Graphics/SVG/1.1/DTD/svg11.dtd">
<svg version="1.1" id="Layer_1" xmlns="http://www.w3.org/2000/svg" xmlns:xlink="http://www.w3.org/1999/xlink" x="0px" y="0px"
	 width="16px" height="16px" viewBox="0 0 16 16" enable-background="new 0 0 16 16" xml:space="preserve">
<g>
	<g>
		<path fill="#627D53" d="M11.35,5.306c-0.271,0.029-0.529,0.057-0.789,0.085c-0.824,0.09-1.649,0.185-2.476,0.271
			c-0.504,0.053-1.01,0.089-1.514,0.141c-0.19,0.019-0.388,0.031-0.566,0.093c-0.688,0.24-1.15,0.851-1.183,1.646
			C4.81,7.848,5.091,8.084,5.392,8.038c0.471-0.072,0.941-0.143,1.413-0.209c0.087-0.012,0.139-0.058,0.157-0.135
			C7.023,7.426,6.986,7.17,6.847,6.932c-0.04-0.066-0.1-0.095-0.181-0.081C6.543,6.874,6.419,6.889,6.295,6.907
			C6.11,6.934,5.925,6.96,5.734,6.988c0-0.044,0-0.074,0-0.108c0.293-0.043,0.583-0.088,0.874-0.128
			C6.67,6.744,6.747,6.73,6.794,6.757c0.096,0.056,0.185,0.039,0.28,0.021c0.154-0.028,0.303-0.026,0.44,0.063
			c0.174,0.114,0.267,0.334,0.22,0.529c-0.051,0.215-0.22,0.364-0.448,0.397c-0.085,0.013-0.2,0.004-0.25,0.054
			c-0.101,0.102-0.217,0.112-0.34,0.131C6.497,7.982,6.298,8.014,6.09,8.046C6.106,8.22,6.124,8.384,6.136,8.549
			c0.012,0.16,0.01,0.162,0.174,0.17c0.448,0.02,0.891-0.02,1.33-0.111C8.026,8.525,8.405,8.418,8.77,8.27
			c0-0.049,0.004-0.093,0-0.136c-0.024-0.3-0.057-0.599-0.078-0.899C8.688,7.177,8.71,7.108,8.742,7.058
			C8.828,6.923,8.971,6.86,9.115,6.812c0.314-0.104,0.641-0.135,0.969-0.141c0.423-0.007,0.846-0.001,1.268-0.003
			c0.055,0,0.107-0.015,0.153-0.022C11.322,6.207,11.363,5.76,11.35,5.306z M7.978,8.84c0.007,0.027,0.012,0.055,0.02,0.08
			c0.147,0.477,0.276,0.959,0.32,1.459c0.01,0.114,0.059,0.143,0.157,0.174c0.384,0.123,0.765,0.26,1.145,0.396
			c0.038,0.014,0.077,0.057,0.093,0.095c0.203,0.519,0.408,1.034,0.6,1.558c0.072,0.201,0.104,0.416,0.16,0.625
			c0.006,0.023,0.041,0.051,0.066,0.058c0.038,0.008,0.082,0.005,0.12-0.007c0.282-0.088,0.567-0.17,0.847-0.271
			c0.256-0.091,0.506-0.202,0.766-0.308c-0.088-0.225-0.164-0.436-0.254-0.643c-0.285-0.674-0.61-1.324-1.108-1.873
			c-0.203-0.226-0.423-0.416-0.728-0.511C9.77,9.548,9.367,9.391,8.959,9.25C8.883,9.223,8.857,9.186,8.854,9.105
			C8.846,8.932,8.824,8.758,8.809,8.58C8.529,8.667,8.26,8.752,7.978,8.84z M7.855,11.104c0.061,0.021,0.148,0.053,0.26,0.092
			c0.154-0.818-0.09-1.565-0.298-2.321C7.668,8.898,7.54,8.928,7.41,8.943C7.339,8.951,7.32,8.982,7.318,9.047
			C7.313,9.223,7.3,9.398,7.296,9.574c-0.004,0.207-0.001,0.414-0.001,0.639c0.067-0.043,0.137-0.082,0.2-0.129
			c0.085-0.066,0.112-0.061,0.139,0.047c0.025,0.102,0.08,0.176,0.17,0.229c0.024,0.015,0.053,0.049,0.053,0.074
			C7.86,10.646,7.857,10.863,7.855,11.104z M11.5,5.346c0,0.272,0,0.529,0,0.792c0.299-0.028,0.578-0.049,0.855-0.082
			c0.229-0.027,0.373-0.209,0.356-0.428c-0.017-0.211-0.196-0.364-0.427-0.357c-0.081,0.002-0.161,0.013-0.241,0.021
			C11.859,5.31,11.676,5.329,11.5,5.346z M6.959,6.902C7.095,7.157,7.11,7.416,7.087,7.687C7.183,7.67,7.264,7.662,7.342,7.642
			c0.186-0.046,0.317-0.237,0.293-0.42C7.609,7.024,7.448,6.873,7.252,6.873C7.162,6.873,7.071,6.891,6.959,6.902z"/>
		<path fill="#627D53" d="M3.701,12.375c0.026-0.05,0.056-0.1,0.079-0.148c0.298-0.654,0.595-1.311,0.892-1.965
			c0.014-0.029,0.029-0.061,0.04-0.093c0.065-0.205,0.205-0.335,0.402-0.413c0.333-0.131,0.662-0.27,0.996-0.398
			C6.184,9.33,6.212,9.295,6.199,9.219C6.188,9.152,6.184,9.085,6.175,9.002c0.327,0,0.646,0,0.968,0
			c-0.021,0.693-0.041,1.395-0.062,2.114c-0.07,0.013-0.164,0.03-0.276,0.052c0-0.24,0-0.465,0-0.707
			c-0.039,0.02-0.061,0.023-0.078,0.037c-0.261,0.191-0.522,0.385-0.781,0.581c-0.03,0.022-0.05,0.069-0.057,0.108
			c-0.076,0.444-0.133,0.895-0.228,1.334c-0.043,0.203-0.157,0.394-0.242,0.586c-0.03,0.066-0.078,0.082-0.156,0.059
			c-0.543-0.175-1.06-0.402-1.527-0.732c-0.011-0.008-0.024-0.013-0.036-0.019C3.701,12.402,3.701,12.389,3.701,12.375z"/>
		<path fill="#627D53" d="M7.253,3.22c0.086,0.027,0.174,0.049,0.258,0.082c0.501,0.197,0.79,0.749,0.666,1.267
			C8.045,5.114,7.544,5.48,7,5.428c-0.536-0.051-0.98-0.5-1.004-1.013C5.968,3.825,6.33,3.352,6.892,3.24
			c0.02-0.004,0.038-0.013,0.057-0.02C7.05,3.22,7.151,3.22,7.253,3.22z"/>
		<path fill="#627D53" d="M4.391,13.613c-0.025-0.01-0.05-0.018-0.076-0.024c-0.364-0.093-0.557-0.489-0.41-0.832
			c0.369,0.166,0.737,0.332,1.116,0.502c-0.075,0.171-0.216,0.276-0.402,0.332c-0.022,0.007-0.043,0.015-0.065,0.022
			C4.499,13.613,4.445,13.613,4.391,13.613z"/>
		<path fill="#627D53" d="M11.313,13.613c-0.142-0.053-0.283-0.104-0.369-0.241c0.363-0.132,0.724-0.263,1.082-0.392
			c0.039,0.183-0.09,0.431-0.287,0.543c-0.063,0.037-0.135,0.061-0.201,0.09C11.462,13.613,11.387,13.613,11.313,13.613z"/>
		<path fill="#627D53" d="M11.35,5.306c0.014,0.454-0.026,0.9,0.155,1.34c-0.046,0.007-0.101,0.022-0.153,0.022
			c-0.422,0.002-0.845-0.004-1.268,0.003C9.756,6.677,9.43,6.708,9.115,6.812C8.971,6.86,8.828,6.923,8.741,7.058
			c-0.032,0.05-0.054,0.119-0.05,0.177c0.021,0.3,0.053,0.599,0.078,0.899c0.004,0.043,0,0.087,0,0.136
			C8.404,8.417,8.026,8.525,7.64,8.607C7.202,8.699,6.758,8.738,6.31,8.717C6.146,8.711,6.148,8.709,6.136,8.549
			C6.124,8.384,6.106,8.22,6.09,8.046c0.208-0.032,0.407-0.063,0.606-0.094c0.123-0.019,0.239-0.029,0.34-0.131
			c0.05-0.051,0.165-0.042,0.25-0.054C7.514,7.734,7.683,7.585,7.734,7.37C7.78,7.176,7.688,6.955,7.513,6.841
			C7.377,6.752,7.228,6.75,7.074,6.778C6.979,6.795,6.89,6.812,6.794,6.756C6.747,6.729,6.669,6.743,6.608,6.751
			c-0.291,0.04-0.58,0.085-0.874,0.128c0,0.035,0,0.064,0,0.108C5.925,6.96,6.11,6.934,6.295,6.907
			c0.124-0.018,0.248-0.033,0.371-0.055c0.081-0.015,0.142,0.014,0.181,0.081c0.139,0.237,0.176,0.493,0.115,0.76
			C6.944,7.77,6.892,7.816,6.805,7.828c-0.471,0.067-0.942,0.138-1.412,0.21c-0.301,0.046-0.582-0.19-0.57-0.496
			c0.032-0.795,0.494-1.406,1.183-1.646c0.178-0.062,0.375-0.074,0.566-0.093c0.504-0.051,1.01-0.088,1.514-0.141
			c0.825-0.086,1.65-0.18,2.477-0.271C10.82,5.363,11.078,5.335,11.35,5.306z"/>
		<path fill="#627D53" d="M7.978,8.84C8.26,8.752,8.529,8.667,8.809,8.58c0.017,0.178,0.037,0.352,0.045,0.525
			c0.004,0.08,0.029,0.117,0.105,0.145c0.408,0.141,0.811,0.298,1.223,0.424c0.305,0.094,0.523,0.285,0.728,0.51
			c0.498,0.549,0.823,1.2,1.108,1.873c0.09,0.209,0.166,0.42,0.254,0.644c-0.26,0.104-0.51,0.217-0.766,0.308
			c-0.279,0.1-0.564,0.184-0.847,0.27c-0.038,0.013-0.082,0.016-0.12,0.008c-0.025-0.006-0.061-0.033-0.066-0.059
			c-0.057-0.207-0.088-0.422-0.16-0.623c-0.19-0.523-0.396-1.039-0.6-1.559c-0.016-0.038-0.055-0.081-0.093-0.095
			c-0.38-0.138-0.761-0.272-1.145-0.396c-0.099-0.031-0.147-0.061-0.157-0.175c-0.044-0.5-0.172-0.981-0.32-1.459
			C7.99,8.895,7.985,8.867,7.978,8.84z"/>
		<path fill="#627D53" d="M7.855,11.104c0.001-0.24,0.004-0.455,0.001-0.67c0-0.025-0.029-0.061-0.053-0.074
			c-0.09-0.053-0.146-0.127-0.17-0.229c-0.027-0.107-0.054-0.113-0.139-0.047c-0.063,0.047-0.133,0.086-0.2,0.129
			c0-0.225-0.003-0.432,0.001-0.639C7.3,9.398,7.313,9.223,7.318,9.047C7.32,8.982,7.339,8.951,7.41,8.943
			c0.13-0.016,0.259-0.045,0.408-0.07c0.208,0.756,0.452,1.503,0.298,2.322C8.004,11.154,7.916,11.124,7.855,11.104z"/>
		<path fill="#627D53" d="M11.5,5.346c0.176-0.018,0.359-0.036,0.545-0.054c0.08-0.008,0.16-0.019,0.241-0.021
			c0.229-0.007,0.409,0.146,0.427,0.357c0.016,0.218-0.129,0.4-0.357,0.428C12.078,6.089,11.799,6.11,11.5,6.138
			C11.5,5.875,11.5,5.618,11.5,5.346z"/>
		<path fill="#627D53" d="M6.959,6.902C7.071,6.89,7.161,6.873,7.251,6.873c0.196,0,0.357,0.151,0.383,0.349
			c0.024,0.183-0.107,0.374-0.293,0.42C7.264,7.662,7.183,7.67,7.088,7.687C7.111,7.417,7.096,7.157,6.959,6.902z"/>
	</g>
</g>
</svg>
