<?xml version="1.0" encoding="utf-8"?>
<!-- Generator: Adobe Illustrator 16.0.0, SVG Export Plug-In . SVG Version: 6.00 Build 0)  -->
<!DOCTYPE svg PUBLIC "-//W3C//DTD SVG 1.1//EN" "http://www.w3.org/Graphics/SVG/1.1/DTD/svg11.dtd">
<svg version="1.1" id="Layer_1" xmlns="http://www.w3.org/2000/svg" xmlns:xlink="http://www.w3.org/1999/xlink" x="0px" y="0px"
	 width="16px" height="16px" viewBox="0 17.584 16 16" enable-background="new 0 17.584 16 16" xml:space="preserve">
<g>
	<path fill-rule="evenodd" clip-rule="evenodd" fill="#627D53" d="M2.207,3.451C2.642,3.228,3.106,3.2,3.587,3.212
		C4.893,3.243,6.199,3.251,7.505,3.27C7.618,3.271,7.73,3.277,7.811,3.28C7.799,4.164,7.789,5.033,7.778,5.91
		c-1.412,0.424-2.103,1.207-2.086,2.4c0.014,0.916,0.545,2.025,2.052,2.336c-0.011,0.879-0.02,1.752-0.029,2.615
		c-1.604-0.016-3.218-0.002-4.829-0.053c-0.853-0.029-1.444-0.738-1.447-1.6c-0.001-0.338,0.007-0.676,0.011-1.066
		c0.374,0.016,0.713,0.031,1.052,0.047c0.339,0.016,0.679,0.033,0.982,0.047C3.504,9.01,3.525,7.438,3.545,5.828
		C2.917,5.834,2.237,5.84,1.521,5.846c0.017-0.717-0.089-1.397,0.295-2.014C1.945,3.705,2.076,3.579,2.207,3.451z"/>
	<path fill-rule="evenodd" clip-rule="evenodd" fill="#627D53" d="M8.349,10.645c1.34-0.211,2.039-1.205,2.1-2.229
		c0.069-1.211-0.629-2.061-2.013-2.492c0.013-0.878,0.025-1.746,0.04-2.665c0.523,0.014,1.088,0.035,1.655,0.045
		c0.978,0.017,1.954,0.023,2.93,0.041c1.012,0.018,1.651,0.679,1.646,1.686c-0.002,0.306,0.004,0.612,0.007,0.933
		c-0.719-0.023-1.406-0.045-2.06-0.064c-0.021,1.648-0.042,3.213-0.062,4.77c0.626,0.002,1.313,0.008,2.039,0.01
		c-0.052,0.789,0.146,1.521-0.403,2.129c-0.307,0.34-0.679,0.551-1.13,0.547c-1.603-0.014-3.202-0.049-4.79-0.076
		C8.321,12.41,8.335,11.537,8.349,10.645z"/>
	<path fill-rule="evenodd" clip-rule="evenodd" fill="#627D53" d="M14.548,10.186c-0.438-0.006-0.936-0.012-1.412-0.018
		c0.026-1.203,0.051-2.41,0.076-3.617c0.42,0.016,0.924,0.035,1.383,0.051C14.579,7.756,14.564,8.963,14.548,10.186z"/>
	<path fill-rule="evenodd" clip-rule="evenodd" fill="#627D53" d="M2.971,10C2.49,9.992,1.982,9.98,1.512,9.971
		C1.53,8.807,1.548,7.598,1.566,6.395c0.476,0.012,0.981,0.027,1.454,0.041C3.004,7.604,2.988,8.813,2.971,10z"/>
	<path fill-rule="evenodd" clip-rule="evenodd" fill="#627D53" d="M8.375,10.076c0.018-1.186,0.039-2.371,0.058-3.559
		c0.733,0.027,1.435,0.801,1.477,1.691C9.953,9.143,9.275,9.953,8.375,10.076z"/>
	<path fill-rule="evenodd" clip-rule="evenodd" fill="#627D53" d="M7.764,6.496C7.747,7.695,7.73,8.883,7.715,10.064
		c-0.857-0.139-1.495-0.9-1.483-1.803C6.244,7.357,6.902,6.609,7.764,6.496z"/>
</g>
<g>
	<path fill-rule="evenodd" clip-rule="evenodd" fill="#627D53" d="M13.964,26.506c-0.483,0.003-0.834-0.261-1.154-0.581
		c-0.119-0.118-0.225-0.248-0.35-0.386c-0.407,0.479-0.815,0.973-1.512,0.967c-0.686-0.007-1.084-0.501-1.488-0.966
		c-1.024,1.297-1.986,1.291-2.998,0.01c-1.32,1.285-1.915,1.286-3.003-0.012c-0.416,0.46-0.81,0.956-1.508,0.968
		c0-0.32,0-0.641,0-0.961c0.657-0.081,1.104-0.485,1.498-1.002c0.413,0.498,0.838,0.985,1.523,0.977
		c0.676-0.01,1.092-0.495,1.484-0.977c1.074,1.312,1.93,1.312,3,0.004c1.08,1.354,2.017,1.239,3.008,0
		c0.392,0.498,0.837,0.92,1.501,0.998C13.964,25.865,13.964,26.186,13.964,26.506z"/>
	<path fill-rule="evenodd" clip-rule="evenodd" fill="#627D53" d="M13.964,30.03c-0.668-0.063-1.102-0.484-1.498-0.996
		c-0.409,0.496-0.832,0.985-1.517,0.979c-0.676-0.006-1.093-0.489-1.486-0.971c-1.051,1.298-1.956,1.302-3.007,0.008
		c-1.154,1.44-2.104,1.129-3.003-0.014C3.058,29.53,2.625,29.971,1.95,30.03c0-0.338,0-0.676,0-1.015
		c0.465,0.013,0.805-0.241,1.119-0.538c0.135-0.127,0.25-0.274,0.383-0.421c0.416,0.471,0.816,0.97,1.516,0.959
		c0.686-0.01,1.085-0.495,1.489-0.961c1.016,1.292,1.984,1.29,2.993,0.009c1.326,1.268,1.981,1.27,3.003-0.01
		c0.419,0.455,0.81,0.958,1.511,0.962C13.964,29.354,13.964,29.692,13.964,30.03z"/>
	<path fill-rule="evenodd" clip-rule="evenodd" fill="#627D53" d="M1.95,22.021c0.68-0.035,1.093-0.492,1.5-0.979
		c0.406,0.484,0.818,0.963,1.496,0.97c0.686,0.006,1.094-0.484,1.507-0.966c0.405,0.474,0.813,0.96,1.49,0.966
		c0.684,0.005,1.099-0.472,1.511-0.965c0.408,0.462,0.809,0.959,1.485,0.965c0.685,0.005,1.103-0.466,1.518-0.968
		c0.409,0.469,0.818,0.945,1.506,0.977c0,0.338,0,0.676,0,1.015c-0.654-0.089-1.104-0.487-1.494-1.011
		c-0.413,0.478-0.817,0.978-1.507,0.977C10.277,23,9.866,22.524,9.462,22.03C9.055,22.51,8.646,23.002,7.957,23
		c-0.686,0-1.094-0.479-1.499-0.972c-0.404,0.48-0.814,0.975-1.507,0.973c-0.685-0.002-1.091-0.483-1.502-0.978
		c-0.388,0.51-0.835,0.926-1.5,1.013C1.95,22.697,1.95,22.359,1.95,22.021z"/>
</g>
<g>
	<path fill-rule="evenodd" clip-rule="evenodd" fill="#FFFFFF" d="M12.422,42.581c0.021-1.593-0.151-2.169-0.673-3.192
		c-0.43-0.844-1.031-1.543-1.899-1.958c-1.324-0.635-2.608-0.467-3.839,0.269c-0.941,0.562-1.542,1.417-2.008,2.383
		c-0.692,1.436-0.61,2.81,0.314,4.124c0.473,0.675,1.048,1.253,1.651,1.807c0.503,0.463,1.038,0.894,1.447,1.45
		c0.165,0.223,0.337,0.441,0.509,0.658c0.371,0.467,0.778,0.892,1.336,1.142c0.721,0.321,1.476,0.335,2.239,0.223
		c0.242-0.036,0.484-0.099,0.714-0.185c1.156-0.428,1.67-1.375,1.416-2.585c-0.119-0.57-0.35-1.095-0.642-1.595
		c-0.264-0.453-0.479-0.923-0.512-1.455C12.451,43.256,12.435,42.846,12.422,42.581z"/>
	<path fill-rule="evenodd" clip-rule="evenodd" fill="#627D53" d="M12.422,42.581c0.013,0.265,0.029,0.675,0.054,1.085
		c0.032,0.532,0.248,1.002,0.512,1.455c0.292,0.5,0.522,1.024,0.642,1.595c0.254,1.21-0.26,2.157-1.416,2.585
		c-0.229,0.086-0.472,0.148-0.714,0.185c-0.764,0.112-1.519,0.099-2.239-0.223c-0.558-0.25-0.965-0.675-1.336-1.142
		c-0.172-0.217-0.345-0.436-0.509-0.658c-0.409-0.557-0.944-0.987-1.447-1.45c-0.604-0.554-1.179-1.132-1.651-1.807
		c-0.924-1.314-1.006-2.688-0.314-4.124c0.466-0.966,1.067-1.821,2.008-2.383c1.231-0.735,2.515-0.903,3.839-0.269
		c0.868,0.415,1.47,1.114,1.899,1.958C12.271,40.412,12.442,40.988,12.422,42.581z M11.929,42.583c0.003,0,0.006-0.001,0.009-0.001
		c0-0.169-0.001-0.339,0.001-0.508c0.017-1.069-0.304-2.035-0.893-2.918c-0.438-0.656-0.996-1.182-1.757-1.44
		c-1.149-0.391-2.212-0.159-3.193,0.509c-0.935,0.637-1.492,1.559-1.871,2.597c-0.363,0.998-0.232,1.953,0.323,2.851
		c0.357,0.581,0.809,1.087,1.298,1.561c0.214,0.207,0.425,0.42,0.657,0.607c0.706,0.572,1.264,1.275,1.812,1.991
		c0.311,0.408,0.66,0.785,1.145,0.987c0.878,0.366,1.772,0.334,2.647,0.006c0.862-0.323,1.226-1.022,1.062-1.932
		c-0.099-0.539-0.315-1.029-0.586-1.499c-0.295-0.512-0.542-1.041-0.584-1.642C11.971,43.362,11.951,42.973,11.929,42.583z"/>
	<path fill-rule="evenodd" clip-rule="evenodd" fill="#FFFFFF" d="M11.929,42.583c0.022,0.39,0.042,0.779,0.069,1.169
		c0.042,0.601,0.289,1.13,0.584,1.642c0.271,0.47,0.487,0.96,0.586,1.499c0.164,0.909-0.199,1.608-1.062,1.932
		c-0.875,0.328-1.77,0.36-2.647-0.006c-0.484-0.202-0.834-0.579-1.145-0.987c-0.547-0.716-1.105-1.419-1.812-1.991
		c-0.232-0.188-0.443-0.4-0.657-0.607c-0.489-0.474-0.94-0.979-1.298-1.561c-0.555-0.897-0.687-1.853-0.323-2.851
		c0.378-1.038,0.936-1.96,1.871-2.597c0.981-0.668,2.044-0.899,3.193-0.509c0.761,0.259,1.318,0.784,1.757,1.44
		c0.589,0.883,0.909,1.849,0.893,2.918c-0.002,0.169-0.001,0.339-0.001,0.508C11.935,42.582,11.932,42.583,11.929,42.583z
		 M11.688,42.505c0.048-0.919-0.067-1.703-0.414-2.448c-0.348-0.744-0.794-1.413-1.511-1.846c-1.055-0.637-2.126-0.563-3.186-0.007
		c-0.824,0.433-1.37,1.132-1.799,1.937c-0.284,0.531-0.484,1.088-0.513,1.697c-0.036,0.774,0.278,1.431,0.708,2.042
		c0.427,0.61,0.955,1.131,1.507,1.625c0.529,0.473,1.066,0.936,1.499,1.506c0.262,0.343,0.529,0.683,0.811,1.01
		c0.326,0.38,0.734,0.642,1.233,0.737c0.568,0.109,1.137,0.096,1.697-0.054c1.034-0.276,1.43-0.954,1.167-1.991
		c-0.122-0.479-0.337-0.914-0.586-1.337c-0.287-0.488-0.492-1.007-0.535-1.577C11.73,43.334,11.709,42.867,11.688,42.505z"/>
	<path fill-rule="evenodd" clip-rule="evenodd" fill="#627D53" d="M11.688,42.505c0.021,0.362,0.042,0.829,0.078,1.294
		c0.043,0.57,0.248,1.089,0.535,1.577c0.249,0.423,0.464,0.858,0.586,1.337c0.263,1.037-0.133,1.715-1.167,1.991
		c-0.561,0.149-1.129,0.163-1.697,0.054C9.524,48.662,9.116,48.4,8.79,48.021c-0.281-0.327-0.549-0.667-0.811-1.01
		c-0.433-0.57-0.97-1.033-1.499-1.506C5.928,45.011,5.4,44.49,4.973,43.88c-0.429-0.611-0.744-1.268-0.708-2.042
		c0.029-0.609,0.229-1.166,0.513-1.697c0.429-0.805,0.975-1.504,1.799-1.937c1.06-0.556,2.131-0.63,3.186,0.007
		c0.717,0.433,1.163,1.102,1.511,1.846C11.621,40.802,11.736,41.586,11.688,42.505z M8.476,39.03
		c-0.333,0.028-0.565,0.038-0.794,0.069c-0.502,0.069-0.99,0.19-1.423,0.469c-0.234,0.151-0.422,0.344-0.498,0.625
		c-0.093,0.346-0.021,0.594,0.267,0.763c0.435,0.258,0.886,0.323,1.34,0.039c0.529-0.33,1.053-0.335,1.578,0.008
		c0.137,0.09,0.274,0.182,0.418,0.261c0.221,0.123,0.379,0.086,0.455-0.147c0.105-0.324,0.205-0.66,0.236-0.998
		c0.043-0.473-0.189-0.796-0.647-0.923C9.074,39.102,8.723,39.072,8.476,39.03z M8.621,44.218c-0.064-0.301-0.105-0.606-0.197-0.897
		c-0.125-0.401-0.387-0.684-0.817-0.777c-0.513-0.11-1.255,0.188-1.538,0.62c-0.153,0.232-0.146,0.455,0.046,0.658
		c0.09,0.095,0.201,0.187,0.32,0.231c0.542,0.205,1.083,0.419,1.64,0.576C8.543,44.761,8.613,44.574,8.621,44.218z M11.243,47.408
		c-0.012-0.102-0.021-0.204-0.033-0.306c-0.051-0.375-0.053-0.375-0.418-0.322c-0.276,0.04-0.426-0.04-0.544-0.292
		c-0.021-0.046-0.037-0.096-0.059-0.141c-0.08-0.169-0.246-0.245-0.408-0.152c-0.099,0.057-0.196,0.156-0.238,0.26
		c-0.238,0.571,0.038,1.239,0.637,1.577C10.773,48.367,11.241,48.091,11.243,47.408z M10.066,44.238c0-0.442,0.001-0.874,0-1.306
		c0-0.065,0.006-0.135-0.009-0.199c-0.012-0.043-0.054-0.081-0.081-0.12c-0.024,0.043-0.061,0.083-0.071,0.13
		c-0.013,0.054-0.003,0.112-0.003,0.169c0,0.44,0,0.882,0,1.319c-0.272,0.15-0.362,0.301-0.308,0.509
		c0.048,0.182,0.211,0.305,0.397,0.3c0.178-0.004,0.34-0.137,0.377-0.308C10.415,44.522,10.321,44.369,10.066,44.238z M11.256,43.26
		c-0.37-0.178-0.702-0.336-1.051-0.504c0,0.354,0,0.678,0,1.025C10.555,43.607,10.886,43.443,11.256,43.26z"/>
	<path fill-rule="evenodd" clip-rule="evenodd" fill="#FFFFFF" d="M8.476,39.03c0.247,0.042,0.598,0.071,0.931,0.165
		c0.458,0.127,0.69,0.45,0.647,0.923c-0.031,0.338-0.131,0.674-0.236,0.998c-0.076,0.233-0.234,0.271-0.455,0.147
		c-0.144-0.079-0.281-0.171-0.418-0.261c-0.524-0.343-1.049-0.338-1.578-0.008c-0.454,0.284-0.906,0.219-1.34-0.039
		c-0.288-0.169-0.36-0.417-0.267-0.763c0.076-0.281,0.264-0.474,0.498-0.625C6.692,39.29,7.18,39.169,7.682,39.1
		C7.911,39.068,8.143,39.059,8.476,39.03z"/>
	<path fill-rule="evenodd" clip-rule="evenodd" fill="#FFFFFF" d="M8.621,44.218c-0.008,0.356-0.078,0.543-0.545,0.411
		c-0.557-0.157-1.098-0.371-1.64-0.576c-0.119-0.045-0.23-0.137-0.32-0.231c-0.192-0.203-0.199-0.426-0.046-0.658
		c0.283-0.433,1.025-0.73,1.538-0.62c0.43,0.094,0.691,0.376,0.817,0.777C8.516,43.611,8.557,43.917,8.621,44.218z"/>
	<path fill-rule="evenodd" clip-rule="evenodd" fill="#FFFFFF" d="M11.243,47.408c-0.002,0.683-0.47,0.959-1.063,0.624
		c-0.599-0.338-0.875-1.006-0.637-1.577c0.042-0.104,0.14-0.203,0.238-0.26c0.162-0.093,0.328-0.017,0.408,0.152
		c0.021,0.045,0.038,0.095,0.059,0.141c0.118,0.252,0.268,0.332,0.544,0.292c0.365-0.053,0.367-0.053,0.418,0.322
		C11.223,47.204,11.231,47.307,11.243,47.408z"/>
	<path fill-rule="evenodd" clip-rule="evenodd" fill="#FFFFFF" d="M10.066,44.238c0.255,0.131,0.349,0.284,0.303,0.494
		c-0.037,0.171-0.199,0.304-0.377,0.308c-0.187,0.005-0.35-0.118-0.397-0.3c-0.055-0.208,0.035-0.358,0.308-0.509
		c0-0.438,0-0.879,0-1.319c0-0.057-0.01-0.115,0.003-0.169c0.011-0.047,0.047-0.087,0.071-0.13c0.027,0.039,0.069,0.077,0.081,0.12
		c0.015,0.064,0.009,0.134,0.009,0.199C10.067,43.364,10.066,43.796,10.066,44.238z"/>
	<path fill-rule="evenodd" clip-rule="evenodd" fill="#FFFFFF" d="M11.256,43.26c-0.37,0.184-0.701,0.348-1.051,0.521
		c0-0.348,0-0.672,0-1.025C10.554,42.924,10.886,43.082,11.256,43.26z"/>
</g>
<g>
	<path fill-rule="evenodd" clip-rule="evenodd" fill="#627D53" d="M2.223,62.676c0.029-0.106,0.094-0.191,0.154-0.281
		c1.145-1.717,2.29-3.435,3.435-5.152c0.162-0.241,0.468-0.283,0.675-0.091c0.031,0.029,0.058,0.065,0.083,0.102
		c0.648,0.917,1.295,1.834,1.944,2.753c0.008,0.011,0.016,0.022,0.025,0.035c0.082-0.096,0.163-0.188,0.244-0.282
		c0.322-0.374,0.646-0.747,0.969-1.12c0.039-0.045,0.076-0.09,0.115-0.134c0.188-0.207,0.507-0.193,0.677,0.027
		c0.447,0.58,0.895,1.16,1.342,1.74c0.454,0.589,0.907,1.179,1.361,1.769c0.117,0.15,0.233,0.301,0.349,0.452
		c0.207,0.268,0.078,0.636-0.252,0.709c-0.177,0.038-0.328-0.02-0.438-0.163c-0.578-0.746-1.153-1.495-1.729-2.243
		c-0.323-0.418-0.645-0.838-0.968-1.257c-0.009-0.011-0.019-0.021-0.03-0.034c-0.06,0.07-0.119,0.137-0.178,0.205
		c-0.266,0.306-0.53,0.611-0.797,0.917c-0.035,0.041-0.069,0.081-0.104,0.121c-0.019,0.021-0.022,0.041-0.003,0.067
		c0.188,0.269,0.375,0.538,0.562,0.808c0.036,0.056,0.08,0.108,0.104,0.169c0.083,0.211-0.017,0.452-0.222,0.55
		c-0.207,0.099-0.449,0.022-0.571-0.171c-0.085-0.136-0.18-0.264-0.272-0.395c-0.456-0.645-0.912-1.288-1.368-1.933
		c-0.367-0.519-0.735-1.039-1.103-1.557c-0.005-0.007-0.011-0.015-0.018-0.023C6.199,58.277,6.19,58.289,6.183,58.3
		c-1.043,1.565-2.086,3.13-3.129,4.695c-0.071,0.107-0.164,0.183-0.289,0.212c-0.23,0.054-0.458-0.078-0.528-0.307
		c-0.003-0.012-0.008-0.022-0.013-0.035C2.223,62.803,2.223,62.738,2.223,62.676z"/>
	<path fill-rule="evenodd" clip-rule="evenodd" fill="#627D53" d="M2.223,66.105c0.053-0.091,0.12-0.169,0.221-0.208
		c0.053-0.021,0.111-0.036,0.168-0.036c3.542-0.002,7.083-0.002,10.625-0.002c0.226,0,0.407,0.137,0.452,0.342
		c0.062,0.274-0.131,0.524-0.415,0.541c-0.02,0.001-0.039,0-0.058,0c-3.503,0.001-7.004,0.001-10.506,0
		c-0.063,0-0.129,0.001-0.191-0.013c-0.122-0.025-0.214-0.097-0.278-0.204c-0.006-0.01-0.012-0.019-0.018-0.026
		C2.223,66.368,2.223,66.236,2.223,66.105z"/>
	<path fill-rule="evenodd" clip-rule="evenodd" fill="#627D53" d="M2.223,64.337c0.032-0.041,0.06-0.085,0.097-0.12
		c0.081-0.08,0.179-0.122,0.294-0.122c3.549,0.001,7.099,0.001,10.646,0.001c0.208,0,0.387,0.143,0.43,0.345
		c0.044,0.207-0.056,0.409-0.246,0.497c-0.06,0.027-0.123,0.039-0.189,0.039c-3.521,0-7.041,0-10.561,0
		c-0.072,0-0.145,0.005-0.215-0.021c-0.096-0.036-0.174-0.095-0.229-0.181c-0.008-0.014-0.018-0.025-0.026-0.038
		C2.223,64.603,2.223,64.47,2.223,64.337z"/>
</g>
</svg>
