<?xml version="1.0" encoding="utf-8"?>
<!-- Generator: Adobe Illustrator 16.0.0, SVG Export Plug-In . SVG Version: 6.00 Build 0)  -->
<!DOCTYPE svg PUBLIC "-//W3C//DTD SVG 1.1//EN" "http://www.w3.org/Graphics/SVG/1.1/DTD/svg11.dtd">
<svg version="1.1" id="Layer_1" xmlns="http://www.w3.org/2000/svg" xmlns:xlink="http://www.w3.org/1999/xlink" x="0px" y="0px"
	 width="16px" height="16px" viewBox="0 0 16 16" enable-background="new 0 0 16 16" xml:space="preserve">
<g>
	<path fill="#627D53" d="M9.798,8.298c0.025-0.814-0.247-1.061-0.942-0.861C8.795,7.243,8.74,7.045,8.674,6.853
		c-0.052-0.148-0.121-0.29-0.177-0.436c-0.015-0.041-0.013-0.09-0.01-0.135C8.498,6.104,8.525,5.924,8.52,5.747
		C8.514,5.581,8.404,5.475,8.275,5.465c-0.122-0.009-0.262,0.09-0.3,0.233C7.935,5.847,7.914,6,7.882,6.159
		C7.861,6.152,7.833,6.145,7.809,6.133C7.573,6.022,7.339,5.908,7.101,5.8C7.027,5.767,6.992,5.72,6.999,5.64
		C7.014,5.458,7.01,5.272,7.046,5.094c0.056-0.28,0.227-0.478,0.495-0.592c0.474-0.201,0.958-0.196,1.447-0.077
		c0.32,0.078,0.621,0.203,0.89,0.4C9.982,4.903,10.057,5,10.109,5.123c0.238,0.537,0.615,0.922,1.209,1.043
		c0.166,0.035,0.345,0.04,0.515,0.026c0.267-0.021,0.476,0.066,0.636,0.275c0.176,0.231,0.254,0.503,0.299,0.784
		c0.092,0.573,0.092,1.145-0.08,1.703c-0.099,0.325-0.301,0.586-0.614,0.743c-0.085,0.044-0.149,0.048-0.197-0.049
		c-0.021-0.039-0.046-0.078-0.077-0.106C11.63,9.378,11.625,9.2,11.686,8.979c0.072-0.277,0.097-0.572,0.123-0.857
		c0.006-0.076-0.035-0.203-0.088-0.227c-0.072-0.031-0.193-0.008-0.267,0.036c-0.185,0.111-0.353,0.249-0.531,0.37
		c-0.05,0.033-0.114,0.063-0.174,0.063c-0.216,0-0.433-0.008-0.647-0.021C10,8.337,9.9,8.314,9.798,8.298z"/>
	<path fill="#627D53" d="M8.811,7.528c0.293-0.115,0.551-0.129,0.771,0.091c0.161,0.162,0.19,0.424,0.087,0.722
		c0.145,0.032,0.283,0.074,0.426,0.094c0.174,0.023,0.352,0.024,0.526,0.044c0.179,0.021,0.353,0.062,0.444,0.24
		c0.266,0.5,0.642,0.912,1.033,1.313c0.086,0.089,0.186,0.166,0.282,0.244c0.129,0.103,0.175,0.207,0.121,0.31
		c-0.051,0.101-0.198,0.16-0.328,0.11c-0.094-0.034-0.187-0.092-0.26-0.159c-0.214-0.197-0.417-0.404-0.625-0.606
		c-0.265-0.259-0.56-0.472-0.897-0.63c-0.287-0.138-0.567-0.294-0.851-0.44C9.512,8.844,9.48,8.83,9.457,8.818
		c-0.328,0.514-0.652,1.022-0.982,1.541C7.93,10.016,7.466,9.617,7.074,9.115c0.427-0.436,0.85-0.866,1.272-1.296
		c-0.51-0.645-1.035-1.297-1.808-1.686c-0.153-0.077-0.292-0.184-0.43-0.287C5.999,5.765,5.941,5.651,5.957,5.51
		c0.018-0.158,0.152-0.234,0.297-0.167C6.28,5.355,6.305,5.371,6.328,5.389C6.894,5.821,7.518,6.137,8.2,6.345
		c0.09,0.027,0.183,0.117,0.229,0.203c0.079,0.147,0.119,0.314,0.18,0.472C8.672,7.187,8.74,7.352,8.811,7.528z"/>
	<path fill="#627D53" d="M7.393,6.889C7.672,7.203,7.942,7.508,8.22,7.82C8.032,7.992,7.852,8.163,7.666,8.329
		C7.28,8.674,6.897,9.021,6.502,9.355c-0.669,0.569-1.341,1.137-2.023,1.688c-0.149,0.121-0.341,0.203-0.527,0.263
		c-0.256,0.084-0.425-0.062-0.421-0.33c0.004-0.313,0.148-0.57,0.355-0.785C4.3,9.764,4.721,9.34,5.155,8.934
		c0.7-0.655,1.414-1.293,2.122-1.939C7.312,6.961,7.348,6.93,7.393,6.889z"/>
	<path fill="#627D53" d="M5.793,13.256c-0.063-0.014-0.1-0.018-0.134-0.029c-0.263-0.1-0.472-0.268-0.625-0.502
		c-0.079-0.123-0.088-0.242,0.01-0.365c0.407-0.506,0.807-1.02,1.218-1.522c0.219-0.267,0.454-0.521,0.687-0.774
		c0.114-0.125,0.151-0.127,0.3-0.049c0.218,0.113,0.404,0.268,0.552,0.465c0.106,0.142,0.115,0.193,0.012,0.336
		c-0.331,0.453-0.66,0.91-1.008,1.351c-0.269,0.34-0.563,0.657-0.851,0.981C5.909,13.197,5.839,13.227,5.793,13.256z"/>
	<path fill="#627D53" d="M9.449,9.01c0.371,0.254,0.713,0.52,0.986,0.863c0.271,0.336,0.289,0.543,0.041,0.893
		c-0.443,0.627-1.033,1.037-1.808,1.144c-0.097,0.014-0.199,0.008-0.295-0.011c-0.27-0.045-0.397-0.242-0.304-0.498
		c0.047-0.125,0.128-0.258,0.233-0.334c0.212-0.153,0.451-0.272,0.679-0.401c0.104-0.06,0.209-0.108,0.311-0.168
		c0.096-0.058,0.096-0.11-0.005-0.156c-0.151-0.063-0.312-0.108-0.466-0.161c-0.018-0.007-0.035-0.011-0.074-0.021
		C8.982,9.773,9.213,9.396,9.449,9.01z"/>
	<path fill="#627D53" d="M11.605,5.987c-0.717-0.003-1.282-0.577-1.28-1.296c0.002-0.718,0.584-1.293,1.303-1.288
		c0.703,0.006,1.281,0.59,1.279,1.294C12.906,5.415,12.325,5.99,11.605,5.987z M11.727,5.45c0.015-0.002,0.037-0.003,0.058-0.007
		c0.271-0.048,0.43-0.238,0.565-0.453c0.01-0.016,0.002-0.058-0.015-0.073c-0.325-0.313-0.651-0.625-0.981-0.934
		c-0.017-0.016-0.056-0.027-0.074-0.018c-0.205,0.087-0.375,0.22-0.413,0.45C10.773,4.948,11.297,5.416,11.727,5.45z"/>
	<path fill="#627D53" d="M6.61,9.924c0.075-0.113,0.146-0.229,0.225-0.338c0.101-0.137,0.19-0.16,0.329-0.063
		C7.335,9.643,7.498,9.775,7.658,9.91c0.186,0.156,0.37,0.314,0.543,0.484c0.168,0.164,0.163,0.276-0.004,0.44
		c-0.083,0.082-0.177,0.153-0.266,0.229C7.917,11.08,7.9,11.092,7.863,11.119c0.083-0.129,0.154-0.234,0.22-0.342
		c0.074-0.121,0.063-0.236-0.027-0.348C7.79,10.104,7.466,9.85,7.097,9.65C7.028,9.611,6.971,9.615,6.911,9.678
		c-0.088,0.094-0.188,0.174-0.283,0.26C6.622,9.934,6.616,9.928,6.61,9.924z"/>
</g>
</svg>
