<?xml version="1.0" encoding="utf-8"?>
<!-- Generator: Adobe Illustrator 16.0.0, SVG Export Plug-In . SVG Version: 6.00 Build 0)  -->
<!DOCTYPE svg PUBLIC "-//W3C//DTD SVG 1.1//EN" "http://www.w3.org/Graphics/SVG/1.1/DTD/svg11.dtd">
<svg version="1.1" id="Layer_1" xmlns="http://www.w3.org/2000/svg" xmlns:xlink="http://www.w3.org/1999/xlink" x="0px" y="0px"
	 width="256px" height="256px" viewBox="0 0 256 256" enable-background="new 0 0 256 256" xml:space="preserve">
<g>
	<path fill-rule="evenodd" clip-rule="evenodd" d="M50.24,125.763c-2.633-0.134-2.642-0.134-2.633-2.871
		c0.009-2.146-0.146-4.317,0.099-6.44c0.644-5.47,5.163-9.265,10.866-9.269c22.21-0.009,44.425,0,66.636,0
		c1.817,0,3.639,0.052,5.457-0.018c2.176-0.082,4.273,0.199,6.299,1.015c3.268,1.813,5.205,4.584,5.926,8.236
		c0,2.75-0.008,5.5,0.018,8.25c0.005,0.367-0.28,1.019,0.432,1.015c1.191,0,2.436,0.289,3.558-0.372
		c0.699-0.415,1.165-1.053,1.234-1.852c0.069-0.815-0.786-0.815-1.261-1.083c-2.745-1.549-2.754-1.537-1.295-4.213
		c1.537-1.709,1.537-1.709,3.781-0.483c12.969,7.08,29.234-0.207,32.619-14.574c0.949-4.037,0.526-8.12,0.604-12.187
		c0.061-2.992,0.035-3.035-2.9-3.955c-5.889-1.852-10.084-5.508-12.061-11.448c-0.346-1.027-0.743-0.769-1.391-0.405
		c-3.895,2.197-7.995,3.924-12.252,5.262c-4.912,1.537-9.933,2.461-15.061,2.836c-0.563,0.043-1.369-0.208-1.33,0.924
		c0.182,5.729-0.337,11.465,0.311,17.181c0.276,2.443,0.337,2.435-1.977,3.276c-0.916-0.073-1.744,0.842-2.646,0.376
		c-3.678-1.899-7.46-3.674-8.574-8.293c-1.265-5.254,1.313-10.499,6.316-12.563c0.389-0.159,0.79-0.298,1.17-0.755
		c-0.829,0-1.653,0.03-2.482-0.005c-1.455-0.06-2.603-0.837-2.612-2.249c-0.021-4.994-0.57-10.02,0.864-14.945
		c2.927-10.041,12.104-17.125,22.543-17.172c4.23-0.021,8.479-0.389,12.691,0.259c2.832,0.436,5.154,1.896,6.941,4.105
		c0.57,0.708,1.191,1.032,2.047,1.17c9.039,1.433,15.549,8.918,15.704,18.079c0.052,3.307,0.034,6.613-0.009,9.92
		c-0.008,0.82,0.199,1.213,1.027,1.537c4.49,1.735,7.098,5.729,6.925,10.391c-0.173,4.446-3.16,8.275-7.702,9.661
		c-0.828,0.255-1.088,0.652-1.312,1.412c-1.848,6.286-5.405,11.414-10.827,15.118c-1.313,0.898-1.588,1.848-1.209,3.147
		c0.415,1.394,1.485,1.942,2.918,1.934c3.42-0.021,6.838-0.043,10.249,0c8.746,0.117,15.999,5.936,18.001,14.449
		c0.371,1.554,0.484,3.143,0.484,4.748c-0.018,7.054-0.069,14.107,0.034,21.161c0.026,1.649-0.372,2.306-2.029,1.995
		c-0.207-0.044-0.44,0.025-0.647,0.043c-0.276-0.018-0.57-0.096-0.828-0.043c-1.485,0.259-1.951-0.312-1.865-1.831
		c0.138-2.538-0.009-5.076,0.052-7.614c0.026-0.95-0.276-1.184-1.2-1.175c-3.583,0.052-7.175,0.069-10.749-0.009
		c-1.14-0.025-1.339,0.371-1.329,1.391c0.051,5.353,0.025,10.705,0.025,16.05c-0.009,3.005-0.777,3.765-3.842,3.765
		c-10.974,0-21.947-0.009-32.921,0.008c-4.826,0-8.193,3.402-8.232,8.22c-0.013,1.218,0.061,2.435-0.021,3.644
		c-0.069,1.036,0.19,1.398,1.325,1.391c13.724-0.044,27.46,0.025,41.188-0.053c8.703-0.051,15.559-7.002,15.73-15.688
		c0.061-2.736,0.061-2.736,2.668-2.866c2.659,0.13,2.677,0.138,2.625,2.866c-0.104,5.639-2.115,10.499-6.01,14.592
		c-0.259,0.275-0.535,0.543-0.811,0.828c-0.018,0.018,0.008,0.087,0.034,0.294c1.208,0,2.452-0.018,3.694,0
		c2.072,0.034,3.074,0.984,3.092,3.013c0.025,3.307,0.034,6.614,0,9.921c-0.018,1.934-1.036,2.884-2.987,2.944
		c-0.337,0.008-0.665,0-1.001,0c-50.267,0-100.532,0-150.798,0c-3.363,0-4.015-0.665-4.015-4.076c0-2.875-0.013-5.732,0.004-8.599
		c0.009-2.253,0.95-3.194,3.225-3.203c5.016-0.018,10.037-0.009,15.049,0c0.687,0.009,1.208-0.018,1.541-0.82
		c2.072-4.964,4.2-9.886,6.402-15.065c-2.495,0-4.826,0-7.162,0c-2.862,0-5.733,0.043-8.595-0.009
		c-5.776-0.095-10.413-4.663-10.447-10.421c-0.056-11.138-0.009-22.267-0.039-33.4c0-0.924,0.22-1.299,1.174-1.178
		c0.483,0.064,0.984-0.021,1.48-0.039c2.659,0.134,2.659,0.134,2.659,2.861c0,10.413-0.008,20.834,0.004,31.255
		c0.009,3.384,2.21,5.612,5.569,5.629c5.457,0.034,10.913-0.017,16.37,0.034c1.001,0.018,1.446-0.328,1.817-1.208
		c1.749-4.214,3.587-8.393,5.344-12.605c0.609-1.45,1.58-2.115,3.168-2.106c5.845,0.034,11.69,0,17.531,0.018
		c2.417,0.017,3.449,1.381,2.935,3.79c-0.841,3.979-1.683,7.951-2.555,12.078c0.673,0,1.217,0,1.761,0
		c8.875,0.009,17.751,0.018,26.626,0.009c4.059,0,6.126-2.046,6.126-6.069c0.005-15.334,0.005-30.654,0-45.979
		c0-4.148-2.033-6.177-6.187-6.177c-13.287,0-26.574,0-39.857,0c-10.917,0-21.83-0.004-32.744,0.004c-3.79,0-5.896,2.141-5.91,5.957
		c-0.004,1.489,0,2.975,0,4.464C52.899,125.624,52.899,125.624,50.24,125.763z M140.248,178.584
		c3.439-4.006,7.468-5.327,12.217-5.267c9.531,0.12,19.063,0.009,28.594,0.061c1.209,0.009,1.572-0.259,1.572-1.528
		c-0.069-7.874-0.035-15.757-0.035-23.64c0-4.161,0-4.127,4.18-3.997c0.846,0.025,1.156,0.232,1.131,1.113
		c-0.061,1.935,0.008,3.859-0.026,5.785c-0.017,0.742,0.155,1.088,0.984,1.079c3.755-0.034,7.503-0.034,11.241,0
		c0.812,0.009,1.036-0.268,1.027-1.045c-0.043-2.642,0.095-5.301-0.069-7.935c-0.371-5.888-4.826-10.805-10.628-11.932
		c-2.625-0.514-5.293-0.021-7.908-0.319c-2.807-0.311-4.508,0.726-6.242,3.005c-8.35,10.93-24.503,9.963-31.713-1.731
		c-0.311-0.514-0.448-1.464-1.329-1.161c-0.729,0.25-0.332,1.062-0.332,1.602c-0.026,10.693-0.039,21.381-0.005,32.07
		c0.005,2.564-0.591,4.895-2.123,6.967c-0.299,0.406-0.553,0.795-0.545,1.339C140.265,174.742,140.248,176.426,140.248,178.584z
		 M127.007,197.172c-23.704,0-47.412,0-71.116,0c-2.992,0-3.004,0-2.987,3.065c0.017,2.521-0.307,2.228,2.167,2.228
		c47.633,0,95.261,0,142.894,0c3.159,0,3.072,0,3.193-3.229c0.061-1.615-0.311-2.107-2.046-2.107
		C175.084,197.198,151.049,197.172,127.007,197.172z M99.937,160.107c-4.395,0-8.63,0.018-12.865-0.018
		c-0.764,0-0.876,0.501-1.088,0.993c-4.217,9.843-8.422,19.685-12.657,29.519c-0.389,0.898-0.518,1.321,0.768,1.313
		c5.944-0.061,11.889-0.043,17.837-0.017c0.82,0,1.222-0.121,1.42-1.071C95.49,180.656,97.691,170.52,99.937,160.107z
		 M138.391,59.179c1.102-0.143,1.792-0.203,2.475-0.328c0.971-0.181,1.925-0.458,2.9-0.617c1.127-0.177,2.344-1.265,3.225-0.708
		c0.846,0.531,1.07,1.99,1.692,2.948c0.786,1.209,0.337,1.667-0.863,2.072c-4.045,1.381-8.232,1.912-12.463,2.245
		c-0.661,0.052-1.339-0.048-1.602,0.803c-0.319,1.049-0.704,2.085-1.019,3.138c-0.199,0.673-0.078,1.032,0.803,0.846
		c1.502-0.324,3.039-0.479,4.545-0.786c6.506-1.317,12.844-3.1,18.628-6.484c3.212-1.882,3.143-1.896,5.716,0.781
		c0.828,0.859,0.621,1.256-0.225,1.895c-4.628,3.449-9.895,5.478-15.352,7.131c-4.428,1.343-8.965,2.202-13.537,2.867
		c-1.602,0.233-0.867,1.36-0.988,2.141c-0.173,1.053,0.621,0.945,1.281,0.941c1.986-0.022,3.959-0.095,5.937-0.255
		c9.397-0.76,18.065-3.695,26.147-8.479c0.777-0.458,1.053-0.958,1.035-1.835c-0.051-2.758-0.12-5.521,0.026-8.267
		c0.087-1.597-0.578-2.611-1.7-3.519c-1.071-0.858-2.322-1.424-3.645-1.416c-4.619,0.03-9.264-0.445-13.856,0.289
		C144.185,55.125,141.201,56.537,138.391,59.179z M161.167,136.33c4.585-0.207,8.341-2.046,11.173-5.75
		c0.432-0.57,0.586-0.915-0.087-1.441c-1.347-1.037-2.253-2.418-2.607-4.093c-0.19-0.859-0.622-0.846-1.304-0.63
		c-4.61,1.463-9.281,1.718-14.013,0.652c-0.803-0.182-1.175,0.078-1.425,0.851c-0.475,1.455-1.398,2.646-2.659,3.479
		c-0.829,0.544-0.63,0.933-0.146,1.528C152.939,134.448,156.643,136.175,161.167,136.33z M172.012,65.96c0,1.265,0,2.53,0,3.794
		c0.017,6.009,3.755,10.762,9.583,12.256c0.863,0.22,1.019-0.013,1.001-0.82c-0.034-3.078,0.069-6.164-0.051-9.242
		c-0.19-5.345-4.214-10.326-9.299-11.824c-0.959-0.285-1.287-0.16-1.252,0.885C172.055,62.658,172.012,64.307,172.012,65.96z
		 M126.248,175.994c-5.068,0-9.903,0.008-14.733,0c-0.427,0-0.755,0.086-0.919,0.509c-0.609,1.546-1.213,3.1-1.874,4.792
		c0.678,0,1.118,0,1.554,0c2.62,0.018,3.488,0.863,3.501,3.436c0.004,1.045,0,2.09,0,3.144c0,4.109,0,4.075,4.109,4.023
		c0.907-0.009,1.248-0.208,1.209-1.175c-0.078-1.813-0.026-3.626-0.026-5.447c0-3.281,0.626-3.902,3.941-3.998
		c0.505,0,1.101,0.225,1.377-0.535C124.948,179.205,125.574,177.703,126.248,175.994z M131.147,186.578c-0.937,0-1.869,0-2.806,0
		c-4.092,0-4.058,0-4.001,4.137c0.013,0.932,0.259,1.199,1.191,1.183c2.698-0.061,5.392-0.018,8.09-0.018c4.2,0,4.179,0,3.998-4.3
		c-0.031-0.785-0.234-1.036-1.023-1.01C134.782,186.622,132.965,186.578,131.147,186.578z M98.628,191.733
		c0.095,0.043,0.19,0.129,0.285,0.129c2.741,0.009,5.487-0.034,8.228,0.035c1.045,0.034,1.377-0.225,1.373-1.33
		c-0.022-3.989,0.026-3.989-3.967-3.979c-1.584,0.008-3.622-0.527-4.636,0.241c-1.179,0.906-0.902,3.108-1.295,4.74
		C98.603,191.621,98.628,191.673,98.628,191.733z M134.951,175.7c-0.77,0.104-1.36,0.225-1.956,0.259
		c-0.548,0.035-1.054,0-1.304,0.691c-0.549,1.52-1.161,3.021-1.796,4.645c1.493,0,2.806-0.035,4.114,0.009
		c0.664,0.025,0.984-0.112,0.958-0.881C134.907,178.895,134.951,177.375,134.951,175.7z M132.218,89.492
		c-3.41,2.594-3.337,6.898,0,8.711C132.218,95.354,132.218,92.54,132.218,89.492z M187.932,98.454
		c1.986-1.373,2.771-3.035,2.539-5.086c-0.19-1.593-0.881-2.948-2.539-3.807C187.932,92.557,187.932,95.341,187.932,98.454z
		 M105.03,176.098c-3.035-0.242-3.035-0.242-3.635,2.417c-0.121,0.526-0.285,1.054-0.333,1.598c-0.03,0.388-0.665,1.053,0.216,1.131
		c0.617,0.052,1.498,0.483,1.887-0.432C103.821,179.274,104.4,177.694,105.03,176.098z"/>
	<path fill-rule="evenodd" clip-rule="evenodd" fill="#39B54A" d="M140.248,178.584c0-2.158,0.017-3.842-0.01-5.534
		c-0.008-0.544,0.246-0.933,0.545-1.339c1.532-2.072,2.128-4.402,2.123-6.967c-0.034-10.689-0.021-21.377,0.005-32.07
		c0-0.54-0.397-1.352,0.332-1.602c0.881-0.303,1.019,0.647,1.329,1.161c7.21,11.694,23.363,12.661,31.713,1.731
		c1.734-2.279,3.436-3.315,6.242-3.005c2.615,0.298,5.283-0.194,7.908,0.319c5.802,1.127,10.257,6.044,10.628,11.932
		c0.164,2.634,0.026,5.293,0.069,7.935c0.009,0.777-0.216,1.054-1.027,1.045c-3.738-0.034-7.486-0.034-11.241,0
		c-0.829,0.009-1.001-0.337-0.984-1.079c0.034-1.926-0.034-3.851,0.026-5.785c0.025-0.881-0.285-1.088-1.131-1.113
		c-4.18-0.13-4.18-0.164-4.18,3.997c0,7.883-0.034,15.766,0.035,23.64c0,1.27-0.363,1.537-1.572,1.528
		c-9.531-0.052-19.063,0.06-28.594-0.061C147.716,173.257,143.688,174.578,140.248,178.584z M161.408,152.182
		c3.109,0.018,6.131-0.518,9.084-1.459c3.764-1.2,3.764-1.217,2.071-4.671c-0.052-0.095-0.12-0.19-0.155-0.294
		c-0.293-1.174-0.915-1.122-1.926-0.707c-5.861,2.391-11.759,2.434-17.689,0.207c-1.123-0.415-2.314-1.676-3.247-1.191
		c-0.967,0.5-1.329,2.072-2.063,3.082c-0.699,0.976-0.303,1.355,0.596,1.796C152.274,151.051,156.712,152.147,161.408,152.182z"/>
	<path fill-rule="evenodd" clip-rule="evenodd" fill="#39B54A" d="M127.007,197.172c24.042,0,48.077,0.026,72.105-0.043
		c1.735,0,2.106,0.492,2.046,2.107c-0.121,3.229-0.034,3.229-3.193,3.229c-47.633,0-95.261,0-142.894,0
		c-2.474,0-2.15,0.293-2.167-2.228c-0.017-3.065-0.004-3.065,2.987-3.065C79.595,197.172,103.304,197.172,127.007,197.172z"/>
	<path fill-rule="evenodd" clip-rule="evenodd" d="M138.391,59.179c2.811-2.642,5.794-4.054,9.161-4.593
		c4.593-0.734,9.237-0.259,13.856-0.289c1.322-0.009,2.573,0.557,3.645,1.416c1.122,0.907,1.787,1.921,1.7,3.519
		c-0.146,2.746-0.077,5.508-0.026,8.267c0.018,0.877-0.258,1.377-1.035,1.835c-8.082,4.783-16.75,7.719-26.147,8.479
		c-1.978,0.16-3.95,0.233-5.937,0.255c-0.66,0.004-1.454,0.112-1.281-0.941c0.121-0.781-0.613-1.908,0.988-2.141
		c4.572-0.665,9.109-1.524,13.537-2.867c5.457-1.653,10.724-3.682,15.352-7.131c0.846-0.639,1.053-1.036,0.225-1.895
		c-2.573-2.677-2.504-2.664-5.716-0.781c-5.784,3.384-12.122,5.167-18.628,6.484c-1.506,0.306-3.043,0.462-4.545,0.786
		c-0.881,0.186-1.002-0.173-0.803-0.846c0.314-1.053,0.699-2.089,1.019-3.138c0.263-0.851,0.94-0.751,1.602-0.803
		c4.23-0.333,8.418-0.864,12.463-2.245c1.2-0.406,1.649-0.863,0.863-2.072c-0.622-0.958-0.847-2.417-1.692-2.948
		c-0.881-0.557-2.098,0.531-3.225,0.708c-0.976,0.16-1.93,0.436-2.9,0.617C140.183,58.976,139.492,59.036,138.391,59.179z"/>
	<path fill-rule="evenodd" clip-rule="evenodd" d="M172.012,65.96c0-1.653,0.043-3.302-0.018-4.952
		c-0.035-1.044,0.293-1.17,1.252-0.885c5.085,1.498,9.108,6.479,9.299,11.824c0.12,3.078,0.017,6.164,0.051,9.242
		c0.018,0.808-0.138,1.041-1.001,0.82c-5.828-1.494-9.566-6.247-9.583-12.256C172.012,68.49,172.012,67.226,172.012,65.96z"/>
	<path fill-rule="evenodd" clip-rule="evenodd" fill="#010101" d="M63.368,125.711c-1.321,0-2.642-0.048-3.959,0.013
		c-0.872,0.043-1.23-0.125-1.243-1.131c-0.069-4.179-0.112-4.179,4.118-4.179c1.762,0,3.523,0.039,5.284-0.018
		c0.863-0.026,1.226,0.13,1.243,1.131c0.065,4.184,0.108,4.184-4.123,4.184C64.249,125.711,63.808,125.711,63.368,125.711z"/>
	<path fill-rule="evenodd" clip-rule="evenodd" fill="#010101" d="M79.31,125.711c-1.373,0-2.754-0.048-4.123,0.013
		c-0.829,0.039-1.118-0.16-1.14-1.071c-0.117-4.239-0.146-4.239,4.058-4.239c1.813,0,3.63,0.039,5.448-0.018
		c0.825-0.026,1.109,0.164,1.135,1.07c0.112,4.244,0.147,4.244-4.058,4.244C80.191,125.711,79.75,125.711,79.31,125.711z"/>
	<path fill-rule="evenodd" clip-rule="evenodd" fill="#010101" d="M95.274,120.414c1.377,0,2.754,0.06,4.127-0.022
		c0.971-0.056,1.153,0.311,1.166,1.208c0.052,4.11,0.078,4.11-4.023,4.11c-1.813,0-3.635-0.057-5.444,0.021
		c-0.971,0.039-1.157-0.315-1.17-1.209c-0.047-4.109-0.078-4.109,4.023-4.109C94.394,120.414,94.834,120.414,95.274,120.414z"/>
	<path fill-rule="evenodd" clip-rule="evenodd" fill="#010101" d="M110.992,125.711c-0.444,0-0.88,0-1.321,0
		c-4.148,0-4.464-0.402-3.855-4.611c0.086-0.604,0.328-0.695,0.833-0.691c2.97,0.009,5.94,0.03,8.91-0.013
		c0.794-0.009,0.846,0.346,0.881,0.988c0.22,4.326,0.233,4.326-4.131,4.326C111.873,125.711,111.428,125.711,110.992,125.711z"/>
	<path fill-rule="evenodd" clip-rule="evenodd" fill="#010101" d="M126.995,125.711c-0.436,0-0.881,0-1.317,0
		c-4.412,0-4.395,0-3.98-4.481c0.056-0.647,0.25-0.829,0.868-0.824c2.974,0.021,5.944,0.026,8.915,0
		c0.66-0.009,0.906,0.225,0.824,0.854c-0.009,0.108-0.005,0.22,0,0.328c0.107,4.123,0.107,4.123-3.985,4.123
		C127.875,125.711,127.439,125.711,126.995,125.711z"/>
	<path fill-rule="evenodd" clip-rule="evenodd" fill="#010101" d="M159.319,111.191c-3.54-0.018-6.259-0.777-8.841-2.115
		c-0.829-0.428-1.184-0.799-0.467-1.692c0.76-0.933,1.141-2.301,2.064-2.94c1.078-0.747,2.08,0.647,3.186,0.941
		c3.073,0.825,6.009,0.674,8.807-0.798c1.019-0.536,1.554-0.432,2.002,0.587c0.131,0.298,0.354,0.553,0.536,0.829
		c1.718,2.638,1.718,2.646-1.165,3.834C163.282,110.725,161.047,111.217,159.319,111.191z"/>
	<path fill-rule="evenodd" clip-rule="evenodd" fill="#010101" d="M148.121,96.589c-2.97-0.026-5.266-2.4-5.228-5.396
		c0.039-2.958,2.422-5.237,5.444-5.185c2.857,0.047,5.154,2.417,5.145,5.314C153.466,94.292,151.1,96.615,148.121,96.589z"/>
	<path fill-rule="evenodd" clip-rule="evenodd" fill="#010101" d="M174.652,91.438c-0.051,2.94-2.469,5.22-5.473,5.155
		c-2.867-0.065-5.138-2.448-5.111-5.353c0.025-2.97,2.391-5.267,5.387-5.232C172.408,86.043,174.705,88.438,174.652,91.438z"/>
	<path fill-rule="evenodd" clip-rule="evenodd" fill="#010101" d="M161.408,152.182c-4.696-0.034-9.134-1.131-13.33-3.237
		c-0.898-0.44-1.295-0.82-0.596-1.796c0.734-1.01,1.097-2.582,2.063-3.082c0.933-0.484,2.124,0.776,3.247,1.191
		c5.931,2.227,11.828,2.184,17.689-0.207c1.011-0.415,1.633-0.467,1.926,0.707c0.035,0.104,0.104,0.199,0.155,0.294
		c1.692,3.454,1.692,3.471-2.071,4.671C167.539,151.664,164.518,152.199,161.408,152.182z"/>
</g>
</svg>
