<?xml version="1.0" encoding="utf-8"?>
<!-- Generator: Adobe Illustrator 16.0.0, SVG Export Plug-In . SVG Version: 6.00 Build 0)  -->
<!DOCTYPE svg PUBLIC "-//W3C//DTD SVG 1.1//EN" "http://www.w3.org/Graphics/SVG/1.1/DTD/svg11.dtd">
<svg version="1.1" id="Layer_1" xmlns="http://www.w3.org/2000/svg" xmlns:xlink="http://www.w3.org/1999/xlink" x="0px" y="0px"
	 width="256px" height="256px" viewBox="0 0 256 256" enable-background="new 0 0 256 256" xml:space="preserve">
<g>
	<path fill-rule="evenodd" clip-rule="evenodd" fill="#F2F2F2" d="M191.947,48c2.108,0,14.716,18.439,14.716,44.053
		c0,37.865,0.378,83.433,0.378,113.999c-20.309,0-40.61,0-60.927,0c-32.36,0-64.736,0-97.155,0c0-37.978,0-75.979,0-113.986
		c0.771-0.004,1.54-0.021,2.311-0.021c51.039,0.004,102.082,0.004,153.111,0.008c0.747,0,1.484,0,2.282,0
		c0-9.275,0.018-18.259,0-27.243C206.646,57.262,192.667,48.223,191.947,48z M155.222,161.248c8.534,0,17.05,0,25.583,0
		c0.815-0.009,1.647-0.035,2.444-0.18c2.025-0.37,3.534-2.127,3.697-4.195c0.146-1.963-1.191-4.03-3.148-4.613
		c-0.874-0.257-1.818-0.326-2.728-0.316c-18.645,0.042-37.272,0.128-55.914,0.162c-16.84,0.034-33.684,0.009-50.533,0.025
		c-0.961,0-1.977,0.026-2.873,0.317c-2.092,0.712-3.165,2.839-2.74,5.078c0.416,2.178,2.2,3.532,4.734,3.542
		c18.997,0.067,37.994,0.128,56.99,0.18C138.893,161.266,147.058,161.248,155.222,161.248z M100.439,171.917
		c-2.414,0-4.824,0-7.239,0c-6.574,0-13.144-0.033-19.722,0.009c-3.426,0.025-5.57,3.328-4.168,6.338
		c0.982,2.119,2.787,2.642,4.957,2.642c18.534,0.034,37.068,0.12,55.601,0.154c16.999,0.026,33.997,0,50.996,0
		c0.565,0,1.133,0.043,1.698-0.026c1.981-0.265,3.431-1.251,4.116-3.216c0.653-1.853,0.086-3.431-1.218-4.776
		c-1.141-1.157-2.624-1.261-4.151-1.261c-18.224,0.051-36.449,0.104-54.683,0.137C117.896,171.926,109.17,171.917,100.439,171.917z
		 M97.626,126.882c0-3.233,0.026-6.471-0.008-9.704c-0.03-2.878-1.853-4.674-4.751-4.683c-6.364-0.021-12.727-0.021-19.091,0
		c-2.924,0.004-4.79,1.733-4.82,4.623c-0.056,6.518-0.056,13.041,0,19.55c0.03,2.821,1.891,4.604,4.678,4.614
		c6.419,0.025,12.835,0.017,19.25,0c2.89,0,4.709-1.819,4.734-4.699C97.652,133.349,97.626,130.115,97.626,126.882z
		 M147.742,112.405c0,0.017,0,0.043,0,0.06c-11.397,0-22.796,0.013-34.194-0.008c-2.024,0-3.632,0.682-4.566,2.525
		c-1.587,3.126,0.656,6.493,4.399,6.544c5.181,0.069,10.365,0.082,15.559,0.082c17.604,0.008,35.219,0.004,52.835,0.004
		c0.31,0,0.618,0.013,0.918-0.021c2.204-0.207,4.006-1.999,4.246-4.207c0.222-2.007-1.149-4.121-3.191-4.734
		c-0.754-0.228-1.612-0.236-2.418-0.236C170.128,112.4,158.935,112.405,147.742,112.405z M147.572,141.308c0,0.025,0,0.043,0,0.061
		c11.551,0,23.104,0.017,34.666-0.009c2.728-0.009,4.768-2.084,4.716-4.641c-0.051-2.487-2.101-4.545-4.7-4.545
		c-22.95,0.009-45.905,0.034-68.855,0.094c-0.935,0.01-1.956,0.301-2.774,0.746c-1.729,0.943-2.509,3.088-1.99,4.906
		c0.617,2.145,2.307,3.379,4.743,3.379C124.775,141.316,136.173,141.308,147.572,141.308z"/>
	<path fill-rule="evenodd" clip-rule="evenodd" fill="#39B54A" d="M191.947,48c0.72,0.223,1.439,0.462,2.16,0.652
		c7.316,1.92,12.539,8.61,12.556,16.158c0.018,8.984,0,17.968,0,27.243c-0.798,0-1.535,0-2.282,0
		c-51.029-0.004-102.072-0.004-153.111-0.008c-0.771,0-1.54,0.017-2.311,0.021c0-9.446,0-18.898,0-28.35
		c0.116-0.334,0.288-0.66,0.343-1.003c1.137-7.002,5.138-11.565,11.81-13.816c1.248-0.42,2.577-0.604,3.873-0.896
		C107.3,48,149.621,48,191.947,48z M128,67.679c0-0.009,0-0.013,0-0.021c-9.696,0-19.396,0-29.092,0
		c-1.899,0-3.799-0.043-5.694,0.013c-2.655,0.081-4.734,2.14-4.799,4.678c-0.069,2.38,1.805,4.447,4.344,4.756
		c0.759,0.095,1.53,0.107,2.302,0.107c11.236,0.004,22.475,0.004,33.71,0.004c10.876,0.004,21.759,0,32.634,0.004
		c1.802,0,3.508-0.257,4.718-1.771c1.209-1.518,1.544-3.216,0.643-5.021c-0.936-1.887-2.505-2.753-4.597-2.753
		C150.779,67.679,139.389,67.679,128,67.679z"/>
	<path fill-rule="evenodd" clip-rule="evenodd" d="M155.222,161.248c-8.164,0-16.329,0.018-24.486,0
		c-18.997-0.052-37.994-0.112-56.99-0.18c-2.535-0.01-4.318-1.364-4.734-3.542c-0.425-2.239,0.648-4.366,2.74-5.078
		c0.896-0.291,1.912-0.317,2.873-0.317c16.849-0.017,33.693,0.009,50.533-0.025c18.641-0.034,37.269-0.12,55.914-0.162
		c0.909-0.01,1.854,0.06,2.728,0.316c1.957,0.583,3.295,2.65,3.148,4.613c-0.163,2.068-1.672,3.825-3.697,4.195
		c-0.797,0.145-1.629,0.171-2.444,0.18C172.271,161.248,163.756,161.248,155.222,161.248z"/>
	<path fill-rule="evenodd" clip-rule="evenodd" d="M100.439,171.917c8.73,0,17.457,0.009,26.188,0
		c18.234-0.033,36.459-0.086,54.683-0.137c1.527,0,3.011,0.104,4.151,1.261c1.304,1.346,1.871,2.924,1.218,4.776
		c-0.686,1.965-2.135,2.951-4.116,3.216c-0.565,0.069-1.133,0.026-1.698,0.026c-16.999,0-33.997,0.026-50.996,0
		c-18.533-0.034-37.067-0.12-55.601-0.154c-2.17,0-3.975-0.522-4.957-2.642c-1.402-3.01,0.742-6.313,4.168-6.338
		c6.578-0.042,13.148-0.009,19.722-0.009C95.615,171.917,98.025,171.917,100.439,171.917z"/>
	<path fill-rule="evenodd" clip-rule="evenodd" d="M97.626,126.882c0,3.233,0.026,6.467-0.008,9.701
		c-0.025,2.88-1.844,4.699-4.734,4.699c-6.415,0.017-12.831,0.025-19.25,0c-2.787-0.01-4.648-1.793-4.678-4.614
		c-0.056-6.51-0.056-13.032,0-19.55c0.03-2.89,1.896-4.619,4.82-4.623c6.364-0.021,12.728-0.021,19.091,0
		c2.899,0.009,4.721,1.805,4.751,4.683C97.652,120.411,97.626,123.648,97.626,126.882z"/>
	<path fill-rule="evenodd" clip-rule="evenodd" d="M147.742,112.405c11.192,0,22.386-0.004,33.587,0.009
		c0.806,0,1.664,0.008,2.418,0.236c2.042,0.613,3.413,2.727,3.191,4.734c-0.24,2.208-2.042,4-4.246,4.207
		c-0.3,0.034-0.608,0.021-0.918,0.021c-17.616,0-35.231,0.004-52.835-0.004c-5.193,0-10.378-0.013-15.559-0.082
		c-3.743-0.051-5.986-3.418-4.399-6.544c0.935-1.843,2.542-2.525,4.566-2.525c11.398,0.021,22.796,0.008,34.194,0.008
		C147.742,112.448,147.742,112.422,147.742,112.405z"/>
	<path fill-rule="evenodd" clip-rule="evenodd" d="M147.572,141.308c-11.399,0-22.797,0.009-34.195-0.009
		c-2.436,0-4.125-1.234-4.743-3.379c-0.519-1.818,0.261-3.963,1.99-4.906c0.819-0.445,1.839-0.736,2.774-0.746
		c22.95-0.06,45.905-0.085,68.855-0.094c2.6,0,4.649,2.058,4.7,4.545c0.052,2.557-1.988,4.632-4.716,4.641
		c-11.562,0.025-23.115,0.009-34.666,0.009C147.572,141.351,147.572,141.333,147.572,141.308z"/>
	<path fill-rule="evenodd" clip-rule="evenodd" fill="#FFFFFF" d="M128,67.679c11.389,0,22.779,0,34.169-0.004
		c2.092,0,3.661,0.866,4.597,2.753c0.901,1.805,0.566,3.503-0.643,5.021c-1.21,1.514-2.916,1.771-4.718,1.771
		c-10.875-0.004-21.758,0-32.634-0.004c-11.235,0-22.474,0-33.71-0.004c-0.772,0-1.543-0.013-2.302-0.107
		c-2.539-0.309-4.413-2.375-4.344-4.756c0.064-2.538,2.144-4.597,4.799-4.678c1.895-0.056,3.795-0.013,5.694-0.013
		c9.696,0,19.396,0,29.092,0C128,67.666,128,67.67,128,67.679z"/>
</g>
</svg>
