<?xml version="1.0" encoding="utf-8"?>
<!-- Generator: Adobe Illustrator 16.0.0, SVG Export Plug-In . SVG Version: 6.00 Build 0)  -->
<!DOCTYPE svg PUBLIC "-//W3C//DTD SVG 1.1//EN" "http://www.w3.org/Graphics/SVG/1.1/DTD/svg11.dtd">
<svg version="1.1" id="Layer_1" xmlns="http://www.w3.org/2000/svg" xmlns:xlink="http://www.w3.org/1999/xlink" x="0px" y="0px"
	 width="256px" height="256px" viewBox="0 0 256 256" enable-background="new 0 0 256 256" xml:space="preserve">
<g>
	<path fill-rule="evenodd" clip-rule="evenodd" d="M88.176,59.56c0-2.065-0.03-3.845,0.009-5.615
		c0.073-3.317,2.559-5.785,5.736-5.754c3.091,0.035,5.533,2.489,5.616,5.71c0.048,1.819,0.009,3.642,0.009,5.559
		c18.963,0,37.785,0,56.87,0c0-1.649-0.018-3.338,0-5.026c0.017-3.659,2.32-6.205,5.61-6.243c3.36-0.039,5.732,2.555,5.751,6.287
		c0.017,1.598,0.008,3.195,0.008,5.083c0.676,0,1.29,0,1.913,0c6.755,0,13.51-0.018,20.256,0.004
		c10.233,0.03,17.62,7.356,17.629,17.565c0.025,37.554,0.025,75.11,0,112.665c-0.009,10.219-7.387,17.604-17.587,17.604
		c-41.339,0.018-82.687,0.018-124.03,0c-10.201,0-17.583-7.404-17.587-17.604c-0.021-37.555-0.021-75.105,0-112.665
		c0.004-10.188,7.412-17.536,17.626-17.565c6.693-0.022,13.387-0.004,20.081-0.004C86.721,59.56,87.357,59.56,88.176,59.56z
		 M59.743,105.133c0,0.715,0,1.299,0,1.883c0,27.419,0,54.843,0,82.258c0.004,4.599,2.147,6.755,6.715,6.755
		c40.984,0,81.973,0,122.949,0c4.719,0,6.806-2.096,6.806-6.832c0-27.364,0-54.728,0-82.09c0-0.632,0-1.269,0-1.974
		C150.683,105.133,105.342,105.133,59.743,105.133z M59.76,93.556c45.591,0,90.974,0,136.453,0c0-5.334,0-10.539,0-15.747
		c0-4.797-2.096-6.875-6.945-6.875c-40.862,0-81.726,0-122.588,0c-0.533,0-1.07-0.021-1.598,0.013
		c-2.862,0.2-5.239,2.417-5.295,5.266C59.687,81.948,59.76,87.685,59.76,93.556z"/>
	<path fill-rule="evenodd" clip-rule="evenodd" fill="#39B54A" d="M59.76,93.556c0-5.871-0.073-11.608,0.026-17.344
		c0.056-2.849,2.433-5.066,5.295-5.266c0.528-0.034,1.065-0.013,1.598-0.013c40.863,0,81.726,0,122.588,0
		c4.85,0,6.945,2.079,6.945,6.875c0,5.208,0,10.413,0,15.747C150.734,93.556,105.352,93.556,59.76,93.556z"/>
	<path fill-rule="evenodd" clip-rule="evenodd" fill="#39B54A" d="M116.855,154.223c10.473-8.979,20.717-17.761,30.952-26.533
		c1.628-1.385,3.222-2.792,4.866-4.156c2.58-2.147,6.036-1.988,8.122,0.355c2.13,2.398,1.896,5.966-0.709,8.217
		c-9.544,8.235-19.121,16.419-28.688,24.628c-3.55,3.03-7.087,6.096-10.664,9.109c-2.987,2.52-5.854,2.381-8.642-0.398
		c-5.369-5.334-10.725-10.703-16.071-16.063c-2.672-2.684-2.819-6.113-0.395-8.494c2.373-2.321,5.767-2.183,8.374,0.425
		C108.27,145.563,112.508,149.858,116.855,154.223z"/>
</g>
</svg>
