<?xml version="1.0" encoding="utf-8"?>
<!-- Generator: Adobe Illustrator 16.0.0, SVG Export Plug-In . SVG Version: 6.00 Build 0)  -->
<!DOCTYPE svg PUBLIC "-//W3C//DTD SVG 1.1//EN" "http://www.w3.org/Graphics/SVG/1.1/DTD/svg11.dtd">
<svg version="1.1" id="Layer_1" xmlns="http://www.w3.org/2000/svg" xmlns:xlink="http://www.w3.org/1999/xlink" x="0px" y="0px"
	 width="16px" height="16px" viewBox="0 0 16 16" enable-background="new 0 0 16 16" xml:space="preserve">
<g>
	<path fill="#627D53" d="M12.508,3.642c0.271,0.259,0.541,0.518,0.813,0.776c0.039,0.037,0.08,0.072,0.111,0.115
		c0.063,0.084,0.062,0.173-0.018,0.246c-0.078,0.072-0.166,0.071-0.247-0.002c-0.118-0.109-0.235-0.218-0.365-0.337
		c-0.727,0.766-1.456,1.529-2.196,2.306c0.186,0.066,0.348,0.129,0.514,0.18c0.04,0.013,0.102-0.006,0.139-0.031
		c0.199-0.127,0.387-0.273,0.592-0.389c0.133-0.074,0.28-0.131,0.43-0.151c0.125-0.018,0.221-0.04,0.298-0.146
		c0.071-0.095,0.159-0.175,0.271-0.298c-0.022,0.175-0.047,0.31-0.066,0.458c0.088-0.095,0.173-0.183,0.254-0.271
		c0.01,0.005,0.017,0.009,0.027,0.014c-0.024,0.124-0.051,0.247-0.068,0.371c-0.008,0.043,0.011,0.097,0.033,0.135
		c0.262,0.421,0.531,0.838,0.789,1.264c0.066,0.115,0.029,0.242-0.068,0.337c-0.091,0.089-0.199,0.164-0.331,0.111
		c-0.321-0.129-0.64-0.269-0.96-0.409c-0.051-0.022-0.092-0.066-0.143-0.101c-0.402,0.686-0.567,1.489-1.041,2.155
		c0.467,0.416,0.949,0.848,1.439,1.287c-0.07,0.119-0.139,0.23-0.21,0.342c-0.21,0.332-0.416,0.664-0.632,0.992
		c-0.041,0.061-0.107,0.113-0.176,0.141c-0.146,0.064-0.303,0.111-0.453,0.16c-0.137,0.041-0.258-0.015-0.305-0.133
		c-0.051-0.125,0-0.293,0.135-0.313c0.386-0.063,0.555-0.345,0.724-0.64c0.082-0.143,0.173-0.279,0.271-0.436
		c-0.363-0.165-0.727-0.311-1.07-0.492c-0.313-0.164-0.626-0.197-0.971-0.195c-1.01,0.008-1.979-0.182-2.88-0.662
		c-0.022-0.01-0.047-0.018-0.083-0.028c-0.066,0.17-0.127,0.34-0.196,0.505c-0.073,0.173-0.144,0.35-0.237,0.512
		c-0.095,0.161,0.034,0.327-0.051,0.506c-0.071,0.146-0.417-0.098-0.6,0.064c-0.159-0.115-0.14-0.275-0.095-0.436
		c0.147-0.516,0.091-0.756-0.33-1.069C5.127,9.764,4.934,9.366,5.005,8.844c0.003-0.023,0-0.044,0-0.093
		C4.851,8.805,4.709,8.855,4.567,8.9C4.153,9.044,3.746,9.209,3.323,9.318C2.939,9.419,2.547,9.391,2.175,9.167
		C2.653,9.014,3.02,8.702,3.416,8.438c0.271-0.18,0.555-0.344,0.849-0.479c0.36-0.166,0.72-0.151,1.042,0.137
		C5.651,7.77,6.082,7.658,6.525,7.694c0.433,0.035,0.859,0.155,1.309,0.243c0.13-0.299,0.272-0.621,0.413-0.943
		C8.307,6.861,8.36,6.728,8.42,6.596c0.139-0.313,0.456-0.455,0.784-0.343c0.362,0.124,0.726,0.259,1.09,0.38
		c0.052,0.017,0.14,0.001,0.173-0.034c0.725-0.749,1.44-1.503,2.16-2.256c0.012-0.012,0.018-0.027,0.021-0.036
		c-0.099-0.102-0.192-0.203-0.291-0.301c-0.152-0.15-0.148-0.229,0.023-0.364C12.42,3.642,12.464,3.642,12.508,3.642z M9.182,8.019
		c0.213-0.042,0.428-0.037,0.59-0.126c0.324-0.179,0.623-0.409,0.957-0.634c-0.155-0.057-0.283-0.106-0.412-0.148
		c-0.023-0.007-0.064,0.007-0.082,0.025c-0.104,0.107-0.227,0.206-0.301,0.332C9.855,7.598,9.77,7.646,9.623,7.637
		C9.316,7.619,9.316,7.625,9.208,7.923C9.201,7.943,9.198,7.962,9.182,8.019z M9.491,7.17C9.623,7.192,9.745,7.212,9.87,7.234
		c0.058-0.063,0.122-0.131,0.198-0.213C9.9,6.964,9.759,6.917,9.609,6.868C9.566,6.981,9.527,7.074,9.491,7.17z"/>
	<path fill="#627D53" d="M9.6,11.031c0.269,0,0.514,0,0.778,0c0.04,0.145,0.229,0.791,0.265,0.914
		c0.113,0.404,0.11,0.402-0.285,0.523c-0.28,0.084-0.567,0.155-0.838,0.268c-0.308,0.129-0.621,0.088-0.934,0.08
		c-0.157-0.002-0.252-0.117-0.243-0.26c0.008-0.141,0.104-0.242,0.261-0.221c0.528,0.078,0.994-0.154,1.478-0.294
		C10.205,12.008,9.688,11.197,9.6,11.031z"/>
	<path fill="#627D53" d="M9.568,4.773c0.355-0.004,0.67,0.302,0.678,0.662c0.003,0.361-0.314,0.683-0.678,0.679
		C9.21,6.109,8.904,5.802,8.904,5.443C8.904,5.083,9.207,4.778,9.568,4.773z"/>
	<path fill="#627D53" d="M5.391,11.645c-0.012,0.151-0.003,0.307-0.003,0.504c-0.26-0.39-0.496-0.736-0.727-1.088
		c-0.068-0.105-0.047-0.213,0.036-0.295c0.079-0.078,0.172-0.143,0.26-0.209c0.133-0.105,0.267-0.207,0.429-0.332
		c0.095,0.117,0.21,0.256,0.314,0.4c0.06,0.079,0.054,0.156-0.059,0.201c-0.049,0.018-0.093,0.051-0.133,0.084
		c-0.157,0.131-0.174,0.277-0.063,0.445c0.022,0.031,0.041,0.064,0.059,0.096C5.49,11.447,5.396,11.576,5.391,11.645z"/>
	<path fill="#627D53" d="M6.589,11.482c0.235,0.226,0.906,0.779,1.087,1.026c0.122,0.166,0.154,0.407,0.189,0.622
		c0.01,0.064-0.093,0.191-0.167,0.215c-0.071,0.022-0.176-0.049-0.264-0.086c-0.015-0.007-0.027-0.033-0.029-0.055
		c-0.052-0.441-1.151-1.342-1.43-1.623C5.93,11.539,6.236,11.396,6.589,11.482z"/>
	<path fill="#627D53" d="M5.216,11.514c0.105-0.035,0.169-0.021,0.288-0.063c0.076,0.111,0.453,0.839,0.544,0.979
		c0.012,0.016,0.034,0.043,0.029,0.055c-0.091,0.213-0.176,0.429-0.289,0.627c-0.021,0.035-0.186,0.027-0.242-0.014
		c-0.063-0.05-0.096-0.158-0.103-0.244c-0.007-0.065,0.053-0.138,0.069-0.211c0.012-0.045,0.005-0.099-0.008-0.146
		c-0.031-0.115-0.08-0.234-0.117-0.348C5.409,12.148,5.194,11.516,5.216,11.514z"/>
	<path fill="#627D53" d="M9.182,8.019c0.018-0.057,0.021-0.076,0.026-0.096c0.108-0.299,0.108-0.304,0.415-0.286
		C9.77,7.645,9.855,7.598,9.936,7.469c0.073-0.126,0.195-0.225,0.301-0.332c0.017-0.018,0.058-0.032,0.08-0.025
		c0.129,0.042,0.258,0.091,0.414,0.148c-0.336,0.225-0.633,0.455-0.957,0.634C9.609,7.982,9.395,7.977,9.182,8.019z"/>
	<path fill="#627D53" d="M9.491,7.17c0.036-0.096,0.075-0.189,0.118-0.302C9.758,6.917,9.9,6.964,10.068,7.021
		C9.992,7.103,9.928,7.17,9.87,7.234C9.745,7.212,9.623,7.192,9.491,7.17z"/>
</g>
</svg>
