<?xml version="1.0" encoding="utf-8"?>
<!-- Generator: Adobe Illustrator 16.0.0, SVG Export Plug-In . SVG Version: 6.00 Build 0)  -->
<!DOCTYPE svg PUBLIC "-//W3C//DTD SVG 1.1//EN" "http://www.w3.org/Graphics/SVG/1.1/DTD/svg11.dtd">
<svg version="1.1" id="Layer_1" xmlns="http://www.w3.org/2000/svg" xmlns:xlink="http://www.w3.org/1999/xlink" x="0px" y="0px"
	 width="16px" height="16px" viewBox="0 0 16 16" enable-background="new 0 0 16 16" xml:space="preserve">
<g>
	<path fill="#627D53" d="M8.717,2.521c0.422,0.111,0.781,0.304,1,0.704c0.391,0.707,0.115,1.589-0.605,1.928
		C8.386,5.494,7.52,5.15,7.231,4.405C6.938,3.651,7.354,2.809,8.133,2.577C8.186,2.561,8.237,2.54,8.288,2.521
		C8.433,2.521,8.575,2.521,8.717,2.521z"/>
	<path fill="#627D53" d="M10.992,7.542c0.504-0.585,0.824-1.212,0.738-1.999c-0.035-0.315-0.056-0.646,0.002-0.954
		c0.156-0.837,0.893-1.543,1.66-1.649c0.588-0.081,1.104,0.299,1.213,0.892c0.186,1.019-0.531,2.149-1.537,2.423
		c-0.453,0.124-0.863,0.333-1.152,0.703c-0.221,0.283-0.385,0.611-0.57,0.922c-0.018,0.032-0.01,0.082-0.01,0.124
		c0.01,0.271-0.102,0.47-0.355,0.576c-0.127,0.054-0.18,0.128-0.174,0.277c0.019,0.33-0.225,0.578-0.551,0.58
		c-0.652,0.006-1.303,0.004-1.954,0c-0.213,0-0.444-0.355-0.363-0.553c0.149-0.359,0.302-0.719,0.457-1.087
		C8.423,7.821,8.448,7.83,8.454,7.846c0.167,0.438,0.501,0.546,0.933,0.479c0.125-0.02,0.256-0.003,0.396-0.026
		C9.152,8.085,8.552,7.826,8.116,7.236c-0.103,0.275-0.188,0.498-0.272,0.72c-0.17,0.446-0.335,0.896-0.513,1.338
		C7.287,9.402,7.308,9.46,7.4,9.523c0.289,0.199,0.569,0.406,0.858,0.604c0.258,0.178,0.381,0.404,0.375,0.723
		c-0.012,0.694-0.002,1.387-0.002,2.135c-0.113,0.404-0.659,0.547-1.038,0.363c-0.039-0.019-0.255-0.078-0.334-0.423
		c0-0.536-0.006-1.071,0.004-1.608c0.002-0.152-0.048-0.246-0.172-0.334c-0.512-0.364-1.035-0.719-1.518-1.119
		C5.086,9.461,5.025,9.1,5.245,8.506C5.53,7.738,5.813,6.969,6.102,6.202C6.275,5.739,6.56,5.391,7.09,5.336
		c0.372-0.038,0.684,0.125,0.956,0.359C8.327,5.938,8.611,6.18,8.869,6.447c0.33,0.342,0.707,0.587,1.162,0.729
		C10.363,7.279,10.682,7.422,10.992,7.542z M14.35,4.2c0-0.043,0-0.086-0.002-0.129c-0.031-0.662-0.555-1.012-1.178-0.789
		c-0.711,0.256-1.275,1.12-1.223,1.869c0.049,0.703,0.621,1.059,1.26,0.757C13.922,5.571,14.27,4.971,14.35,4.2z M11.961,6.485
		c0.143-0.101,0.24-0.169,0.369-0.26c-0.117-0.068-0.195-0.114-0.303-0.175C12.004,6.202,11.986,6.316,11.961,6.485z"/>
	<path fill="#627D53" d="M4.96,9.938c0.387,0.299,0.771,0.59,1.149,0.89c0.037,0.028,0.057,0.108,0.051,0.157
		c-0.03,0.229-0.061,0.453-0.116,0.676c-0.018,0.076-0.091,0.158-0.162,0.201c-0.395,0.228-0.8,0.437-1.195,0.664
		c-0.479,0.277-0.947,0.578-1.429,0.851c-0.473,0.269-1.007-0.005-1.049-0.526c-0.024-0.299,0.115-0.521,0.375-0.668
		c0.681-0.392,1.359-0.789,2.043-1.177c0.119-0.067,0.171-0.144,0.189-0.28C4.853,10.453,4.914,10.184,4.96,9.938z"/>
	<path fill="#627D53" d="M10.396,5.724c0.004-0.162,0.164-0.315,0.319-0.312c0.156,0.004,0.316,0.168,0.313,0.325
		c-0.002,0.158-0.161,0.31-0.325,0.305C10.537,6.038,10.393,5.888,10.396,5.724z"/>
	<path fill="#627D53" d="M8.505,12.913c-0.07,0.073-0.131,0.2-0.213,0.213c-0.17,0.03-0.172-0.12-0.175-0.244
		c-0.001-0.125-0.006-0.259,0.167-0.264C8.458,12.613,8.462,12.744,8.505,12.913z"/>
	<path fill="#627D53" d="M11.961,6.485c0.025-0.169,0.043-0.283,0.066-0.435c0.106,0.062,0.186,0.107,0.303,0.175
		C12.201,6.316,12.104,6.385,11.961,6.485z"/>
</g>
</svg>
