<?xml version="1.0" encoding="utf-8"?>
<!-- Generator: Adobe Illustrator 16.0.0, SVG Export Plug-In . SVG Version: 6.00 Build 0)  -->
<!DOCTYPE svg PUBLIC "-//W3C//DTD SVG 1.1//EN" "http://www.w3.org/Graphics/SVG/1.1/DTD/svg11.dtd">
<svg version="1.1" id="Layer_1" xmlns="http://www.w3.org/2000/svg" xmlns:xlink="http://www.w3.org/1999/xlink" x="0px" y="0px"
	 width="16px" height="16px" viewBox="0 0 16 16" enable-background="new 0 0 16 16" xml:space="preserve">
<g>
	<path fill="#627D53" d="M8.596,9.04c0.073,0.045,0.146,0.088,0.219,0.133c0.072,0.046,0.138,0.082,0.158,0.183
		c0.025,0.119,0.191,0.187,0.336,0.17c0.039-0.006,0.088,0,0.121,0.021c0.521,0.304,1.041,0.608,1.562,0.917
		c0.028,0.018,0.049,0.055,0.069,0.082c0.064,0.087,0.125,0.18,0.195,0.26c0.08,0.09,0.172,0.17,0.271,0.268
		c-0.039,0.006-0.062,0.01-0.082,0.01c-2.428,0-4.854,0.001-7.282-0.001c-0.269,0-0.507-0.093-0.704-0.281
		c-0.025-0.024-0.055-0.044-0.085-0.062c-0.412-0.256-0.599-0.704-0.483-1.163c0.112-0.445,0.511-0.771,0.98-0.794
		c0.12-0.006,0.241,0.002,0.36,0.017C4.39,8.818,4.515,8.902,4.617,9.025C4.64,9.055,4.688,9.08,4.724,9.08
		C5.984,9.081,7.242,9.081,8.5,9.079c0.029,0,0.059-0.013,0.089-0.021C8.592,9.055,8.594,9.048,8.596,9.04z"/>
	<path fill="#627D53" d="M6.189,8.9c-0.388,0-0.77,0-1.158,0c-0.002-0.031-0.005-0.06-0.005-0.088c0-0.174-0.005-0.348,0.002-0.521
		c0.004-0.08-0.026-0.112-0.096-0.14c-0.416-0.164-0.83-0.333-1.244-0.5c-0.024-0.01-0.055-0.014-0.072-0.031
		C3.516,7.527,3.433,7.58,3.34,7.637C3.037,7.821,2.731,7.998,2.421,8.18c0.045,0.071-0.002,0.115-0.042,0.167
		C2.1,8.71,1.709,8.924,1.321,9.141c-0.053,0.03-0.096,0.016-0.127-0.035c-0.079-0.135-0.157-0.27-0.236-0.403
		C0.925,8.645,0.939,8.602,0.994,8.568c0.381-0.235,0.761-0.472,1.222-0.517c0.042-0.004,0.086,0.012,0.13,0.015
		c0.021,0.001,0.045-0.003,0.063-0.014C2.737,7.862,3.064,7.67,3.39,7.475c0.02-0.012,0.038-0.05,0.035-0.074
		c-0.029-0.219,0.17-0.39,0.376-0.302c0.114,0.049,0.193,0.027,0.29-0.031c0.563-0.335,1.13-0.667,1.697-0.997
		c0.06-0.035,0.08-0.066,0.069-0.137C5.832,5.767,5.931,5.638,6.093,5.608c0.146-0.027,0.291,0.073,0.325,0.231
		c0.068,0.316,0.137,0.632,0.196,0.95c0.014,0.073,0.003,0.16-0.024,0.229c-0.116,0.295-0.244,0.586-0.364,0.88
		C6.204,7.954,6.192,8.017,6.191,8.077C6.188,8.348,6.189,8.618,6.189,8.9z M5.896,6.139C5.284,6.498,4.688,6.848,4.077,7.208
		C4.379,7.333,4.666,7.44,4.941,7.569C5.158,7.671,5.377,7.717,5.615,7.7c0.058-0.004,0.088-0.019,0.11-0.074
		c0.096-0.24,0.197-0.478,0.296-0.717c0.01-0.024,0.023-0.052,0.019-0.075C5.995,6.607,5.946,6.381,5.896,6.139z"/>
	<path fill="#627D53" d="M13.568,8.171c-0.233-0.138-0.479-0.282-0.726-0.427c-0.104-0.061-0.204-0.162-0.313-0.171
		c-0.104-0.009-0.215,0.08-0.323,0.124c-0.384,0.155-0.769,0.312-1.154,0.463c-0.056,0.022-0.075,0.049-0.073,0.109
		c0.004,0.177,0,0.354,0,0.53c0,0.032,0,0.063,0,0.102c-0.393,0-0.772,0-1.164,0c0-0.067-0.002-0.131,0-0.194
		C9.814,8.47,9.852,8.228,9.807,8C9.764,7.774,9.639,7.563,9.549,7.346C9.5,7.229,9.445,7.115,9.404,6.996
		c-0.021-0.059-0.03-0.128-0.02-0.188c0.063-0.32,0.133-0.639,0.2-0.958C9.622,5.678,9.766,5.577,9.92,5.61
		c0.166,0.035,0.262,0.177,0.227,0.35c-0.012,0.053,0.006,0.073,0.045,0.097c0.604,0.354,1.209,0.709,1.814,1.061
		c0.03,0.018,0.08,0.011,0.119,0.006c0.072-0.01,0.145-0.043,0.213-0.04c0.153,0.008,0.258,0.139,0.24,0.292
		c-0.008,0.061,0.009,0.089,0.059,0.118c0.316,0.182,0.631,0.368,0.945,0.552c0.031,0.019,0.059,0.048,0.098,0.003
		c0.014-0.016,0.063-0.008,0.094-0.001c0.172,0.039,0.345,0.079,0.515,0.124c0.06,0.016,0.114,0.043,0.17,0.073
		c0.179,0.102,0.354,0.208,0.533,0.312c0.088,0.053,0.096,0.08,0.043,0.17c-0.07,0.123-0.146,0.244-0.214,0.367
		c-0.038,0.066-0.088,0.078-0.153,0.039c-0.194-0.115-0.403-0.212-0.582-0.35c-0.185-0.145-0.339-0.325-0.502-0.495
		C13.563,8.268,13.572,8.219,13.568,8.171z M11.928,7.207c-0.615-0.36-1.213-0.712-1.818-1.067
		c-0.051,0.235-0.098,0.453-0.143,0.672C9.962,6.838,9.968,6.87,9.979,6.895c0.103,0.248,0.205,0.494,0.308,0.742
		c0.019,0.045,0.043,0.059,0.091,0.062c0.234,0.015,0.462-0.01,0.675-0.125c0.091-0.049,0.189-0.08,0.283-0.12
		C11.525,7.375,11.718,7.294,11.928,7.207z"/>
	<path fill="#627D53" d="M9.617,9.08c0.033,0,0.068,0,0.104,0c0.668,0,1.338-0.001,2.006,0.001c0.062,0,0.104-0.013,0.142-0.063
		c0.094-0.125,0.223-0.199,0.379-0.224c0.403-0.06,0.774,0.004,1.073,0.312c0.443,0.455,0.382,1.181-0.131,1.556
		c-0.105,0.077-0.213,0.155-0.328,0.239c-0.012-0.133-0.102-0.193-0.202-0.248c-0.109-0.059-0.218-0.118-0.32-0.188
		c-0.288-0.196-0.62-0.269-0.955-0.304c-0.122-0.014-0.217-0.055-0.313-0.11c-0.465-0.266-0.926-0.536-1.393-0.801
		C9.607,9.208,9.572,9.171,9.617,9.08z"/>
	<path fill="#627D53" d="M11.234,10.434C10.682,10.107,10.141,9.79,9.6,9.473C9.561,9.447,9.518,9.428,9.479,9.4
		c-0.06-0.041-0.113-0.062-0.192-0.03c-0.103,0.041-0.21-0.043-0.229-0.157C9.051,9.189,9.046,9.154,9.029,9.145
		c-0.174-0.104-0.35-0.203-0.534-0.31c0.004,0.039,0.007,0.063,0.01,0.095C8.48,8.934,8.461,8.938,8.441,8.938
		c-0.321,0-0.643,0-0.964,0.002c-0.058,0-0.085-0.016-0.09-0.076C7.371,8.654,7.333,8.447,7.336,8.239
		C7.34,7.965,7.288,7.7,7.246,7.434C7.163,6.911,7.075,6.389,6.991,5.866c-0.029-0.18,0.085-0.298,0.233-0.249
		C7.308,5.645,7.342,5.71,7.355,5.79c0.038,0.23,0.074,0.459,0.111,0.689c0.06,0.375,0.121,0.749,0.18,1.124
		c0.008,0.052,0.03,0.073,0.086,0.071c0.22-0.007,0.44-0.011,0.661-0.012c0.042,0,0.087,0.014,0.126,0.031
		C8.799,7.811,9.076,7.931,9.355,8.05C9.523,8.122,9.55,8.175,9.531,8.357C9.5,8.632,9.475,8.906,9.441,9.184
		C9.436,9.232,9.453,9.255,9.492,9.277c0.58,0.339,1.158,0.679,1.736,1.02c0.035,0.021,0.063,0.04,0.1-0.001
		c0.012-0.013,0.051-0.006,0.076-0.001c0.328,0.059,0.65,0.135,0.93,0.332c0.102,0.07,0.213,0.126,0.318,0.189
		c0.055,0.031,0.076,0.072,0.041,0.131c-0.08,0.136-0.158,0.271-0.237,0.404c-0.03,0.053-0.075,0.065-0.127,0.037
		c-0.392-0.218-0.784-0.436-1.063-0.801C11.23,10.543,11.178,10.502,11.234,10.434z M9.068,9.025
		c0.022-0.213,0.045-0.412,0.061-0.609C9.131,8.395,9.1,8.363,9.074,8.353C8.955,8.297,8.832,8.247,8.711,8.195
		C8.629,8.16,8.546,8.125,8.455,8.086C8.45,8.142,8.443,8.183,8.443,8.223c-0.002,0.1,0.002,0.2,0,0.3
		C8.441,8.631,8.484,8.702,8.586,8.747C8.68,8.79,8.766,8.852,8.854,8.9C8.922,8.941,8.988,8.98,9.068,9.025z"/>
	<path fill="#627D53" d="M8.188,6.656c0.26,0.001,0.464,0.207,0.464,0.466c0,0.259-0.207,0.465-0.465,0.466
		c-0.261,0-0.475-0.214-0.471-0.472C7.72,6.859,7.93,6.655,8.188,6.656z"/>
	<path fill="#627D53" d="M5.376,6.64c0.246,0,0.444,0.198,0.444,0.441c0,0.245-0.206,0.448-0.452,0.445
		C5.125,7.524,4.93,7.324,4.932,7.078C4.935,6.83,5.128,6.639,5.376,6.64z"/>
	<path fill="#627D53" d="M11.073,7.079c0.001,0.245-0.194,0.445-0.438,0.448c-0.244,0.002-0.445-0.193-0.447-0.437
		c-0.002-0.254,0.189-0.45,0.441-0.45C10.876,6.64,11.072,6.833,11.073,7.079z"/>
</g>
</svg>
