<?xml version="1.0" encoding="utf-8"?>
<!-- Generator: Adobe Illustrator 16.0.0, SVG Export Plug-In . SVG Version: 6.00 Build 0)  -->
<!DOCTYPE svg PUBLIC "-//W3C//DTD SVG 1.1//EN" "http://www.w3.org/Graphics/SVG/1.1/DTD/svg11.dtd">
<svg version="1.1" id="Layer_1" xmlns="http://www.w3.org/2000/svg" xmlns:xlink="http://www.w3.org/1999/xlink" x="0px" y="0px"
	 width="256px" height="256px" viewBox="0 0 256 256" enable-background="new 0 0 256 256" xml:space="preserve">
<g>
	<path fill-rule="evenodd" clip-rule="evenodd" d="M199.22,206.372c-35.257,0-70.523,0-105.789,0
		c-6.346-2.598-7.731-4.691-7.731-11.684c0-19.427,0-38.846,0-58.272c0-0.592,0-1.199,0-1.83c-0.86,0-1.523-0.016-2.19,0.009
		c-14.452,0.423-27.886-8.64-32.753-22.28c-0.995-2.781-1.462-5.754-2.177-8.639c0-2.062,0-4.124,0-6.185
		c0.112-0.543,0.264-1.095,0.344-1.639c2.601-17.469,17.493-29.847,35.186-29.248c0.492,0.016,0.983,0,1.591,0
		c0-3.084-0.004-6.018,0-8.934c0.004-2.406,0.723-4.539,2.257-6.425c1.442-1.758,3.444-2.51,5.474-3.245c26.707,0,53.414,0,80.121,0
		c0.702,0.488,1.518,0.887,2.125,1.486c9.974,9.934,19.907,19.89,29.855,29.832c0.976,0.966,1.439,2.062,1.439,3.444
		c-0.024,37.975-0.017,75.957-0.024,113.932c0,3.364-1.271,6.153-4.107,8.04C201.745,205.461,200.434,205.836,199.22,206.372z
		 M169.835,54.249c-0.391-0.024-0.646-0.064-0.887-0.064c-24.485,0-48.979-0.008-73.464,0.008c-2.401,0-3.568,1.223-3.596,3.668
		c-0.024,2.781,0.068,5.57-0.036,8.351c-0.052,1.238,0.336,1.774,1.522,2.174c13.853,4.555,23.287,17.692,23.255,32.261
		c-0.036,14.52-9.454,27.602-23.215,32.132c-1.159,0.384-1.566,0.863-1.566,2.135c0.048,20.313,0.036,40.619,0.036,60.941
		c0,3.356,0.987,4.331,4.335,4.331c33.404,0,66.816,0,100.219,0c3.349,0,4.331-0.975,4.331-4.331c0-36.353,0-72.697,0-109.034
		c0-0.543,0-1.086,0-1.709c-0.782,0-1.358,0-1.917,0c-8.191,0-16.391,0-24.582,0c-3.484,0-4.436-0.943-4.436-4.387
		C169.835,71.966,169.835,63.199,169.835,54.249z M79.509,73.037c-13.105,1.127-25.636,13.154-24.677,29.344
		c0.903,15.359,14.751,27.339,30.035,25.956c16.442-1.486,24.965-15.495,25.133-24.661c-0.56,0-1.123,0-1.682,0
		c-8.243,0-16.49,0.008-24.733,0c-3.013,0-4.072-1.079-4.072-4.115c-0.004-8.248-0.004-16.494-0.004-24.733
		C79.509,74.268,79.509,73.708,79.509,73.037z M110.104,97.41c-0.927-12.578-12.223-23.526-24.302-24.326c0,8.112,0,16.207,0,24.326
		C93.966,97.41,102.033,97.41,110.104,97.41z M176.077,78.814c6.728,0,13.329,0,19.587,0c-6.481-6.481-13.074-13.074-19.587-19.57
		C176.077,65.573,176.077,72.142,176.077,78.814z"/>
	<path fill-rule="evenodd" clip-rule="evenodd" fill="#39B54A" d="M110.104,97.41c-8.071,0-16.139,0-24.302,0
		c0-8.119,0-16.214,0-24.326C97.882,73.884,109.177,84.832,110.104,97.41z"/>
	<path fill-rule="evenodd" clip-rule="evenodd" fill="#39B54A" d="M176.637,144.791c-2.789-5.569-1.375-10.86,3.468-13.418
		c3.563-1.877,8.015-1.206,10.836,1.654c2.798,2.821,3.485,7.217,1.662,10.726c-1.886,3.636-5.833,5.593-9.798,4.962
		c-0.551-0.08-1.373,0.079-1.725,0.455c-6.898,7.313-13.737,14.68-20.586,22.04c-0.064,0.08-0.104,0.176-0.208,0.368
		c1.838,3.1,2.062,6.337,0.271,9.613c-2.27,4.139-7.408,5.874-11.731,3.971c-4.419-1.94-6.648-6.919-5.011-11.427
		c0.376-1.023,0.184-1.671-0.472-2.478c-2.685-3.244-5.338-6.545-7.951-9.861c-0.563-0.719-1.056-0.751-1.945-0.662
		c-1.798,0.184-3.652,0.111-5.458-0.097c-0.811-0.096-1.291-0.048-1.854,0.568c-3.216,3.556-6.461,7.087-9.749,10.572
		c-0.612,0.646-0.584,1.166-0.336,1.909c1.458,4.348-0.264,8.862-4.155,11.028c-3.948,2.189-8.827,1.311-11.62-2.094
		c-2.917-3.549-2.901-8.391,0.036-11.932c2.33-2.813,6.158-3.932,9.794-2.797c0.851,0.271,1.374,0.176,1.998-0.511
		c3.168-3.525,6.385-7.009,9.633-10.461c0.619-0.663,0.707-1.199,0.416-2.038c-1.259-3.684-0.404-6.983,2.345-9.621
		c2.761-2.661,6.153-3.341,9.738-1.918c3.58,1.414,5.546,4.203,5.817,8.031c0.096,1.191-0.192,2.47-0.552,3.628
		c-0.279,0.903-0.176,1.486,0.416,2.213c2.717,3.301,5.395,6.633,8.055,9.99c0.552,0.694,1.016,0.838,1.942,0.67
		c1.438-0.279,2.94-0.159,4.411-0.279c0.504-0.04,1.15-0.152,1.454-0.486C162.731,159.711,169.651,152.279,176.637,144.791z
		 M187.439,139.548c-0.008-1.622-1.469-3.067-3.084-3.06s-3.06,1.478-3.052,3.084c0.016,1.622,1.469,3.069,3.084,3.061
		C186.003,142.625,187.456,141.146,187.439,139.548z M130.909,148.858c-1.613-0.024-3.08,1.398-3.116,3.021
		c-0.04,1.613,1.387,3.084,3.013,3.124c1.619,0.031,3.089-1.391,3.121-3.021C133.959,150.368,132.536,148.898,130.909,148.858z
		 M110.416,176.731c0.036-1.622-1.383-3.084-3.013-3.124c-1.614-0.031-3.084,1.398-3.121,3.013
		c-0.032,1.623,1.391,3.093,3.013,3.133C108.906,179.777,110.384,178.354,110.416,176.731z M152.565,179.753
		c1.632-0.04,3.054-1.51,3.014-3.133c-0.032-1.614-1.511-3.044-3.125-3.013c-1.622,0.04-3.053,1.502-3.013,3.124
		C149.481,178.354,150.952,179.777,152.565,179.753z"/>
	<path fill-rule="evenodd" clip-rule="evenodd" d="M161.771,103.675c-7.423,0-14.848,0-22.264,0c-0.623,0-1.246,0-1.846-0.135
		c-1.458-0.304-2.457-1.575-2.445-2.973c0.008-1.414,1.016-2.653,2.481-2.957c0.548-0.12,1.122-0.12,1.689-0.12
		c14.953,0,29.896,0,44.848,0c0.568,0,1.144,0.008,1.688,0.127c1.453,0.312,2.46,1.583,2.444,2.981
		c-0.008,1.414-1.023,2.653-2.477,2.958c-0.552,0.119-1.127,0.119-1.695,0.119C176.717,103.675,169.252,103.675,161.771,103.675z"/>
	<path fill-rule="evenodd" clip-rule="evenodd" d="M161.948,109.861c7.368,0,14.744,0,22.12,0.008c0.512,0,1.039-0.024,1.534,0.048
		c1.613,0.24,2.765,1.534,2.765,3.044c0,1.511-1.151,2.797-2.765,3.029c-0.503,0.08-1.031,0.064-1.543,0.064
		c-14.848,0-29.687,0-44.535,0c-0.112,0-0.208,0-0.313,0c-2.504-0.016-3.995-1.175-3.995-3.101c0-1.926,1.491-3.084,4.004-3.084
		C146.797,109.861,154.373,109.861,161.948,109.861z"/>
	<path fill-rule="evenodd" clip-rule="evenodd" d="M144.263,66.556c5.203,0,10.414,0.008,15.623-0.008
		c1.366,0,2.558,0.335,3.302,1.583c0.982,1.654,0.184,3.795-1.688,4.387c-0.623,0.184-1.311,0.216-1.98,0.216
		c-10.262,0.016-20.507,0.008-30.771,0.008c-0.255,0-0.516,0.008-0.771,0c-1.914-0.12-3.248-1.351-3.276-3.037
		c-0.04-1.734,1.331-3.101,3.325-3.132c3.66-0.04,7.32-0.016,10.979-0.016C140.755,66.556,142.513,66.556,144.263,66.556z"/>
	<path fill-rule="evenodd" clip-rule="evenodd" d="M144.207,85.112c-5.259,0-10.513-0.008-15.771,0.008
		c-1.371,0.008-2.562-0.328-3.305-1.574c-0.982-1.662-0.184-3.796,1.686-4.387c0.624-0.2,1.323-0.216,1.982-0.216
		c10.26-0.016,20.522-0.008,30.767-0.008c0.271,0,0.526-0.008,0.782,0c1.91,0.12,3.245,1.35,3.277,3.037
		c0.032,1.742-1.344,3.101-3.333,3.132c-3.717,0.04-7.425,0.008-11.132,0.008C147.515,85.112,145.854,85.112,144.207,85.112z"/>
	<path fill-rule="evenodd" clip-rule="evenodd" d="M128.976,100.655c-0.044,1.63-1.522,3.037-3.136,3.004
		c-1.634-0.055-3.045-1.542-3.001-3.148c0.048-1.63,1.531-3.037,3.145-2.997C127.613,97.562,129.023,99.049,128.976,100.655z"/>
	<path fill-rule="evenodd" clip-rule="evenodd" d="M128.976,112.945c0.012,1.615-1.434,3.077-3.053,3.085
		c-1.614,0.008-3.072-1.438-3.084-3.061c-0.008-1.615,1.435-3.069,3.057-3.085C127.51,109.877,128.968,111.315,128.976,112.945z"/>
	<path fill-rule="evenodd" clip-rule="evenodd" d="M81.739,122.215c-11.259-0.4-20.649-9.949-20.773-21.033
		c-0.02-2.182,1.25-3.685,3.1-3.668c1.735,0.024,2.961,1.351,3.077,3.404c0.275,4.962,2.305,9.022,6.289,12.027
		c2.617,1.982,5.61,2.949,8.891,3.109c2.597,0.136,4.087,2.374,2.997,4.451C84.544,121.983,83.198,122.335,81.739,122.215z"/>
</g>
</svg>
