<?xml version="1.0" encoding="utf-8"?>
<!-- Generator: Adobe Illustrator 16.0.0, SVG Export Plug-In . SVG Version: 6.00 Build 0)  -->
<!DOCTYPE svg PUBLIC "-//W3C//DTD SVG 1.1//EN" "http://www.w3.org/Graphics/SVG/1.1/DTD/svg11.dtd">
<svg version="1.1" id="Layer_1" xmlns="http://www.w3.org/2000/svg" xmlns:xlink="http://www.w3.org/1999/xlink" x="0px" y="0px"
	 width="16px" height="16px" viewBox="0 0 16 16" enable-background="new 0 0 16 16" xml:space="preserve">
<g>
	<path fill="#627D53" d="M8.811,7.049c1.336,2.012,2.666,4.01,4,6.02c-0.065,0-0.125,0-0.184,0c-0.074,0-0.146-0.002-0.221,0
		c-0.031,0.004-0.047-0.01-0.063-0.033c-0.27-0.407-0.538-0.813-0.811-1.219c-0.468-0.703-0.935-1.405-1.4-2.107
		C9.768,9.159,9.402,8.607,9.038,8.06C8.777,7.67,8.518,7.281,8.261,6.892c-0.08-0.124-0.09-0.255-0.023-0.386
		c0.068-0.129,0.181-0.192,0.325-0.2c0.023-0.001,0.043,0,0.064,0c0.934,0,1.867-0.001,2.799-0.001c0.311,0,0.619,0,0.928,0.001
		c0.197,0,0.361,0.148,0.377,0.335c0.019,0.199-0.112,0.373-0.313,0.402c-0.084,0.012-0.17,0.005-0.256,0.005
		c-1.1,0-2.199,0-3.299,0C8.85,7.049,8.836,7.049,8.811,7.049z"/>
	<path fill="#627D53" d="M3.527,7.041c1.338,2.014,2.67,4.018,4.005,6.027c-0.145,0-0.287,0-0.429-0.002
		c-0.011,0-0.024-0.012-0.033-0.024c-0.269-0.403-0.539-0.812-0.808-1.215c-0.134-0.203-0.268-0.402-0.4-0.604
		c-0.464-0.695-0.927-1.394-1.39-2.091C3.97,8.378,3.467,7.626,2.972,6.87C2.808,6.619,2.991,6.319,3.255,6.303
		c0.068-0.004,0.137-0.002,0.206-0.002c1.137,0,2.273-0.001,3.41,0c0.097,0,0.196-0.004,0.29,0.012
		c0.182,0.033,0.308,0.214,0.287,0.393C7.426,6.898,7.272,7.041,7.083,7.041c-0.673,0.001-1.345,0-2.017,0c-0.498,0-0.996,0-1.494,0
		C3.562,7.041,3.551,7.041,3.527,7.041z"/>
	<path fill="#627D53" d="M10.123,10.376c-0.066,0-0.127,0-0.189,0c-1.172,0-2.343,0-3.514,0c-0.066,0-0.132,0-0.198-0.003
		c-0.014,0-0.033-0.007-0.041-0.018c-0.157-0.236-0.314-0.472-0.47-0.707C5.708,9.646,5.708,9.641,5.705,9.634
		c0.016,0,0.028,0,0.041,0c1.282,0,2.564,0,3.846,0c0.033,0,0.051,0.011,0.068,0.034c0.148,0.229,0.299,0.451,0.445,0.676
		C10.111,10.352,10.117,10.361,10.123,10.376z"/>
	<path fill="#627D53" d="M6.868,5.925c-0.515,0-0.93-0.416-0.93-0.929c0-0.513,0.417-0.928,0.93-0.928
		c0.519,0,0.932,0.416,0.929,0.936C7.795,5.503,7.389,5.928,6.868,5.925z"/>
	<path fill="#627D53" d="M11.223,5.001c0.002-0.517,0.416-0.928,0.937-0.926c0.51,0.002,0.922,0.416,0.922,0.928
		c0,0.517-0.414,0.929-0.933,0.927C11.635,5.93,11.223,5.517,11.223,5.001z"/>
	<path fill="#627D53" d="M10.98,9.634c0.992,0,1.979,0,2.971,0c0,0.246,0,0.49,0,0.739c-0.012,0-0.025,0.003-0.037,0.003
		c-0.799,0-1.602,0-2.4,0c-0.031,0-0.049-0.008-0.065-0.034c-0.148-0.225-0.298-0.449-0.445-0.674
		C10.994,9.658,10.988,9.65,10.98,9.634z"/>
	<path fill="#627D53" d="M2.048,10.371c0-0.247,0-0.488,0-0.737c0.017,0,0.031,0,0.045,0c0.741,0,1.481,0,2.223,0
		c0.021,0,0.041,0,0.055,0.022c0.153,0.23,0.307,0.463,0.46,0.691c0.004,0.008,0.007,0.014,0.012,0.022
		C3.912,10.371,2.982,10.371,2.048,10.371z"/>
	<path fill="#627D53" d="M4.478,7.786C4.543,7.791,4.603,7.791,4.661,7.8c0.333,0.044,0.625,0.192,0.904,0.37
		C5.983,8.437,6.35,8.766,6.697,9.118C6.739,9.16,6.781,9.202,6.822,9.246c0.002,0,0.001,0.005,0.002,0.011
		c-0.011,0-0.023,0.002-0.035,0.002c-0.332,0-0.664,0-0.996,0c-0.018,0-0.039-0.008-0.051-0.018c-0.191-0.162-0.387-0.322-0.6-0.458
		c-0.01-0.008-0.019-0.018-0.024-0.027c-0.21-0.315-0.42-0.629-0.629-0.945C4.486,7.807,4.485,7.803,4.478,7.786z"/>
	<path fill="#627D53" d="M12.109,9.259c-0.129,0-0.248,0-0.365,0c-0.225,0-0.447,0-0.668,0.003c-0.027,0-0.047-0.008-0.068-0.027
		c-0.182-0.157-0.371-0.309-0.574-0.438c-0.014-0.01-0.024-0.021-0.033-0.034c-0.207-0.31-0.416-0.623-0.625-0.935
		C9.773,7.821,9.771,7.814,9.762,7.801c0.023-0.002,0.043-0.005,0.063-0.005c0.221,0.009,0.43,0.072,0.629,0.163
		c0.338,0.155,0.639,0.371,0.924,0.607c0.244,0.201,0.472,0.418,0.688,0.647C12.078,9.227,12.092,9.238,12.109,9.259z"/>
	<path fill="#627D53" d="M3.51,8.361C3.655,8.578,3.799,8.795,3.942,9.01C3.895,9.089,3.849,9.165,3.801,9.238
		C3.795,9.249,3.778,9.259,3.765,9.259c-0.044,0.003-0.089,0-0.133,0c-0.224,0-0.447,0-0.679,0C3.105,8.936,3.283,8.635,3.51,8.361z
		"/>
	<path fill="#627D53" d="M8.793,8.368c0.07,0.105,0.137,0.204,0.203,0.307C9.068,8.779,9.137,8.887,9.209,8.99
		c0.014,0.02,0.014,0.033,0,0.057C9.17,9.107,9.133,9.17,9.094,9.23C9.084,9.244,9.07,9.257,9.057,9.259c-0.27,0-0.539,0-0.816,0
		C8.391,8.939,8.568,8.643,8.793,8.368z"/>
</g>
</svg>
