<?xml version="1.0" encoding="utf-8"?>
<!-- Generator: Adobe Illustrator 16.0.0, SVG Export Plug-In . SVG Version: 6.00 Build 0)  -->
<!DOCTYPE svg PUBLIC "-//W3C//DTD SVG 1.1//EN" "http://www.w3.org/Graphics/SVG/1.1/DTD/svg11.dtd">
<svg version="1.1" id="Layer_1" xmlns="http://www.w3.org/2000/svg" xmlns:xlink="http://www.w3.org/1999/xlink" x="0px" y="0px"
	 width="16px" height="16px" viewBox="0 0 16 16" enable-background="new 0 0 16 16" xml:space="preserve">
<g>
	<path fill="#627D53" d="M7.428,11.211c2.025-2.688,1.285-5.366-0.034-8.094c0.176,0.032,0.255,0.028,0.314,0.06
		c1.64,0.88,3.149,1.924,4.31,3.389c0.642,0.811,1.101,1.715,1.06,2.767c-0.019,0.474-0.185,0.94-0.31,1.405
		c-0.026,0.095-0.166,0.219-0.259,0.226c-1.644,0.106-3.286,0.198-4.932,0.292C7.554,11.257,7.529,11.241,7.428,11.211z"/>
	<path fill="#627D53" d="M7.705,13.563c-1.441,0-2.883-0.01-4.324,0.01c-0.337,0.005-0.541-0.084-0.643-0.399
		c-0.035-0.108-0.103-0.204-0.151-0.31c-0.177-0.375-0.147-0.428,0.268-0.469c2.813-0.283,5.627-0.563,8.442-0.846
		c0.618-0.063,1.236-0.139,1.855-0.195c0.117-0.01,0.242,0.035,0.363,0.055c-0.025,0.127-0.021,0.27-0.082,0.378
		c-0.258,0.455-0.545,0.896-0.8,1.354c-0.112,0.203-0.247,0.287-0.487,0.284c-1.48-0.01-2.961-0.005-4.441-0.005
		C7.705,13.467,7.705,13.516,7.705,13.563z"/>
	<path fill="#627D53" d="M7.139,4.462c-0.104,2.299-0.208,4.599-0.314,6.946c-0.982,0.107-1.953,0.217-3.018,0.334
		c1.104-2.479,2.18-4.894,3.255-7.308C7.087,4.444,7.113,4.453,7.139,4.462z"/>
</g>
</svg>
