<?xml version="1.0" encoding="utf-8"?>
<!-- Generator: Adobe Illustrator 16.0.0, SVG Export Plug-In . SVG Version: 6.00 Build 0)  -->
<!DOCTYPE svg PUBLIC "-//W3C//DTD SVG 1.1//EN" "http://www.w3.org/Graphics/SVG/1.1/DTD/svg11.dtd">
<svg version="1.1" id="Layer_1" xmlns="http://www.w3.org/2000/svg" xmlns:xlink="http://www.w3.org/1999/xlink" x="0px" y="0px"
	 width="51px" height="51px" viewBox="0 0 51 51" enable-background="new 0 0 51 51" xml:space="preserve">
<g>
	<g>
		<path fill-rule="evenodd" clip-rule="evenodd" fill="#020202" d="M27.704,35.247c-0.369,0.183-0.87,0.443-1.379,0.688
			c-0.619,0.299-1.051,0.147-1.359-0.47c-0.29-0.583-0.577-1.164-0.854-1.751c-0.284-0.606-0.14-1.027,0.447-1.333
			c0.516-0.266,1.038-0.523,1.425-0.722c-0.045-1.322-0.097-2.547-0.119-3.775c-0.005-0.271-0.101-0.365-0.335-0.434
			c-0.451-0.136-0.895-0.293-1.339-0.446c-0.632-0.222-0.813-0.585-0.59-1.207c0.233-0.658,0.471-1.313,0.725-1.964
			c0.218-0.563,0.581-0.722,1.164-0.538c0.449,0.143,0.903,0.272,1.336,0.446c0.276,0.109,0.382,0.005,0.552-0.199
			c0.685-0.841,1.387-1.672,2.117-2.47c0.213-0.232,0.271-0.383,0.112-0.658c-0.235-0.405-0.438-0.833-0.632-1.261
			c-0.24-0.525-0.093-0.957,0.423-1.224c0.634-0.327,1.274-0.641,1.923-0.939c0.508-0.236,0.914-0.096,1.194,0.396
			c0.241,0.423,0.473,0.853,0.683,1.292c0.13,0.272,0.27,0.334,0.596,0.304c1.094-0.112,2.196-0.166,3.295-0.194
			c0.268-0.008,0.376-0.074,0.449-0.307c0.151-0.48,0.306-0.96,0.479-1.43c0.207-0.567,0.575-0.743,1.15-0.553
			c0.662,0.22,1.32,0.448,1.976,0.688c0.557,0.201,0.741,0.579,0.563,1.158c-0.171,0.555-0.366,1.107-0.561,1.693
			c1.11,0.653,2.053,1.486,2.869,2.469c0.066,0.079,0.294,0.1,0.404,0.053c0.462-0.201,0.901-0.448,1.357-0.66
			c0.558-0.259,0.969-0.116,1.251,0.437c0.311,0.606,0.61,1.219,0.9,1.833c0.275,0.587,0.135,0.998-0.432,1.297
			c-0.417,0.222-0.831,0.444-1.263,0.632c-0.285,0.123-0.293,0.287-0.269,0.569c0.097,1.081,0.169,2.164,0.192,3.247
			c0.007,0.309,0.086,0.429,0.358,0.511c0.466,0.14,0.929,0.291,1.385,0.461c0.544,0.199,0.731,0.563,0.561,1.108
			c-0.227,0.712-0.465,1.42-0.724,2.117c-0.19,0.517-0.563,0.683-1.085,0.521c-0.48-0.149-0.952-0.327-1.435-0.463
			c-0.125-0.035-0.36-0.007-0.41,0.074c-0.671,1.092-1.532,2.014-2.561,2.825c0.255,0.513,0.5,1.002,0.742,1.491
			c0.339,0.688,0.207,1.097-0.466,1.432c-0.582,0.289-1.163,0.579-1.751,0.853c-0.575,0.268-1.005,0.119-1.296-0.439
			c-0.226-0.433-0.418-0.881-0.666-1.302c-0.07-0.115-0.284-0.22-0.426-0.215c-1.116,0.054-2.23,0.153-3.346,0.196
			c-0.294,0.013-0.432,0.079-0.514,0.359c-0.137,0.467-0.296,0.928-0.466,1.384c-0.204,0.549-0.56,0.722-1.113,0.544
			c-0.679-0.222-1.354-0.451-2.025-0.693c-0.63-0.228-0.784-0.565-0.573-1.219c0.145-0.446,0.313-0.888,0.436-1.341
			c0.034-0.122-0.006-0.331-0.092-0.403C29.725,36.901,28.75,36.108,27.704,35.247z M42.043,28.958
			c0.012-3.312-2.646-5.985-5.965-5.995c-3.276-0.012-6.006,2.699-6.013,5.972c-0.007,3.248,2.688,5.953,5.959,5.979
			C39.321,34.938,42.031,32.259,42.043,28.958z"/>
		<path fill-rule="evenodd" clip-rule="evenodd" fill="#020202" d="M25.764,13.044c0.278,0.601,0.51,1.136,0.773,1.653
			c0.058,0.115,0.217,0.217,0.347,0.247c0.187,0.042,0.402-0.03,0.579,0.028c0.198,0.069,0.492,0.202,0.52,0.35
			c0.084,0.438,0.123,0.907,0.055,1.344c-0.054,0.356-0.432,0.407-0.753,0.38c-0.442-0.043-0.65,0.087-0.722,0.576
			c-0.072,0.486-0.316,0.948-0.468,1.371c0.249,0.37,0.658,0.719,0.688,1.099c0.024,0.302-0.392,0.66-0.655,0.955
			c-0.39,0.437-0.432,0.413-1.459-0.409c-0.576,0.267-1.148,0.518-1.709,0.796c-0.085,0.043-0.151,0.186-0.168,0.29
			c-0.023,0.143,0.012,0.292,0.015,0.437c0.004,0.114,0.026,0.238-0.011,0.34c-0.267,0.733-0.914,0.454-1.424,0.501
			c-0.387,0.038-0.596-0.197-0.624-0.587c-0.018-0.258-0.047-0.518-0.067-0.729c-0.613-0.23-1.197-0.461-1.788-0.658
			c-0.097-0.033-0.266,0.036-0.357,0.114c-0.198,0.164-0.335,0.444-0.554,0.534c-0.697,0.282-0.943-0.403-1.344-0.725
			c-0.292-0.234-0.209-0.551,0.026-0.813c0.171-0.195,0.344-0.388,0.479-0.537c-0.268-0.587-0.505-1.138-0.774-1.67
			c-0.056-0.108-0.223-0.196-0.353-0.225c-0.153-0.031-0.321,0.018-0.484,0.021c-0.111,0-0.237,0.005-0.332-0.042
			c-0.637-0.318-0.382-0.936-0.433-1.432c-0.038-0.373,0.245-0.576,0.625-0.6c0.114-0.005,0.228-0.033,0.339-0.025
			c0.325,0.025,0.42-0.114,0.487-0.433c0.109-0.518,0.325-1.013,0.522-1.596c-0.09-0.087-0.24-0.228-0.389-0.37
			c-0.105-0.103-0.252-0.187-0.302-0.312c-0.275-0.684,0.375-0.921,0.677-1.32c0.227-0.296,0.586-0.318,0.807-0.057
			c0.466,0.551,0.902,0.47,1.387,0.071c0.037-0.03,0.083-0.055,0.128-0.066c0.681-0.183,1.154-0.476,0.977-1.327
			c-0.07-0.335,0.24-0.568,0.598-0.554c0.506,0.021,1.118-0.405,1.472,0.318c0.014,0.028,0.025,0.066,0.019,0.095
			c-0.17,0.826,0.323,1.062,1.004,1.13c0.047,0.005,0.1,0.02,0.138,0.046c0.591,0.387,1.113,0.423,1.514-0.269
			c0.022-0.04,0.071-0.073,0.115-0.088c0.735-0.237,0.956,0.461,1.375,0.781c0.297,0.226,0.229,0.546,0.002,0.814
			C26.094,12.693,25.915,12.878,25.764,13.044z M21.411,18.853c1.408-0.002,2.576-1.135,2.587-2.513
			c0.01-1.425-1.146-2.608-2.543-2.605c-1.445,0.005-2.592,1.172-2.581,2.62C18.887,17.727,20.032,18.853,21.411,18.853z"/>
		<path fill-rule="evenodd" clip-rule="evenodd" fill="#020202" d="M35.989,32.703c-2.099-0.036-3.729-1.731-3.697-3.847
			c0.029-2.012,1.793-3.709,3.8-3.661c2.098,0.049,3.731,1.754,3.698,3.86C39.757,31.089,38.038,32.739,35.989,32.703z"/>
	</g>
	<g>
		<path fill-rule="evenodd" clip-rule="evenodd" fill="#020202" d="M5.313,36.971c-0.249,0.123-0.587,0.299-0.932,0.465
			c-0.418,0.202-0.71,0.1-0.918-0.317c-0.196-0.394-0.39-0.786-0.577-1.184c-0.192-0.409-0.095-0.694,0.302-0.9
			c0.348-0.18,0.701-0.354,0.962-0.487c-0.03-0.894-0.065-1.722-0.08-2.552c-0.003-0.183-0.068-0.247-0.226-0.293
			C3.54,31.61,3.24,31.504,2.94,31.4c-0.427-0.149-0.549-0.396-0.399-0.815c0.158-0.444,0.318-0.888,0.49-1.327
			c0.147-0.38,0.392-0.487,0.786-0.363c0.303,0.096,0.61,0.184,0.903,0.301c0.187,0.074,0.258,0.004,0.373-0.134
			c0.463-0.568,0.938-1.13,1.431-1.669c0.144-0.157,0.183-0.259,0.076-0.445c-0.159-0.273-0.296-0.563-0.427-0.852
			c-0.162-0.355-0.063-0.646,0.286-0.827c0.428-0.221,0.861-0.433,1.3-0.635c0.343-0.159,0.618-0.064,0.807,0.268
			c0.163,0.286,0.32,0.576,0.461,0.873C9.115,25.959,9.209,26,9.43,25.98c0.739-0.076,1.483-0.112,2.227-0.132
			c0.181-0.005,0.254-0.05,0.303-0.207c0.102-0.325,0.207-0.648,0.323-0.966c0.14-0.384,0.389-0.503,0.777-0.374
			c0.447,0.148,0.892,0.303,1.335,0.466c0.376,0.136,0.501,0.391,0.38,0.782c-0.115,0.375-0.247,0.748-0.379,1.145
			c0.75,0.441,1.388,1.004,1.939,1.668c0.044,0.054,0.199,0.067,0.273,0.036c0.313-0.137,0.608-0.304,0.917-0.446
			c0.377-0.175,0.655-0.079,0.846,0.295c0.21,0.409,0.412,0.823,0.608,1.238c0.186,0.396,0.091,0.675-0.292,0.877
			c-0.282,0.149-0.562,0.3-0.854,0.427c-0.192,0.083-0.198,0.193-0.181,0.385c0.065,0.73,0.114,1.462,0.13,2.194
			c0.005,0.208,0.059,0.289,0.242,0.345c0.315,0.095,0.628,0.196,0.936,0.312c0.368,0.135,0.494,0.381,0.379,0.749
			c-0.154,0.481-0.314,0.96-0.49,1.431c-0.128,0.349-0.38,0.461-0.733,0.352c-0.324-0.101-0.643-0.221-0.97-0.313
			c-0.084-0.023-0.244-0.005-0.277,0.05c-0.453,0.738-1.035,1.361-1.73,1.909c0.172,0.347,0.337,0.678,0.501,1.008
			c0.229,0.466,0.14,0.741-0.315,0.968c-0.394,0.195-0.786,0.391-1.184,0.576c-0.388,0.181-0.679,0.08-0.876-0.297
			c-0.152-0.293-0.283-0.596-0.45-0.88c-0.047-0.078-0.191-0.148-0.288-0.146c-0.754,0.036-1.507,0.104-2.261,0.133
			c-0.199,0.009-0.292,0.054-0.347,0.243c-0.093,0.315-0.2,0.627-0.315,0.935c-0.138,0.371-0.378,0.488-0.752,0.368
			c-0.459-0.15-0.916-0.306-1.369-0.469c-0.426-0.154-0.53-0.382-0.387-0.823c0.098-0.302,0.211-0.601,0.294-0.906
			c0.023-0.083-0.004-0.224-0.062-0.272C6.679,38.088,6.02,37.553,5.313,36.971z M15.003,32.721
			c0.008-2.238-1.788-4.045-4.031-4.052c-2.214-0.008-4.059,1.824-4.063,4.036c-0.005,2.194,1.816,4.022,4.027,4.039
			C13.164,36.762,14.995,34.951,15.003,32.721z"/>
		<path fill-rule="evenodd" clip-rule="evenodd" fill="#020202" d="M10.912,35.251c-1.418-0.024-2.52-1.17-2.499-2.6
			c0.02-1.359,1.212-2.506,2.568-2.474c1.417,0.033,2.521,1.186,2.499,2.608C13.458,34.16,12.296,35.275,10.912,35.251z"/>
	</g>
</g>
</svg>
