<?xml version="1.0" encoding="utf-8"?>
<!-- Generator: Adobe Illustrator 16.0.0, SVG Export Plug-In . SVG Version: 6.00 Build 0)  -->
<!DOCTYPE svg PUBLIC "-//W3C//DTD SVG 1.1//EN" "http://www.w3.org/Graphics/SVG/1.1/DTD/svg11.dtd">
<svg version="1.1" id="Layer_1" xmlns="http://www.w3.org/2000/svg" xmlns:xlink="http://www.w3.org/1999/xlink" x="0px" y="0px"
	 width="51px" height="51px" viewBox="0 0 51 51" enable-background="new 0 0 51 51" xml:space="preserve">
<g>
	<path fill="#272324" d="M25.922,17.791h8.427c0.613,0,1.226-0.459,1.226-1.226s-0.612-1.073-1.226-1.073h-8.274
		c-0.612,0-1.226,0.46-1.226,1.226C24.849,17.484,25.309,17.791,25.922,17.791z M25.922,21.162h4.75
		c0.613,0,1.227-0.461,1.227-1.227c0-0.767-0.461-1.226-1.227-1.226h-4.75c-0.613,0-1.226,0.459-1.226,1.226
		C24.696,20.701,25.309,21.162,25.922,21.162z M25.922,14.268h8.427c0.613,0,1.226-0.461,1.226-1.228s-0.612-1.071-1.226-1.071
		h-8.274c-0.612,0-1.226,0.459-1.226,1.226C24.849,13.96,25.309,14.268,25.922,14.268z M38.487,2.314H8.76
		c-4.29,0-7.814,3.525-7.814,7.815v18.847c0,4.29,3.524,7.813,7.814,7.813h6.743l-0.766,6.743c0,1.532,1.226,2.758,2.758,2.758
		h12.258c1.532,0,2.758-1.226,2.758-2.911l-0.767-6.59h6.743c4.29,0,7.813-3.523,7.813-7.813V10.282
		C46.3,5.84,42.777,2.314,38.487,2.314z M29.752,44.146H17.495c-0.307,0-0.459-0.307-0.459-0.307l0.919-6.896H29.6l0.919,6.741
		C30.212,43.84,30.06,44.146,29.752,44.146z M44.002,28.977c0,3.064-2.451,5.516-5.516,5.516H8.76c-3.064,0-5.516-2.451-5.516-5.516
		V10.282c0-3.064,2.451-5.516,5.516-5.516h29.727c3.064,0,5.516,2.451,5.516,5.516V28.977z M39.253,7.372H7.994
		c-0.766,0-1.226,0.459-1.226,1.226v19.46c0,0.612,0.459,1.226,1.226,1.226h31.412c0.613,0,1.225-0.46,1.225-1.226V8.598
		C40.478,7.831,40.019,7.372,39.253,7.372z M38.18,26.83H9.067V9.67H38.18V26.83z M14.123,25.604h9.807
		c0.919,0,1.532-0.766,1.532-1.532v-0.611c0-0.921-1.226-3.525-3.984-3.679c-0.307,0-0.613,0.153-0.919,0.308
		c-0.307,0.152-1.226,0.459-1.686,0.459c-0.459,0-1.379-0.307-1.686-0.307c-0.306-0.307-0.612-0.46-0.918-0.46
		c-2.605,0.153-3.984,2.299-3.984,3.372v0.766C12.591,24.839,13.205,25.604,14.123,25.604z M16.269,22.081
		c0.918,0.613,2.451,0.767,2.758,0.767s1.839-0.153,2.758-0.767c0.766,0.152,1.073,0.767,1.226,1.073h-8.122
		C14.889,23.154,15.196,22.388,16.269,22.081z M19.027,19.936c1.992,0,3.524-1.992,3.524-4.29c0-2.299-1.685-4.29-3.524-4.29
		c-1.992,0-3.524,1.991-3.524,4.29C15.35,17.943,17.035,19.936,19.027,19.936z M19.027,13.653c0.613,0,1.226,0.919,1.226,1.992
		c0,1.072-0.613,1.991-1.226,1.991s-1.226-0.766-1.226-1.991C17.648,14.42,18.414,13.653,19.027,13.653z"/>
	<path fill="#020202" d="M47.339,48.408c2.041-3.3,3.17-7.132,3.17-10.916c0-1.669-0.172-3.301-0.592-4.88
		c-0.307-1.088-1.199-1.945-2.365-1.945c-0.703,0-1.342,0.308-1.773,0.799v-0.207c0-1.308-1.059-2.366-2.365-2.366
		s-2.365,1.059-2.365,2.366v-1.184c0-1.307-1.061-2.365-2.367-2.365s-2.365,1.059-2.365,2.365v-7.688
		c0-1.307-1.059-2.365-2.365-2.365s-2.365,1.059-2.365,2.365v13.49c0,0.656-0.533,1.183-1.184,1.183
		c-0.111,0-0.219-0.018-0.324-0.048l-3.342-1.36c-0.32-0.16-0.68-0.254-1.065-0.254c-1.307,0-2.365,1.058-2.365,2.365
		c0,0.982,0.604,1.827,1.455,2.188c3.838,1.98,6.913,4.411,9.065,8.456H47.339L47.339,48.408z"/>
</g>
</svg>
