<?xml version="1.0" encoding="utf-8"?>
<!-- Generator: Adobe Illustrator 16.0.0, SVG Export Plug-In . SVG Version: 6.00 Build 0)  -->
<!DOCTYPE svg PUBLIC "-//W3C//DTD SVG 1.1//EN" "http://www.w3.org/Graphics/SVG/1.1/DTD/svg11.dtd">
<svg version="1.1" id="Layer_1" xmlns="http://www.w3.org/2000/svg" xmlns:xlink="http://www.w3.org/1999/xlink" x="0px" y="0px"
	 width="16px" height="16px" viewBox="0 0 16 16" enable-background="new 0 0 16 16" xml:space="preserve">
<g>
	<path fill="#627D53" d="M8.374,7.56C8.786,7.893,9.182,8.224,9.59,8.537c0.285,0.219,0.424,0.486,0.416,0.852
		c-0.012,0.641-0.001,1.281-0.004,1.922c-0.001,0.389-0.227,0.643-0.568,0.652c-0.358,0.01-0.604-0.234-0.613-0.632
		c-0.008-0.502-0.008-1.003,0-1.505c0.005-0.162-0.039-0.27-0.17-0.372c-0.6-0.474-1.188-0.96-1.782-1.439
		C6.296,7.554,6.301,6.88,6.878,6.429c0.535-0.418,1.066-0.841,1.599-1.262c0.01-0.008,0.014-0.024,0.037-0.063
		c-0.093-0.003-0.172-0.01-0.251-0.01c-0.895-0.001-1.79,0.001-2.686-0.001C5.246,5.092,5.047,4.925,5.031,4.65
		c-0.018-0.31,0.19-0.51,0.547-0.511C6.504,4.135,7.43,4.137,8.356,4.137c0.449,0,0.895-0.002,1.343,0.001
		c0.473,0.004,0.811,0.227,0.957,0.625c0.143,0.388,0.039,0.772-0.313,1.082c-0.595,0.525-1.2,1.041-1.8,1.562
		C8.491,7.451,8.442,7.498,8.374,7.56z"/>
	<path fill="#627D53" d="M10.715,3.669c-0.006-0.643,0.52-1.177,1.166-1.191c0.652-0.014,1.195,0.513,1.209,1.173
		c0.014,0.65-0.523,1.197-1.179,1.201C11.252,4.856,10.723,4.332,10.715,3.669z"/>
	<path fill="#627D53" d="M6.452,8.297c0.061,0.046,0.111,0.081,0.159,0.12c0.245,0.198,0.49,0.397,0.746,0.604
		C7.328,9.061,7.306,9.1,7.276,9.13c-0.642,0.644-1.285,1.286-1.929,1.927c-0.17,0.17-0.37,0.246-0.61,0.17
		c-0.228-0.068-0.39-0.224-0.403-0.453c-0.009-0.162,0.027-0.379,0.13-0.486C5.109,9.615,5.778,8.967,6.452,8.297z"/>
	<path fill="#627D53" d="M9.051,12.546c0.307-0.452,0.62-0.46,0.955-0.022c0.207-0.289,0.389-0.375,0.627-0.289
		c0.215,0.078,0.323,0.238,0.314,0.463c-0.008,0.223-0.129,0.373-0.348,0.437c-0.231,0.067-0.408-0.024-0.553-0.253
		c-0.179,0.094-0.345,0.232-0.527,0.262c-0.213,0.035-0.369-0.123-0.383-0.244c-0.109,0.065-0.215,0.15-0.332,0.191
		c-0.111,0.037-0.242,0.059-0.354,0.035c-0.215-0.045-0.353-0.251-0.343-0.463c0.009-0.215,0.159-0.393,0.375-0.443
		C8.711,12.162,8.883,12.262,9.051,12.546z"/>
	<path fill="#627D53" d="M4.329,12.01c-0.5,0.106-0.771-0.162-0.681-0.66c-0.344,0.082-0.544,0.028-0.666-0.186
		c-0.111-0.195-0.093-0.389,0.056-0.557c0.143-0.158,0.328-0.196,0.527-0.123c0.231,0.088,0.306,0.273,0.274,0.662
		c0.512-0.142,0.793,0.099,0.718,0.553c0.188,0.054,0.386,0.074,0.541,0.167c0.09,0.054,0.146,0.219,0.156,0.339
		c0.022,0.264-0.221,0.48-0.489,0.47C4.447,12.66,4.287,12.416,4.329,12.01z"/>
</g>
</svg>
