<?xml version="1.0" encoding="utf-8"?>
<!-- Generator: Adobe Illustrator 16.0.0, SVG Export Plug-In . SVG Version: 6.00 Build 0)  -->
<!DOCTYPE svg PUBLIC "-//W3C//DTD SVG 1.1//EN" "http://www.w3.org/Graphics/SVG/1.1/DTD/svg11.dtd">
<svg version="1.1" id="Layer_1" xmlns="http://www.w3.org/2000/svg" xmlns:xlink="http://www.w3.org/1999/xlink" x="0px" y="0px"
	 width="16px" height="16px" viewBox="0 0 16 16" enable-background="new 0 0 16 16" xml:space="preserve">
<g>
	<path fill="#627D53" d="M8.785,9.025c-0.232,0.435-0.452,0.844-0.68,1.271c0.118,0.106,0.247,0.228,0.376,0.347
		C8.9,11.021,9.323,11.4,9.743,11.779c0.179,0.185,0.34,0.183,0.348,0.182c0.132-0.012,0.271-0.02,0.406-0.043
		c0.174-0.031,0.312,0.037,0.353,0.191c0.041,0.148-0.041,0.297-0.205,0.344c-0.521,0.143-0.969,0.018-1.332-0.321
		c-0.013-0.011-0.964-0.87-1.001-0.903c-1.252-1.123-2.504-2.25-3.756-3.375C4.461,7.771,4.388,7.678,4.422,7.542
		C4.475,7.33,4.705,7.253,4.873,7.4c0.368,0.321,0.73,0.649,1.094,0.976c0.424,0.38,0.848,0.763,1.272,1.144
		c0.028,0.024,0.059,0.047,0.107,0.086C7.375,9.539,7.397,9.484,7.422,9.43C7.667,8.902,7.91,8.373,8.158,7.847
		c0.153-0.325,0.471-0.422,0.781-0.245c0.309,0.177,0.615,0.355,0.924,0.532c0.012,0.007,0.027,0.009,0.05,0.016
		c0.053-0.109,0.071-0.19-0.065-0.264C9.561,7.73,9.285,7.553,9,7.396c-0.381-0.21-0.853-0.037-1.039,0.372
		C7.93,7.836,7.901,7.905,7.862,7.992c-0.247-0.273-0.476-0.53-0.71-0.781c-1.285-1.378-2.57-2.755-3.856-4.132
		C3.04,2.805,3,2.493,3.187,2.232c0.219-0.304,0.647-0.338,0.936-0.068c0.875,0.818,1.737,1.65,2.623,2.457
		C8.1,5.852,9.469,7.067,10.834,8.287c0.223,0.2,0.398,0.429,0.482,0.719c0.215,0.725-0.387,1.361-1.125,1.186
		c-0.346-0.082-0.633-0.27-0.866-0.537C9.148,9.453,8.977,9.249,8.785,9.025z"/>
	<path fill="#627D53" d="M11.766,11.846c-0.601-0.299-0.849-1.029-0.549-1.619c0.303-0.598,1.033-0.843,1.625-0.547
		c0.6,0.299,0.848,1.022,0.555,1.621C13.1,11.906,12.377,12.148,11.766,11.846z"/>
</g>
</svg>
