<?xml version="1.0" encoding="utf-8"?>
<!-- Generator: Adobe Illustrator 16.0.0, SVG Export Plug-In . SVG Version: 6.00 Build 0)  -->
<!DOCTYPE svg PUBLIC "-//W3C//DTD SVG 1.1//EN" "http://www.w3.org/Graphics/SVG/1.1/DTD/svg11.dtd">
<svg version="1.1" id="Layer_1" xmlns="http://www.w3.org/2000/svg" xmlns:xlink="http://www.w3.org/1999/xlink" x="0px" y="0px"
	 width="16px" height="16px" viewBox="0 0 16 16" enable-background="new 0 0 16 16" xml:space="preserve">
<g>
	<path fill="#627D53" d="M8.014,7.873C7.541,7.854,7.069,7.83,6.596,7.822C6.548,7.821,6.472,7.908,6.455,7.967
		C6.381,8.23,6.334,8.501,6.256,8.762C6.215,8.9,6.131,9.025,6.052,9.186C5.73,8.898,5.444,8.652,5.169,8.395
		c-0.038-0.036-0.048-0.13-0.034-0.188c0.093-0.392,0.19-0.781,0.297-1.169c0.089-0.324,0.299-0.475,0.639-0.475
		c0.393-0.001,0.785,0,1.227,0C7.11,6.205,6.945,5.889,6.77,5.553C6.206,6.022,5.656,6.48,5.106,6.938
		C4.902,7.108,4.7,7.281,4.493,7.448C4.214,7.674,3.858,7.65,3.655,7.397C3.457,7.15,3.502,6.814,3.775,6.585
		C4.583,5.907,5.39,5.228,6.206,4.559c0.112-0.092,0.267-0.156,0.41-0.181c1.379-0.238,2.763-0.453,4.14-0.703
		c0.359-0.065,0.702-0.225,1.049-0.353c0.354-0.13,0.702-0.277,1.055-0.413c0.351-0.133,0.668-0.015,0.789,0.288
		c0.125,0.308-0.021,0.616-0.364,0.754c-0.636,0.253-1.261,0.541-1.914,0.734c-0.543,0.161-1.121,0.206-1.685,0.301
		C9.566,5.007,9.447,5.025,9.292,5.05c0.056,0.11,0.104,0.206,0.153,0.303c0.217,0.439,0.447,0.873,0.645,1.321
		c0.276,0.628,0.141,1.197-0.371,1.637c-0.326,0.28-0.707,0.5-1.074,0.728c-0.109,0.068-0.16,0.126-0.157,0.258
		c0.008,0.469,0.013,0.936-0.002,1.4c-0.005,0.164-0.072,0.326-0.124,0.544c-0.386-0.343-0.713-0.628-1.031-0.923
		c-0.045-0.041-0.066-0.127-0.067-0.191C7.258,9.668,7.26,9.209,7.262,8.75c0.001-0.238,0.112-0.414,0.312-0.537
		C7.723,8.12,7.871,8.024,8.02,7.93C8.018,7.911,8.016,7.892,8.014,7.873z"/>
	<path fill="#627D53" d="M8.62,12.979c-0.097-0.006-0.193-0.012-0.289-0.017c-0.495-0.028-0.915-0.183-1.3-0.532
		c-1.468-1.34-2.966-2.648-4.454-3.965C2.384,8.293,2.27,8.092,2.319,7.828c0.047-0.25,0.196-0.421,0.439-0.497
		C3.024,7.248,3.241,7.348,3.44,7.526c0.912,0.815,1.827,1.626,2.741,2.44c0.944,0.839,1.888,1.679,2.831,2.521
		c0.107,0.098,0.303,0.195,0.19,0.361c-0.063,0.092-0.254,0.104-0.392,0.139C8.752,13.001,8.686,12.98,8.62,12.979L8.62,12.979z"/>
	<path fill="#627D53" d="M7.253,4.078c-0.556-0.004-0.996-0.449-0.988-1C6.272,2.543,6.725,2.1,7.259,2.102
		c0.548,0.002,0.986,0.451,0.984,1.007C8.24,3.648,7.797,4.082,7.253,4.078z"/>
</g>
</svg>
