<?xml version="1.0" encoding="utf-8"?>
<!-- Generator: Adobe Illustrator 16.0.0, SVG Export Plug-In . SVG Version: 6.00 Build 0)  -->
<!DOCTYPE svg PUBLIC "-//W3C//DTD SVG 1.1//EN" "http://www.w3.org/Graphics/SVG/1.1/DTD/svg11.dtd">
<svg version="1.1" id="Layer_1" xmlns="http://www.w3.org/2000/svg" xmlns:xlink="http://www.w3.org/1999/xlink" x="0px" y="0px"
	 width="16px" height="16px" viewBox="0 17.584 16 16" enable-background="new 0 17.584 16 16" xml:space="preserve">
<g>
	<path fill-rule="evenodd" clip-rule="evenodd" fill="#627D53" d="M13.964,26.506c-0.483,0.003-0.834-0.261-1.154-0.581
		c-0.119-0.118-0.225-0.248-0.35-0.386c-0.407,0.479-0.815,0.973-1.512,0.967c-0.686-0.007-1.084-0.501-1.488-0.966
		c-1.024,1.297-1.986,1.291-2.998,0.01c-1.32,1.285-1.915,1.286-3.003-0.012c-0.416,0.46-0.81,0.956-1.508,0.968
		c0-0.32,0-0.641,0-0.961c0.657-0.081,1.104-0.485,1.498-1.002c0.413,0.498,0.838,0.985,1.523,0.977
		c0.676-0.01,1.092-0.495,1.484-0.977c1.074,1.312,1.93,1.312,3,0.004c1.08,1.354,2.017,1.239,3.008,0
		c0.392,0.498,0.837,0.92,1.501,0.998C13.964,25.865,13.964,26.186,13.964,26.506z"/>
	<path fill-rule="evenodd" clip-rule="evenodd" fill="#627D53" d="M13.964,30.03c-0.668-0.063-1.102-0.484-1.498-0.996
		c-0.409,0.496-0.832,0.985-1.517,0.979c-0.676-0.006-1.093-0.489-1.486-0.971c-1.051,1.298-1.956,1.302-3.007,0.008
		c-1.154,1.44-2.104,1.129-3.003-0.014C3.058,29.53,2.625,29.971,1.95,30.03c0-0.338,0-0.676,0-1.015
		c0.465,0.013,0.805-0.241,1.119-0.538c0.135-0.127,0.25-0.274,0.383-0.421c0.416,0.471,0.816,0.97,1.516,0.959
		c0.686-0.01,1.085-0.495,1.489-0.961c1.016,1.292,1.984,1.29,2.993,0.009c1.326,1.268,1.981,1.27,3.003-0.01
		c0.419,0.455,0.81,0.958,1.511,0.962C13.964,29.354,13.964,29.692,13.964,30.03z"/>
	<path fill-rule="evenodd" clip-rule="evenodd" fill="#627D53" d="M1.95,22.021c0.68-0.035,1.093-0.492,1.5-0.979
		c0.406,0.484,0.818,0.963,1.496,0.97c0.686,0.006,1.094-0.484,1.507-0.966c0.405,0.474,0.813,0.96,1.49,0.966
		c0.684,0.005,1.099-0.472,1.511-0.965c0.408,0.462,0.809,0.959,1.485,0.965c0.685,0.005,1.103-0.466,1.518-0.968
		c0.409,0.469,0.818,0.945,1.506,0.977c0,0.338,0,0.676,0,1.015c-0.654-0.089-1.104-0.487-1.494-1.011
		c-0.413,0.478-0.817,0.978-1.507,0.977C10.277,23,9.866,22.524,9.462,22.03C9.055,22.51,8.646,23.002,7.957,23
		c-0.686,0-1.094-0.479-1.499-0.972c-0.404,0.48-0.814,0.975-1.507,0.973c-0.685-0.002-1.091-0.483-1.502-0.978
		c-0.388,0.51-0.835,0.926-1.5,1.013C1.95,22.697,1.95,22.359,1.95,22.021z"/>
</g>
</svg>
