<?xml version="1.0" encoding="utf-8"?>
<!-- Generator: Adobe Illustrator 16.0.0, SVG Export Plug-In . SVG Version: 6.00 Build 0)  -->
<!DOCTYPE svg PUBLIC "-//W3C//DTD SVG 1.1//EN" "http://www.w3.org/Graphics/SVG/1.1/DTD/svg11.dtd">
<svg version="1.1" id="Layer_1" xmlns="http://www.w3.org/2000/svg" xmlns:xlink="http://www.w3.org/1999/xlink" x="0px" y="0px"
	 width="16px" height="16px" viewBox="0 0 16 16" enable-background="new 0 0 16 16" xml:space="preserve">
<g>
	<path fill-rule="evenodd" clip-rule="evenodd" fill="#627D53" d="M8.013,5.953c0.62,0.004,1.106-0.486,1.113-1.119
		C9.13,4.226,8.631,3.742,7.991,3.734C7.401,3.728,6.909,4.236,6.905,4.855C6.901,5.455,7.399,5.949,8.013,5.953z M10.839,3.365
		c0.231,0,0.419-0.186,0.419-0.417c-0.003-0.23-0.189-0.418-0.421-0.417c-0.233,0-0.419,0.186-0.419,0.418
		C10.418,3.183,10.604,3.366,10.839,3.365z"/>
	<path fill-rule="evenodd" clip-rule="evenodd" fill="#627D53" d="M6.93,14.635c-0.213-0.08-0.384-0.203-0.422-0.443
		c-0.015-0.094-0.006-0.199,0.016-0.293c0.292-1.232,0.596-2.465,0.874-3.701c0.045-0.199-0.007-0.426-0.034-0.637
		C7.276,8.879,7.18,8.199,7.086,7.521c-0.003-0.024-0.01-0.05-0.018-0.083C6.658,7.5,6.253,7.557,5.85,7.626
		C5.637,7.663,5.466,7.62,5.309,7.465C4.928,7.087,4.537,6.722,4.15,6.351c-0.238-0.23-0.237-0.421,0.002-0.646
		C4.183,5.675,4.206,5.637,4.227,5.6c0.199-0.344,0.398-0.688,0.593-1.033c0.051-0.09,0.091-0.186,0.132-0.28
		C5.039,4.089,5.056,3.916,4.93,3.701C4.706,3.323,4.736,2.899,4.888,2.5c0.207-0.546,0.576-0.935,1.157-1.093
		c0.052-0.014,0.106-0.027,0.159-0.041c0.104,0,0.207,0,0.312,0c0.088,0.03,0.181,0.052,0.265,0.09
		C7.21,1.651,7.435,1.996,7.472,2.457c0.055,0.68-0.214,1.22-0.762,1.617C6.452,4.261,6.159,4.355,5.834,4.333
		C5.793,4.329,5.736,4.345,5.71,4.373c-0.12,0.135-0.249,0.268-0.343,0.42c-0.211,0.341-0.403,0.693-0.61,1.052
		c0.064,0.05,0.126,0.102,0.191,0.15c0.246,0.184,0.495,0.362,0.735,0.552c0.081,0.064,0.153,0.07,0.247,0.046
		C6.508,6.451,7.083,6.3,7.665,6.176C8.01,6.103,8.372,6.102,8.714,6.015c0.377-0.096,0.739-0.25,1.107-0.383
		c0.174-0.063,0.348-0.13,0.516-0.21c0.062-0.03,0.125-0.089,0.156-0.151c0.158-0.331,0.3-0.668,0.456-1
		c0.137-0.283,0.447-0.374,0.696-0.209c0.16,0.108,0.253,0.312,0.191,0.497c-0.17,0.498-0.349,0.992-0.529,1.487
		c-0.05,0.139-0.171,0.209-0.301,0.268c-0.417,0.186-0.833,0.375-1.254,0.557c-0.092,0.04-0.116,0.088-0.102,0.184
		C9.771,7.895,9.886,8.736,10,9.578c0.018,0.123,0.039,0.248,0.051,0.371c0.046,0.586,0.328,1.096,0.52,1.633
		c0.093,0.262,0.119,0.498,0.044,0.766c-0.17,0.588-0.314,1.184-0.467,1.775c-0.06,0.225-0.186,0.391-0.414,0.459
		c-0.407,0.117-0.777-0.219-0.697-0.635c0.092-0.49,0.183-0.982,0.296-1.471c0.056-0.24,0.04-0.447-0.08-0.664
		c-0.137-0.24-0.24-0.496-0.37-0.77c-0.024,0.059-0.044,0.098-0.06,0.139c-0.401,0.979-0.804,1.953-1.197,2.934
		c-0.094,0.234-0.212,0.432-0.462,0.52C7.085,14.635,7.008,14.635,6.93,14.635z M5.244,3.068c0,0.048-0.003,0.096,0.001,0.143
		c0.04,0.486,0.468,0.775,0.932,0.63C6.731,3.667,7.13,2.979,7.008,2.41C6.905,1.928,6.481,1.704,6.023,1.886
		C5.576,2.064,5.233,2.58,5.244,3.068z"/>
	<path fill-rule="evenodd" clip-rule="evenodd" fill="#627D53" d="M8.013,5.953C7.399,5.949,6.901,5.455,6.905,4.855
		c0.004-0.62,0.497-1.128,1.086-1.121c0.64,0.007,1.139,0.492,1.135,1.099C9.119,5.466,8.633,5.957,8.013,5.953z"/>
	<path fill-rule="evenodd" clip-rule="evenodd" fill="#627D53" d="M10.839,3.365c-0.235,0.001-0.421-0.182-0.421-0.416
		c0-0.233,0.186-0.418,0.419-0.418c0.231,0,0.418,0.187,0.421,0.417C11.258,3.179,11.07,3.365,10.839,3.365z"/>
</g>
</svg>
