<?xml version="1.0" encoding="utf-8"?>
<!-- Generator: Adobe Illustrator 16.0.0, SVG Export Plug-In . SVG Version: 6.00 Build 0)  -->
<!DOCTYPE svg PUBLIC "-//W3C//DTD SVG 1.1//EN" "http://www.w3.org/Graphics/SVG/1.1/DTD/svg11.dtd">
<svg version="1.1" id="Layer_1" xmlns="http://www.w3.org/2000/svg" xmlns:xlink="http://www.w3.org/1999/xlink" x="0px" y="0px"
	 width="16px" height="16px" viewBox="0 0 16 16" enable-background="new 0 0 16 16" xml:space="preserve">
<g>
	<g>
		<path fill="#627D53" d="M6.461,7.653C6.374,8.141,6.329,8.633,6.195,9.1c-0.382,1.334-1.164,2.435-2.118,3.42
			c-0.249,0.258-0.591,0.256-0.817,0.026c-0.23-0.231-0.221-0.55,0.03-0.817c0.746-0.801,1.384-1.67,1.765-2.707
			c0.257-0.702,0.31-1.422,0.198-2.209C4.934,7.146,4.76,7.513,4.606,7.89C4.553,8.019,4.521,8.156,4.463,8.283
			c-0.128,0.279-0.424,0.4-0.699,0.294C3.483,8.471,3.323,8.189,3.411,7.903c0.322-1.05,0.879-1.938,1.813-2.556
			c0.308-0.204,0.633-0.138,0.841,0.175c0.419,0.629,0.93,1.154,1.63,1.479c0.301,0.14,0.403,0.469,0.272,0.754
			c-0.13,0.281-0.454,0.419-0.75,0.291C6.955,7.931,6.708,7.782,6.461,7.653z"/>
		<path fill="#627D53" d="M6.684,8.646C7.25,9.75,7.81,10.833,8.359,11.922c0.137,0.271,0.031,0.576-0.209,0.702
			c-0.273,0.144-0.587,0.054-0.737-0.233c-0.39-0.75-0.771-1.506-1.15-2.262C6.235,10.072,6.221,9.988,6.24,9.932
			C6.379,9.514,6.527,9.098,6.684,8.646z"/>
		<path fill="#627D53" d="M5.556,3.253c0.483,0,0.882,0.396,0.884,0.88c0,0.482-0.402,0.887-0.881,0.886
			C5.076,5.018,4.674,4.618,4.673,4.137C4.672,3.657,5.074,3.254,5.556,3.253z"/>
	</g>
	<g>
		<path fill="#627D53" d="M12.132,12.781c-0.19-0.072-0.28-0.221-0.337-0.411c-0.209-0.722-0.427-1.44-0.648-2.158
			c-0.031-0.104-0.103-0.196-0.151-0.291c0.262-0.09,0.546-0.188,0.847-0.292c0.014,0.034,0.037,0.081,0.051,0.13
			c0.248,0.817,0.494,1.634,0.738,2.452c0.077,0.255-0.021,0.453-0.271,0.555c-0.008,0.004-0.014,0.01-0.021,0.016
			C12.27,12.781,12.2,12.781,12.132,12.781z"/>
		<path fill="#627D53" d="M11.311,3.219c0.037,0.013,0.074,0.026,0.111,0.038c0.43,0.13,0.701,0.561,0.633,1.006
			c-0.068,0.432-0.457,0.765-0.894,0.763c-0.438-0.001-0.837-0.341-0.894-0.764c-0.063-0.462,0.205-0.879,0.642-1.008
			c0.034-0.01,0.069-0.023,0.103-0.035C11.111,3.219,11.211,3.219,11.311,3.219z"/>
		<path fill="#627D53" d="M10.163,6.166c-0.199,0.116-0.386,0.19-0.479,0.405c-0.139,0.315-0.31,0.617-0.469,0.923
			C9.118,7.681,8.902,7.719,8.766,7.577C8.686,7.496,8.66,7.382,8.713,7.276c0.206-0.407,0.415-0.813,0.626-1.219
			c0.015-0.024,0.05-0.049,0.077-0.051c0.24-0.025,0.415-0.153,0.561-0.334c0.031-0.037,0.067-0.073,0.109-0.098
			c0.148-0.093,0.303-0.184,0.456-0.271c0.224-0.127,0.446-0.111,0.665,0.013c0.023,0.014,0.04,0.052,0.045,0.08
			c0.02,0.083,0.021,0.167,0.044,0.248c0.039,0.135,0.104,0.249,0.242,0.314C11.624,6,11.706,6.055,11.779,6.117
			c0.128,0.109,0.121,0.257,0.096,0.404c-0.025,0.141-0.098,0.246-0.242,0.291c-0.063,0.019-0.09,0.001-0.111-0.057
			c-0.119-0.307-0.236-0.615-0.359-0.92c-0.063-0.153-0.189-0.231-0.352-0.228c-0.148,0.002-0.287,0.089-0.326,0.232
			c-0.022,0.082-0.028,0.184,0,0.261c0.179,0.48,0.363,0.958,0.563,1.431c0.041,0.102,0.043,0.188,0.028,0.29
			c-0.031,0.228-0.05,0.457-0.065,0.687c-0.002,0.042,0.022,0.098,0.053,0.129c0.256,0.276,0.516,0.549,0.785,0.838
			c-0.888,0.424-1.789,0.534-2.744,0.268c0.026-0.135,0.049-0.258,0.08-0.381c0.129-0.53,0.283-1.05,0.574-1.52
			c0.208-0.337,0.36-0.696,0.401-1.093C10.18,6.564,10.163,6.375,10.163,6.166z"/>
		<path fill="#627D53" d="M10.773,9.967c0.043,0.158,0.022,0.303-0.061,0.446c-0.402,0.696-0.8,1.397-1.199,2.099
			c-0.117,0.205-0.328,0.288-0.529,0.211c-0.244-0.095-0.344-0.375-0.211-0.611c0.346-0.607,0.693-1.215,1.041-1.822
			c0.049-0.09,0.098-0.184,0.146-0.273C10.223,9.999,10.494,9.982,10.773,9.967z"/>
		<path fill="#627D53" d="M10.816,5.696c0.123-0.001,0.217,0.063,0.269,0.195c0.156,0.397,0.315,0.796,0.467,1.197
			c0.029,0.076,0.074,0.12,0.148,0.151c0.341,0.149,0.681,0.304,1.021,0.456c0.113,0.05,0.182,0.132,0.186,0.257
			c0.005,0.104-0.045,0.186-0.135,0.24c-0.08,0.049-0.166,0.051-0.25,0.014c-0.418-0.186-0.834-0.37-1.25-0.563
			c-0.061-0.028-0.119-0.093-0.146-0.158c-0.19-0.465-0.373-0.935-0.556-1.403C10.496,5.889,10.62,5.7,10.816,5.696z"/>
		<path fill="#627D53" d="M10.175,3.978c0,0.101,0,0.193,0,0.287c0,0.015,0.002,0.034-0.005,0.045
			c-0.117,0.166-0.095,0.36-0.111,0.547c-0.017,0.183-0.02,0.368-0.061,0.544c-0.077,0.326-0.396,0.545-0.71,0.505
			C9.223,5.897,9.162,5.862,9.1,5.838c0.002-0.012,0.004-0.025,0.006-0.037C9.13,5.796,9.154,5.789,9.18,5.788
			c0.131-0.01,0.232-0.074,0.271-0.194c0.043-0.138,0.07-0.282,0.086-0.426C9.559,4.959,9.542,4.744,9.58,4.539
			C9.637,4.242,9.882,4.022,10.175,3.978z"/>
	</g>
</g>
</svg>
