<?xml version="1.0" encoding="utf-8"?>
<!-- Generator: Adobe Illustrator 16.0.0, SVG Export Plug-In . SVG Version: 6.00 Build 0)  -->
<!DOCTYPE svg PUBLIC "-//W3C//DTD SVG 1.1//EN" "http://www.w3.org/Graphics/SVG/1.1/DTD/svg11.dtd">
<svg version="1.1" id="Layer_1" xmlns="http://www.w3.org/2000/svg" xmlns:xlink="http://www.w3.org/1999/xlink" x="0px" y="0px"
	 width="16px" height="16px" viewBox="0 0 16 16" enable-background="new 0 0 16 16" xml:space="preserve">
<g>
	<path fill="#627D53" d="M10.199,10.721C9.979,10.68,9.766,10.639,9.553,10.6c-0.414-0.078-0.828-0.156-1.244-0.234
		c-0.049-0.01-0.086-0.006-0.129,0.029c-1.017,0.83-2.036,1.655-3.054,2.484C4.87,13.085,4.616,13.294,4.36,13.5
		c-0.117,0.094-0.253,0.131-0.402,0.109c-0.358-0.047-0.417-0.471-0.255-0.678c0.05-0.064,0.117-0.115,0.174-0.173
		c0.683-0.69,1.364-1.382,2.046-2.071c0.34-0.346,0.68-0.688,1.021-1.033C6.979,9.62,6.989,9.59,6.977,9.538
		C6.886,9.18,6.803,8.818,6.712,8.46C6.696,8.399,6.664,8.335,6.623,8.289C6.168,7.776,5.938,7.16,5.789,6.506
		C5.681,6.029,5.612,5.546,5.575,5.06C5.558,4.849,5.546,4.638,5.531,4.427C5.529,4.405,5.526,4.382,5.523,4.354
		C5.337,4.373,5.158,4.391,4.974,4.41C4.946,4.261,4.919,4.118,4.891,3.966C5.102,3.943,5.305,3.922,5.512,3.9
		c0.002-0.031,0.004-0.058,0.006-0.086C5.534,3.593,5.646,3.493,5.866,3.5c0.162,0.005,0.257,0.09,0.296,0.283
		C6.173,3.84,6.196,3.848,6.245,3.846c0.54-0.018,1.08-0.046,1.62-0.045c0.598,0,1.197,0.027,1.795,0.042
		c0.054,0.001,0.107,0,0.171,0c0.015-0.128,0.042-0.263,0.174-0.326c0.067-0.032,0.154-0.042,0.229-0.034
		c0.189,0.02,0.267,0.14,0.279,0.418c0.194,0.023,0.393,0.045,0.598,0.068c-0.026,0.149-0.053,0.293-0.082,0.443
		c-0.184-0.02-0.361-0.04-0.549-0.06c-0.015,0.146-0.026,0.289-0.041,0.431c-0.104,0.967-0.256,1.924-0.662,2.82
		C9.705,7.764,9.613,7.916,9.55,8.079C9.512,8.178,9.502,8.291,9.484,8.398C9.443,8.624,9.408,8.852,9.372,9.077
		C9.37,9.087,9.37,9.096,9.37,9.111c0.211,0.076,0.421,0.152,0.632,0.229c0.355,0.134,0.711,0.265,1.066,0.396
		c0.021,0.009,0.043,0.018,0.063,0.027c0.197,0.088,0.263,0.195,0.231,0.406c-0.067,0.457-0.139,0.913-0.211,1.369
		c-0.082,0.507-0.164,1.014-0.25,1.52c-0.023,0.145-0.07,0.282-0.159,0.401c-0.109,0.149-0.271,0.166-0.438,0.147
		c-0.146-0.014-0.228-0.117-0.275-0.25c-0.063-0.18-0.055-0.363-0.035-0.551c0.029-0.313,0.061-0.631,0.093-0.943
		c0.03-0.313,0.062-0.623,0.091-0.934C10.186,10.865,10.191,10.797,10.199,10.721z M6.247,4.299c0.004,0.04,0.006,0.07,0.011,0.099
		c0.025,0.167,0.052,0.333,0.079,0.5C6.409,5.361,6.49,5.823,6.62,6.273c0.104,0.362,0.236,0.712,0.47,1.015
		c0.321,0.415,0.824,0.565,1.322,0.397c0.3-0.101,0.512-0.306,0.672-0.57c0.232-0.379,0.354-0.8,0.438-1.231
		c0.08-0.417,0.142-0.837,0.209-1.255c0.02-0.107,0.028-0.216,0.043-0.33C8.594,4.23,7.424,4.228,6.247,4.299z"/>
	<path fill="#627D53" d="M3.563,6.638C3.231,6.639,2.97,6.42,2.911,6.107C2.733,5.169,2.556,4.23,2.378,3.292
		C2.304,2.9,2.51,2.583,2.898,2.501c0.2-0.042,0.4-0.08,0.602-0.108c0.369-0.052,0.669,0.175,0.737,0.542
		C4.402,3.82,4.572,4.706,4.738,5.592C4.766,5.736,4.807,5.881,4.767,6.03C4.695,6.297,4.523,6.464,4.253,6.521
		C4.051,6.563,3.848,6.596,3.645,6.632C3.613,6.638,3.579,6.637,3.563,6.638z"/>
	<path fill="#627D53" d="M11.225,5.832c0.025-0.14,0.062-0.333,0.098-0.526c0.123-0.66,0.25-1.321,0.373-1.981
		c0.025-0.136,0.05-0.271,0.078-0.407c0.082-0.373,0.381-0.582,0.759-0.523c0.188,0.03,0.377,0.065,0.565,0.104
		c0.393,0.082,0.601,0.399,0.524,0.793c-0.173,0.918-0.349,1.836-0.519,2.754c-0.054,0.283-0.193,0.484-0.477,0.57
		c-0.13,0.04-0.259,0.021-0.391-0.005C12.059,6.574,11.877,6.55,11.7,6.508C11.419,6.441,11.221,6.176,11.225,5.832z"/>
	<path fill="#627D53" d="M7.098,6.393C7.1,5.895,7.507,5.492,8.007,5.494C8.502,5.497,8.904,5.903,8.902,6.4
		S8.494,7.301,7.994,7.299C7.5,7.296,7.097,6.89,7.098,6.393z"/>
</g>
</svg>
