<?xml version="1.0" encoding="utf-8"?>
<!-- Generator: Adobe Illustrator 16.0.0, SVG Export Plug-In . SVG Version: 6.00 Build 0)  -->
<!DOCTYPE svg PUBLIC "-//W3C//DTD SVG 1.1//EN" "http://www.w3.org/Graphics/SVG/1.1/DTD/svg11.dtd">
<svg version="1.1" id="Layer_1" xmlns="http://www.w3.org/2000/svg" xmlns:xlink="http://www.w3.org/1999/xlink" x="0px" y="0px"
	 width="16px" height="16px" viewBox="0 0 16 16" enable-background="new 0 0 16 16" xml:space="preserve">
<g>
	<path fill="#627D53" d="M9.664,9.768C9.367,8.686,9.07,7.602,8.775,6.519c-0.42-1.541-0.839-3.083-1.258-4.624
		C7.502,1.839,7.496,1.779,7.496,1.722c0-0.09,0.05-0.134,0.139-0.116c0.063,0.013,0.127,0.039,0.185,0.07
		c0.259,0.142,0.478,0.336,0.683,0.546C9.029,2.758,9.49,3.349,9.934,3.954c0.892,1.215,1.713,2.473,2.437,3.795
		c0.229,0.423,0.448,0.853,0.608,1.308c0.008,0.02,0.013,0.041,0.021,0.061c0.108,0.27,0.062,0.517-0.095,0.758
		c-0.23,0.363-0.539,0.654-0.877,0.918c-0.381,0.297-0.793,0.545-1.219,0.771c-0.029,0.016-0.059,0.031-0.086,0.063
		c0.08-0.007,0.16-0.012,0.239-0.021c0.491-0.049,0.983-0.099,1.476-0.149c0.049-0.005,0.08,0.015,0.076,0.054
		c-0.01,0.071-0.017,0.157-0.06,0.207c-0.095,0.108-0.202,0.211-0.321,0.293c-0.527,0.364-1.109,0.612-1.717,0.811
		c-0.745,0.242-1.512,0.388-2.29,0.466c-0.767,0.078-1.535,0.075-2.303,0.05c-0.553-0.02-1.104-0.063-1.648-0.165
		c-0.313-0.06-0.624-0.135-0.905-0.293c-0.08-0.046-0.153-0.104-0.218-0.171c-0.042-0.041-0.071-0.102-0.09-0.156
		c-0.041-0.113-0.016-0.145,0.105-0.156c0.582-0.059,1.164-0.117,1.745-0.174c0.502-0.051,1.005-0.1,1.507-0.148
		c0.486-0.049,0.973-0.098,1.459-0.146c0.01,0,0.02-0.005,0.045-0.011c-0.256-0.474-0.51-0.94-0.776-1.433c0.091,0,0.166,0,0.241,0
		c0.197-0.002,0.394-0.002,0.59-0.008c0.051-0.002,0.074,0.017,0.094,0.062c0.183,0.413,0.369,0.823,0.549,1.237
		c0.024,0.056,0.049,0.078,0.112,0.065c0.079-0.017,0.162-0.019,0.253-0.026c-0.057-0.178-0.113-0.346-0.17-0.515
		c-0.109-0.323-0.219-0.647-0.326-0.975c-0.02-0.06-0.048-0.074-0.108-0.074c-0.601,0.013-1.202,0.021-1.803,0.032
		c-0.153,0.003-0.285-0.051-0.385-0.161C5.659,9.643,5.23,9.154,4.862,8.618C4.702,8.385,4.58,8.132,4.556,7.841
		c-0.027-0.333,0.122-0.58,0.429-0.719c0.234-0.105,0.467-0.128,0.709-0.023C5.945,7.206,6.2,7.306,6.45,7.416
		c0.333,0.147,0.67,0.124,1.005,0.02c0.273-0.085,0.542-0.187,0.812-0.28C8.284,7.15,8.301,7.142,8.324,7.135
		c0.008,0.021,0.016,0.04,0.021,0.059c0.043,0.162,0.085,0.324,0.13,0.485c0.011,0.038,0.009,0.063-0.032,0.083
		c-0.46,0.216-0.926,0.416-1.427,0.513C6.875,8.302,6.725,8.28,6.58,8.28c-0.025,0-0.051-0.006-0.095-0.012
		c0.075,0.105,0.14,0.195,0.204,0.285C6.794,8.7,6.898,8.85,7.008,8.992C7.034,9.025,7.08,9.059,7.12,9.063
		c0.359,0.056,0.72,0.104,1.081,0.152C8.327,9.232,8.455,9.24,8.579,9.268C8.854,9.33,9.025,9.51,9.096,9.777
		c0.135,0.508,0.262,1.018,0.393,1.525c0.031,0.127,0.063,0.254,0.099,0.379c0.006,0.021,0.033,0.055,0.05,0.053
		c0.18-0.014,0.357-0.032,0.547-0.051c-0.113-0.422-0.227-0.834-0.336-1.236"/>
	<path fill="#627D53" d="M5.999,5.821C6,6.28,5.625,6.656,5.168,6.655c-0.459,0-0.832-0.371-0.833-0.831
		C4.333,5.362,4.703,4.989,5.161,4.987C5.625,4.985,5.998,5.356,5.999,5.821z"/>
</g>
</svg>
