<?xml version="1.0" encoding="utf-8"?>
<!-- Generator: Adobe Illustrator 16.0.0, SVG Export Plug-In . SVG Version: 6.00 Build 0)  -->
<!DOCTYPE svg PUBLIC "-//W3C//DTD SVG 1.1//EN" "http://www.w3.org/Graphics/SVG/1.1/DTD/svg11.dtd">
<svg version="1.1" id="Layer_1" xmlns="http://www.w3.org/2000/svg" xmlns:xlink="http://www.w3.org/1999/xlink" x="0px" y="0px"
	 width="16px" height="16px" viewBox="0 0 16 16" enable-background="new 0 0 16 16" xml:space="preserve">
<g>
	<path fill="#627D53" d="M1.277,12.1c0.126-0.176,0.237-0.365,0.382-0.522c0.458-0.496,0.933-0.979,1.394-1.476
		c0.101-0.106,0.189-0.229,0.259-0.358c0.849-1.548,1.693-3.099,2.538-4.65c0.419-0.771,0.999-0.876,1.715-0.292
		C7.432,4.808,7.318,4.814,7.204,4.82C7.202,4.836,7.199,4.853,7.196,4.869C7.83,5.007,8.459,5.231,9.098,5.257
		c0.508,0.021,1.024-0.201,1.537-0.31c0.244-0.052,0.512-0.058,0.643,0.177c0.093,0.161,0.144,0.417,0.076,0.573
		C11.286,5.854,11.068,6,10.889,6.049c-0.522,0.145-1.058,0.293-1.597,0.333C8.88,6.413,8.455,6.289,8.039,6.216
		c-0.34-0.061-0.675-0.148-1.035-0.164c0.654,0.293,1.309,0.587,1.967,0.882C8.539,7.115,8.098,7.301,7.59,7.516
		C7.523,7.429,7.4,7.269,7.251,7.076C7.033,7.453,6.822,7.817,6.6,8.203c0.561,0.352,1.108,0.709,1.672,1.039
		c0.348,0.201,0.5,0.463,0.492,0.871c-0.011,0.676,0.031,1.352,0.041,2.029c0.006,0.471-0.266,0.782-0.667,0.791
		c-0.411,0.01-0.7-0.314-0.704-0.789c-0.005-0.539-0.001-1.074-0.019-1.613c-0.003-0.1-0.062-0.236-0.14-0.289
		c-0.666-0.43-1.342-0.844-2.052-1.287c-0.16,0.322-0.327,0.623-0.463,0.938c-0.233,0.545-0.551,1.023-0.984,1.438
		c-0.417,0.397-0.798,0.834-1.191,1.256c-0.495,0.529-0.979,0.461-1.307-0.188C1.277,12.299,1.277,12.199,1.277,12.1z"/>
	<path fill="#627D53" d="M14.723,12.398c-0.24,0.477-0.594,0.662-0.961,0.465c-0.146-0.078-0.285-0.227-0.355-0.377
		c-0.393-0.822-0.778-1.648-1.133-2.488c-0.09-0.213-0.062-0.473-0.09-0.742c-0.266,0.137-0.566,0.289-0.859,0.453
		c-0.042,0.023-0.063,0.115-0.065,0.178c-0.042,0.764-0.082,1.529-0.116,2.293c-0.021,0.463-0.295,0.766-0.703,0.756
		c-0.404-0.012-0.685-0.373-0.66-0.83c0.041-0.795,0.068-1.59,0.107-2.385C9.893,9.553,9.908,9.385,9.93,9.217
		c0.032-0.273,0.188-0.449,0.447-0.539c0.354-0.123,0.71-0.246,1.066-0.369c0.506-0.176,0.695-0.52,0.57-1.046
		c-0.078-0.337-0.164-0.673-0.242-1.01c-0.018-0.075-0.035-0.158-0.021-0.231c0.052-0.292,0.117-0.582,0.169-0.834
		c0.157,0.149,0.371,0.339,0.572,0.543c0.432,0.439,0.852,0.893,1.29,1.327c0.215,0.213,0.275,0.45,0.211,0.732
		c-0.122,0.531-0.251,1.06-0.362,1.593C13.604,9.5,13.604,9.643,13.65,9.75c0.349,0.787,0.715,1.568,1.072,2.35
		C14.723,12.199,14.723,12.299,14.723,12.398z"/>
	<path fill="#627D53" d="M8.481,3.729c-0.644,0.61-1.372,0.395-1.698-0.08C6.444,3.157,6.59,2.481,7.101,2.169
		C7.71,1.798,8.312,2.04,8.705,2.829C9.001,2.524,9.363,2.355,9.77,2.491c0.237,0.078,0.486,0.244,0.637,0.442
		C10.762,3.409,10.579,4.1,10.064,4.4C9.467,4.749,8.87,4.5,8.481,3.729z"/>
	<path fill="#627D53" d="M11.559,6.326c0,0.348,0.006,0.715,0,1.082c-0.009,0.26-0.168,0.421-0.399,0.502
		c-0.813,0.284-1.624,0.564-2.44,0.836C8.357,8.865,8.072,8.725,7.956,8.394c-0.11-0.315,0.047-0.592,0.42-0.724
		c0.616-0.217,1.233-0.426,1.849-0.645c0.075-0.026,0.196-0.101,0.191-0.141c-0.035-0.289,0.184-0.28,0.355-0.33
		C11.023,6.482,11.275,6.408,11.559,6.326z"/>
</g>
</svg>
